<?xml version="1.0" encoding="UTF-8"?>
<svg xmlns="http://www.w3.org/2000/svg" xmlns:xlink="http://www.w3.org/1999/xlink" version="1.2" >
<font id="Corporate S Light">
<font-face  font-family="Corporate S Light" units-per-em="2048" ascent="1591" descent="-457" font-style="normal" font-weight="400" font-stretch="normal" cap-height="1365" x-height="969" underline-position="-198" underline-thickness="100" />
<missing-glyph  horiz-adv-x="512" d="M51 0 L51 1365 L461 1365 L461 0 L51 0 Z M410 51 L410 1314 L102 1314 L102 51 L410 51 Z " />
<glyph glyph-name="space" unicode="&#x20;" horiz-adv-x="512" d="" />
<glyph glyph-name="exclam" unicode="&#x21;" horiz-adv-x="508" d="M195 1343 L313 1343 L290 361 L208 361 L195 1343 Z M254 187 Q297 187 328 156 Q358 125 358 82 Q358 37 326 7 Q295 -23 253 -23 Q209 -23 179 8 Q148 38 148 81 Q148 125 178 155 Q209 187 254 187 Z " />
<glyph glyph-name="quotedbl" unicode="&#x22;" horiz-adv-x="619" d="M224 818 L134 818 L118 1365 L240 1365 L224 818 Z M486 818 L396 818 L381 1365 L502 1365 L486 818 Z " />
<glyph glyph-name="numbersign" unicode="&#x23;" horiz-adv-x="1229" d="M1099 537 L1084 443 L851 443 L781 0 L675 0 L745 443 L422 443 L352 0 L246 0 L316 443 L83 443 L98 537 L331 537 L381 853 L148 853 L163 947 L396 947 L462 1365 L568 1365 L502 947 L825 947 L891 1365 L997 1365 L931 947 L1164 947 L1149 853 L916 853 L866 537 L1099 537 Z M810 853 L487 853 L437 537 L760 537 L810 853 Z " />
<glyph glyph-name="dollar" unicode="&#x24;" horiz-adv-x="1065" d="M566 1282 L566 761 Q738 695 801 653 Q964 545 964 355 Q964 215 872 112 Q765 -8 566 -21 L566 -159 L498 -159 L498 -22 Q322 -11 222 76 Q132 155 108 276 Q100 312 97 370 L212 370 Q222 234 304 158 Q371 94 498 83 L498 658 L485 663 Q348 717 310 736 Q272 755 227 793 Q130 876 130 1027 Q130 1159 211 1253 Q313 1373 498 1386 L498 1513 L566 1513 L566 1387 Q701 1378 790 1316 Q901 1239 917 1090 L794 1090 Q783 1181 714 1231 Q656 1274 566 1282 Z M498 1282 Q398 1271 339 1226 Q246 1156 246 1037 Q246 915 356 849 Q389 830 498 787 L498 1282 Z M566 84 Q678 94 748 148 Q842 220 842 341 Q842 474 739 551 Q696 582 566 633 L566 84 Z " />
<glyph glyph-name="percent" unicode="&#x25;" horiz-adv-x="1077" d="M892 1365 L991 1365 L185 0 L87 0 L892 1365 Z M785 644 Q892 644 962 550 Q1034 455 1034 316 Q1034 162 948 66 Q880 -11 783 -11 Q678 -11 608 82 Q536 178 536 316 Q536 471 621 567 Q690 644 785 644 Z M785 553 Q719 553 677 479 Q639 412 639 316 Q639 211 683 144 Q725 80 784 80 Q852 80 894 154 Q932 221 932 316 Q932 421 888 490 Q847 553 785 553 Z M292 1376 Q399 1376 469 1283 Q541 1188 541 1048 Q541 893 456 798 Q387 721 290 721 Q186 721 115 814 Q43 909 43 1048 Q43 1204 128 1299 Q197 1376 292 1376 Z M292 1285 Q225 1285 183 1211 Q146 1144 146 1048 Q146 944 190 876 Q231 812 290 812 Q358 812 401 886 Q438 952 438 1048 Q438 1154 394 1222 Q353 1285 292 1285 Z " />
<glyph glyph-name="ampersand" unicode="&#x26;" horiz-adv-x="1221" d="M900 611 L997 611 Q998 496 983 413 Q967 322 914 237 L1089 0 L955 0 L849 142 Q713 -10 501 -10 Q323 -10 215 84 Q100 184 100 347 Q100 503 215 623 Q276 686 385 766 Q309 866 280 909 Q221 998 221 1092 Q221 1206 301 1279 Q380 1351 508 1351 Q617 1351 686 1297 Q769 1231 769 1106 Q769 983 681 878 Q630 818 539 746 L846 329 Q895 423 900 611 Z M475 832 Q559 897 601 950 Q660 1025 660 1110 Q660 1176 615 1217 Q572 1258 503 1258 Q437 1258 389 1222 Q331 1178 331 1103 Q331 1031 388 951 Q400 934 475 832 Z M450 678 Q347 603 303 557 Q217 468 217 349 Q217 241 293 167 Q377 83 507 83 Q673 83 786 228 L450 678 Z " />
<glyph glyph-name="quotesingle" unicode="&#x27;" horiz-adv-x="512" d="M301 818 L211 818 L195 1365 L317 1365 L301 818 Z " />
<glyph glyph-name="parenleft" unicode="&#x28;" horiz-adv-x="558" d="M405 1377 L490 1377 Q270 1072 270 483 Q270 131 354 -136 Q404 -297 490 -409 L405 -409 Q312 -306 261 -165 Q157 116 157 483 Q157 1086 405 1377 Z " />
<glyph glyph-name="parenright" unicode="&#x29;" horiz-adv-x="558" d="M153 -409 L68 -409 Q154 -296 204 -136 Q288 131 288 483 Q288 1071 68 1377 L153 1377 Q401 1086 401 483 Q401 116 297 -165 Q246 -306 153 -409 Z " />
<glyph glyph-name="asterisk" unicode="&#x2a;" horiz-adv-x="1024" d="M466 1077 L466 1331 L558 1331 L558 1077 L800 1155 L828 1067 L586 989 L736 783 L661 729 L512 935 L363 729 L288 783 L438 989 L196 1068 L224 1155 L466 1077 Z " />
<glyph glyph-name="plus" unicode="&#x2b;" horiz-adv-x="1065" d="M575 728 L954 728 L954 650 L575 650 L575 256 L492 256 L492 650 L112 650 L112 728 L492 728 L492 1121 L575 1121 L575 728 Z " />
<glyph glyph-name="comma" unicode="&#x2c;" horiz-adv-x="480" d="M208 -244 L79 -244 Q215 -116 239 -3 Q226 -5 219 -5 Q179 -5 149 27 Q122 57 122 97 Q122 147 159 179 Q190 206 233 206 Q283 206 317 171 Q353 134 353 68 Q353 -75 208 -244 Z " />
<glyph glyph-name="hyphen" unicode="&#x2d;" horiz-adv-x="571" d="M0 560 L571 560 L571 471 L0 471 L0 560 Z " />
<glyph glyph-name="period" unicode="&#x2e;" horiz-adv-x="526" d="M263 187 Q306 187 337 156 Q367 125 367 82 Q367 37 335 7 Q304 -23 262 -23 Q218 -23 188 8 Q157 38 157 81 Q157 125 187 155 Q218 187 263 187 Z " />
<glyph glyph-name="slash" unicode="&#x2f;" horiz-adv-x="1177" d="M134 -273 L916 1365 L1043 1365 L261 -273 L134 -273 Z " />
<glyph glyph-name="zero" unicode="0" horiz-adv-x="1065" d="M538 1348 Q646 1348 735 1286 Q850 1206 908 1013 Q954 860 954 665 Q954 315 810 117 Q712 -17 533 -17 Q354 -17 256 117 Q112 315 112 661 Q112 1021 256 1214 Q357 1348 538 1348 Z M537 1250 Q389 1250 319 1117 Q230 947 230 662 Q230 385 319 214 Q389 81 533 81 Q678 81 747 214 Q836 386 836 665 Q836 951 747 1117 Q675 1250 537 1250 Z " />
<glyph glyph-name="one" unicode="1" horiz-adv-x="1065" d="M249 1066 L249 1148 Q372 1155 433 1196 Q496 1238 521 1343 L600 1343 L600 0 L491 0 L491 1066 L249 1066 Z " />
<glyph glyph-name="two" unicode="2" horiz-adv-x="1065" d="M290 943 L180 943 Q183 1120 255 1215 Q357 1348 560 1348 Q699 1348 792 1280 Q911 1194 911 1036 Q911 921 822 782 Q802 752 502 348 Q358 155 318 100 L934 100 L934 0 L177 0 L177 87 L219 143 L340 308 L480 498 Q686 777 721 829 Q793 937 793 1035 Q793 1137 721 1194 Q654 1246 554 1246 Q307 1246 290 943 Z " />
<glyph glyph-name="three" unicode="3" horiz-adv-x="1065" d="M268 995 L162 995 Q171 1148 244 1231 Q348 1348 529 1348 Q715 1348 814 1233 Q886 1149 886 1025 Q886 820 690 729 Q936 641 936 389 Q936 249 864 143 Q753 -18 524 -18 Q276 -18 175 148 Q122 236 122 350 Q122 357 123 373 L226 373 Q230 249 284 181 Q361 85 516 85 Q660 85 740 166 Q817 244 817 381 Q817 576 654 642 Q596 666 507 666 Q482 666 452 663 L452 771 Q491 767 507 767 Q603 767 671 814 Q767 880 767 1017 Q767 1114 711 1175 Q646 1246 524 1246 Q302 1246 268 995 Z " />
<glyph glyph-name="four" unicode="4" horiz-adv-x="1065" d="M743 442 L973 442 L973 338 L746 338 L746 -11 L631 -11 L631 338 L86 338 L86 424 L637 1343 L743 1343 L743 442 Z M634 442 L638 1178 L201 442 L634 442 Z " />
<glyph glyph-name="five" unicode="5" horiz-adv-x="1065" d="M281 1331 L873 1331 L855 1231 L378 1231 L320 797 Q412 903 559 903 Q727 903 830 792 Q941 672 941 465 Q941 301 863 172 Q749 -17 526 -17 Q342 -17 240 110 Q178 188 170 303 L276 303 Q292 211 341 157 Q411 81 524 81 Q665 81 743 189 Q824 302 824 462 Q824 616 744 714 Q674 799 553 799 Q387 799 305 642 L199 651 L281 1331 Z " />
<glyph glyph-name="six" unicode="6" horiz-adv-x="1065" d="M678 1365 L805 1365 Q573 1115 410 841 Q492 888 580 888 Q713 888 814 788 Q943 660 943 442 Q943 216 813 85 Q713 -17 562 -17 Q414 -17 313 79 Q176 209 176 439 Q176 836 678 1365 Z M563 790 Q450 790 383 710 Q294 605 294 434 Q294 267 383 161 Q450 81 560 81 Q669 81 736 161 Q825 267 825 435 Q825 606 736 710 Q668 790 563 790 Z " />
<glyph glyph-name="seven" unicode="7" horiz-adv-x="1065" d="M208 1331 L1013 1331 L1013 1231 L355 0 L227 0 L887 1226 L208 1226 L208 1331 Z " />
<glyph glyph-name="eight" unicode="8" horiz-adv-x="1065" d="M348 700 Q296 726 265 759 Q184 849 184 992 Q184 1154 295 1256 Q395 1348 533 1348 Q671 1348 771 1256 Q882 1154 882 992 Q882 781 718 700 Q920 593 920 358 Q920 187 805 82 Q697 -17 533 -17 Q369 -17 261 82 Q146 187 146 359 Q146 592 348 700 Z M536 1250 Q439 1250 375 1188 Q302 1118 302 995 Q302 875 375 804 Q439 742 533 742 Q627 742 691 804 Q764 875 764 996 Q764 1120 691 1188 Q626 1250 536 1250 Z M536 648 Q415 648 340 571 Q265 493 265 364 Q265 235 340 158 Q415 81 533 81 Q651 81 726 158 Q801 235 801 364 Q801 495 726 571 Q650 648 536 648 Z " />
<glyph glyph-name="nine" unicode="9" horiz-adv-x="1065" d="M387 -34 L259 -34 Q490 214 655 490 Q572 443 484 443 Q351 443 251 543 Q122 672 122 889 Q122 1115 251 1246 Q352 1348 503 1348 Q650 1348 751 1252 Q889 1121 889 892 Q889 493 387 -34 Z M505 1250 Q396 1250 329 1170 Q240 1065 240 896 Q240 727 329 621 Q396 541 502 541 Q615 541 682 621 Q771 727 771 897 Q771 1065 682 1170 Q615 1250 505 1250 Z " />
<glyph glyph-name="colon" unicode="&#x3a;" horiz-adv-x="526" d="M263 187 Q306 187 337 156 Q367 125 367 82 Q367 37 335 7 Q304 -23 262 -23 Q218 -23 188 8 Q157 38 157 81 Q157 125 187 155 Q218 187 263 187 Z M263 968 Q306 968 337 936 Q367 906 367 863 Q367 818 335 788 Q305 758 262 758 Q218 758 188 789 Q157 819 157 862 Q157 906 187 936 Q218 968 263 968 Z " />
<glyph glyph-name="semicolon" unicode="&#x3b;" horiz-adv-x="480" d="M229 968 Q272 968 303 936 Q333 906 333 863 Q333 818 301 788 Q270 758 227 758 Q184 758 154 789 Q123 819 123 862 Q123 906 153 936 Q184 968 229 968 Z M208 -244 L79 -244 Q215 -116 239 -3 Q226 -5 219 -5 Q179 -5 149 27 Q122 57 122 97 Q122 147 159 179 Q190 206 233 206 Q283 206 317 171 Q353 134 353 68 Q353 -75 208 -244 Z " />
<glyph glyph-name="less" unicode="&#x3c;" horiz-adv-x="1024" d="M955 1136 L955 1030 L183 687 L955 344 L955 238 L68 640 L68 734 L955 1136 Z " />
<glyph glyph-name="equal" unicode="&#x3d;" horiz-adv-x="1065" d="M112 855 L954 855 L954 772 L112 772 L112 855 Z M112 605 L954 605 L954 522 L112 522 L112 605 Z " />
<glyph glyph-name="greater" unicode="&#x3e;" horiz-adv-x="1024" d="M69 237 L69 344 L841 687 L69 1030 L69 1136 L956 734 L956 639 L69 237 Z " />
<glyph glyph-name="question" unicode="&#x3f;" horiz-adv-x="840" d="M369 187 Q411 187 443 156 Q473 125 473 82 Q473 38 441 7 Q410 -23 368 -23 Q325 -23 294 8 Q263 38 263 81 Q263 125 293 155 Q324 187 369 187 Z M427 368 L316 368 L315 392 L315 493 Q315 607 329 653 Q343 700 375 738 Q405 774 460 830 Q529 900 560 947 Q599 1005 599 1071 Q599 1154 544 1200 Q496 1239 414 1239 Q288 1239 234 1156 Q207 1114 197 1034 L95 1034 Q101 1166 165 1242 Q253 1348 420 1348 Q548 1348 626 1285 Q722 1207 722 1066 Q722 977 673 904 Q637 850 545 761 Q444 665 432 598 Q426 564 426 442 Q426 409 427 368 Z " />
<glyph glyph-name="at" unicode="&#x40;" horiz-adv-x="1502" d="M1029 1012 L1114 1012 L1028 567 Q1015 502 1015 468 Q1015 422 1038 393 Q1062 365 1102 365 Q1177 365 1240 445 Q1346 580 1346 779 Q1346 1028 1181 1174 Q1107 1239 998 1276 Q893 1311 783 1311 Q605 1311 457 1225 Q307 1137 229 976 Q162 840 162 682 Q162 506 244 356 Q409 55 808 55 Q1036 55 1253 160 L1279 84 Q1058 -24 807 -24 Q468 -24 270 176 Q178 269 125 403 Q71 540 71 685 Q71 890 173 1060 Q275 1229 455 1316 Q606 1389 785 1389 Q1057 1389 1234 1234 Q1332 1149 1384 1023 Q1431 910 1431 782 Q1431 541 1286 384 Q1202 292 1098 292 Q1017 292 975 354 Q953 386 950 437 Q854 286 694 286 Q563 286 481 386 Q406 477 406 619 Q406 793 514 920 Q615 1038 766 1038 Q941 1038 1000 864 L1029 1012 Z M768 952 Q647 952 572 841 Q505 742 505 618 Q505 514 551 445 Q604 368 707 368 Q835 368 908 497 Q936 546 951 621 Q963 680 963 728 Q963 830 915 888 Q862 952 768 952 Z " />
<glyph glyph-name="A" unicode="A" horiz-adv-x="1134" d="M522 1377 L612 1377 L1085 0 L963 0 L829 388 L305 388 L170 0 L49 0 L522 1377 Z M795 490 L567 1210 L338 490 L795 490 Z " />
<glyph glyph-name="B" unicode="B" horiz-adv-x="1099" d="M180 1365 L390 1365 Q539 1365 613 1357 Q761 1341 845 1263 Q940 1176 940 1026 Q940 796 713 726 Q817 700 877 658 Q1011 563 1011 376 Q1011 198 898 96 Q814 21 645 7 Q558 0 390 0 L180 0 L180 1365 Z M296 765 L430 765 Q539 765 607 777 Q715 795 768 866 Q818 931 818 1024 Q818 1134 751 1196 Q700 1243 610 1255 Q552 1263 425 1263 L296 1263 L296 765 Z M296 102 L439 102 Q561 102 640 110 Q883 136 883 383 Q883 505 809 578 Q743 644 612 657 Q551 663 437 663 L296 663 L296 102 Z " />
<glyph glyph-name="C" unicode="C" horiz-adv-x="1233" d="M1108 1009 L994 1009 Q927 1283 662 1283 Q476 1283 365 1133 Q243 966 243 683 Q243 376 388 202 Q489 82 664 82 Q866 82 958 246 Q1006 330 1019 449 L1133 449 Q1116 276 1042 166 Q916 -23 671 -23 Q422 -23 275 156 Q116 349 116 680 Q116 1052 309 1245 Q451 1388 663 1388 Q885 1388 1010 1242 Q1087 1152 1108 1009 Z " />
<glyph glyph-name="D" unicode="D" horiz-adv-x="1270" d="M180 1365 L353 1365 Q539 1365 627 1354 Q894 1322 1035 1109 Q1154 929 1154 684 Q1154 406 1010 222 Q862 35 619 10 Q526 0 345 0 L180 0 L180 1365 Z M296 102 L389 102 Q542 102 609 110 Q747 127 852 218 Q1027 371 1027 681 Q1027 955 890 1112 Q786 1231 619 1253 Q541 1263 360 1263 L296 1263 L296 102 Z " />
<glyph glyph-name="E" unicode="E" horiz-adv-x="1004" d="M296 758 L854 758 L854 656 L296 656 L296 102 L904 102 L904 0 L180 0 L180 1365 L895 1365 L895 1263 L296 1263 L296 758 Z " />
<glyph glyph-name="F" unicode="F" horiz-adv-x="977" d="M296 758 L854 758 L854 656 L296 656 L296 0 L180 0 L180 1365 L895 1365 L895 1263 L296 1263 L296 758 Z " />
<glyph glyph-name="G" unicode="G" horiz-adv-x="1260" d="M734 669 L1126 669 L1126 110 Q941 -23 694 -23 Q439 -23 298 130 Q116 327 116 684 Q116 1036 289 1227 Q355 1300 451 1342 Q554 1388 673 1388 Q891 1388 1011 1245 Q1087 1154 1108 1010 L994 1010 Q960 1138 902 1195 Q812 1283 669 1283 Q486 1283 381 1155 Q243 987 243 684 Q243 347 408 185 Q513 82 693 82 Q854 82 1014 170 L1014 558 L734 557 L734 669 Z " />
<glyph glyph-name="H" unicode="H" horiz-adv-x="1267" d="M296 763 L972 763 L972 1365 L1088 1365 L1088 0 L972 0 L972 666 L296 666 L296 0 L180 0 L180 1365 L296 1365 L296 763 Z " />
<glyph glyph-name="I" unicode="I" horiz-adv-x="476" d="M299 0 L177 0 L177 1365 L299 1365 L299 0 Z " />
<glyph glyph-name="J" unicode="J" horiz-adv-x="557" d="M258 1365 L380 1365 L380 276 Q380 142 373 92 Q358 -24 266 -86 Q174 -148 39 -148 Q27 -148 -2 -147 L-2 -44 Q12 -45 18 -45 Q162 -45 219 32 Q251 74 256 154 Q258 189 258 278 L258 1365 Z " />
<glyph glyph-name="K" unicode="K" horiz-adv-x="1099" d="M870 1365 L1017 1365 L444 715 L1077 0 L908 0 L299 713 L870 1365 Z M180 1365 L296 1365 L296 0 L180 0 L180 1365 Z " />
<glyph glyph-name="L" unicode="L" horiz-adv-x="946" d="M180 1365 L302 1365 L302 102 L883 102 L883 0 L180 0 L180 1365 Z " />
<glyph glyph-name="M" unicode="M" horiz-adv-x="1560" d="M180 1365 L368 1365 L780 131 L1192 1365 L1380 1365 L1380 0 L1264 0 L1264 1259 L839 0 L722 0 L296 1259 L296 0 L180 0 L180 1365 Z " />
<glyph glyph-name="N" unicode="N" horiz-adv-x="1285" d="M180 1365 L309 1365 L997 170 L997 1365 L1105 1365 L1105 0 L970 0 L290 1191 L290 0 L180 0 L180 1365 Z " />
<glyph glyph-name="O" unicode="O" horiz-adv-x="1305" d="M653 1388 Q807 1388 931 1298 Q1067 1199 1135 1011 Q1189 863 1189 683 Q1189 371 1033 167 Q958 69 849 19 Q758 -23 654 -23 Q416 -23 272 167 Q116 371 116 692 Q116 896 190 1061 Q269 1239 414 1324 Q522 1388 653 1388 Z M653 1283 Q470 1283 360 1117 Q243 940 243 690 Q243 426 360 248 Q470 82 653 82 Q836 82 945 248 Q1062 427 1062 683 Q1062 943 945 1117 Q833 1283 653 1283 Z " />
<glyph glyph-name="P" unicode="P" horiz-adv-x="1050" d="M180 1365 L374 1365 Q640 1365 746 1330 Q864 1291 931 1179 Q984 1090 984 964 Q984 809 902 711 Q813 603 647 584 Q560 574 402 574 L296 574 L296 0 L180 0 L180 1365 Z M296 676 L398 676 Q571 676 656 694 Q856 735 856 966 Q856 1097 784 1174 Q723 1241 602 1254 Q531 1263 371 1263 L296 1263 L296 676 Z " />
<glyph glyph-name="Q" unicode="Q" horiz-adv-x="1319" d="M1091 256 L1353 -23 L1208 -23 L1028 160 Q878 -23 652 -23 Q497 -23 374 67 Q239 166 170 354 Q116 502 116 683 Q116 995 272 1198 Q417 1388 653 1388 Q888 1388 1033 1198 Q1189 994 1189 684 Q1189 440 1091 256 Z M653 1283 Q470 1283 360 1117 Q243 940 243 690 Q243 426 360 248 Q470 82 653 82 Q836 82 945 248 Q1062 427 1062 683 Q1062 943 945 1117 Q833 1283 653 1283 Z " />
<glyph glyph-name="R" unicode="R" horiz-adv-x="1130" d="M180 1365 L387 1365 Q532 1365 600 1359 Q782 1343 876 1254 Q980 1155 980 991 Q980 720 686 623 L1061 0 L916 0 L549 606 L296 606 L296 0 L180 0 L180 1365 Z M296 708 L392 708 Q522 708 578 713 Q852 739 852 992 Q852 1111 786 1180 Q727 1242 616 1255 Q546 1263 395 1263 L296 1263 L296 708 Z " />
<glyph glyph-name="S" unicode="S" horiz-adv-x="1109" d="M940 1028 L826 1028 Q814 1140 757 1201 Q681 1283 546 1283 Q439 1283 368 1228 Q280 1161 280 1057 Q280 960 366 898 Q411 865 463 841 L615 770 Q837 667 902 585 Q980 489 980 356 Q980 167 832 60 Q717 -23 549 -23 Q324 -23 208 119 Q126 219 116 400 L232 400 Q239 264 301 188 Q342 138 410 110 Q478 82 554 82 Q686 82 772 156 Q858 230 858 349 Q858 456 780 528 Q727 577 576 647 Q356 749 297 791 Q161 889 161 1049 Q161 1204 283 1301 Q392 1388 554 1388 Q769 1388 874 1241 Q933 1159 940 1028 Z " />
<glyph glyph-name="T" unicode="T" horiz-adv-x="921" d="M49 1365 L873 1365 L873 1263 L519 1263 L519 0 L403 0 L403 1263 L49 1263 L49 1365 Z " />
<glyph glyph-name="U" unicode="U" horiz-adv-x="1246" d="M159 1365 L275 1365 L275 555 Q276 400 281 355 Q292 244 345 185 Q398 125 494 99 Q557 82 622 82 Q741 82 831 131 Q917 177 947 263 Q969 326 969 449 L970 555 L970 1365 L1086 1365 L1086 553 Q1086 390 1081 335 Q1070 211 999 125 Q875 -23 622 -23 Q428 -23 307 68 Q204 145 174 273 Q159 335 159 453 L159 553 L159 1365 Z " />
<glyph glyph-name="V" unicode="V" horiz-adv-x="1117" d="M32 1365 L155 1365 L564 138 L966 1365 L1086 1365 L617 -11 L502 -11 L32 1365 Z " />
<glyph glyph-name="W" unicode="W" horiz-adv-x="1528" d="M43 1365 L155 1365 L421 169 L714 1365 L815 1365 L1109 169 L1377 1365 L1489 1365 L1170 -11 L1050 -11 L765 1115 L479 -11 L359 -11 L43 1365 Z " />
<glyph glyph-name="X" unicode="X" horiz-adv-x="1083" d="M68 1365 L204 1365 L544 808 L884 1365 L1020 1365 L611 716 L1040 0 L908 0 L544 604 L181 0 L48 0 L477 716 L68 1365 Z " />
<glyph glyph-name="Y" unicode="Y" horiz-adv-x="1014" d="M32 1365 L169 1365 L509 696 L845 1365 L982 1365 L562 585 L565 0 L449 0 L452 585 L32 1365 Z " />
<glyph glyph-name="Z" unicode="Z" horiz-adv-x="1003" d="M106 1365 L932 1365 L932 1286 L205 102 L921 102 L921 0 L68 0 L68 90 L788 1263 L106 1263 L106 1365 Z " />
<glyph glyph-name="bracketleft" unicode="&#x5b;" horiz-adv-x="557" d="M200 1365 L472 1365 L472 1274 L307 1274 L307 -307 L472 -307 L472 -398 L200 -398 L200 1365 Z " />
<glyph glyph-name="backslash" unicode="&#x5c;" horiz-adv-x="1177" d="M1043 -273 L916 -273 L134 1365 L261 1365 L1043 -273 Z " />
<glyph glyph-name="bracketright" unicode="&#x5d;" horiz-adv-x="557" d="M358 -398 L86 -398 L86 -307 L251 -307 L251 1274 L86 1274 L86 1365 L358 1365 L358 -398 Z " />
<glyph glyph-name="asciicircum" unicode="&#x5e;" horiz-adv-x="1024" d="M185 771 L67 771 L442 1368 L582 1368 L956 771 L837 771 L510 1284 L185 771 Z " />
<glyph glyph-name="underscore" unicode="&#x5f;" horiz-adv-x="1024" d="M0 -148 L1024 -148 L1024 -248 L0 -248 L0 -148 Z " />
<glyph glyph-name="grave" unicode="&#x60;" horiz-adv-x="1024" d="M619 1144 L523 1144 L253 1407 L423 1407 L619 1144 Z " />
<glyph glyph-name="a" unicode="a" horiz-adv-x="949" d="M244 727 L133 727 Q146 842 215 909 Q305 996 478 996 Q623 996 711 927 Q782 871 792 754 Q796 709 796 623 L796 268 L795 190 Q795 80 821 0 L715 0 Q697 59 690 137 Q601 -24 404 -24 Q278 -24 197 41 Q100 118 100 254 Q100 461 328 545 Q468 597 690 631 L690 682 Q690 790 653 834 Q600 899 475 899 Q274 899 244 727 Z M690 546 Q475 504 372 459 Q212 390 212 258 Q212 173 273 119 Q326 73 412 73 Q568 73 643 196 Q690 271 690 436 L690 546 Z " />
<glyph glyph-name="b" unicode="b" horiz-adv-x="1012" d="M154 1371 L260 1371 L260 823 Q363 996 542 996 Q688 996 784 889 Q913 746 913 489 Q913 204 757 61 Q664 -24 531 -24 Q422 -24 345 36 Q302 70 260 139 Q261 120 261 111 Q261 55 243 0 L134 0 Q154 67 154 280 L154 1371 Z M544 899 Q423 899 347 798 Q258 681 258 479 Q258 288 350 165 Q418 73 532 73 Q635 73 697 146 Q802 268 802 488 Q802 697 713 814 Q648 899 544 899 Z " />
<glyph glyph-name="c" unicode="c" horiz-adv-x="955" d="M845 656 L739 656 Q725 752 681 811 Q617 899 501 899 Q379 899 307 806 Q212 683 212 484 Q212 269 319 151 Q391 73 506 73 Q635 73 699 178 Q737 240 745 328 L855 328 Q841 181 771 93 Q680 -24 511 -24 Q350 -24 241 81 Q100 218 100 482 Q100 760 256 903 Q357 996 504 996 Q694 996 787 849 Q834 774 845 656 Z " />
<glyph glyph-name="d" unicode="d" horiz-adv-x="1012" d="M858 1371 L858 280 Q858 65 878 0 L769 0 Q751 56 751 111 Q751 119 752 139 Q711 71 667 36 Q591 -24 481 -24 Q322 -24 224 86 Q99 227 99 476 Q99 723 215 873 Q309 996 471 996 Q664 996 752 823 L752 1371 L858 1371 Z M486 899 Q366 899 301 812 Q210 689 210 482 Q210 280 301 159 Q366 73 482 73 Q598 73 663 159 Q754 281 754 484 Q754 691 663 812 Q597 899 486 899 Z " />
<glyph glyph-name="e" unicode="e" horiz-adv-x="975" d="M874 472 L212 472 Q216 298 274 201 Q351 72 507 72 Q618 72 685 141 Q713 170 746 232 L849 213 Q759 -24 508 -24 Q322 -24 213 104 Q100 235 100 473 Q100 749 242 893 Q343 996 497 996 Q699 996 803 820 Q874 698 874 510 Q874 493 874 472 Z M760 561 Q752 677 712 758 Q640 899 493 899 Q349 899 272 758 Q229 680 216 561 L760 561 Z " />
<glyph glyph-name="f" unicode="f" horiz-adv-x="552" d="M284 969 L529 969 L529 880 L291 880 L291 0 L174 0 L174 880 L34 880 L34 969 L174 969 L174 1032 Q174 1147 182 1194 Q198 1287 263 1338 Q328 1388 418 1388 Q477 1388 549 1363 L549 1255 Q493 1291 426 1291 Q331 1291 300 1208 Q284 1167 284 1049 L284 969 Z " />
<glyph glyph-name="g" unicode="g" horiz-adv-x="958" d="M911 969 L911 884 L712 889 Q808 806 808 652 Q808 509 721 434 Q683 402 620 380 Q592 370 489 343 Q398 318 348 295 Q288 266 288 224 Q288 199 315 184 Q339 171 476 158 Q625 144 676 132 Q914 78 914 -128 Q914 -273 785 -351 Q671 -420 487 -420 Q289 -420 169 -334 Q67 -262 67 -140 Q67 -26 152 40 Q198 75 275 102 Q172 141 172 214 Q172 280 247 324 Q286 347 346 370 Q143 443 143 651 Q143 821 265 913 Q352 978 484 978 Q553 978 624 959 L911 969 Z M485 889 Q392 889 328 832 Q255 767 255 655 Q255 554 317 496 Q380 437 477 437 Q574 437 633 492 Q697 550 697 655 Q697 749 644 813 Q583 889 485 889 Z M487 46 Q348 46 268 6 Q170 -44 170 -136 Q170 -218 253 -269 Q340 -322 489 -322 Q672 -322 754 -250 Q808 -203 808 -135 Q808 -34 702 12 Q624 46 487 46 Z " />
<glyph glyph-name="h" unicode="h" horiz-adv-x="992" d="M154 1371 L260 1371 L260 854 Q300 908 338 935 Q422 996 539 996 Q718 996 798 872 Q831 821 840 733 Q844 688 844 556 L844 0 L738 0 L738 563 Q738 665 734 705 Q714 899 528 899 Q384 899 310 780 Q260 699 260 545 L260 0 L154 0 L154 1371 Z " />
<glyph glyph-name="i" unicode="i" horiz-adv-x="424" d="M154 969 L271 969 L271 0 L154 0 L154 969 Z M213 1381 Q246 1381 271 1361 Q303 1334 303 1289 Q303 1256 283 1231 Q257 1200 213 1200 Q175 1200 149 1225 Q122 1250 122 1289 Q122 1330 150 1356 Q176 1381 213 1381 Z " />
<glyph glyph-name="j" unicode="j" horiz-adv-x="501" d="M230 969 L347 969 L347 66 Q347 -87 338 -146 Q316 -279 226 -336 Q147 -387 10 -387 Q-10 -387 -48 -386 L-48 -289 Q-29 -291 -10 -291 Q143 -291 194 -209 Q221 -164 227 -81 Q230 -27 230 66 L230 969 Z M288 1381 Q321 1381 346 1361 Q378 1334 378 1289 Q378 1256 358 1231 Q332 1200 288 1200 Q250 1200 224 1225 Q197 1250 197 1289 Q197 1330 225 1356 Q251 1381 288 1381 Z " />
<glyph glyph-name="k" unicode="k" horiz-adv-x="949" d="M690 969 L821 969 L403 537 L851 0 L700 0 L264 532 L690 969 Z M154 1371 L260 1371 L260 0 L154 0 L154 1371 Z " />
<glyph glyph-name="l" unicode="l" horiz-adv-x="424" d="M154 1371 L271 1371 L271 0 L154 0 L154 1371 Z " />
<glyph glyph-name="m" unicode="m" horiz-adv-x="1518" d="M131 969 L235 969 Q252 916 254 834 Q335 996 530 996 Q671 996 743 915 Q773 881 795 824 Q880 996 1089 996 Q1262 996 1332 879 Q1362 828 1368 732 Q1370 699 1370 604 L1370 0 L1264 0 L1264 605 Q1264 705 1260 735 Q1238 899 1064 899 Q922 899 856 785 Q817 717 817 582 L817 0 L708 0 L708 582 Q708 752 688 799 Q645 899 512 899 Q377 899 308 795 Q260 721 260 574 L260 0 L154 0 L154 646 L154 696 Q153 850 146 900 Q141 930 131 969 Z " />
<glyph glyph-name="n" unicode="n" horiz-adv-x="1005" d="M131 969 L234 969 Q253 914 254 823 Q350 996 552 996 Q693 996 774 921 Q841 859 852 744 Q857 696 857 556 L857 0 L751 0 L751 563 Q751 670 747 705 Q736 808 687 852 Q634 900 543 900 Q396 900 315 781 Q260 699 260 556 L260 0 L154 0 L154 645 Q154 842 148 886 Q144 920 131 969 Z " />
<glyph glyph-name="o" unicode="o" horiz-adv-x="1010" d="M505 996 Q673 996 782 874 Q910 729 910 485 Q910 242 782 97 Q674 -24 506 -24 Q336 -24 228 97 Q100 242 100 492 Q100 730 228 874 Q338 996 505 996 Z M506 899 Q380 899 304 800 Q212 679 212 490 Q212 291 304 171 Q380 73 506 73 Q632 73 707 171 Q799 291 799 485 Q799 681 707 800 Q630 899 506 899 Z " />
<glyph glyph-name="p" unicode="p" horiz-adv-x="1012" d="M154 -404 L154 687 Q154 901 134 969 L244 969 Q259 921 262 818 Q303 894 348 931 Q427 997 541 997 Q685 997 778 893 Q913 743 913 480 Q913 222 787 78 Q698 -24 549 -24 Q363 -24 263 141 L263 -404 L154 -404 Z M539 901 Q423 901 352 806 Q258 680 258 486 Q258 291 346 173 Q422 73 539 73 Q655 73 715 155 Q802 273 802 479 Q802 695 708 818 Q645 901 539 901 Z " />
<glyph glyph-name="q" unicode="q" horiz-adv-x="1012" d="M749 -404 L749 141 Q648 -24 473 -24 Q325 -24 228 81 Q99 219 99 473 Q99 738 238 890 Q334 996 479 996 Q591 996 667 933 Q710 897 750 820 Q751 914 768 969 L878 969 Q858 903 858 687 L858 -404 L749 -404 Z M480 899 Q370 899 304 809 Q210 681 210 473 Q210 271 298 156 Q362 73 469 73 Q589 73 665 173 Q754 289 754 485 Q754 682 663 806 Q594 899 480 899 Z " />
<glyph glyph-name="r" unicode="r" horiz-adv-x="635" d="M139 969 L240 969 Q257 892 257 821 Q257 801 254 759 Q294 857 338 912 Q406 996 498 996 Q564 996 628 962 L628 856 Q547 892 503 892 Q422 892 356 807 Q301 735 280 643 Q263 565 263 429 L263 0 L154 0 L154 623 Q153 864 139 969 Z " />
<glyph glyph-name="s" unicode="s" horiz-adv-x="865" d="M757 711 L653 711 Q643 803 599 845 Q544 899 440 899 Q344 899 286 849 Q238 807 238 737 Q238 674 283 638 Q326 604 460 564 Q609 520 661 490 Q777 422 777 273 Q777 145 695 65 Q604 -24 440 -24 Q227 -24 141 108 Q95 180 95 291 L200 291 Q220 72 440 72 Q536 72 597 119 Q664 170 664 262 Q664 345 604 387 Q577 406 529 424 Q515 429 383 470 Q236 516 183 575 Q127 639 127 734 Q127 864 229 934 Q318 996 442 996 Q543 996 621 955 Q749 888 757 711 Z " />
<glyph glyph-name="t" unicode="t" horiz-adv-x="612" d="M310 969 L552 969 L551 880 L308 880 L299 350 Q297 257 297 241 Q297 135 319 108 Q347 74 409 74 Q475 74 549 107 L547 7 Q471 -19 391 -19 Q281 -19 227 33 Q185 74 185 175 Q185 213 188 278 Q191 337 191 355 L203 880 L57 880 L59 969 L204 969 L209 1249 L315 1249 L310 969 Z " />
<glyph glyph-name="u" unicode="u" horiz-adv-x="979" d="M149 969 L255 969 L255 364 Q255 211 288 158 Q342 73 465 73 Q601 73 674 188 Q720 260 720 411 L720 969 L826 969 L826 294 Q826 158 827 127 Q829 59 848 0 L741 0 Q721 62 720 138 Q685 66 641 30 Q574 -24 465 -24 Q348 -24 268 34 Q174 100 156 218 Q149 263 149 369 L149 969 Z " />
<glyph glyph-name="v" unicode="v" horiz-adv-x="835" d="M21 969 L133 969 L419 117 L705 969 L815 969 L472 -14 L364 -14 L21 969 Z " />
<glyph glyph-name="w" unicode="w" horiz-adv-x="1293" d="M32 969 L145 969 L362 173 L598 969 L695 969 L931 173 L1148 969 L1261 969 L982 -14 L885 -14 L647 808 L408 -14 L311 -14 L32 969 Z " />
<glyph glyph-name="x" unicode="x" horiz-adv-x="863" d="M67 969 L190 969 L433 598 L679 969 L811 969 L499 515 L847 0 L719 0 L433 428 L144 0 L16 0 L368 515 L67 969 Z " />
<glyph glyph-name="y" unicode="y" horiz-adv-x="855" d="M33 969 L148 969 L427 138 L716 969 L828 969 L512 82 Q439 -127 404 -200 Q304 -408 88 -408 Q72 -408 54 -407 L54 -312 Q185 -312 242 -255 Q289 -207 336 -85 Q347 -58 368 1 L33 969 Z " />
<glyph glyph-name="z" unicode="z" horiz-adv-x="796" d="M84 969 L759 969 L759 892 L170 89 L742 89 L742 0 L44 0 L44 85 L625 880 L84 880 L84 969 Z " />
<glyph glyph-name="braceleft" unicode="&#x7b;" horiz-adv-x="557" d="M200 483 Q258 448 279 410 Q312 352 312 243 L312 -104 Q312 -233 344 -274 Q385 -325 501 -326 L501 -410 Q485 -410 480 -410 Q332 -410 270 -337 Q228 -288 215 -199 Q210 -161 210 -81 L210 243 Q210 350 176 395 Q148 430 94 446 L94 520 Q148 537 176 572 Q210 616 210 723 L210 1047 Q210 1200 244 1265 Q292 1357 416 1373 Q439 1375 501 1376 L501 1293 Q385 1291 344 1240 Q312 1200 312 1071 L312 723 Q312 614 279 556 Q258 518 200 483 Z " />
<glyph glyph-name="bar" unicode="&#x7c;" horiz-adv-x="1024" d="M459 1365 L565 1365 L565 -341 L459 -341 L459 1365 Z " />
<glyph glyph-name="braceright" unicode="&#x7d;" horiz-adv-x="557" d="M357 483 Q299 519 278 556 Q245 614 245 723 L245 1071 Q245 1200 213 1240 Q172 1291 56 1293 L56 1376 Q130 1375 159 1370 Q279 1349 320 1251 Q347 1187 347 1047 L347 723 Q347 616 381 572 Q409 537 463 520 L463 446 Q409 429 381 395 Q347 351 347 243 L347 -81 Q347 -205 325 -271 Q279 -410 78 -410 Q72 -410 56 -410 L56 -326 Q172 -325 213 -273 Q245 -233 245 -104 L245 244 Q245 353 278 410 Q299 448 357 483 Z " />
<glyph glyph-name="asciitilde" unicode="&#x7e;" horiz-adv-x="1365" d="M260 458 L193 501 Q230 574 269 621 Q348 719 463 719 Q541 719 698 641 Q803 588 840 578 Q874 569 905 569 Q979 569 1032 622 Q1066 657 1105 723 L1173 682 Q1062 468 894 468 Q846 468 765 498 Q742 507 610 571 Q514 618 456 618 Q385 618 332 561 Q297 525 260 458 Z " />
<glyph glyph-name="Adieresis" unicode="&#xc4;" horiz-adv-x="1134" d="M522 1377 L612 1377 L1085 0 L963 0 L829 388 L305 388 L170 0 L49 0 L522 1377 Z M795 490 L567 1210 L338 490 L795 490 Z M388 1732 Q430 1732 461 1701 Q491 1671 491 1627 Q491 1584 461 1554 Q430 1523 387 1523 Q343 1523 313 1554 Q282 1584 282 1627 Q282 1672 313 1701 Q344 1732 388 1732 Z M748 1732 Q789 1732 820 1701 Q851 1671 851 1627 Q851 1584 820 1554 Q789 1523 747 1523 Q703 1523 673 1554 Q642 1584 642 1627 Q642 1672 673 1701 Q704 1732 748 1732 Z " />
<glyph glyph-name="Aring" unicode="&#xc5;" horiz-adv-x="1134" d="M522 1377 L612 1377 L1085 0 L963 0 L829 388 L305 388 L170 0 L49 0 L522 1377 Z M795 490 L567 1210 L338 490 L795 490 Z M569 1828 Q643 1828 697 1774 Q751 1720 751 1644 Q751 1568 697 1514 Q643 1460 567 1460 Q491 1460 437 1514 Q383 1568 383 1644 Q383 1721 437 1774 Q492 1828 569 1828 Z M568 1746 Q525 1746 495 1716 Q465 1687 465 1644 Q465 1603 495 1573 Q525 1543 567 1543 Q609 1543 639 1573 Q669 1603 669 1644 Q669 1688 639 1716 Q609 1746 568 1746 Z " />
<glyph glyph-name="Ccedilla" unicode="&#xc7;" horiz-adv-x="1233" d="M675 -23 L625 -144 Q811 -162 811 -303 Q811 -381 751 -429 Q697 -472 604 -472 Q535 -472 458 -446 L458 -369 Q522 -387 562 -387 Q607 -387 636 -369 Q681 -342 681 -291 Q681 -234 622 -212 Q589 -201 514 -199 L589 -19 Q518 -4 475 11 Q326 65 226 226 Q116 406 116 683 Q116 1075 332 1268 Q466 1388 661 1388 Q885 1388 1010 1242 Q1087 1152 1109 1009 L994 1009 Q928 1283 662 1283 Q489 1283 386 1162 Q243 992 243 681 Q243 376 388 202 Q488 82 661 82 Q867 82 958 246 Q1007 335 1020 449 L1133 449 Q1111 227 995 106 Q872 -21 675 -23 Z " />
<glyph glyph-name="Eacute" unicode="&#xc9;" horiz-adv-x="1004" d="M296 758 L854 758 L854 656 L296 656 L296 102 L904 102 L904 0 L180 0 L180 1365 L895 1365 L895 1263 L296 1263 L296 758 Z M411 1496 L675 1758 L845 1758 L530 1496 L411 1496 Z " />
<glyph glyph-name="Ntilde" unicode="&#xd1;" horiz-adv-x="1285" d="M180 1365 L309 1365 L997 170 L997 1365 L1105 1365 L1105 0 L970 0 L290 1191 L290 0 L180 0 L180 1365 Z M408 1514 L330 1548 Q344 1612 365 1651 Q411 1740 511 1740 Q579 1740 667 1682 Q712 1651 738 1636 Q772 1616 807 1616 Q890 1616 906 1747 L983 1712 Q975 1646 955 1607 Q933 1567 894 1542 Q851 1514 804 1514 Q757 1514 716 1535 Q677 1555 627 1589 Q555 1637 512 1637 Q436 1637 408 1514 Z " />
<glyph glyph-name="Odieresis" unicode="&#xd6;" horiz-adv-x="1305" d="M653 1388 Q806 1388 932 1298 Q1071 1199 1137 1012 Q1189 866 1189 685 Q1189 364 1035 165 Q889 -23 646 -23 Q499 -23 373 66 Q236 164 168 353 Q116 498 116 683 Q116 1005 270 1200 Q419 1388 653 1388 Z M652 1283 Q529 1283 429 1201 Q327 1117 279 953 Q243 832 243 683 Q243 416 355 246 Q406 168 489 123 Q565 82 647 82 Q777 82 877 164 Q977 247 1026 412 Q1062 532 1062 685 Q1062 953 950 1119 Q897 1198 816 1242 Q739 1283 652 1283 Z M474 1732 Q516 1732 546 1701 Q577 1671 577 1627 Q577 1584 546 1554 Q516 1523 473 1523 Q429 1523 399 1554 Q368 1584 368 1627 Q368 1672 399 1701 Q430 1732 474 1732 Z M834 1732 Q876 1732 906 1701 Q937 1671 937 1627 Q937 1584 906 1554 Q876 1523 833 1523 Q789 1523 759 1554 Q728 1584 728 1627 Q728 1672 759 1701 Q790 1732 834 1732 Z " />
<glyph glyph-name="Udieresis" unicode="&#xdc;" horiz-adv-x="1246" d="M159 1365 L275 1365 L275 555 Q276 400 281 355 Q292 244 345 185 Q398 125 494 99 Q557 82 622 82 Q741 82 831 131 Q917 177 947 263 Q969 326 969 449 L970 555 L970 1365 L1086 1365 L1086 553 Q1086 390 1081 335 Q1070 211 999 125 Q875 -23 622 -23 Q428 -23 307 68 Q204 145 174 273 Q159 335 159 453 L159 553 L159 1365 Z M444 1732 Q486 1732 516 1701 Q547 1671 547 1627 Q547 1584 516 1554 Q486 1523 443 1523 Q399 1523 369 1554 Q338 1584 338 1627 Q338 1672 369 1701 Q400 1732 444 1732 Z M804 1732 Q845 1732 876 1701 Q907 1671 907 1627 Q907 1584 876 1554 Q845 1523 803 1523 Q759 1523 729 1554 Q698 1584 698 1627 Q698 1672 729 1701 Q760 1732 804 1732 Z " />
<glyph glyph-name="aacute" unicode="&#xe1;" horiz-adv-x="949" d="M244 727 L133 727 Q146 842 215 909 Q305 996 478 996 Q623 996 711 927 Q782 871 792 754 Q796 709 796 623 L796 268 L795 190 Q795 80 821 0 L715 0 Q697 59 690 137 Q601 -24 404 -24 Q278 -24 197 41 Q100 118 100 254 Q100 461 328 545 Q468 597 690 631 L690 682 Q690 790 653 834 Q600 899 475 899 Q274 899 244 727 Z M690 546 Q475 504 372 459 Q212 390 212 258 Q212 173 273 119 Q326 73 412 73 Q568 73 643 196 Q690 271 690 436 L690 546 Z M370 1144 L566 1407 L736 1407 L466 1144 L370 1144 Z " />
<glyph glyph-name="agrave" unicode="&#xe0;" horiz-adv-x="949" d="M244 727 L133 727 Q146 842 215 909 Q305 996 478 996 Q623 996 711 927 Q782 871 792 754 Q796 709 796 623 L796 268 L795 190 Q795 80 821 0 L715 0 Q697 59 690 137 Q601 -24 404 -24 Q278 -24 197 41 Q100 118 100 254 Q100 461 328 545 Q468 597 690 631 L690 682 Q690 790 653 834 Q600 899 475 899 Q274 899 244 727 Z M690 546 Q475 504 372 459 Q212 390 212 258 Q212 173 273 119 Q326 73 412 73 Q568 73 643 196 Q690 271 690 436 L690 546 Z M595 1144 L499 1144 L229 1407 L399 1407 L595 1144 Z " />
<glyph glyph-name="acircumflex" unicode="&#xe2;" horiz-adv-x="949" d="M244 727 L133 727 Q146 842 215 909 Q305 996 478 996 Q623 996 711 927 Q782 871 792 754 Q796 709 796 623 L796 268 L795 190 Q795 80 821 0 L715 0 Q697 59 690 137 Q601 -24 404 -24 Q278 -24 197 41 Q100 118 100 254 Q100 461 328 545 Q468 597 690 631 L690 682 Q690 790 653 834 Q600 899 475 899 Q274 899 244 727 Z M690 546 Q475 504 372 459 Q212 390 212 258 Q212 173 273 119 Q326 73 412 73 Q568 73 643 196 Q690 271 690 436 L690 546 Z M181 1145 L407 1424 L559 1424 L786 1145 L676 1145 L483 1344 L290 1145 L181 1145 Z " />
<glyph glyph-name="adieresis" unicode="&#xe4;" horiz-adv-x="949" d="M244 727 L133 727 Q146 842 215 909 Q305 996 478 996 Q623 996 711 927 Q782 871 792 754 Q796 709 796 623 L796 268 L795 190 Q795 80 821 0 L715 0 Q697 59 690 137 Q601 -24 404 -24 Q278 -24 197 41 Q100 118 100 254 Q100 461 328 545 Q468 597 690 631 L690 682 Q690 790 653 834 Q600 899 475 899 Q274 899 244 727 Z M690 546 Q475 504 372 459 Q212 390 212 258 Q212 173 273 119 Q326 73 412 73 Q568 73 643 196 Q690 271 690 436 L690 546 Z M308 1378 Q347 1378 375 1349 Q404 1321 404 1280 Q404 1240 375 1212 Q347 1183 307 1183 Q266 1183 238 1212 Q209 1240 209 1280 Q209 1322 238 1349 Q267 1378 308 1378 Z M657 1378 Q696 1378 724 1349 Q753 1321 753 1280 Q753 1240 724 1212 Q696 1183 656 1183 Q615 1183 587 1212 Q558 1241 558 1280 Q558 1321 587 1349 Q616 1378 657 1378 Z " />
<glyph glyph-name="atilde" unicode="&#xe3;" horiz-adv-x="949" d="M244 727 L133 727 Q146 842 215 909 Q305 996 478 996 Q623 996 711 927 Q782 871 792 754 Q796 709 796 623 L796 268 L795 190 Q795 80 821 0 L715 0 Q697 59 690 137 Q601 -24 404 -24 Q278 -24 197 41 Q100 118 100 254 Q100 461 328 545 Q468 597 690 631 L690 682 Q690 790 653 834 Q600 899 475 899 Q274 899 244 727 Z M690 546 Q475 504 372 459 Q212 390 212 258 Q212 173 273 119 Q326 73 412 73 Q568 73 643 196 Q690 271 690 436 L690 546 Z M254 1163 L178 1179 Q214 1390 348 1390 Q410 1390 487 1330 Q574 1264 614 1264 Q648 1264 673 1302 Q695 1335 702 1395 L782 1377 Q773 1289 737 1233 Q691 1160 616 1160 Q551 1160 464 1226 Q384 1287 345 1287 Q280 1287 254 1163 Z " />
<glyph glyph-name="aring" unicode="&#xe5;" horiz-adv-x="949" d="M244 727 L133 727 Q146 842 215 909 Q305 996 478 996 Q623 996 711 927 Q782 871 792 754 Q796 709 796 623 L796 268 L795 190 Q795 80 821 0 L715 0 Q697 59 690 137 Q601 -24 404 -24 Q278 -24 197 41 Q100 118 100 254 Q100 461 328 545 Q468 597 690 631 L690 682 Q690 790 653 834 Q600 899 475 899 Q274 899 244 727 Z M690 546 Q475 504 372 459 Q212 390 212 258 Q212 173 273 119 Q326 73 412 73 Q568 73 643 196 Q690 271 690 436 L690 546 Z M484 1480 Q557 1480 611 1426 Q665 1373 665 1296 Q665 1220 611 1166 Q557 1112 481 1112 Q405 1112 351 1166 Q297 1220 297 1296 Q297 1373 351 1426 Q406 1480 484 1480 Z M482 1398 Q439 1398 409 1368 Q379 1338 379 1296 Q379 1254 409 1224 Q439 1194 481 1194 Q524 1194 553 1224 Q583 1254 583 1296 Q583 1339 553 1368 Q523 1398 482 1398 Z " />
<glyph glyph-name="ccedilla" unicode="&#xe7;" horiz-adv-x="955" d="M528 -25 L485 -121 Q657 -142 657 -263 Q657 -337 598 -382 Q548 -421 465 -421 Q392 -421 322 -394 L322 -323 Q389 -341 426 -341 Q468 -341 495 -325 Q536 -300 536 -251 Q536 -196 478 -175 Q447 -163 378 -159 L447 -20 Q348 0 276 51 Q199 105 157 196 Q100 316 100 481 Q100 760 256 903 Q357 996 505 996 Q694 996 787 849 Q834 774 845 656 L740 656 Q725 752 681 811 Q617 899 501 899 Q379 899 307 806 Q212 684 212 482 Q212 266 320 150 Q393 72 506 72 Q635 72 700 177 Q737 237 746 328 L856 328 Q838 148 736 53 Q679 0 595 -16 Q576 -19 528 -25 Z " />
<glyph glyph-name="eacute" unicode="&#xe9;" horiz-adv-x="975" d="M874 472 L212 472 Q216 298 274 201 Q351 72 507 72 Q618 72 685 141 Q713 170 746 232 L849 213 Q759 -24 508 -24 Q322 -24 213 104 Q100 235 100 473 Q100 749 242 893 Q343 996 497 996 Q699 996 803 820 Q874 698 874 510 Q874 493 874 472 Z M760 561 Q752 677 712 758 Q640 899 493 899 Q349 899 272 758 Q229 680 216 561 L760 561 Z M392 1144 L588 1407 L759 1407 L489 1144 L392 1144 Z " />
<glyph glyph-name="egrave" unicode="&#xe8;" horiz-adv-x="975" d="M874 472 L212 472 Q216 298 274 201 Q351 72 507 72 Q618 72 685 141 Q713 170 746 232 L849 213 Q759 -24 508 -24 Q322 -24 213 104 Q100 235 100 473 Q100 749 242 893 Q343 996 497 996 Q699 996 803 820 Q874 698 874 510 Q874 493 874 472 Z M760 561 Q752 677 712 758 Q640 899 493 899 Q349 899 272 758 Q229 680 216 561 L760 561 Z M615 1144 L519 1144 L249 1407 L419 1407 L615 1144 Z " />
<glyph glyph-name="ecircumflex" unicode="&#xea;" horiz-adv-x="975" d="M874 472 L212 472 Q216 298 274 201 Q351 72 507 72 Q618 72 685 141 Q713 170 746 232 L849 213 Q759 -24 508 -24 Q322 -24 213 104 Q100 235 100 473 Q100 749 242 893 Q343 996 497 996 Q699 996 803 820 Q874 698 874 510 Q874 493 874 472 Z M760 561 Q752 677 712 758 Q640 899 493 899 Q349 899 272 758 Q229 680 216 561 L760 561 Z M205 1145 L432 1424 L584 1424 L810 1145 L701 1145 L508 1344 L315 1145 L205 1145 Z " />
<glyph glyph-name="edieresis" unicode="&#xeb;" horiz-adv-x="975" d="M874 472 L212 472 Q216 298 274 201 Q351 72 507 72 Q618 72 685 141 Q713 170 746 232 L849 213 Q759 -24 508 -24 Q322 -24 213 104 Q100 235 100 473 Q100 749 242 893 Q343 996 497 996 Q699 996 803 820 Q874 698 874 510 Q874 493 874 472 Z M760 561 Q752 677 712 758 Q640 899 493 899 Q349 899 272 758 Q229 680 216 561 L760 561 Z M335 1378 Q374 1378 402 1349 Q431 1321 431 1280 Q431 1240 402 1212 Q374 1183 334 1183 Q293 1183 265 1212 Q236 1240 236 1280 Q236 1322 265 1349 Q294 1378 335 1378 Z M684 1378 Q723 1378 751 1349 Q780 1321 780 1280 Q780 1240 751 1212 Q723 1183 683 1183 Q642 1183 614 1212 Q585 1240 585 1280 Q585 1321 614 1349 Q643 1378 684 1378 Z " />
<glyph glyph-name="iacute" unicode="&#xed;" horiz-adv-x="424" d="M154 969 L271 969 L271 0 L154 0 L154 969 Z M138 1144 L286 1407 L450 1407 L227 1144 L138 1144 Z " />
<glyph glyph-name="igrave" unicode="&#xec;" horiz-adv-x="424" d="M154 969 L271 969 L271 0 L154 0 L154 969 Z M287 1144 L197 1144 L-25 1407 L138 1407 L287 1144 Z " />
<glyph glyph-name="icircumflex" unicode="&#xee;" horiz-adv-x="424" d="M154 969 L271 969 L271 0 L154 0 L154 969 Z M-42 1145 L137 1424 L289 1424 L467 1145 L365 1145 L212 1344 L61 1145 L-42 1145 Z " />
<glyph glyph-name="idieresis" unicode="&#xef;" horiz-adv-x="424" d="M153 969 L270 969 L270 0 L153 0 L153 969 Z M83 1377 Q121 1377 150 1349 Q178 1321 178 1281 Q178 1241 150 1212 Q122 1184 82 1184 Q41 1184 13 1212 Q-15 1241 -15 1280 Q-15 1321 13 1349 Q42 1377 83 1377 Z M344 1377 Q382 1377 411 1349 Q439 1321 439 1281 Q439 1241 411 1212 Q383 1184 343 1184 Q303 1184 274 1212 Q246 1241 246 1280 Q246 1321 274 1349 Q304 1377 344 1377 Z " />
<glyph glyph-name="ntilde" unicode="&#xf1;" horiz-adv-x="1005" d="M131 969 L234 969 Q253 914 254 823 Q350 996 552 996 Q693 996 774 921 Q841 859 852 744 Q857 696 857 556 L857 0 L751 0 L751 563 Q751 670 747 705 Q736 808 687 852 Q634 900 543 900 Q396 900 315 781 Q260 699 260 556 L260 0 L154 0 L154 645 Q154 842 148 886 Q144 920 131 969 Z M256 1163 L180 1179 Q216 1390 350 1390 Q412 1390 490 1330 Q576 1264 616 1264 Q687 1264 704 1395 L784 1377 Q774 1289 739 1233 Q694 1160 618 1160 Q553 1160 466 1226 Q386 1287 347 1287 Q281 1287 256 1163 Z " />
<glyph glyph-name="oacute" unicode="&#xf3;" horiz-adv-x="1010" d="M505 996 Q673 996 782 874 Q910 729 910 485 Q910 242 782 97 Q674 -24 506 -24 Q336 -24 228 97 Q100 242 100 492 Q100 730 228 874 Q338 996 505 996 Z M506 899 Q380 899 304 800 Q212 679 212 490 Q212 291 304 171 Q380 73 506 73 Q632 73 707 171 Q799 291 799 485 Q799 681 707 800 Q630 899 506 899 Z M403 1144 L599 1407 L770 1407 L500 1144 L403 1144 Z " />
<glyph glyph-name="ograve" unicode="&#xf2;" horiz-adv-x="1010" d="M505 996 Q673 996 782 874 Q910 729 910 485 Q910 242 782 97 Q674 -24 506 -24 Q336 -24 228 97 Q100 242 100 492 Q100 730 228 874 Q338 996 505 996 Z M506 899 Q380 899 304 800 Q212 679 212 490 Q212 291 304 171 Q380 73 506 73 Q632 73 707 171 Q799 291 799 485 Q799 681 707 800 Q630 899 506 899 Z M613 1144 L516 1144 L246 1407 L417 1407 L613 1144 Z " />
<glyph glyph-name="ocircumflex" unicode="&#xf4;" horiz-adv-x="1010" d="M505 996 Q673 996 782 874 Q910 729 910 485 Q910 242 782 97 Q674 -24 506 -24 Q336 -24 228 97 Q100 242 100 492 Q100 730 228 874 Q338 996 505 996 Z M506 899 Q380 899 304 800 Q212 679 212 490 Q212 291 304 171 Q380 73 506 73 Q632 73 707 171 Q799 291 799 485 Q799 681 707 800 Q630 899 506 899 Z M203 1145 L429 1424 L581 1424 L808 1145 L698 1145 L505 1344 L312 1145 L203 1145 Z " />
<glyph glyph-name="odieresis" unicode="&#xf6;" horiz-adv-x="1010" d="M505 996 Q673 996 782 874 Q910 729 910 485 Q910 242 782 97 Q674 -24 506 -24 Q336 -24 228 97 Q100 242 100 492 Q100 730 228 874 Q338 996 505 996 Z M506 899 Q380 899 304 800 Q212 679 212 490 Q212 291 304 171 Q380 73 506 73 Q632 73 707 171 Q799 291 799 485 Q799 681 707 800 Q630 899 506 899 Z M333 1378 Q372 1378 400 1349 Q429 1321 429 1280 Q429 1240 400 1212 Q372 1183 332 1183 Q291 1183 263 1212 Q234 1240 234 1280 Q234 1321 263 1349 Q292 1378 333 1378 Z M681 1378 Q720 1378 748 1349 Q777 1321 777 1280 Q777 1240 748 1212 Q720 1183 680 1183 Q639 1183 611 1212 Q582 1240 582 1280 Q582 1321 611 1349 Q640 1378 681 1378 Z " />
<glyph glyph-name="otilde" unicode="&#xf5;" horiz-adv-x="1010" d="M505 996 Q673 996 782 874 Q910 729 910 485 Q910 242 782 97 Q674 -24 506 -24 Q336 -24 228 97 Q100 242 100 492 Q100 730 228 874 Q338 996 505 996 Z M506 899 Q380 899 304 800 Q212 679 212 490 Q212 291 304 171 Q380 73 506 73 Q632 73 707 171 Q799 291 799 485 Q799 681 707 800 Q630 899 506 899 Z M295 1163 L219 1179 Q255 1390 389 1390 Q451 1390 529 1330 Q615 1264 655 1264 Q726 1264 743 1395 L823 1377 Q813 1289 779 1233 Q733 1160 657 1160 Q592 1160 505 1226 Q425 1287 387 1287 Q320 1287 295 1163 Z " />
<glyph glyph-name="uacute" unicode="&#xfa;" horiz-adv-x="979" d="M149 969 L255 969 L255 364 Q255 211 288 158 Q342 73 465 73 Q601 73 674 188 Q720 260 720 411 L720 969 L826 969 L826 294 Q826 158 827 127 Q829 59 848 0 L741 0 Q721 62 720 138 Q685 66 641 30 Q574 -24 465 -24 Q348 -24 268 34 Q174 100 156 218 Q149 263 149 369 L149 969 Z M376 1144 L572 1407 L743 1407 L473 1144 L376 1144 Z " />
<glyph glyph-name="ugrave" unicode="&#xf9;" horiz-adv-x="979" d="M149 969 L255 969 L255 364 Q255 211 288 158 Q342 73 465 73 Q601 73 674 188 Q720 260 720 411 L720 969 L826 969 L826 294 Q826 158 827 127 Q829 59 848 0 L741 0 Q721 62 720 138 Q685 66 641 30 Q574 -24 465 -24 Q348 -24 268 34 Q174 100 156 218 Q149 263 149 369 L149 969 Z M599 1144 L503 1144 L233 1407 L403 1407 L599 1144 Z " />
<glyph glyph-name="ucircumflex" unicode="&#xfb;" horiz-adv-x="979" d="M149 969 L255 969 L255 364 Q255 211 288 158 Q342 73 465 73 Q601 73 674 188 Q720 260 720 411 L720 969 L826 969 L826 294 Q826 158 827 127 Q829 59 848 0 L741 0 Q721 62 720 138 Q685 66 641 30 Q574 -24 465 -24 Q348 -24 268 34 Q174 100 156 218 Q149 263 149 369 L149 969 Z M188 1145 L414 1424 L566 1424 L793 1145 L684 1145 L490 1344 L297 1145 L188 1145 Z " />
<glyph glyph-name="udieresis" unicode="&#xfc;" horiz-adv-x="979" d="M149 969 L255 969 L255 364 Q255 211 288 158 Q342 73 465 73 Q601 73 674 188 Q720 260 720 411 L720 969 L826 969 L826 294 Q826 158 827 127 Q829 59 848 0 L741 0 Q721 62 720 138 Q685 66 641 30 Q574 -24 465 -24 Q348 -24 268 34 Q174 100 156 218 Q149 263 149 369 L149 969 Z M316 1378 Q355 1378 383 1349 Q412 1321 412 1280 Q412 1240 383 1212 Q355 1183 315 1183 Q274 1183 246 1212 Q217 1240 217 1280 Q217 1322 246 1349 Q275 1378 316 1378 Z M664 1378 Q703 1378 731 1349 Q760 1321 760 1280 Q760 1240 731 1212 Q703 1183 663 1183 Q622 1183 594 1212 Q565 1240 565 1280 Q565 1322 594 1349 Q623 1378 664 1378 Z " />
<glyph glyph-name="dagger" unicode="&#x2020;" horiz-adv-x="1024" d="M463 1331 L569 1331 L569 967 L957 967 L957 872 L569 872 L569 -273 L463 -273 L463 872 L67 872 L67 967 L463 967 L463 1331 Z " />
<glyph glyph-name="degree" unicode="&#xb0;" horiz-adv-x="1024" d="M512 1388 Q628 1388 711 1308 Q794 1228 794 1114 Q794 1000 712 919 Q629 838 513 838 Q395 838 312 919 Q230 1000 230 1117 Q230 1229 312 1307 Q397 1388 512 1388 Z M512 1313 Q428 1313 368 1254 Q309 1196 309 1116 Q309 1030 368 972 Q428 913 513 913 Q596 913 656 972 Q715 1030 715 1113 Q715 1197 656 1254 Q595 1313 512 1313 Z " />
<glyph glyph-name="cent" unicode="&#xa2;" horiz-adv-x="1065" d="M575 1098 L575 268 Q771 280 796 526 L907 526 Q900 367 801 267 Q712 177 575 171 L575 -45 L507 -45 L507 174 Q417 188 353 236 Q175 371 175 673 Q175 980 360 1125 Q419 1172 507 1191 L507 1399 L575 1399 L575 1195 Q716 1190 802 1104 Q890 1015 895 854 L786 854 Q778 992 714 1048 Q661 1095 575 1098 Z M507 1091 Q432 1068 387 1011 Q284 881 284 679 Q284 529 342 417 Q392 318 466 287 Q481 281 507 274 L507 1091 Z " />
<glyph glyph-name="sterling" unicode="&#xa3;" horiz-adv-x="1065" d="M455 743 L758 743 L758 643 L439 643 Q402 428 379 334 Q341 185 295 93 Q384 107 489 107 Q519 107 565 106 Q655 105 672 105 Q764 105 800 121 Q869 152 875 268 L982 268 Q981 136 905 64 Q848 11 745 3 Q712 0 617 0 L146 0 Q208 116 256 317 Q293 472 322 643 L116 643 L116 743 L340 743 Q381 1007 412 1134 Q448 1282 517 1337 Q581 1388 678 1388 Q827 1388 881 1284 Q905 1238 910 1133 L802 1133 Q796 1214 778 1240 Q747 1287 676 1287 Q588 1287 550 1204 Q518 1136 455 743 Z " />
<glyph glyph-name="section" unicode="&#xa7;" horiz-adv-x="1024" d="M858 1023 L747 1023 Q739 1124 700 1178 Q643 1255 516 1255 Q420 1255 359 1206 Q291 1150 291 1057 Q291 973 364 915 Q396 890 562 796 Q745 692 802 639 Q866 578 866 480 Q866 364 777 286 Q743 256 687 225 Q746 179 773 140 Q825 67 825 -25 Q825 -146 753 -232 Q661 -340 474 -340 Q134 -340 122 -4 L231 -4 Q240 -110 274 -158 Q336 -247 474 -247 Q573 -247 631 -206 Q717 -145 717 -28 Q717 70 628 136 Q583 169 434 257 Q244 370 199 421 Q142 486 142 570 Q142 715 333 812 Q182 907 182 1052 Q182 1171 268 1256 Q362 1348 518 1348 Q719 1348 806 1207 Q854 1130 858 1023 Z M419 757 Q251 685 251 571 Q251 492 354 425 Q467 350 603 278 Q670 306 714 359 Q756 411 756 473 Q756 551 687 598 Q586 667 419 757 Z " />
<glyph glyph-name="bullet" unicode="&#x2022;" horiz-adv-x="1365" d="M689 978 Q802 978 885 895 Q969 812 969 694 Q969 576 886 493 Q803 410 685 410 Q569 410 486 492 Q401 576 401 694 Q401 815 485 896 Q571 978 689 978 Z " />
<glyph glyph-name="paragraph" unicode="&#xb6;" horiz-adv-x="1134" d="M450 -206 L450 640 Q427 640 417 640 Q301 640 207 693 Q130 737 85 817 Q39 899 39 998 Q39 1123 109 1218 Q179 1315 312 1347 Q389 1365 518 1365 L991 1365 L991 1275 L877 1275 L877 -206 L777 -206 L777 1275 L549 1275 L549 -206 L450 -206 Z " />
<glyph glyph-name="germandbls" unicode="&#xdf;" horiz-adv-x="1009" d="M148 0 L148 874 Q148 1061 163 1140 Q185 1252 274 1316 Q360 1377 485 1377 Q632 1377 723 1294 Q821 1204 821 1058 Q821 837 575 771 Q909 714 909 386 Q909 197 796 84 Q698 -14 560 -14 Q494 -14 414 18 L414 119 Q486 83 562 83 Q665 83 728 163 Q797 251 797 388 Q797 523 729 601 Q657 685 501 715 Q449 725 378 726 L378 818 Q406 817 420 817 Q544 817 618 869 Q709 933 709 1053 Q709 1160 644 1223 Q584 1281 482 1281 Q330 1281 283 1166 Q262 1114 256 1027 Q254 1006 254 875 L254 0 L148 0 Z " />
<glyph glyph-name="registered" unicode="&#xae;" horiz-adv-x="1643" d="M589 1090 L728 1090 Q887 1090 960 1068 Q1034 1046 1075 984 Q1110 932 1110 862 Q1110 698 929 641 L1168 271 L1057 271 L826 627 L679 627 L679 271 L589 271 L589 1090 Z M679 704 L731 704 Q864 704 914 720 Q1013 752 1013 863 Q1013 965 928 996 Q880 1013 733 1013 L679 1013 L679 704 Z M830 1391 Q1019 1391 1190 1287 Q1360 1182 1450 1006 Q1527 855 1527 686 Q1527 487 1423 318 Q1319 148 1142 58 Q991 -19 822 -19 Q623 -19 453 85 Q284 189 193 366 Q116 517 116 685 Q116 885 219 1055 Q321 1222 501 1314 Q651 1391 830 1391 Z M829 1317 Q566 1317 383 1134 Q199 949 199 683 Q199 507 291 354 Q383 202 539 121 Q672 52 822 52 Q1079 52 1261 236 Q1349 325 1397 443 Q1444 560 1444 685 Q1444 863 1352 1017 Q1262 1166 1103 1249 Q972 1317 829 1317 Z " />
<glyph glyph-name="copyright" unicode="&#xa9;" horiz-adv-x="1643" d="M1136 878 L1048 878 Q1008 1039 845 1039 Q732 1039 665 954 Q590 858 590 695 Q590 516 679 417 Q741 349 845 349 Q1038 349 1063 565 L1151 565 Q1139 451 1091 385 Q1009 271 850 271 Q694 271 595 379 Q493 490 493 693 Q493 917 617 1031 Q710 1117 846 1117 Q989 1117 1070 1029 Q1121 973 1136 878 Z M830 1391 Q1019 1391 1190 1287 Q1360 1182 1450 1006 Q1527 855 1527 686 Q1527 487 1423 318 Q1319 148 1142 58 Q991 -19 822 -19 Q623 -19 453 85 Q284 189 193 366 Q116 517 116 685 Q116 885 219 1055 Q321 1222 501 1314 Q651 1391 830 1391 Z M829 1317 Q566 1317 383 1134 Q199 949 199 683 Q199 507 291 354 Q383 202 539 121 Q672 52 822 52 Q1079 52 1261 236 Q1349 325 1397 443 Q1444 560 1444 685 Q1444 863 1352 1017 Q1262 1166 1103 1249 Q972 1317 829 1317 Z " />
<glyph glyph-name="trademark" unicode="&#x2122;" horiz-adv-x="1563" d="M23 1365 L558 1365 L558 1288 L336 1288 L336 546 L246 546 L246 1288 L23 1288 L23 1365 Z M686 1365 L819 1365 L1073 660 L1326 1365 L1458 1365 L1458 546 L1369 546 L1369 1243 L1115 546 L1030 546 L776 1243 L776 546 L686 546 L686 1365 Z " />
<glyph glyph-name="acute" unicode="&#xb4;" horiz-adv-x="1024" d="M458 1144 L654 1407 L824 1407 L554 1144 L458 1144 Z " />
<glyph glyph-name="dieresis" unicode="&#xa8;" horiz-adv-x="1024" d="M339 1378 Q378 1378 406 1349 Q435 1321 435 1280 Q435 1240 406 1212 Q378 1183 338 1183 Q297 1183 269 1212 Q240 1240 240 1280 Q240 1322 269 1349 Q298 1378 339 1378 Z M687 1378 Q726 1378 754 1349 Q783 1321 783 1280 Q783 1240 754 1212 Q726 1183 686 1183 Q645 1183 617 1212 Q588 1240 588 1280 Q588 1322 617 1349 Q646 1378 687 1378 Z " />
<glyph glyph-name="notequal" unicode="&#x2260;" horiz-adv-x="1024" d="M565 885 L676 1119 L755 1094 L656 885 L956 885 L956 791 L612 791 L514 582 L956 582 L956 488 L470 488 L353 239 L274 265 L378 488 L68 488 L68 582 L422 582 L520 791 L68 791 L68 885 L565 885 Z " />
<glyph glyph-name="AE" unicode="&#xc6;" horiz-adv-x="1702" d="M819 1365 L1602 1365 L1602 1263 L1008 1263 L1008 759 L1555 759 L1555 656 L1008 656 L1008 102 L1602 102 L1602 0 L887 0 L887 390 L399 390 L181 0 L48 0 L819 1365 Z M887 493 L887 1266 L456 493 L887 493 Z " />
<glyph glyph-name="Oslash" unicode="&#xd8;" horiz-adv-x="1305" d="M987 1260 L1058 1365 L1159 1365 L1045 1195 Q1189 1001 1189 702 Q1189 360 1016 152 Q939 58 825 12 Q740 -23 645 -23 Q457 -23 316 106 L245 0 L145 0 L258 170 Q115 370 115 662 Q115 1004 288 1213 Q366 1307 479 1353 Q564 1388 660 1388 Q841 1388 987 1260 Z M923 1164 Q812 1283 661 1283 Q542 1283 446 1208 Q343 1127 288 966 Q242 830 242 658 Q242 437 329 275 L923 1164 Z M380 202 Q490 81 644 81 Q781 81 886 180 Q1010 296 1048 532 Q1062 619 1062 710 Q1062 930 975 1090 L380 202 Z " />
<glyph glyph-name="infinity" unicode="&#x221e;" horiz-adv-x="1365" d="M685 624 Q528 390 340 390 Q185 390 101 501 Q39 583 39 700 Q39 865 163 950 Q242 1004 342 1004 Q527 1004 681 771 Q726 839 766 881 Q882 1004 1027 1004 Q1184 1004 1267 890 Q1327 808 1327 695 Q1327 549 1232 464 Q1148 390 1028 390 Q885 390 771 511 Q730 554 685 624 Z M737 697 Q774 638 808 598 Q906 482 1019 482 Q1113 482 1172 551 Q1221 609 1221 697 Q1221 810 1143 869 Q1086 912 1017 912 Q899 912 800 787 Q778 760 756 727 Q737 698 737 697 Z M629 696 Q591 756 557 796 Q461 912 347 912 Q252 912 194 843 Q145 784 145 697 Q145 583 223 524 Q279 481 349 481 Q467 481 566 606 Q587 633 610 667 L629 696 Z " />
<glyph glyph-name="plusminus" unicode="&#xb1;" horiz-adv-x="1065" d="M575 728 L954 728 L954 650 L575 650 L575 270 L492 270 L492 650 L112 650 L112 728 L492 728 L492 1121 L575 1121 L575 728 Z M112 161 L954 161 L954 78 L112 78 L112 161 Z " />
<glyph glyph-name="lessequal" unicode="&#x2264;" horiz-adv-x="1024" d="M955 1203 L955 1100 L183 763 L955 426 L955 324 L68 715 L68 810 L955 1203 Z M955 263 L955 164 L68 164 L68 263 L955 263 Z " />
<glyph glyph-name="greaterequal" unicode="&#x2265;" horiz-adv-x="1024" d="M68 324 L68 426 L840 764 L68 1100 L68 1203 L955 809 L955 714 L68 324 Z M68 164 L68 263 L955 263 L955 164 L68 164 Z " />
<glyph glyph-name="yen" unicode="&#xa5;" horiz-adv-x="1065" d="M747 855 L953 855 L953 772 L704 772 L617 605 L953 605 L953 522 L599 522 L602 0 L483 0 L485 522 L111 522 L111 605 L467 605 L375 772 L111 772 L111 855 L330 855 L52 1365 L185 1365 L539 692 L887 1365 L1012 1365 L747 855 Z " />
<glyph glyph-name="mu" unicode="&#xb5;" horiz-adv-x="1024" d="M113 -339 L113 983 L219 983 L219 412 Q219 291 238 235 Q274 129 374 84 Q434 56 502 56 Q640 56 725 164 Q772 224 791 293 Q806 348 806 435 L806 983 L912 983 L912 0 L806 0 L806 197 Q764 101 715 54 Q627 -28 498 -28 Q379 -28 294 42 Q258 71 219 132 L219 -339 L113 -339 Z " />
<glyph glyph-name="partialdiff" unicode="&#x2202;" horiz-adv-x="1024" d="M191 1280 L206 1376 Q365 1353 469 1307 Q716 1198 845 942 Q951 732 951 485 Q951 295 872 173 Q807 73 700 20 Q611 -24 514 -24 Q360 -24 237 81 Q73 220 73 437 Q73 587 159 711 Q225 807 329 854 Q413 892 503 892 Q642 892 734 820 Q772 790 823 720 Q776 846 757 887 Q679 1055 500 1168 Q401 1231 305 1258 Q262 1270 191 1280 Z M527 809 Q402 809 308 728 Q257 683 223 613 Q181 526 181 431 Q181 266 293 154 Q388 60 515 60 Q633 60 725 145 Q844 256 844 446 Q844 634 729 732 Q639 809 527 809 Z " />
<glyph glyph-name="summation" unicode="&#x2211;" horiz-adv-x="1365" d="M1208 1536 L1208 1085 L1110 1085 L1102 1436 L180 1436 L699 555 L180 -413 L1121 -413 L1126 -66 L1227 -66 L1227 -512 L63 -512 L63 -399 L575 555 L63 1428 L63 1536 L1208 1536 Z " />
<glyph glyph-name="product" unicode="&#x220f;" horiz-adv-x="1405" d="M73 1536 L1333 1536 L1333 1437 L1173 1437 L1173 -413 L1333 -413 L1333 -512 L897 -512 L897 -413 L1067 -413 L1067 1437 L338 1437 L338 -413 L507 -413 L507 -512 L73 -512 L73 -413 L232 -413 L232 1437 L73 1437 L73 1536 Z " />
<glyph glyph-name="pi" unicode="&#x3c0;" horiz-adv-x="970" d="M806 880 L806 0 L700 0 L700 880 L270 880 L270 0 L164 0 L164 880 L27 880 L27 969 L942 969 L942 880 L806 880 Z " />
<glyph glyph-name="integral" unicode="&#x222b;" horiz-adv-x="1024" d="M231 -490 L258 -396 Q306 -416 342 -416 Q434 -416 451 -333 Q459 -296 459 -179 L459 1185 Q459 1361 475 1411 Q493 1467 544 1502 Q596 1536 673 1536 Q724 1536 792 1513 L765 1419 Q718 1440 681 1440 Q589 1440 572 1357 Q565 1321 565 1162 L565 -161 Q565 -300 556 -351 Q544 -431 478 -472 Q418 -510 332 -510 Q280 -510 231 -490 Z " />
<glyph glyph-name="ordfeminine" unicode="&#xaa;" horiz-adv-x="1024" d="M371 1205 L289 1205 Q307 1382 514 1382 Q608 1382 666 1338 Q712 1303 719 1228 Q722 1200 722 1147 L722 930 Q722 812 740 759 L660 759 Q648 797 644 830 Q602 778 567 762 Q523 742 467 742 Q383 742 332 783 Q268 833 268 920 Q268 1050 416 1105 Q501 1136 643 1158 L643 1192 Q643 1247 621 1273 Q590 1311 512 1311 Q389 1311 371 1205 Z M643 1093 Q513 1068 449 1041 Q351 1000 351 924 Q351 873 387 841 Q418 814 472 814 Q568 814 614 887 Q643 932 643 1032 L643 1093 Z M241 650 L766 650 L766 579 L241 579 L241 650 Z " />
<glyph glyph-name="ordmasculine" unicode="&#xba;" horiz-adv-x="1024" d="M513 1382 Q620 1382 692 1305 Q776 1215 776 1063 Q776 909 692 818 Q621 741 509 741 Q404 741 333 818 Q249 910 249 1062 Q249 1215 333 1305 Q405 1382 513 1382 Z M513 1310 Q437 1310 389 1251 Q332 1180 332 1062 Q332 943 389 872 Q436 813 510 813 Q589 813 636 872 Q693 943 693 1063 Q693 1181 636 1251 Q587 1310 513 1310 Z M250 650 L775 650 L775 579 L250 579 L250 650 Z " />
<glyph glyph-name="uni2126" unicode="&#x2126;" horiz-adv-x="1365" d="M58 0 L58 96 L457 96 Q58 323 58 740 Q58 1064 297 1260 Q465 1398 683 1398 Q902 1398 1069 1260 Q1308 1065 1308 740 Q1308 478 1145 288 Q1049 176 909 96 L1308 96 L1308 0 L780 0 L780 88 Q934 176 1018 267 Q1200 464 1200 730 Q1200 1003 1007 1177 Q867 1302 686 1302 Q506 1302 368 1187 Q166 1019 166 730 Q166 325 587 88 L587 0 L58 0 Z " />
<glyph glyph-name="ae" unicode="&#xe6;" horiz-adv-x="1547" d="M1447 477 L789 477 Q791 300 848 208 Q931 73 1089 73 Q1249 73 1329 232 L1432 213 Q1408 134 1350 76 Q1252 -24 1089 -24 Q936 -24 832 68 Q774 118 741 188 Q693 102 643 60 Q546 -24 404 -24 Q283 -24 200 37 Q100 110 100 236 Q100 360 200 445 Q306 534 495 557 Q571 566 676 566 L676 633 Q676 779 646 825 Q599 899 475 899 Q282 899 230 718 L130 718 Q149 833 222 904 Q317 996 476 996 Q641 996 719 912 Q755 873 769 812 Q873 996 1072 996 Q1201 996 1295 917 Q1449 788 1447 477 Z M1324 566 Q1321 700 1271 782 Q1200 899 1070 899 Q931 899 849 756 Q805 678 793 566 L1324 566 Z M676 477 Q534 478 433 454 Q212 401 212 238 Q212 161 269 116 Q325 73 409 73 Q564 73 636 197 Q676 265 676 393 L676 477 Z " />
<glyph glyph-name="oslash" unicode="&#xf8;" horiz-adv-x="1010" d="M190 140 Q100 284 100 473 Q100 732 243 883 Q350 997 509 997 Q664 997 776 885 L840 967 L931 967 L822 827 Q911 689 911 495 Q911 238 768 88 Q660 -24 500 -24 Q345 -24 238 79 L176 0 L80 0 L190 140 Z M260 230 L710 802 Q630 900 511 900 Q344 900 260 720 Q211 616 211 466 Q211 333 260 230 Z M751 737 L303 162 Q378 72 500 72 Q666 72 750 249 Q799 352 799 501 Q799 635 751 737 Z " />
<glyph glyph-name="questiondown" unicode="&#xbf;" horiz-adv-x="840" d="M472 968 Q515 968 545 937 Q576 907 576 864 Q576 820 546 790 Q516 758 470 758 Q427 758 396 790 Q366 820 366 863 Q366 908 398 938 Q429 968 472 968 Z M413 577 L525 577 L525 553 L525 450 Q525 338 511 292 Q497 244 465 206 Q435 169 381 115 Q311 44 281 -2 Q242 -61 242 -127 Q242 -210 297 -255 Q346 -295 426 -295 Q553 -295 607 -212 Q634 -169 643 -90 L745 -90 Q740 -220 675 -298 Q588 -404 421 -404 Q292 -404 215 -342 Q119 -264 119 -122 Q119 -34 168 40 Q203 94 296 183 Q396 280 408 347 Q414 380 414 502 Q414 529 413 577 Z " />
<glyph glyph-name="exclamdown" unicode="&#xa1;" horiz-adv-x="508" d="M313 -398 L195 -398 L217 584 L300 584 L313 -398 Z M254 968 Q296 968 327 937 Q358 907 358 864 Q358 821 328 790 Q298 758 252 758 Q209 758 178 790 Q148 820 148 863 Q148 908 180 938 Q211 968 254 968 Z " />
<glyph glyph-name="logicalnot" unicode="&#xac;" horiz-adv-x="1024" d="M849 0 L849 448 L68 448 L68 547 L955 547 L955 0 L849 0 Z " />
<glyph glyph-name="radical" unicode="&#x221a;" horiz-adv-x="1365" d="M1365 1696 L1365 1597 L950 1597 L470 0 L349 0 L162 633 L0 633 L0 732 L248 732 L337 437 Q365 344 406 160 L414 160 Q424 200 463 345 L519 555 L624 900 L861 1696 L1365 1696 Z " />
<glyph glyph-name="florin" unicode="&#x192;" horiz-adv-x="1065" d="M687 967 L891 967 L891 867 L670 867 L536 106 Q496 -120 456 -187 Q392 -296 253 -296 Q161 -296 38 -236 L60 -126 Q157 -193 244 -193 Q304 -193 337 -161 Q370 -128 394 -27 Q404 19 423 126 L554 868 L363 868 L363 967 L572 967 L599 1121 Q629 1295 676 1362 Q747 1462 875 1462 Q944 1462 1027 1428 L1009 1323 Q917 1363 869 1363 Q788 1363 750 1264 Q731 1213 709 1091 L687 967 Z " />
<glyph glyph-name="approxequal" unicode="&#x2248;" horiz-adv-x="1024" d="M89 712 L22 755 Q57 825 98 875 Q177 972 292 972 Q371 972 527 894 Q633 841 669 831 Q703 822 733 822 Q808 822 861 875 Q895 910 934 976 L1002 936 Q890 721 723 721 Q677 721 594 751 Q577 757 439 825 Q342 872 285 872 Q214 872 161 815 Q126 779 89 712 Z M89 397 L22 440 Q56 509 98 560 Q177 658 292 658 Q371 658 527 580 Q632 528 669 518 Q704 508 734 508 Q808 508 861 561 Q895 596 934 662 L1002 621 Q890 407 723 407 Q675 407 594 438 Q572 446 439 511 Q342 558 285 558 Q214 558 161 501 Q126 465 89 397 Z " />
<glyph glyph-name="Delta" unicode="&#x2206;" horiz-adv-x="1365" d="M65 0 L625 1365 L738 1365 L1301 0 L65 0 Z M217 99 L1147 99 L682 1236 L217 99 Z " />
<glyph glyph-name="guillemotleft" unicode="&#xab;" horiz-adv-x="707" d="M563 0 L494 0 L322 478 L494 967 L563 967 L415 478 L563 0 Z M339 0 L269 0 L98 478 L269 967 L339 967 L191 478 L339 0 Z " />
<glyph glyph-name="guillemotright" unicode="&#xbb;" horiz-adv-x="707" d="M144 967 L213 967 L385 489 L213 0 L144 0 L292 489 L144 967 Z M368 967 L438 967 L609 489 L438 0 L368 0 L516 489 L368 967 Z " />
<glyph glyph-name="ellipsis" unicode="&#x2026;" horiz-adv-x="1404" d="M263 187 Q306 187 337 156 Q367 125 367 82 Q367 37 335 7 Q304 -23 262 -23 Q218 -23 188 8 Q157 38 157 81 Q157 125 187 155 Q218 187 263 187 Z M702 187 Q744 187 776 156 Q806 125 806 82 Q806 37 774 7 Q743 -23 701 -23 Q658 -23 627 8 Q596 38 596 81 Q596 125 626 155 Q657 187 702 187 Z M1141 187 Q1183 187 1215 156 Q1245 125 1245 82 Q1245 38 1213 7 Q1182 -23 1140 -23 Q1097 -23 1066 8 Q1035 38 1035 81 Q1035 125 1065 155 Q1096 187 1141 187 Z " />
<glyph glyph-name="Agrave" unicode="&#xc0;" horiz-adv-x="1134" d="M522 1377 L612 1377 L1085 0 L963 0 L829 388 L305 388 L170 0 L49 0 L522 1377 Z M795 490 L567 1210 L338 490 L795 490 Z M660 1496 L541 1496 L225 1758 L395 1758 L660 1496 Z " />
<glyph glyph-name="Atilde" unicode="&#xc3;" horiz-adv-x="1134" d="M522 1377 L612 1377 L1085 0 L963 0 L829 388 L305 388 L170 0 L49 0 L522 1377 Z M795 490 L567 1210 L338 490 L795 490 Z M326 1514 L247 1548 Q262 1612 282 1651 Q329 1740 428 1740 Q496 1740 584 1682 Q630 1651 655 1636 Q690 1616 724 1616 Q807 1616 823 1747 L901 1712 Q893 1646 872 1607 Q851 1567 812 1542 Q769 1514 721 1514 Q675 1514 633 1535 Q594 1555 544 1589 Q472 1637 429 1637 Q354 1637 326 1514 Z " />
<glyph glyph-name="Otilde" unicode="&#xd5;" horiz-adv-x="1305" d="M653 1388 Q806 1388 932 1298 Q1071 1199 1137 1012 Q1189 866 1189 685 Q1189 364 1035 165 Q889 -23 646 -23 Q499 -23 373 66 Q236 164 168 353 Q116 498 116 683 Q116 1005 270 1200 Q419 1388 653 1388 Z M652 1283 Q529 1283 429 1201 Q327 1117 279 953 Q243 832 243 683 Q243 416 355 246 Q406 168 489 123 Q565 82 647 82 Q777 82 877 164 Q977 247 1026 412 Q1062 532 1062 685 Q1062 953 950 1119 Q897 1198 816 1242 Q739 1283 652 1283 Z M418 1514 L339 1548 Q354 1612 375 1651 Q421 1740 521 1740 Q588 1740 676 1682 Q722 1651 747 1636 Q782 1616 817 1616 Q900 1616 915 1747 L993 1712 Q985 1646 964 1607 Q943 1567 904 1542 Q861 1514 813 1514 Q767 1514 725 1535 Q687 1555 637 1589 Q564 1637 521 1637 Q446 1637 418 1514 Z " />
<glyph glyph-name="OE" unicode="&#x152;" horiz-adv-x="1881" d="M1066 1167 L1066 1365 L1772 1365 L1772 1263 L1182 1263 L1181 758 L1731 758 L1731 656 L1182 656 L1182 102 L1781 102 L1781 0 L1066 0 L1066 200 Q915 -23 666 -23 Q418 -23 268 168 Q116 362 116 679 Q116 1035 300 1235 Q442 1388 667 1388 Q908 1388 1066 1167 Z M655 1283 Q506 1283 410 1183 Q244 1012 244 690 Q244 352 407 184 Q507 81 660 81 Q754 81 836 127 Q952 193 1014 364 Q1064 502 1064 681 Q1064 905 989 1058 Q880 1283 655 1283 Z " />
<glyph glyph-name="oe" unicode="&#x153;" horiz-adv-x="1663" d="M1561 461 L906 461 Q912 300 964 210 Q1044 72 1203 72 Q1374 72 1443 233 L1546 214 Q1453 -24 1203 -24 Q958 -24 844 205 Q723 -24 505 -24 Q318 -24 204 127 Q100 264 100 481 Q100 739 239 883 Q348 996 510 996 Q734 996 846 758 Q885 843 942 898 Q1045 996 1187 996 Q1405 996 1507 789 Q1564 673 1564 527 Q1564 508 1561 461 Z M1440 550 Q1438 691 1381 786 Q1313 899 1181 899 Q1049 899 972 771 Q921 685 906 550 L1440 550 Z M507 899 Q373 899 292 784 Q212 671 212 483 Q212 299 292 186 Q371 73 503 73 Q582 73 646 119 Q719 172 756 284 Q786 375 786 485 Q786 672 708 786 Q632 899 507 899 Z " />
<glyph glyph-name="endash" unicode="&#x2013;" horiz-adv-x="1024" d="M161 560 L864 560 L864 471 L161 471 L161 560 Z " />
<glyph glyph-name="emdash" unicode="&#x2014;" horiz-adv-x="1138" d="M0 560 L1138 560 L1138 471 L0 471 L0 560 Z " />
<glyph glyph-name="quotedblleft" unicode="&#x201c;" horiz-adv-x="787" d="M580 1388 L708 1388 Q571 1256 548 1147 Q562 1149 568 1149 Q609 1149 639 1117 Q666 1087 666 1046 Q666 997 629 965 Q597 938 554 938 Q505 938 470 973 Q434 1010 434 1076 Q434 1219 580 1388 Z M273 1388 L401 1388 Q264 1256 241 1147 Q254 1149 261 1149 Q301 1149 331 1117 Q358 1087 358 1046 Q358 997 321 965 Q290 938 246 938 Q197 938 163 973 Q127 1010 127 1076 Q127 1219 273 1388 Z " />
<glyph glyph-name="quotedblright" unicode="&#x201d;" horiz-adv-x="814" d="M208 938 L79 938 Q215 1065 239 1178 Q227 1177 219 1177 Q179 1177 149 1209 Q122 1239 122 1280 Q122 1329 159 1361 Q190 1388 233 1388 Q283 1388 317 1353 Q353 1316 353 1250 Q353 1105 208 938 Z M542 938 L414 938 Q550 1065 574 1178 Q562 1177 554 1177 Q513 1177 483 1209 Q456 1238 456 1280 Q456 1329 493 1361 Q525 1388 568 1388 Q617 1388 652 1353 Q688 1316 688 1250 Q688 1106 542 938 Z " />
<glyph glyph-name="quoteleft" unicode="&#x2018;" horiz-adv-x="480" d="M273 1388 L401 1388 Q264 1256 241 1147 Q254 1149 261 1149 Q301 1149 331 1117 Q358 1087 358 1046 Q358 997 321 965 Q290 938 246 938 Q197 938 163 973 Q127 1010 127 1076 Q127 1219 273 1388 Z " />
<glyph glyph-name="quoteright" unicode="&#x2019;" horiz-adv-x="480" d="M208 938 L79 938 Q215 1065 239 1178 Q227 1177 219 1177 Q179 1177 149 1209 Q122 1239 122 1280 Q122 1329 159 1361 Q190 1388 233 1388 Q283 1388 317 1353 Q353 1316 353 1250 Q353 1105 208 938 Z " />
<glyph glyph-name="divide" unicode="&#xf7;" horiz-adv-x="1065" d="M533 497 Q567 497 593 472 Q617 447 617 412 Q617 376 591 351 Q567 327 532 327 Q497 327 472 352 Q447 376 447 411 Q447 447 471 471 Q497 497 533 497 Z M533 1038 Q567 1038 593 1013 Q617 988 617 953 Q617 917 591 892 Q566 868 531 868 Q497 868 472 893 Q447 917 447 952 Q447 988 471 1012 Q497 1038 533 1038 Z M112 730 L954 730 L954 647 L112 647 L112 730 Z " />
<glyph glyph-name="lozenge" unicode="&#x25ca;" horiz-adv-x="1365" d="M683 1419 L1214 683 L683 -53 L151 683 L683 1419 Z M683 1238 L279 683 L683 129 L1086 683 L683 1238 Z " />
<glyph glyph-name="ydieresis" unicode="&#xff;" horiz-adv-x="855" d="M33 969 L148 969 L427 138 L716 969 L828 969 L512 82 Q439 -127 404 -200 Q304 -408 88 -408 Q72 -408 54 -407 L54 -312 Q185 -312 242 -255 Q289 -207 336 -85 Q347 -58 368 1 L33 969 Z M257 1378 Q296 1378 325 1349 Q354 1321 354 1280 Q354 1240 325 1212 Q297 1183 256 1183 Q216 1183 187 1212 Q159 1240 159 1280 Q159 1322 187 1349 Q216 1378 257 1378 Z M605 1378 Q644 1378 673 1349 Q702 1321 702 1280 Q702 1240 673 1212 Q645 1183 604 1183 Q564 1183 535 1212 Q507 1240 507 1280 Q507 1321 535 1349 Q564 1378 605 1378 Z " />
<glyph glyph-name="Ydieresis" unicode="&#x178;" horiz-adv-x="1014" d="M32 1365 L169 1365 L509 696 L845 1365 L982 1365 L562 585 L565 0 L449 0 L452 585 L32 1365 Z M329 1732 Q371 1732 401 1701 Q432 1671 432 1627 Q432 1584 401 1554 Q371 1523 328 1523 Q284 1523 254 1554 Q223 1584 223 1627 Q223 1672 254 1701 Q285 1732 329 1732 Z M689 1732 Q731 1732 761 1701 Q792 1671 792 1627 Q792 1584 761 1554 Q731 1523 688 1523 Q644 1523 614 1554 Q583 1584 583 1627 Q583 1672 614 1701 Q645 1732 689 1732 Z " />
<glyph glyph-name="fraction" unicode="&#x2044;" horiz-adv-x="245" d="M464 1331 L563 1331 L-220 0 L-318 0 L464 1331 Z " />
<glyph glyph-name="Euro" unicode="&#x20ac;" horiz-adv-x="1100" d="M311 846 L916 846 L873 752 L300 752 Q297 705 297 660 Q297 643 298 622 L814 622 L771 528 L303 528 Q318 345 395 230 Q495 81 691 81 Q841 81 952 169 Q1015 219 1074 322 L1074 151 Q1010 86 954 54 Q828 -17 666 -17 Q394 -17 269 211 Q196 344 178 528 L20 528 L61 622 L177 622 Q176 643 176 651 Q176 684 180 752 L16 752 L56 846 L190 846 Q221 1039 303 1159 Q445 1367 694 1367 Q927 1367 1075 1196 L1024 1084 Q968 1154 924 1189 Q821 1269 692 1269 Q492 1269 384 1076 Q335 990 311 846 Z " />
<glyph glyph-name="guilsinglleft" unicode="&#x2039;" horiz-adv-x="450" d="M326 0 L246 0 L75 478 L246 967 L326 967 L178 478 L326 0 Z " />
<glyph glyph-name="guilsinglright" unicode="&#x203a;" horiz-adv-x="450" d="M124 967 L203 967 L375 489 L203 0 L124 0 L272 489 L124 967 Z " />
<glyph glyph-name="fi" unicode="&#xfb01;" horiz-adv-x="974" d="M284 969 L529 969 L529 880 L291 880 L291 0 L174 0 L174 880 L34 880 L34 969 L174 969 L174 1032 Q174 1147 182 1194 Q196 1274 246 1323 Q313 1388 418 1388 Q479 1388 549 1363 L549 1255 Q491 1291 427 1291 Q330 1291 300 1208 Q284 1164 284 1049 L284 969 Z M703 969 L820 969 L820 0 L703 0 L703 969 Z M762 1381 Q795 1381 820 1361 Q852 1334 852 1289 Q852 1256 831 1231 Q806 1200 762 1200 Q724 1200 698 1225 Q671 1250 671 1289 Q671 1330 699 1356 Q725 1381 762 1381 Z " />
<glyph glyph-name="fl" unicode="&#xfb02;" horiz-adv-x="974" d="M284 969 L529 969 L529 880 L291 880 L291 0 L174 0 L174 880 L34 880 L34 969 L174 969 L174 1032 Q174 1147 182 1194 Q196 1274 246 1323 Q313 1388 418 1388 Q479 1388 549 1363 L549 1255 Q493 1291 427 1291 Q330 1291 300 1208 Q284 1164 284 1049 L284 969 Z M703 1371 L820 1371 L820 0 L703 0 L703 1371 Z " />
<glyph glyph-name="daggerdbl" unicode="&#x2021;" horiz-adv-x="1024" d="M463 1331 L564 1331 L564 1088 L957 1088 L957 991 L564 991 L564 101 L957 101 L957 4 L564 4 L564 -273 L463 -273 L463 4 L67 4 L67 101 L463 101 L463 991 L67 991 L67 1088 L463 1088 L463 1331 Z " />
<glyph glyph-name="periodcentered" unicode="&#xb7;" horiz-adv-x="526" d="M263 617 Q306 617 337 585 Q367 555 367 511 Q367 468 335 437 Q304 407 262 407 Q218 407 188 438 Q157 469 157 511 Q157 555 187 585 Q218 617 263 617 Z " />
<glyph glyph-name="quotesinglbase" unicode="&#x201a;" horiz-adv-x="480" d="M208 -244 L79 -244 Q215 -116 239 -3 Q226 -5 219 -5 Q179 -5 149 27 Q122 57 122 97 Q122 147 159 179 Q190 206 233 206 Q283 206 317 171 Q353 134 353 68 Q353 -75 208 -244 Z " />
<glyph glyph-name="quotedblbase" unicode="&#x201e;" horiz-adv-x="814" d="M208 -244 L79 -244 Q215 -116 239 -3 Q226 -5 219 -5 Q179 -5 149 27 Q122 57 122 97 Q122 147 159 179 Q190 206 233 206 Q283 206 317 171 Q353 134 353 68 Q353 -75 208 -244 Z M542 -244 L414 -244 Q550 -116 574 -3 Q560 -5 554 -5 Q514 -5 483 27 Q456 56 456 97 Q456 147 493 179 Q525 206 568 206 Q617 206 652 171 Q688 134 688 68 Q688 -75 542 -244 Z " />
<glyph glyph-name="perthousand" unicode="&#x2030;" horiz-adv-x="1658" d="M892 1365 L991 1365 L185 0 L87 0 L892 1365 Z M785 644 Q892 644 962 550 Q1034 455 1034 316 Q1034 162 948 66 Q880 -11 783 -11 Q678 -11 608 82 Q536 178 536 316 Q536 471 621 567 Q690 644 785 644 Z M785 553 Q719 553 677 479 Q639 412 639 316 Q639 211 683 144 Q725 80 784 80 Q852 80 894 154 Q932 221 932 316 Q932 421 888 490 Q847 553 785 553 Z M1365 644 Q1472 644 1542 550 Q1614 455 1614 316 Q1614 162 1528 66 Q1460 -11 1363 -11 Q1259 -11 1188 82 Q1116 177 1116 316 Q1116 471 1202 567 Q1270 644 1365 644 Z M1365 553 Q1299 553 1257 479 Q1219 412 1219 316 Q1219 211 1263 144 Q1304 80 1364 80 Q1432 80 1474 154 Q1512 221 1512 316 Q1512 421 1468 490 Q1427 553 1365 553 Z M292 1376 Q399 1376 469 1283 Q541 1188 541 1048 Q541 893 456 798 Q387 721 290 721 Q186 721 115 814 Q43 909 43 1048 Q43 1204 128 1299 Q197 1376 292 1376 Z M292 1285 Q225 1285 183 1211 Q146 1144 146 1048 Q146 944 190 876 Q231 812 290 812 Q358 812 401 886 Q438 952 438 1048 Q438 1154 394 1222 Q353 1285 292 1285 Z " />
<glyph glyph-name="Acircumflex" unicode="&#xc2;" horiz-adv-x="1134" d="M522 1377 L612 1377 L1085 0 L963 0 L829 388 L305 388 L170 0 L49 0 L522 1377 Z M795 490 L567 1210 L338 490 L795 490 Z M231 1496 L491 1758 L643 1758 L904 1496 L794 1496 L567 1684 L340 1496 L231 1496 Z " />
<glyph glyph-name="Ecircumflex" unicode="&#xca;" horiz-adv-x="1004" d="M296 758 L854 758 L854 656 L296 656 L296 102 L904 102 L904 0 L180 0 L180 1365 L895 1365 L895 1263 L296 1263 L296 758 Z M206 1496 L466 1758 L618 1758 L878 1496 L769 1496 L542 1684 L315 1496 L206 1496 Z " />
<glyph glyph-name="Aacute" unicode="&#xc1;" horiz-adv-x="1134" d="M522 1377 L612 1377 L1085 0 L963 0 L829 388 L305 388 L170 0 L49 0 L522 1377 Z M795 490 L567 1210 L338 490 L795 490 Z M474 1496 L738 1758 L909 1758 L593 1496 L474 1496 Z " />
<glyph glyph-name="Edieresis" unicode="&#xcb;" horiz-adv-x="1004" d="M296 758 L854 758 L854 656 L296 656 L296 102 L904 102 L904 0 L180 0 L180 1365 L895 1365 L895 1263 L296 1263 L296 758 Z M363 1732 Q405 1732 435 1701 Q466 1671 466 1627 Q466 1584 435 1554 Q405 1523 361 1523 Q318 1523 288 1554 Q257 1584 257 1627 Q257 1672 288 1701 Q319 1732 363 1732 Z M723 1732 Q764 1732 795 1701 Q826 1671 826 1627 Q826 1584 795 1554 Q765 1523 721 1523 Q678 1523 648 1554 Q617 1584 617 1627 Q617 1672 648 1701 Q679 1732 723 1732 Z " />
<glyph glyph-name="Egrave" unicode="&#xc8;" horiz-adv-x="1004" d="M296 758 L854 758 L854 656 L296 656 L296 102 L904 102 L904 0 L180 0 L180 1365 L895 1365 L895 1263 L296 1263 L296 758 Z M664 1496 L545 1496 L230 1758 L400 1758 L664 1496 Z " />
<glyph glyph-name="Iacute" unicode="&#xcd;" horiz-adv-x="476" d="M299 0 L177 0 L177 1365 L299 1365 L299 0 Z M150 1496 L360 1758 L523 1758 L262 1496 L150 1496 Z " />
<glyph glyph-name="Icircumflex" unicode="&#xce;" horiz-adv-x="476" d="M299 0 L177 0 L177 1365 L299 1365 L299 0 Z M-51 1496 L162 1758 L314 1758 L526 1496 L424 1496 L238 1684 L52 1496 L-51 1496 Z " />
<glyph glyph-name="Idieresis" unicode="&#xcf;" horiz-adv-x="476" d="M299 0 L177 0 L177 1365 L299 1365 L299 0 Z M103 1730 Q144 1730 174 1700 Q204 1670 204 1627 Q204 1585 174 1555 Q144 1525 102 1525 Q59 1525 29 1555 Q-1 1585 -1 1627 Q-1 1671 29 1700 Q60 1730 103 1730 Z M376 1730 Q417 1730 447 1700 Q477 1670 477 1627 Q477 1585 447 1555 Q417 1525 375 1525 Q332 1525 302 1555 Q272 1585 272 1627 Q272 1671 302 1700 Q333 1730 376 1730 Z " />
<glyph glyph-name="Igrave" unicode="&#xcc;" horiz-adv-x="476" d="M299 0 L177 0 L177 1365 L299 1365 L299 0 Z M326 1496 L214 1496 L-47 1758 L116 1758 L326 1496 Z " />
<glyph glyph-name="Oacute" unicode="&#xd3;" horiz-adv-x="1305" d="M653 1388 Q806 1388 932 1298 Q1071 1199 1137 1012 Q1189 866 1189 685 Q1189 364 1035 165 Q889 -23 646 -23 Q499 -23 373 66 Q236 164 168 353 Q116 498 116 683 Q116 1005 270 1200 Q419 1388 653 1388 Z M652 1283 Q529 1283 429 1201 Q327 1117 279 953 Q243 832 243 683 Q243 416 355 246 Q406 168 489 123 Q565 82 647 82 Q777 82 877 164 Q977 247 1026 412 Q1062 532 1062 685 Q1062 953 950 1119 Q897 1198 816 1242 Q739 1283 652 1283 Z M521 1496 L785 1758 L956 1758 L640 1496 L521 1496 Z " />
<glyph glyph-name="Ocircumflex" unicode="&#xd4;" horiz-adv-x="1305" d="M653 1388 Q806 1388 932 1298 Q1071 1199 1137 1012 Q1189 866 1189 685 Q1189 364 1035 165 Q889 -23 646 -23 Q499 -23 373 66 Q236 164 168 353 Q116 498 116 683 Q116 1005 270 1200 Q419 1388 653 1388 Z M652 1283 Q529 1283 429 1201 Q327 1117 279 953 Q243 832 243 683 Q243 416 355 246 Q406 168 489 123 Q565 82 647 82 Q777 82 877 164 Q977 247 1026 412 Q1062 532 1062 685 Q1062 953 950 1119 Q897 1198 816 1242 Q739 1283 652 1283 Z M316 1496 L577 1758 L728 1758 L989 1496 L880 1496 L652 1684 L425 1496 L316 1496 Z " />
<glyph glyph-name="Ograve" unicode="&#xd2;" horiz-adv-x="1305" d="M653 1388 Q806 1388 932 1298 Q1071 1199 1137 1012 Q1189 866 1189 685 Q1189 364 1035 165 Q889 -23 646 -23 Q499 -23 373 66 Q236 164 168 353 Q116 498 116 683 Q116 1005 270 1200 Q419 1388 653 1388 Z M652 1283 Q529 1283 429 1201 Q327 1117 279 953 Q243 832 243 683 Q243 416 355 246 Q406 168 489 123 Q565 82 647 82 Q777 82 877 164 Q977 247 1026 412 Q1062 532 1062 685 Q1062 953 950 1119 Q897 1198 816 1242 Q739 1283 652 1283 Z M788 1496 L669 1496 L354 1758 L524 1758 L788 1496 Z " />
<glyph glyph-name="Uacute" unicode="&#xda;" horiz-adv-x="1246" d="M159 1365 L275 1365 L275 555 Q276 400 281 355 Q292 244 345 185 Q398 125 494 99 Q557 82 622 82 Q741 82 831 131 Q917 177 947 263 Q969 326 969 449 L970 555 L970 1365 L1086 1365 L1086 553 Q1086 390 1081 335 Q1070 211 999 125 Q875 -23 622 -23 Q428 -23 307 68 Q204 145 174 273 Q159 335 159 453 L159 553 L159 1365 Z M491 1496 L756 1758 L926 1758 L610 1496 L491 1496 Z " />
<glyph glyph-name="Ucircumflex" unicode="&#xdb;" horiz-adv-x="1246" d="M159 1365 L275 1365 L275 555 Q276 400 281 355 Q292 244 345 185 Q398 125 494 99 Q557 82 622 82 Q741 82 831 131 Q917 177 947 263 Q969 326 969 449 L970 555 L970 1365 L1086 1365 L1086 553 Q1086 390 1081 335 Q1070 211 999 125 Q875 -23 622 -23 Q428 -23 307 68 Q204 145 174 273 Q159 335 159 453 L159 553 L159 1365 Z M286 1496 L547 1758 L699 1758 L959 1496 L850 1496 L623 1684 L396 1496 L286 1496 Z " />
<glyph glyph-name="Ugrave" unicode="&#xd9;" horiz-adv-x="1246" d="M159 1365 L275 1365 L275 555 Q276 400 281 355 Q292 244 345 185 Q398 125 494 99 Q557 82 622 82 Q741 82 831 131 Q917 177 947 263 Q969 326 969 449 L970 555 L970 1365 L1086 1365 L1086 553 Q1086 390 1081 335 Q1070 211 999 125 Q875 -23 622 -23 Q428 -23 307 68 Q204 145 174 273 Q159 335 159 453 L159 553 L159 1365 Z M754 1496 L635 1496 L319 1758 L490 1758 L754 1496 Z " />
<glyph glyph-name="dotlessi" unicode="&#x131;" horiz-adv-x="424" d="M154 969 L271 969 L271 0 L154 0 L154 969 Z " />
<glyph glyph-name="circumflex" unicode="&#x2c6;" horiz-adv-x="1024" d="M210 1145 L436 1424 L588 1424 L815 1145 L705 1145 L512 1344 L319 1145 L210 1145 Z " />
<glyph glyph-name="tilde" unicode="&#x2dc;" horiz-adv-x="1024" d="M286 1163 L210 1179 Q246 1390 380 1390 Q442 1390 519 1330 Q606 1264 646 1264 Q717 1264 734 1395 L814 1377 Q804 1289 769 1233 Q723 1160 648 1160 Q583 1160 496 1226 Q416 1287 377 1287 Q311 1287 286 1163 Z " />
<glyph glyph-name="macron" unicode="&#xaf;" horiz-adv-x="1024" d="M238 1328 L786 1328 L786 1233 L238 1233 L238 1328 Z " />
<glyph glyph-name="breve" unicode="&#x2d8;" horiz-adv-x="1024" d="M268 1409 L346 1409 Q358 1350 387 1311 Q437 1243 513 1243 Q590 1243 638 1310 Q665 1348 677 1409 L756 1409 Q749 1338 726 1285 Q664 1139 515 1139 Q366 1139 299 1286 Q274 1339 268 1409 Z " />
<glyph glyph-name="dotaccent" unicode="&#x2d9;" horiz-adv-x="1024" d="M514 1378 Q553 1378 581 1349 Q610 1321 610 1280 Q610 1240 581 1212 Q553 1183 513 1183 Q472 1183 444 1212 Q415 1240 415 1280 Q415 1322 444 1349 Q473 1378 514 1378 Z " />
<glyph glyph-name="ring" unicode="&#x2da;" horiz-adv-x="1024" d="M514 1480 Q588 1480 642 1426 Q696 1373 696 1296 Q696 1220 642 1166 Q588 1112 512 1112 Q436 1112 382 1166 Q328 1220 328 1296 Q328 1373 382 1426 Q437 1480 514 1480 Z M513 1398 Q470 1398 440 1368 Q410 1338 410 1296 Q410 1254 440 1224 Q470 1194 512 1194 Q555 1194 584 1224 Q614 1254 614 1296 Q614 1339 584 1368 Q554 1398 513 1398 Z " />
<glyph glyph-name="cedilla" unicode="&#xb8;" horiz-adv-x="1024" d="M484 0 L570 0 L507 -122 Q679 -143 679 -265 Q679 -339 621 -384 Q570 -423 487 -423 Q414 -423 344 -395 L344 -324 Q411 -343 448 -343 Q491 -343 517 -327 Q558 -302 558 -252 Q558 -198 500 -176 Q469 -164 400 -160 L484 0 Z " />
<glyph glyph-name="hungarumlaut" unicode="&#x2dd;" horiz-adv-x="1024" d="M361 1143 L534 1406 L670 1406 L463 1143 L361 1143 Z M573 1143 L746 1406 L882 1406 L675 1143 L573 1143 Z " />
<glyph glyph-name="ogonek" unicode="&#x2db;" horiz-adv-x="1024" d="M568 0 L702 0 Q507 -73 507 -170 Q507 -213 541 -239 Q576 -264 624 -264 Q663 -264 703 -251 L703 -336 Q642 -354 591 -354 Q529 -354 479 -328 Q437 -307 413 -264 Q393 -228 393 -187 Q393 -93 496 -31 Q529 -12 568 0 Z " />
<glyph glyph-name="caron" unicode="&#x2c7;" horiz-adv-x="1024" d="M815 1424 L588 1145 L436 1145 L210 1424 L319 1424 L512 1225 L705 1424 L815 1424 Z " />
<glyph glyph-name="uni00A0" unicode="&#xa0;" horiz-adv-x="512" d="" />
<glyph glyph-name="currency" unicode="&#xa4;" horiz-adv-x="1365" d="M136 243 L321 432 Q214 568 214 726 Q214 877 321 1017 L130 1206 L196 1272 L384 1084 Q526 1194 683 1194 Q841 1194 979 1084 L1169 1272 L1234 1206 L1045 1019 Q1152 880 1152 724 Q1152 568 1046 432 L1236 243 L1171 177 L981 366 Q843 259 686 259 Q535 259 388 366 L200 177 L136 243 Z M688 1092 Q533 1092 426 984 Q320 877 320 725 Q320 575 426 468 Q533 361 683 361 Q833 361 940 469 Q1046 575 1046 725 Q1046 880 941 984 Q832 1092 688 1092 Z " />
<glyph glyph-name="brokenbar" unicode="&#xa6;" horiz-adv-x="1024" d="M459 1365 L565 1365 L565 694 L459 694 L459 1365 Z M459 314 L565 314 L565 -341 L459 -341 L459 314 Z " />
<glyph glyph-name="uni00AD" unicode="&#xad;" horiz-adv-x="571" d="M0 560 L571 560 L571 471 L0 471 L0 560 Z " />
<glyph glyph-name="twosuperior" unicode="&#xb2;" horiz-adv-x="705" d="M207 1086 L122 1086 Q126 1341 369 1341 Q458 1341 519 1300 Q598 1247 598 1149 Q598 1079 541 995 Q529 978 339 740 L252 631 L234 607 L613 607 L613 532 L120 532 L120 594 Q144 624 225 726 L313 837 Q442 1001 463 1032 Q507 1093 507 1148 Q507 1205 465 1235 Q425 1264 365 1264 Q268 1264 229 1190 Q211 1155 207 1086 Z " />
<glyph glyph-name="threesuperior" unicode="&#xb3;" horiz-adv-x="705" d="M193 1117 L111 1117 Q117 1218 166 1270 Q233 1341 351 1341 Q471 1341 536 1271 Q584 1220 584 1143 Q584 1025 474 970 Q615 911 615 768 Q615 635 509 565 Q445 523 347 523 Q225 523 156 583 Q86 645 86 740 Q86 754 87 768 L168 768 Q171 600 343 600 Q429 600 478 645 Q524 688 524 765 Q524 874 427 911 Q391 924 338 924 Q321 924 294 921 L294 1002 Q323 999 337 999 Q395 999 436 1025 Q493 1062 493 1137 Q493 1192 460 1225 Q421 1264 348 1264 Q212 1264 193 1117 Z " />
<glyph glyph-name="onesuperior" unicode="&#xb9;" horiz-adv-x="705" d="M166 1159 L166 1223 Q248 1227 285 1250 Q323 1273 339 1338 L403 1338 L403 532 L318 532 L318 1159 L166 1159 Z " />
<glyph glyph-name="onequarter" unicode="&#xbc;" horiz-adv-x="1655" d="M166 1159 L166 1223 Q248 1227 285 1250 Q323 1273 339 1338 L403 1338 L403 532 L318 532 L318 1159 L166 1159 Z M1168 1331 L1268 1331 L485 0 L387 0 L1168 1331 Z M1444 276 L1589 276 L1589 199 L1445 199 L1445 -7 L1356 -7 L1356 199 L1013 199 L1013 260 L1364 806 L1444 806 L1444 276 Z M1358 276 L1360 672 L1108 276 L1358 276 Z " />
<glyph glyph-name="onehalf" unicode="&#xbd;" horiz-adv-x="1655" d="M166 1159 L166 1223 Q248 1227 285 1250 Q323 1273 339 1338 L403 1338 L403 532 L318 532 L318 1159 L166 1159 Z M1168 1331 L1268 1331 L485 0 L387 0 L1168 1331 Z M1157 554 L1072 554 Q1076 809 1319 809 Q1408 809 1470 767 Q1548 715 1548 617 Q1548 547 1491 463 Q1481 449 1289 208 L1202 98 L1184 75 L1563 75 L1563 0 L1071 0 L1070 62 Q1095 92 1175 194 L1262 306 Q1391 468 1413 499 Q1457 561 1457 615 Q1457 673 1415 703 Q1374 732 1315 732 Q1218 732 1179 658 Q1161 623 1157 554 Z " />
<glyph glyph-name="threequarters" unicode="&#xbe;" horiz-adv-x="1655" d="M193 1117 L111 1117 Q117 1218 166 1270 Q233 1341 351 1341 Q471 1341 536 1271 Q584 1220 584 1143 Q584 1025 474 970 Q615 911 615 768 Q615 635 509 565 Q445 523 347 523 Q225 523 156 583 Q86 645 86 740 Q86 754 87 768 L168 768 Q171 600 343 600 Q429 600 478 645 Q524 688 524 765 Q524 874 427 911 Q391 924 338 924 Q321 924 294 921 L294 1002 Q323 999 337 999 Q395 999 436 1025 Q493 1062 493 1137 Q493 1192 460 1225 Q421 1264 348 1264 Q212 1264 193 1117 Z M1168 1331 L1268 1331 L485 0 L387 0 L1168 1331 Z M1443 276 L1589 276 L1589 199 L1445 199 L1445 -7 L1356 -7 L1356 199 L1013 199 L1013 260 L1364 806 L1443 806 L1443 276 Z M1358 276 L1360 672 L1108 276 L1358 276 Z " />
<glyph glyph-name="Eth" unicode="&#xd0;" horiz-adv-x="1270" d="M180 1365 L353 1365 Q539 1365 627 1354 Q893 1322 1034 1109 Q1153 929 1153 683 Q1153 405 1009 222 Q861 35 618 10 Q526 0 345 0 L180 0 L180 667 L43 667 L43 763 L180 763 L180 1365 Z M296 102 L389 102 Q542 102 609 110 Q746 127 851 218 Q1026 371 1026 681 Q1026 954 889 1112 Q785 1231 618 1253 Q541 1263 360 1263 L296 1263 L296 763 L664 763 L664 667 L296 667 L296 102 Z " />
<glyph glyph-name="multiply" unicode="&#xd7;" horiz-adv-x="1065" d="M590 689 L883 396 L825 338 L531 631 L239 338 L182 395 L475 688 L181 981 L239 1040 L533 746 L826 1039 L882 982 L590 689 Z " />
<glyph glyph-name="Yacute" unicode="&#xdd;" horiz-adv-x="1014" d="M32 1365 L169 1365 L509 696 L845 1365 L982 1365 L562 585 L565 0 L449 0 L452 585 L32 1365 Z M376 1496 L640 1758 L810 1758 L495 1496 L376 1496 Z " />
<glyph glyph-name="Thorn" unicode="&#xde;" horiz-adv-x="1050" d="M180 1365 L296 1365 L296 1206 L374 1206 Q640 1206 746 1171 Q864 1131 931 1020 Q984 931 984 804 Q984 649 902 551 Q813 444 647 424 Q563 414 402 414 L296 414 L296 0 L180 0 L180 1365 Z M296 516 L398 516 Q571 516 656 534 Q856 575 856 806 Q856 938 784 1015 Q723 1081 602 1095 Q530 1104 371 1104 L296 1104 L296 516 Z " />
<glyph glyph-name="eth" unicode="&#xf0;" horiz-adv-x="1010" d="M517 1261 L671 1351 L715 1276 L569 1193 Q594 1163 663 1073 Q787 914 822 853 Q910 696 910 499 Q910 242 777 94 Q671 -24 507 -24 Q339 -24 229 98 Q100 242 100 481 Q100 746 241 887 Q306 952 398 980 Q449 996 497 996 Q545 996 606 973 L480 1142 L328 1054 L281 1127 L434 1215 L347 1333 L420 1373 L517 1261 Z M518 899 Q393 899 317 815 Q212 697 212 483 Q212 288 305 170 Q382 73 507 73 Q630 73 704 168 Q799 292 799 483 Q799 691 698 816 Q631 899 518 899 Z " />
<glyph glyph-name="yacute" unicode="&#xfd;" horiz-adv-x="855" d="M33 969 L148 969 L427 138 L716 969 L828 969 L512 82 Q439 -127 404 -200 Q304 -408 88 -408 Q72 -408 54 -407 L54 -312 Q185 -312 242 -255 Q289 -207 336 -85 Q347 -58 368 1 L33 969 Z M322 1144 L518 1407 L688 1407 L418 1144 L322 1144 Z " />
<glyph glyph-name="thorn" unicode="&#xfe;" horiz-adv-x="1012" d="M154 -404 L154 1371 L260 1371 L260 818 Q304 894 347 931 Q425 997 537 997 Q670 997 758 912 Q913 763 913 480 Q913 224 786 79 Q695 -24 547 -24 Q362 -24 260 144 L260 -404 L154 -404 Z M536 900 Q417 900 349 807 Q258 681 258 486 Q258 291 346 173 Q421 73 539 73 Q652 73 714 156 Q802 274 802 477 Q802 703 698 827 Q638 900 536 900 Z " />
<glyph glyph-name="Amacron" unicode="&#x100;" horiz-adv-x="1134" d="M522 1377 L612 1377 L1085 0 L963 0 L829 388 L305 388 L170 0 L49 0 L522 1377 Z M338 490 L795 490 L567 1210 L338 490 Z M282 1672 L852 1672 L852 1580 L282 1580 L282 1672 Z " />
<glyph glyph-name="amacron" unicode="&#x101;" horiz-adv-x="949" d="M244 727 L133 727 Q146 842 215 909 Q305 996 478 996 Q623 996 711 927 Q782 871 792 754 Q796 709 796 623 L796 268 L795 190 Q795 80 821 0 L715 0 Q697 59 690 137 Q601 -24 404 -24 Q278 -24 197 41 Q100 118 100 254 Q100 461 328 545 Q468 597 690 631 L690 682 Q690 790 653 834 Q600 899 475 899 Q274 899 244 727 Z M690 546 Q475 504 372 459 Q212 390 212 258 Q212 173 273 119 Q326 73 412 73 Q568 73 643 196 Q690 271 690 436 L690 546 Z M206 1328 L754 1328 L754 1233 L206 1233 L206 1328 Z " />
<glyph glyph-name="Abreve" unicode="&#x102;" horiz-adv-x="1134" d="M522 1377 L612 1377 L1085 0 L963 0 L829 388 L305 388 L170 0 L49 0 L522 1377 Z M795 490 L567 1210 L338 490 L795 490 Z M296 1761 L373 1761 Q386 1703 421 1665 Q480 1598 569 1598 Q657 1598 715 1665 Q747 1703 761 1761 L838 1761 Q830 1691 805 1639 Q733 1494 570 1494 Q406 1494 330 1639 Q304 1691 296 1761 Z " />
<glyph glyph-name="abreve" unicode="&#x103;" horiz-adv-x="949" d="M244 727 L133 727 Q146 842 215 909 Q305 996 478 996 Q623 996 711 927 Q782 871 792 754 Q796 709 796 623 L796 268 L795 190 Q795 80 821 0 L715 0 Q697 59 690 137 Q601 -24 404 -24 Q278 -24 197 41 Q100 118 100 254 Q100 461 328 545 Q468 597 690 631 L690 682 Q690 790 653 834 Q600 899 475 899 Q274 899 244 727 Z M690 546 Q475 504 372 459 Q212 390 212 258 Q212 173 273 119 Q326 73 412 73 Q568 73 643 196 Q690 271 690 436 L690 546 Z M237 1409 L315 1409 Q327 1350 356 1311 Q407 1243 482 1243 Q559 1243 607 1310 Q634 1348 647 1409 L725 1409 Q718 1338 695 1285 Q633 1139 484 1139 Q336 1139 268 1286 Q244 1339 237 1409 Z " />
<glyph glyph-name="Aogonek" unicode="&#x104;" horiz-adv-x="1134" d="M1085 0 Q935 -80 935 -182 Q935 -225 972 -256 Q1005 -283 1049 -283 Q1095 -283 1138 -272 L1138 -360 Q1068 -381 1014 -381 Q955 -381 903 -353 Q811 -302 811 -203 Q811 -122 885 -58 Q912 -34 976 0 L966 0 L828 388 L305 388 L170 0 L49 0 L522 1377 L612 1377 L1085 0 Z M794 490 L568 1207 L338 490 L794 490 Z " />
<glyph glyph-name="aogonek" unicode="&#x105;" horiz-adv-x="949" d="M819 0 Q804 -7 741 -56 Q671 -111 671 -168 Q671 -214 705 -239 Q739 -264 787 -264 Q827 -264 866 -251 L866 -336 Q805 -354 754 -354 Q692 -354 642 -328 Q600 -307 576 -265 Q556 -230 556 -190 Q556 -113 624 -54 Q651 -30 715 0 Q697 62 690 137 Q602 -24 404 -24 Q276 -24 196 40 Q100 118 100 252 Q100 457 328 544 Q466 597 690 631 L690 696 Q690 788 653 834 Q601 899 475 899 Q274 899 244 727 L133 727 Q146 842 215 909 Q305 996 478 996 Q623 996 711 927 Q782 871 792 754 Q796 709 796 623 L796 268 L795 188 Q795 97 819 0 Z M690 546 Q475 504 372 459 Q212 390 212 259 Q212 173 272 119 Q323 73 412 73 Q568 73 644 196 Q690 271 690 436 L690 546 Z " />
<glyph glyph-name="Cacute" unicode="&#x106;" horiz-adv-x="1233" d="M1108 1009 L994 1009 Q927 1283 662 1283 Q502 1283 403 1179 Q243 1011 243 683 Q243 377 388 202 Q488 82 660 82 Q866 82 957 246 Q1010 341 1019 449 L1133 449 Q1123 290 1042 166 Q918 -23 663 -23 Q440 -23 297 132 Q116 328 116 681 Q116 1075 332 1268 Q466 1388 661 1388 Q885 1388 1010 1242 Q1087 1152 1108 1009 Z M531 1496 L795 1758 L965 1758 L650 1496 L531 1496 Z " />
<glyph glyph-name="cacute" unicode="&#x107;" horiz-adv-x="955" d="M845 656 L739 656 Q725 752 681 811 Q617 899 501 899 Q379 899 307 806 Q212 683 212 484 Q212 269 319 151 Q391 73 506 73 Q635 73 699 178 Q737 240 745 328 L855 328 Q841 181 771 93 Q680 -24 511 -24 Q350 -24 241 81 Q100 218 100 482 Q100 760 256 903 Q357 996 504 996 Q694 996 787 849 Q834 774 845 656 Z M398 1144 L594 1407 L764 1407 L494 1144 L398 1144 Z " />
<glyph glyph-name="Ccircumflex" unicode="&#x108;" horiz-adv-x="1233" d="M1108 1009 L994 1009 Q927 1283 662 1283 Q502 1283 403 1179 Q243 1011 243 683 Q243 377 388 202 Q488 82 660 82 Q866 82 957 246 Q1010 341 1019 449 L1133 449 Q1123 290 1042 166 Q918 -23 663 -23 Q440 -23 297 132 Q116 328 116 681 Q116 1075 332 1268 Q466 1388 661 1388 Q885 1388 1010 1242 Q1087 1152 1108 1009 Z M332 1496 L593 1758 L745 1758 L1005 1496 L896 1496 L669 1684 L442 1496 L332 1496 Z " />
<glyph glyph-name="ccircumflex" unicode="&#x109;" horiz-adv-x="955" d="M845 656 L739 656 Q725 752 681 811 Q617 899 501 899 Q379 899 307 806 Q212 683 212 484 Q212 269 319 151 Q391 73 506 73 Q635 73 699 178 Q737 240 745 328 L855 328 Q841 181 771 93 Q680 -24 511 -24 Q350 -24 241 81 Q100 218 100 482 Q100 760 256 903 Q357 996 504 996 Q694 996 787 849 Q834 774 845 656 Z M200 1145 L426 1424 L578 1424 L804 1145 L695 1145 L502 1344 L309 1145 L200 1145 Z " />
<glyph glyph-name="Cdotaccent" unicode="&#x10a;" horiz-adv-x="1233" d="M1108 1009 L994 1009 Q927 1283 662 1283 Q502 1283 403 1179 Q243 1011 243 683 Q243 377 388 202 Q488 82 660 82 Q866 82 957 246 Q1010 341 1019 449 L1133 449 Q1123 290 1042 166 Q918 -23 663 -23 Q440 -23 297 132 Q116 328 116 681 Q116 1075 332 1268 Q466 1388 661 1388 Q885 1388 1010 1242 Q1087 1152 1108 1009 Z M668 1744 Q716 1744 750 1710 Q784 1676 784 1627 Q784 1579 750 1544 Q716 1510 667 1510 Q618 1510 584 1544 Q550 1579 550 1627 Q550 1676 584 1710 Q619 1744 668 1744 Z " />
<glyph glyph-name="cdotaccent" unicode="&#x10b;" horiz-adv-x="956" d="M845 656 L739 656 Q725 752 681 811 Q617 899 501 899 Q379 899 307 806 Q212 683 212 484 Q212 269 319 151 Q391 73 506 73 Q635 73 699 178 Q737 240 745 328 L855 328 Q841 181 771 93 Q680 -24 511 -24 Q350 -24 241 81 Q100 218 100 482 Q100 760 256 903 Q357 996 504 996 Q694 996 787 849 Q834 774 845 656 Z M513 1378 Q552 1378 580 1349 Q609 1321 609 1280 Q609 1240 580 1212 Q552 1183 512 1183 Q471 1183 443 1212 Q414 1240 414 1280 Q414 1322 443 1349 Q472 1378 513 1378 Z " />
<glyph glyph-name="Ccaron" unicode="&#x10c;" horiz-adv-x="1233" d="M1108 1009 L994 1009 Q927 1283 662 1283 Q502 1283 403 1179 Q243 1011 243 683 Q243 377 388 202 Q488 82 660 82 Q866 82 957 246 Q1010 341 1019 449 L1133 449 Q1123 290 1042 166 Q918 -23 663 -23 Q440 -23 297 132 Q116 328 116 681 Q116 1075 332 1268 Q466 1388 661 1388 Q885 1388 1010 1242 Q1087 1152 1108 1009 Z M1004 1758 L744 1496 L592 1496 L331 1758 L440 1758 L668 1570 L895 1758 L1004 1758 Z " />
<glyph glyph-name="ccaron" unicode="&#x10d;" horiz-adv-x="956" d="M845 656 L739 656 Q725 752 681 811 Q617 899 501 899 Q379 899 307 806 Q212 683 212 484 Q212 269 319 151 Q391 73 506 73 Q635 73 699 178 Q737 240 745 328 L855 328 Q841 181 771 93 Q680 -24 511 -24 Q350 -24 241 81 Q100 218 100 482 Q100 760 256 903 Q357 996 504 996 Q694 996 787 849 Q834 774 845 656 Z M814 1424 L588 1145 L436 1145 L209 1424 L319 1424 L512 1225 L705 1424 L814 1424 Z " />
<glyph glyph-name="Dcaron" unicode="&#x10e;" horiz-adv-x="1270" d="M180 1365 L353 1365 Q539 1365 627 1354 Q894 1322 1035 1109 Q1154 929 1154 684 Q1154 406 1010 222 Q862 35 619 10 Q526 0 345 0 L180 0 L180 1365 Z M296 102 L389 102 Q542 102 609 110 Q747 127 852 218 Q1027 371 1027 681 Q1027 955 890 1112 Q786 1231 619 1253 Q541 1263 360 1263 L296 1263 L296 102 Z M915 1758 L654 1496 L502 1496 L242 1758 L351 1758 L578 1570 L806 1758 L915 1758 Z " />
<glyph glyph-name="dcaron" unicode="&#x10f;" horiz-adv-x="1124" d="M858 1371 L858 280 Q858 65 878 0 L769 0 Q751 56 751 111 Q751 119 752 139 Q711 71 667 36 Q591 -24 481 -24 Q322 -24 224 86 Q99 227 99 476 Q99 723 215 873 Q309 996 471 996 Q664 996 752 823 L752 1371 L858 1371 Z M486 899 Q366 899 301 812 Q210 689 210 482 Q210 280 301 159 Q366 73 482 73 Q598 73 663 159 Q754 281 754 484 Q754 691 663 812 Q597 899 486 899 Z M1025 1026 L940 1026 Q1049 1127 1068 1214 Q1056 1212 1051 1212 Q1016 1212 991 1240 Q967 1265 967 1300 Q967 1341 999 1369 Q1026 1392 1063 1392 Q1105 1392 1134 1362 Q1165 1331 1165 1275 Q1165 1160 1025 1026 Z " />
<glyph glyph-name="Dcroat" unicode="&#x110;" horiz-adv-x="1270" d="M180 1365 L353 1365 Q539 1365 627 1354 Q893 1322 1034 1109 Q1153 929 1153 683 Q1153 405 1009 222 Q861 35 618 10 Q526 0 345 0 L180 0 L180 667 L43 667 L43 763 L180 763 L180 1365 Z M296 102 L389 102 Q542 102 609 110 Q746 127 851 218 Q1026 371 1026 681 Q1026 954 889 1112 Q785 1231 618 1253 Q541 1263 360 1263 L296 1263 L296 763 L664 763 L664 667 L296 667 L296 102 Z " />
<glyph glyph-name="dcroat" unicode="&#x111;" horiz-adv-x="1012" d="M858 1371 L858 1224 L981 1224 L981 1135 L858 1135 L858 280 Q858 65 878 0 L769 0 Q751 55 751 111 Q751 120 752 139 Q711 71 668 36 Q591 -24 482 -24 Q323 -24 225 86 Q100 227 100 476 Q100 723 216 873 Q310 996 472 996 Q665 996 752 823 L752 1135 L480 1135 L480 1224 L752 1224 L752 1371 L858 1371 Z M487 899 Q367 899 302 812 Q211 689 211 482 Q211 280 302 159 Q367 73 483 73 Q599 73 663 159 Q754 281 754 484 Q754 691 663 812 Q598 899 487 899 Z " />
<glyph glyph-name="Emacron" unicode="&#x112;" horiz-adv-x="1004" d="M296 758 L854 758 L854 656 L296 656 L296 102 L904 102 L904 0 L180 0 L180 1365 L895 1365 L895 1263 L296 1263 L296 758 Z M256 1672 L827 1672 L827 1580 L256 1580 L256 1672 Z " />
<glyph glyph-name="emacron" unicode="&#x113;" horiz-adv-x="975" d="M874 472 L212 472 Q216 298 274 201 Q351 72 507 72 Q618 72 685 141 Q713 170 746 232 L849 213 Q759 -24 508 -24 Q322 -24 213 104 Q100 235 100 473 Q100 749 242 893 Q343 996 497 996 Q699 996 803 820 Q874 698 874 510 Q874 493 874 472 Z M760 561 Q752 677 712 758 Q640 899 493 899 Q349 899 272 758 Q229 680 216 561 L760 561 Z M236 1328 L784 1328 L784 1233 L236 1233 L236 1328 Z " />
<glyph glyph-name="Ebreve" unicode="&#x114;" horiz-adv-x="1004" d="M296 758 L854 758 L854 656 L296 656 L296 102 L904 102 L904 0 L180 0 L180 1365 L895 1365 L895 1263 L296 1263 L296 758 Z M271 1761 L348 1761 Q361 1703 395 1665 Q455 1598 543 1598 Q632 1598 690 1665 Q722 1703 736 1761 L813 1761 Q805 1691 780 1639 Q708 1494 545 1494 Q380 1494 305 1639 Q279 1691 271 1761 Z " />
<glyph glyph-name="ebreve" unicode="&#x115;" horiz-adv-x="975" d="M874 472 L212 472 Q216 298 274 201 Q351 72 507 72 Q618 72 685 141 Q713 170 746 232 L849 213 Q759 -24 508 -24 Q322 -24 213 104 Q100 235 100 473 Q100 749 242 893 Q343 996 497 996 Q699 996 803 820 Q874 698 874 510 Q874 493 874 472 Z M760 561 Q752 677 712 758 Q640 899 493 899 Q349 899 272 758 Q229 680 216 561 L760 561 Z M264 1409 L342 1409 Q354 1350 383 1311 Q433 1243 509 1243 Q585 1243 634 1310 Q661 1348 673 1409 L752 1409 Q744 1338 722 1285 Q659 1139 511 1139 Q362 1139 295 1286 Q270 1339 264 1409 Z " />
<glyph glyph-name="Edotaccent" unicode="&#x116;" horiz-adv-x="1004" d="M296 758 L854 758 L854 656 L296 656 L296 102 L904 102 L904 0 L180 0 L180 1365 L895 1365 L895 1263 L296 1263 L296 758 Z M543 1744 Q591 1744 625 1710 Q659 1676 659 1627 Q659 1578 625 1544 Q591 1510 542 1510 Q493 1510 459 1544 Q425 1579 425 1627 Q425 1676 459 1710 Q494 1744 543 1744 Z " />
<glyph glyph-name="edotaccent" unicode="&#x117;" horiz-adv-x="975" d="M874 472 L212 472 Q216 298 274 201 Q351 72 507 72 Q618 72 685 141 Q713 170 746 232 L849 213 Q759 -24 508 -24 Q322 -24 213 104 Q100 235 100 473 Q100 749 242 893 Q343 996 497 996 Q699 996 803 820 Q874 698 874 510 Q874 493 874 472 Z M760 561 Q752 677 712 758 Q640 899 493 899 Q349 899 272 758 Q229 680 216 561 L760 561 Z M509 1378 Q548 1378 576 1349 Q605 1321 605 1280 Q605 1240 576 1212 Q548 1183 508 1183 Q467 1183 439 1212 Q410 1240 410 1280 Q410 1322 439 1349 Q468 1378 509 1378 Z " />
<glyph glyph-name="Eogonek" unicode="&#x118;" horiz-adv-x="1004" d="M904 0 Q731 -93 731 -180 Q731 -227 768 -257 Q801 -284 857 -284 Q899 -284 942 -272 L942 -360 Q873 -382 815 -382 Q752 -382 700 -354 Q608 -303 608 -202 Q608 -99 718 -33 Q750 -14 796 0 L180 0 L180 1365 L895 1365 L895 1263 L296 1263 L296 758 L854 758 L854 656 L296 656 L296 102 L904 102 L904 0 Z " />
<glyph glyph-name="eogonek" unicode="&#x119;" horiz-adv-x="975" d="M793 -251 L793 -336 Q732 -354 681 -354 Q618 -354 568 -328 Q527 -307 502 -264 Q482 -228 482 -188 Q482 -121 541 -65 Q555 -51 604 -11 Q554 -24 512 -24 Q323 -24 213 104 Q100 235 100 473 Q100 749 243 893 Q344 996 498 996 Q700 996 804 820 Q875 699 875 510 Q875 499 874 472 L212 472 Q216 299 274 202 Q352 73 507 73 Q618 73 685 141 Q714 170 746 232 L849 213 Q828 156 798 114 Q773 79 690 -6 Q658 -39 624 -92 Q596 -137 596 -168 Q596 -213 631 -239 Q666 -264 714 -264 Q753 -264 793 -251 Z M760 561 Q753 677 712 758 Q640 899 493 899 Q349 899 272 758 Q229 680 216 561 L760 561 Z " />
<glyph glyph-name="Ecaron" unicode="&#x11a;" horiz-adv-x="1004" d="M296 758 L854 758 L854 656 L296 656 L296 102 L904 102 L904 0 L180 0 L180 1365 L895 1365 L895 1263 L296 1263 L296 758 Z M878 1758 L618 1496 L466 1496 L206 1758 L315 1758 L542 1570 L769 1758 L878 1758 Z " />
<glyph glyph-name="ecaron" unicode="&#x11b;" horiz-adv-x="975" d="M874 472 L212 472 Q216 298 274 201 Q351 72 507 72 Q618 72 685 141 Q713 170 746 232 L849 213 Q759 -24 508 -24 Q322 -24 213 104 Q100 235 100 473 Q100 749 242 893 Q343 996 497 996 Q699 996 803 820 Q874 698 874 510 Q874 493 874 472 Z M760 561 Q752 677 712 758 Q640 899 493 899 Q349 899 272 758 Q229 680 216 561 L760 561 Z M810 1424 L584 1145 L432 1145 L205 1424 L315 1424 L508 1225 L701 1424 L810 1424 Z " />
<glyph glyph-name="Gcircumflex" unicode="&#x11c;" horiz-adv-x="1260" d="M734 669 L1126 669 L1126 110 Q941 -23 694 -23 Q460 -23 326 106 Q116 306 116 690 Q116 1052 314 1251 Q451 1388 664 1388 Q884 1388 1010 1245 Q1084 1161 1108 1010 L994 1010 Q960 1138 902 1195 Q813 1283 660 1283 Q497 1283 398 1176 Q243 1006 243 687 Q243 516 297 365 Q353 205 481 132 Q569 82 695 82 Q854 82 1014 170 L1014 558 L734 557 L734 669 Z M332 1496 L592 1758 L744 1758 L1005 1496 L895 1496 L668 1684 L441 1496 L332 1496 Z " />
<glyph glyph-name="gcircumflex" unicode="&#x11d;" horiz-adv-x="958" d="M911 969 L911 884 L712 889 Q808 806 808 652 Q808 509 721 434 Q683 402 620 380 Q592 370 489 343 Q398 318 348 295 Q288 266 288 224 Q288 199 315 184 Q339 171 476 158 Q625 144 676 132 Q914 78 914 -128 Q914 -273 785 -351 Q671 -420 487 -420 Q289 -420 169 -334 Q67 -262 67 -140 Q67 -26 152 40 Q198 75 275 102 Q172 141 172 214 Q172 280 247 324 Q286 347 346 370 Q143 443 143 651 Q143 821 265 913 Q352 978 484 978 Q553 978 624 959 L911 969 Z M485 889 Q392 889 328 832 Q255 767 255 655 Q255 554 317 496 Q380 437 477 437 Q574 437 633 492 Q697 550 697 655 Q697 749 644 813 Q583 889 485 889 Z M487 46 Q348 46 268 6 Q170 -44 170 -136 Q170 -218 253 -269 Q340 -322 489 -322 Q672 -322 754 -250 Q808 -203 808 -135 Q808 -34 702 12 Q624 46 487 46 Z M198 1145 L424 1424 L576 1424 L803 1145 L693 1145 L500 1344 L307 1145 L198 1145 Z " />
<glyph glyph-name="Gbreve" unicode="&#x11e;" horiz-adv-x="1260" d="M734 669 L1126 669 L1126 110 Q941 -23 694 -23 Q460 -23 326 106 Q116 306 116 690 Q116 1052 314 1251 Q451 1388 664 1388 Q884 1388 1010 1245 Q1084 1161 1108 1010 L994 1010 Q960 1138 902 1195 Q813 1283 660 1283 Q497 1283 398 1176 Q243 1006 243 687 Q243 516 297 365 Q353 205 481 132 Q569 82 695 82 Q854 82 1014 170 L1014 558 L734 557 L734 669 Z M397 1761 L473 1761 Q487 1703 521 1665 Q580 1598 669 1598 Q758 1598 815 1665 Q848 1703 862 1761 L938 1761 Q931 1691 905 1639 Q834 1494 671 1494 Q506 1494 431 1639 Q404 1691 397 1761 Z " />
<glyph glyph-name="gbreve" unicode="&#x11f;" horiz-adv-x="958" d="M911 969 L911 884 L712 889 Q808 806 808 652 Q808 509 721 434 Q683 402 620 380 Q592 370 489 343 Q398 318 348 295 Q288 266 288 224 Q288 199 315 184 Q339 171 476 158 Q625 144 676 132 Q914 78 914 -128 Q914 -273 785 -351 Q671 -420 487 -420 Q289 -420 169 -334 Q67 -262 67 -140 Q67 -26 152 40 Q198 75 275 102 Q172 141 172 214 Q172 280 247 324 Q286 347 346 370 Q143 443 143 651 Q143 821 265 913 Q352 978 484 978 Q553 978 624 959 L911 969 Z M485 889 Q392 889 328 832 Q255 767 255 655 Q255 554 317 496 Q380 437 477 437 Q574 437 633 492 Q697 550 697 655 Q697 749 644 813 Q583 889 485 889 Z M487 46 Q348 46 268 6 Q170 -44 170 -136 Q170 -218 253 -269 Q340 -322 489 -322 Q672 -322 754 -250 Q808 -203 808 -135 Q808 -34 702 12 Q624 46 487 46 Z M253 1409 L331 1409 Q343 1350 372 1311 Q422 1243 498 1243 Q574 1243 623 1310 Q650 1348 662 1409 L741 1409 Q734 1338 711 1285 Q649 1139 500 1139 Q351 1139 284 1286 Q259 1339 253 1409 Z " />
<glyph glyph-name="Gdotaccent" unicode="&#x120;" horiz-adv-x="1260" d="M734 669 L1126 669 L1126 110 Q941 -23 694 -23 Q460 -23 326 106 Q116 306 116 690 Q116 1052 314 1251 Q451 1388 664 1388 Q884 1388 1010 1245 Q1084 1161 1108 1010 L994 1010 Q960 1138 902 1195 Q813 1283 660 1283 Q497 1283 398 1176 Q243 1006 243 687 Q243 516 297 365 Q353 205 481 132 Q569 82 695 82 Q854 82 1014 170 L1014 558 L734 557 L734 669 Z M668 1744 Q716 1744 750 1710 Q784 1676 784 1627 Q784 1579 750 1544 Q716 1510 667 1510 Q618 1510 584 1544 Q550 1579 550 1627 Q550 1676 584 1710 Q619 1744 668 1744 Z " />
<glyph glyph-name="gdotaccent" unicode="&#x121;" horiz-adv-x="958" d="M911 969 L911 884 L712 889 Q808 806 808 652 Q808 509 721 434 Q683 402 620 380 Q592 370 489 343 Q398 318 348 295 Q288 266 288 224 Q288 199 315 184 Q339 171 476 158 Q625 144 676 132 Q914 78 914 -128 Q914 -273 785 -351 Q671 -420 487 -420 Q289 -420 169 -334 Q67 -262 67 -140 Q67 -26 152 40 Q198 75 275 102 Q172 141 172 214 Q172 280 247 324 Q286 347 346 370 Q143 443 143 651 Q143 821 265 913 Q352 978 484 978 Q553 978 624 959 L911 969 Z M485 889 Q392 889 328 832 Q255 767 255 655 Q255 554 317 496 Q380 437 477 437 Q574 437 633 492 Q697 550 697 655 Q697 749 644 813 Q583 889 485 889 Z M487 46 Q348 46 268 6 Q170 -44 170 -136 Q170 -218 253 -269 Q340 -322 489 -322 Q672 -322 754 -250 Q808 -203 808 -135 Q808 -34 702 12 Q624 46 487 46 Z M499 1378 Q538 1378 566 1349 Q595 1321 595 1280 Q595 1240 566 1212 Q538 1183 498 1183 Q457 1183 429 1212 Q400 1240 400 1280 Q400 1322 429 1349 Q458 1378 499 1378 Z " />
<glyph glyph-name="Gcommaaccent" unicode="&#x122;" horiz-adv-x="1260" d="M734 669 L1126 669 L1126 110 Q941 -23 694 -23 Q460 -23 326 106 Q116 306 116 690 Q116 1052 314 1251 Q451 1388 664 1388 Q884 1388 1010 1245 Q1084 1161 1108 1010 L994 1010 Q960 1138 902 1195 Q813 1283 660 1283 Q497 1283 398 1176 Q243 1006 243 687 Q243 516 297 365 Q353 205 481 132 Q569 82 695 82 Q854 82 1014 170 L1014 558 L734 557 L734 669 Z M635 -487 L547 -487 Q661 -382 679 -293 Q667 -295 662 -295 Q626 -295 600 -266 Q576 -240 576 -204 Q576 -161 608 -133 Q636 -109 675 -109 Q718 -109 748 -140 Q780 -172 780 -229 Q780 -347 635 -487 Z " />
<glyph glyph-name="gcommaaccent" unicode="&#x123;" horiz-adv-x="958" d="M911 969 L911 884 L712 889 Q808 806 808 652 Q808 509 721 434 Q683 402 620 380 Q592 370 489 343 Q398 318 348 295 Q288 266 288 224 Q288 199 315 184 Q339 171 476 158 Q625 144 676 132 Q914 78 914 -128 Q914 -273 785 -351 Q671 -420 487 -420 Q289 -420 169 -334 Q67 -262 67 -140 Q67 -26 152 40 Q198 75 275 102 Q172 141 172 214 Q172 280 247 324 Q286 347 346 370 Q143 443 143 651 Q143 821 265 913 Q352 978 484 978 Q553 978 624 959 L911 969 Z M485 889 Q392 889 328 832 Q255 767 255 655 Q255 554 317 496 Q380 437 477 437 Q574 437 633 492 Q697 550 697 655 Q697 749 644 813 Q583 889 485 889 Z M487 46 Q348 46 268 6 Q170 -44 170 -136 Q170 -218 253 -269 Q340 -322 489 -322 Q672 -322 754 -250 Q808 -203 808 -135 Q808 -34 702 12 Q624 46 487 46 Z M539 1516 L624 1516 Q515 1415 496 1328 Q507 1329 512 1329 Q547 1329 573 1301 Q596 1276 596 1241 Q596 1200 564 1172 Q537 1149 500 1149 Q458 1149 429 1179 Q398 1210 398 1266 Q398 1379 539 1516 Z " />
<glyph glyph-name="Hcircumflex" unicode="&#x124;" horiz-adv-x="1267" d="M296 763 L972 763 L972 1365 L1088 1365 L1088 0 L972 0 L972 666 L296 666 L296 0 L180 0 L180 1365 L296 1365 L296 763 Z M297 1496 L558 1758 L710 1758 L970 1496 L861 1496 L634 1684 L407 1496 L297 1496 Z " />
<glyph glyph-name="hcircumflex" unicode="&#x125;" horiz-adv-x="992" d="M153 1371 L259 1371 L259 854 Q364 996 538 996 Q717 996 797 872 Q830 821 839 733 Q843 688 843 556 L843 0 L737 0 L737 563 Q737 665 733 705 Q714 899 527 899 Q383 899 309 780 Q259 699 259 545 L259 0 L153 0 L153 1371 Z M-122 1496 L139 1758 L290 1758 L551 1496 L442 1496 L214 1684 L-13 1496 L-122 1496 Z " />
<glyph glyph-name="Hbar" unicode="&#x126;" horiz-adv-x="1267" d="M971 1098 L971 1365 L1087 1365 L1087 1098 L1224 1098 L1224 1002 L1087 1002 L1087 0 L971 0 L971 666 L296 666 L296 0 L180 0 L180 1002 L43 1002 L43 1098 L180 1098 L180 1365 L296 1365 L296 1098 L971 1098 Z M971 1002 L296 1002 L296 763 L971 763 L971 1002 Z " />
<glyph glyph-name="hbar" unicode="&#x127;" horiz-adv-x="992" d="M154 1371 L260 1371 L260 1224 L533 1224 L533 1135 L260 1135 L260 854 Q300 908 338 935 Q422 996 539 996 Q718 996 798 872 Q831 821 840 733 Q844 688 844 556 L844 0 L738 0 L738 563 Q738 665 734 705 Q714 900 529 900 Q384 900 310 781 Q260 699 260 545 L260 0 L154 0 L154 1135 L31 1135 L31 1224 L154 1224 L154 1371 Z " />
<glyph glyph-name="Itilde" unicode="&#x128;" horiz-adv-x="476" d="M299 0 L177 0 L177 1365 L299 1365 L299 0 Z M-10 1514 L-89 1548 Q-74 1612 -54 1651 Q-7 1740 92 1740 Q160 1740 248 1682 Q294 1651 319 1636 Q354 1616 388 1616 Q471 1616 487 1747 L565 1712 Q557 1646 536 1607 Q515 1567 476 1542 Q433 1514 385 1514 Q339 1514 297 1535 Q258 1555 208 1589 Q136 1637 93 1637 Q18 1637 -10 1514 Z " />
<glyph glyph-name="itilde" unicode="&#x129;" horiz-adv-x="424" d="M153 969 L270 969 L270 0 L153 0 L153 969 Z M-14 1163 L-90 1179 Q-54 1390 80 1390 Q142 1390 219 1330 Q306 1264 346 1264 Q417 1264 434 1395 L514 1377 Q504 1289 469 1233 Q423 1160 348 1160 Q283 1160 196 1226 Q116 1287 77 1287 Q11 1287 -14 1163 Z " />
<glyph glyph-name="Imacron" unicode="&#x12a;" horiz-adv-x="476" d="M299 0 L177 0 L177 1365 L299 1365 L299 0 Z M0 1672 L475 1672 L475 1580 L0 1580 L0 1672 Z " />
<glyph glyph-name="imacron" unicode="&#x12b;" horiz-adv-x="424" d="M153 969 L270 969 L270 0 L153 0 L153 969 Z M-8 1328 L431 1328 L431 1233 L-8 1233 L-8 1328 Z " />
<glyph glyph-name="Ibreve" unicode="&#x12c;" horiz-adv-x="476" d="M299 0 L177 0 L177 1365 L299 1365 L299 0 Z M-33 1761 L44 1761 Q57 1703 92 1665 Q151 1598 239 1598 Q328 1598 386 1665 Q418 1703 432 1761 L509 1761 Q501 1691 476 1639 Q404 1494 241 1494 Q77 1494 1 1639 Q-25 1691 -33 1761 Z " />
<glyph glyph-name="ibreve" unicode="&#x12d;" horiz-adv-x="424" d="M154 969 L271 969 L271 0 L154 0 L154 969 Z M-19 1396 L59 1396 Q69 1344 92 1310 Q138 1242 215 1242 Q289 1242 333 1309 Q356 1344 366 1396 L444 1396 Q419 1138 218 1138 Q66 1138 5 1286 Q-14 1332 -19 1396 Z " />
<glyph glyph-name="Iogonek" unicode="&#x12e;" horiz-adv-x="476" d="M362 -360 Q306 -381 268 -381 Q214 -381 172 -353 Q95 -303 95 -211 Q95 -137 161 -63 Q181 -42 227 0 L177 0 L177 1365 L299 1365 L299 0 Q279 -26 249 -84 Q215 -147 215 -194 Q215 -249 254 -273 Q273 -284 300 -284 Q314 -284 362 -272 L362 -360 Z " />
<glyph glyph-name="iogonek" unicode="&#x12f;" horiz-adv-x="424" d="M271 0 Q195 -110 195 -174 Q195 -226 233 -251 Q253 -265 280 -265 Q301 -265 343 -251 L343 -337 Q293 -355 260 -355 Q207 -355 162 -329 Q122 -305 99 -265 Q80 -230 80 -194 Q80 -103 201 0 L154 0 L154 969 L271 969 L271 0 Z M213 1381 Q246 1381 271 1361 Q303 1334 303 1289 Q303 1256 282 1231 Q257 1200 213 1200 Q175 1200 149 1225 Q122 1250 122 1289 Q122 1330 150 1356 Q177 1381 213 1381 Z " />
<glyph glyph-name="Idotaccent" unicode="&#x130;" horiz-adv-x="476" d="M299 0 L177 0 L177 1365 L299 1365 L299 0 Z M239 1744 Q286 1744 321 1710 Q355 1676 355 1627 Q355 1579 321 1544 Q287 1510 238 1510 Q189 1510 155 1544 Q121 1579 121 1627 Q121 1676 155 1710 Q190 1744 239 1744 Z " />
<glyph glyph-name="IJ" unicode="&#x132;" horiz-adv-x="1019" d="M299 0 L177 0 L177 1365 L299 1365 L299 0 Z M720 1365 L842 1365 L842 276 Q842 143 835 92 Q819 -25 728 -86 Q636 -148 501 -148 Q489 -148 460 -147 L460 -44 Q475 -45 481 -45 Q628 -45 685 37 Q713 80 718 154 Q720 189 720 278 L720 1365 Z " />
<glyph glyph-name="ij" unicode="&#x133;" horiz-adv-x="916" d="M154 969 L271 969 L271 0 L154 0 L154 969 Z M213 1381 Q246 1381 271 1361 Q303 1334 303 1289 Q303 1256 283 1231 Q257 1200 213 1200 Q175 1200 149 1225 Q122 1250 122 1289 Q122 1330 150 1356 Q176 1381 213 1381 Z M646 969 L763 969 L763 66 Q763 -87 754 -146 Q732 -279 642 -336 Q563 -387 426 -387 Q406 -387 368 -386 L368 -289 Q387 -291 406 -291 Q559 -291 610 -209 Q637 -165 643 -81 Q646 -27 646 66 L646 969 Z M704 1381 Q737 1381 762 1361 Q794 1334 794 1289 Q794 1256 774 1231 Q748 1200 704 1200 Q666 1200 640 1225 Q613 1250 613 1289 Q613 1330 641 1356 Q667 1381 704 1381 Z " />
<glyph glyph-name="Jcircumflex" unicode="&#x134;" horiz-adv-x="557" d="M258 1365 L380 1365 L380 276 Q380 142 373 92 Q358 -25 267 -86 Q174 -148 38 -148 Q26 -148 -3 -147 L-3 -44 Q12 -45 17 -45 Q161 -45 219 32 Q251 75 256 154 Q258 189 258 278 L258 1365 Z M-21 1496 L240 1758 L391 1758 L652 1496 L543 1496 L315 1684 L88 1496 L-21 1496 Z " />
<glyph glyph-name="jcircumflex" unicode="&#x135;" horiz-adv-x="501" d="M230 969 L347 969 L347 66 Q347 -87 338 -146 Q316 -279 226 -336 Q147 -387 10 -387 Q-10 -387 -48 -386 L-48 -289 Q-29 -291 -10 -291 Q143 -291 194 -209 Q221 -164 227 -81 Q230 -27 230 66 L230 969 Z M-17 1145 L209 1424 L361 1424 L588 1145 L478 1145 L285 1344 L92 1145 L-17 1145 Z " />
<glyph glyph-name="Kcommaaccent" unicode="&#x136;" horiz-adv-x="1099" d="M870 1365 L1017 1365 L444 715 L1077 0 L908 0 L299 713 L870 1365 Z M180 1365 L296 1365 L296 0 L180 0 L180 1365 Z M553 -487 L466 -487 Q579 -382 598 -293 Q586 -295 580 -295 Q545 -295 518 -266 Q494 -240 494 -204 Q494 -161 527 -133 Q554 -109 593 -109 Q636 -109 666 -140 Q698 -172 698 -229 Q698 -347 553 -487 Z " />
<glyph glyph-name="kcommaaccent" unicode="&#x137;" horiz-adv-x="949" d="M690 969 L821 969 L403 537 L851 0 L700 0 L264 532 L690 969 Z M154 1371 L260 1371 L260 0 L154 0 L154 1371 Z M434 -476 L349 -476 Q458 -375 477 -288 Q467 -289 460 -289 Q426 -289 400 -261 Q377 -236 377 -201 Q377 -159 408 -132 Q435 -109 472 -109 Q514 -109 543 -139 Q574 -170 574 -226 Q574 -341 434 -476 Z " />
<glyph glyph-name="kgreenlandic" unicode="&#x138;" horiz-adv-x="949" d="M690 969 L821 969 L403 537 L851 0 L700 0 L264 532 L690 969 Z M154 969 L260 969 L260 0 L154 0 L154 969 Z " />
<glyph glyph-name="Lacute" unicode="&#x139;" horiz-adv-x="946" d="M180 1365 L302 1365 L302 102 L883 102 L883 0 L180 0 L180 1365 Z M153 1496 L417 1758 L587 1758 L272 1496 L153 1496 Z " />
<glyph glyph-name="lacute" unicode="&#x13a;" horiz-adv-x="424" d="M154 1371 L271 1371 L271 0 L154 0 L154 1371 Z M140 1496 L350 1758 L513 1758 L252 1496 L140 1496 Z " />
<glyph glyph-name="Lcommaaccent" unicode="&#x13b;" horiz-adv-x="946" d="M180 1365 L302 1365 L302 102 L883 102 L883 0 L180 0 L180 1365 Z M496 -487 L409 -487 Q522 -382 540 -293 Q528 -295 523 -295 Q488 -295 461 -266 Q437 -240 437 -204 Q437 -161 470 -133 Q497 -109 536 -109 Q579 -109 609 -140 Q641 -172 641 -229 Q641 -347 496 -487 Z " />
<glyph glyph-name="lcommaaccent" unicode="&#x13c;" horiz-adv-x="424" d="M154 1371 L271 1371 L271 0 L154 0 L154 1371 Z M171 -476 L86 -476 Q195 -375 214 -288 Q204 -289 197 -289 Q163 -289 137 -261 Q114 -236 114 -201 Q114 -160 146 -132 Q172 -109 209 -109 Q251 -109 280 -139 Q311 -170 311 -226 Q311 -341 171 -476 Z " />
<glyph glyph-name="Lcaron" unicode="&#x13d;" horiz-adv-x="946" d="M180 1365 L302 1365 L302 102 L883 102 L883 0 L180 0 L180 1365 Z M565 1015 L478 1015 Q591 1120 610 1208 Q598 1207 592 1207 Q557 1207 530 1235 Q506 1261 506 1297 Q506 1340 539 1368 Q566 1392 605 1392 Q648 1392 678 1361 Q710 1329 710 1272 Q710 1155 565 1015 Z " />
<glyph glyph-name="lcaron" unicode="&#x13e;" horiz-adv-x="536" d="M154 1371 L271 1371 L271 0 L154 0 L154 1371 Z M438 1026 L353 1026 Q462 1127 480 1214 Q469 1212 464 1212 Q429 1212 403 1240 Q380 1265 380 1300 Q380 1341 412 1369 Q439 1392 476 1392 Q518 1392 547 1362 Q578 1331 578 1275 Q578 1160 438 1026 Z " />
<glyph glyph-name="Ldot" unicode="&#x13f;" horiz-adv-x="946" d="M180 1365 L302 1365 L302 102 L883 102 L883 0 L180 0 L180 1365 Z M698 808 Q746 808 782 772 Q816 737 816 689 Q816 639 780 604 Q745 570 697 570 Q648 570 613 605 Q578 639 578 688 Q578 738 612 772 Q647 808 698 808 Z " />
<glyph glyph-name="ldot" unicode="&#x140;" horiz-adv-x="620" d="M153 1371 L270 1371 L270 0 L153 0 L153 1371 Z M514 819 Q556 819 588 788 Q618 757 618 714 Q618 670 586 639 Q555 609 512 609 Q470 609 439 640 Q408 670 408 713 Q408 757 438 787 Q469 819 514 819 Z " />
<glyph glyph-name="Lslash" unicode="&#x141;" horiz-adv-x="946" d="M180 694 L180 1365 L302 1365 L302 758 L601 983 L601 866 L302 642 L302 102 L883 102 L883 0 L180 0 L180 577 L43 475 L43 592 L180 694 Z " />
<glyph glyph-name="lslash" unicode="&#x142;" horiz-adv-x="424" d="M154 743 L154 1371 L271 1371 L271 801 L419 909 L419 804 L271 696 L271 0 L154 0 L154 638 L5 529 L5 634 L154 743 Z " />
<glyph glyph-name="Nacute" unicode="&#x143;" horiz-adv-x="1285" d="M180 1365 L309 1365 L997 170 L997 1365 L1105 1365 L1105 0 L970 0 L290 1191 L290 0 L180 0 L180 1365 Z M511 1496 L776 1758 L946 1758 L630 1496 L511 1496 Z " />
<glyph glyph-name="nacute" unicode="&#x144;" horiz-adv-x="1005" d="M131 969 L234 969 Q253 914 254 823 Q350 996 552 996 Q693 996 774 921 Q841 859 852 744 Q857 696 857 556 L857 0 L751 0 L751 563 Q751 670 747 705 Q736 808 687 852 Q634 900 543 900 Q396 900 315 781 Q260 699 260 556 L260 0 L154 0 L154 645 Q154 842 148 886 Q144 920 131 969 Z M374 1144 L570 1407 L740 1407 L470 1144 L374 1144 Z " />
<glyph glyph-name="Ncommaaccent" unicode="&#x145;" horiz-adv-x="1285" d="M180 1365 L309 1365 L997 170 L997 1365 L1105 1365 L1105 0 L970 0 L290 1191 L290 0 L180 0 L180 1365 Z M586 -487 L499 -487 Q612 -383 630 -293 Q619 -295 613 -295 Q577 -295 551 -266 Q527 -240 527 -204 Q527 -161 560 -133 Q587 -109 626 -109 Q669 -109 699 -140 Q731 -172 731 -229 Q731 -348 586 -487 Z " />
<glyph glyph-name="ncommaaccent" unicode="&#x146;" horiz-adv-x="1005" d="M131 969 L234 969 Q253 914 254 823 Q350 996 552 996 Q693 996 774 921 Q841 859 852 744 Q857 696 857 556 L857 0 L751 0 L751 563 Q751 670 747 705 Q736 808 687 852 Q634 900 543 900 Q396 900 315 781 Q260 699 260 556 L260 0 L154 0 L154 645 Q154 842 148 886 Q144 920 131 969 Z M466 -476 L381 -476 Q490 -375 509 -288 Q499 -289 492 -289 Q458 -289 432 -261 Q409 -236 409 -201 Q409 -159 441 -132 Q467 -109 505 -109 Q547 -109 576 -139 Q607 -170 607 -226 Q607 -340 466 -476 Z " />
<glyph glyph-name="Ncaron" unicode="&#x147;" horiz-adv-x="1285" d="M180 1365 L309 1365 L997 170 L997 1365 L1105 1365 L1105 0 L970 0 L290 1191 L290 0 L180 0 L180 1365 Z M979 1758 L719 1496 L567 1496 L306 1758 L415 1758 L643 1570 L870 1758 L979 1758 Z " />
<glyph glyph-name="ncaron" unicode="&#x148;" horiz-adv-x="1005" d="M131 969 L234 969 Q253 914 254 823 Q350 996 552 996 Q693 996 774 921 Q841 859 852 744 Q857 696 857 556 L857 0 L751 0 L751 563 Q751 670 747 705 Q736 808 687 852 Q634 900 543 900 Q396 900 315 781 Q260 699 260 556 L260 0 L154 0 L154 645 Q154 842 148 886 Q144 920 131 969 Z M782 1424 L556 1145 L404 1145 L178 1424 L287 1424 L480 1225 L673 1424 L782 1424 Z " />
<glyph glyph-name="napostrophe" unicode="&#x149;" horiz-adv-x="1211" d="M208 938 L79 938 Q215 1065 239 1178 Q227 1177 219 1177 Q179 1177 149 1209 Q122 1239 122 1280 Q122 1329 159 1361 Q190 1388 233 1388 Q283 1388 317 1353 Q353 1316 353 1250 Q353 1105 208 938 Z M337 969 L441 969 Q459 913 460 823 Q556 996 758 996 Q899 996 979 921 Q1046 859 1058 744 Q1062 697 1062 556 L1062 0 L956 0 L956 563 Q956 670 952 705 Q941 808 892 852 Q840 900 748 900 Q601 900 521 781 Q466 698 466 556 L466 0 L360 0 L360 645 Q360 842 354 886 Q350 920 337 969 Z " />
<glyph glyph-name="Eng" unicode="&#x14a;" horiz-adv-x="1164" d="M152 1388 L263 1388 Q288 1319 288 1216 Q398 1388 630 1388 Q785 1388 882 1306 Q958 1241 977 1136 Q990 1069 990 949 L990 37 Q990 -98 983 -147 Q967 -264 877 -325 Q784 -387 650 -387 Q637 -387 608 -386 L608 -283 Q623 -284 631 -284 Q781 -284 839 -202 Q870 -159 874 -85 Q876 -50 876 39 L876 955 Q876 1108 835 1175 Q769 1283 611 1283 Q441 1283 353 1165 Q317 1115 304 1053 Q294 1006 294 926 L294 0 L180 0 L180 1038 Q180 1248 173 1296 Q169 1327 152 1388 Z " />
<glyph glyph-name="eng" unicode="&#x14b;" horiz-adv-x="1002" d="M128 969 L231 969 Q250 914 251 823 Q348 996 549 996 Q690 996 771 921 Q838 859 849 744 Q854 696 854 556 L854 66 Q854 -87 844 -145 Q823 -279 732 -336 Q653 -387 517 -387 Q497 -387 459 -386 L459 -289 Q480 -291 497 -291 Q657 -291 710 -209 Q739 -164 744 -80 Q748 -27 748 66 L748 563 Q748 670 744 705 Q733 808 684 852 Q631 900 540 900 Q393 900 312 781 Q257 699 257 556 L257 0 L151 0 L151 645 Q151 842 145 886 Q141 920 128 969 Z " />
<glyph glyph-name="Omacron" unicode="&#x14c;" horiz-adv-x="1305" d="M653 1388 Q807 1388 931 1298 Q1067 1199 1135 1011 Q1189 863 1189 683 Q1189 371 1033 167 Q958 69 849 19 Q758 -23 654 -23 Q416 -23 272 167 Q116 371 116 692 Q116 896 190 1061 Q269 1239 414 1324 Q522 1388 653 1388 Z M653 1283 Q470 1283 360 1117 Q243 940 243 690 Q243 426 360 248 Q470 82 653 82 Q836 82 945 248 Q1062 427 1062 683 Q1062 943 945 1117 Q833 1283 653 1283 Z M367 1672 L938 1672 L938 1580 L367 1580 L367 1672 Z " />
<glyph glyph-name="omacron" unicode="&#x14d;" horiz-adv-x="1010" d="M505 996 Q673 996 782 874 Q910 729 910 485 Q910 242 782 97 Q674 -24 506 -24 Q336 -24 228 97 Q100 242 100 492 Q100 730 228 874 Q338 996 505 996 Z M506 899 Q380 899 304 800 Q212 679 212 490 Q212 291 304 171 Q380 73 506 73 Q632 73 707 171 Q799 291 799 485 Q799 681 707 800 Q630 899 506 899 Z M220 1328 L768 1328 L768 1233 L220 1233 L220 1328 Z " />
<glyph glyph-name="Obreve" unicode="&#x14e;" horiz-adv-x="1305" d="M653 1388 Q807 1388 931 1298 Q1067 1199 1135 1011 Q1189 863 1189 683 Q1189 371 1033 167 Q958 69 849 19 Q758 -23 654 -23 Q416 -23 272 167 Q116 371 116 692 Q116 896 190 1061 Q269 1239 414 1324 Q522 1388 653 1388 Z M653 1283 Q470 1283 360 1117 Q243 940 243 690 Q243 426 360 248 Q470 82 653 82 Q836 82 945 248 Q1062 427 1062 683 Q1062 943 945 1117 Q833 1283 653 1283 Z M382 1761 L458 1761 Q472 1703 506 1665 Q565 1598 654 1598 Q743 1598 800 1665 Q833 1703 847 1761 L923 1761 Q916 1691 890 1639 Q819 1494 656 1494 Q491 1494 416 1639 Q389 1691 382 1761 Z " />
<glyph glyph-name="obreve" unicode="&#x14f;" horiz-adv-x="1010" d="M505 996 Q673 996 782 874 Q910 729 910 485 Q910 242 782 97 Q674 -24 506 -24 Q336 -24 228 97 Q100 242 100 492 Q100 730 228 874 Q338 996 505 996 Z M506 899 Q380 899 304 800 Q212 679 212 490 Q212 291 304 171 Q380 73 506 73 Q632 73 707 171 Q799 291 799 485 Q799 681 707 800 Q630 899 506 899 Z M261 1409 L339 1409 Q351 1350 380 1311 Q431 1243 506 1243 Q583 1243 631 1310 Q658 1348 671 1409 L749 1409 Q742 1338 719 1285 Q657 1139 509 1139 Q360 1139 292 1286 Q268 1339 261 1409 Z " />
<glyph glyph-name="Ohungarumlaut" unicode="&#x150;" horiz-adv-x="1305" d="M653 1388 Q806 1388 932 1298 Q1071 1199 1137 1012 Q1189 866 1189 685 Q1189 364 1035 165 Q889 -23 646 -23 Q499 -23 373 66 Q236 164 168 353 Q116 498 116 683 Q116 1005 270 1200 Q419 1388 653 1388 Z M652 1283 Q529 1283 429 1201 Q327 1117 279 953 Q243 832 243 683 Q243 416 355 246 Q406 168 489 123 Q565 82 647 82 Q777 82 877 164 Q977 247 1026 412 Q1062 532 1062 685 Q1062 953 950 1119 Q897 1198 816 1242 Q739 1283 652 1283 Z M489 1496 L685 1758 L821 1758 L591 1496 L489 1496 Z M701 1496 L897 1758 L1033 1758 L803 1496 L701 1496 Z " />
<glyph glyph-name="ohungarumlaut" unicode="&#x151;" horiz-adv-x="1010" d="M505 996 Q673 996 782 874 Q910 729 910 485 Q910 242 782 97 Q674 -24 506 -24 Q336 -24 228 97 Q100 242 100 492 Q100 730 228 874 Q338 996 505 996 Z M506 899 Q380 899 304 800 Q212 679 212 490 Q212 291 304 171 Q380 73 506 73 Q632 73 707 171 Q799 291 799 485 Q799 681 707 800 Q630 899 506 899 Z M354 1143 L528 1406 L664 1406 L456 1143 L354 1143 Z M566 1143 L739 1406 L875 1406 L668 1143 L566 1143 Z " />
<glyph glyph-name="Racute" unicode="&#x154;" horiz-adv-x="1130" d="M180 1365 L387 1365 Q532 1365 600 1359 Q782 1343 876 1254 Q980 1155 980 991 Q980 720 686 623 L1061 0 L916 0 L549 606 L296 606 L296 0 L180 0 L180 1365 Z M296 708 L392 708 Q522 708 578 713 Q852 739 852 992 Q852 1111 786 1180 Q727 1242 616 1255 Q546 1263 395 1263 L296 1263 L296 708 Z M396 1496 L660 1758 L830 1758 L515 1496 L396 1496 Z " />
<glyph glyph-name="racute" unicode="&#x155;" horiz-adv-x="635" d="M139 969 L240 969 Q257 892 257 821 Q257 801 254 759 Q294 857 338 912 Q406 996 498 996 Q564 996 628 962 L628 856 Q547 892 503 892 Q422 892 356 807 Q301 735 280 643 Q263 565 263 429 L263 0 L154 0 L154 623 Q153 864 139 969 Z M257 1144 L453 1407 L623 1407 L353 1144 L257 1144 Z " />
<glyph glyph-name="Rcommaaccent" unicode="&#x156;" horiz-adv-x="1130" d="M180 1365 L387 1365 Q532 1365 600 1359 Q782 1343 876 1254 Q980 1155 980 991 Q980 720 686 623 L1061 0 L916 0 L549 606 L296 606 L296 0 L180 0 L180 1365 Z M296 708 L392 708 Q522 708 578 713 Q852 739 852 992 Q852 1111 786 1180 Q727 1242 616 1255 Q546 1263 395 1263 L296 1263 L296 708 Z M550 -487 L463 -487 Q575 -384 595 -293 Q583 -295 577 -295 Q542 -295 516 -266 Q492 -240 492 -204 Q492 -161 524 -133 Q552 -109 590 -109 Q633 -109 663 -140 Q695 -172 695 -229 Q695 -348 550 -487 Z " />
<glyph glyph-name="rcommaaccent" unicode="&#x157;" horiz-adv-x="635" d="M138 969 L239 969 Q256 894 256 821 Q256 801 253 759 Q293 857 337 912 Q405 996 498 996 Q563 996 627 962 L627 856 Q546 892 502 892 Q422 892 355 807 Q300 735 279 643 Q262 565 262 429 L262 0 L153 0 L153 623 Q153 864 138 969 Z M171 -476 L86 -476 Q195 -375 214 -288 Q204 -289 197 -289 Q163 -289 137 -261 Q114 -236 114 -201 Q114 -160 146 -132 Q172 -109 209 -109 Q251 -109 280 -139 Q311 -170 311 -226 Q311 -341 171 -476 Z " />
<glyph glyph-name="Rcaron" unicode="&#x158;" horiz-adv-x="1130" d="M180 1365 L387 1365 Q532 1365 600 1359 Q782 1343 876 1254 Q980 1155 980 991 Q980 720 686 623 L1061 0 L916 0 L549 606 L296 606 L296 0 L180 0 L180 1365 Z M296 708 L392 708 Q522 708 578 713 Q852 739 852 992 Q852 1111 786 1180 Q727 1242 616 1255 Q546 1263 395 1263 L296 1263 L296 708 Z M868 1758 L608 1496 L456 1496 L195 1758 L305 1758 L532 1570 L759 1758 L868 1758 Z " />
<glyph glyph-name="rcaron" unicode="&#x159;" horiz-adv-x="635" d="M138 969 L239 969 Q256 892 256 821 Q256 801 253 759 Q293 857 337 912 Q405 996 498 996 Q563 996 627 962 L627 856 Q546 892 502 892 Q422 892 355 807 Q300 735 279 643 Q262 565 262 429 L262 0 L153 0 L153 623 Q153 864 138 969 Z M672 1424 L445 1145 L293 1145 L67 1424 L176 1424 L369 1225 L562 1424 L672 1424 Z " />
<glyph glyph-name="Sacute" unicode="&#x15a;" horiz-adv-x="1109" d="M940 1028 L826 1028 Q814 1140 757 1201 Q681 1283 546 1283 Q439 1283 368 1228 Q280 1161 280 1057 Q280 960 366 898 Q411 865 463 841 L615 770 Q837 667 902 585 Q980 489 980 356 Q980 167 832 60 Q717 -23 549 -23 Q324 -23 208 119 Q126 219 116 400 L232 400 Q239 264 301 188 Q342 138 410 110 Q478 82 554 82 Q686 82 772 156 Q858 230 858 349 Q858 456 780 528 Q727 577 576 647 Q356 749 297 791 Q161 889 161 1049 Q161 1204 283 1301 Q392 1388 554 1388 Q769 1388 874 1241 Q933 1159 940 1028 Z M420 1496 L684 1758 L854 1758 L539 1496 L420 1496 Z " />
<glyph glyph-name="sacute" unicode="&#x15b;" horiz-adv-x="865" d="M757 711 L653 711 Q643 803 599 845 Q544 899 440 899 Q344 899 286 849 Q238 807 238 737 Q238 674 283 638 Q326 604 460 564 Q609 520 661 490 Q777 422 777 273 Q777 145 695 65 Q604 -24 440 -24 Q227 -24 141 108 Q95 180 95 291 L200 291 Q220 72 440 72 Q536 72 597 119 Q664 170 664 262 Q664 345 604 387 Q577 406 529 424 Q515 429 383 470 Q236 516 183 575 Q127 639 127 734 Q127 864 229 934 Q318 996 442 996 Q543 996 621 955 Q749 888 757 711 Z M336 1144 L532 1407 L703 1407 L433 1144 L336 1144 Z " />
<glyph glyph-name="Scircumflex" unicode="&#x15c;" horiz-adv-x="1109" d="M940 1028 L826 1028 Q814 1140 757 1201 Q681 1283 546 1283 Q439 1283 368 1228 Q280 1161 280 1057 Q280 960 366 898 Q411 865 463 841 L615 770 Q837 667 902 585 Q980 489 980 356 Q980 167 832 60 Q717 -23 549 -23 Q324 -23 208 119 Q126 219 116 400 L232 400 Q239 264 301 188 Q342 138 410 110 Q478 82 554 82 Q686 82 772 156 Q858 230 858 349 Q858 456 780 528 Q727 577 576 647 Q356 749 297 791 Q161 889 161 1049 Q161 1204 283 1301 Q392 1388 554 1388 Q769 1388 874 1241 Q933 1159 940 1028 Z M218 1496 L479 1758 L631 1758 L891 1496 L782 1496 L555 1684 L328 1496 L218 1496 Z " />
<glyph glyph-name="scircumflex" unicode="&#x15d;" horiz-adv-x="865" d="M757 711 L653 711 Q643 803 599 845 Q544 899 440 899 Q344 899 286 849 Q238 807 238 737 Q238 674 283 638 Q326 604 460 564 Q609 520 661 490 Q777 422 777 273 Q777 145 695 65 Q604 -24 440 -24 Q227 -24 141 108 Q95 180 95 291 L200 291 Q220 72 440 72 Q536 72 597 119 Q664 170 664 262 Q664 345 604 387 Q577 406 529 424 Q515 429 383 470 Q236 516 183 575 Q127 639 127 734 Q127 864 229 934 Q318 996 442 996 Q543 996 621 955 Q749 888 757 711 Z M147 1145 L373 1424 L525 1424 L751 1145 L642 1145 L449 1344 L256 1145 L147 1145 Z " />
<glyph glyph-name="Scedilla" unicode="&#x15e;" horiz-adv-x="1109" d="M562 -23 L511 -144 Q697 -162 697 -303 Q697 -381 637 -429 Q583 -472 490 -472 Q421 -472 344 -446 L344 -369 Q408 -387 447 -387 Q493 -387 522 -369 Q567 -342 567 -291 Q567 -234 507 -212 Q475 -201 400 -198 L476 -18 Q134 25 116 400 L232 400 Q238 264 301 188 Q342 138 410 110 Q478 82 554 82 Q686 82 772 156 Q858 231 858 349 Q858 456 780 529 Q727 577 576 647 Q357 748 297 791 Q161 889 161 1049 Q161 1204 283 1301 Q392 1388 553 1388 Q769 1388 874 1241 Q933 1159 940 1028 L825 1028 Q813 1140 757 1201 Q681 1283 546 1283 Q439 1283 368 1228 Q280 1161 280 1057 Q280 960 366 898 Q411 865 463 841 L615 770 Q837 667 902 586 Q980 489 980 356 Q980 206 883 105 Q765 -18 562 -23 Z " />
<glyph glyph-name="scedilla" unicode="&#x15f;" horiz-adv-x="865" d="M461 -24 L411 -122 Q583 -143 583 -265 Q583 -339 524 -384 Q474 -423 391 -423 Q318 -423 248 -395 L248 -324 Q314 -343 351 -343 Q394 -343 421 -327 Q462 -302 462 -252 Q462 -198 404 -176 Q372 -164 304 -160 L377 -20 Q95 15 95 291 L200 291 Q220 72 440 72 Q536 72 597 119 Q664 170 664 262 Q664 345 604 388 Q577 406 529 424 Q515 429 383 470 Q236 516 183 576 Q127 640 127 734 Q127 864 228 934 Q318 996 442 996 Q542 996 621 955 Q749 888 757 711 L653 711 Q643 803 599 845 Q544 899 440 899 Q343 899 286 849 Q238 806 238 737 Q238 674 283 638 Q326 604 460 564 Q609 520 661 490 Q777 422 777 273 Q777 97 632 19 Q563 -18 461 -24 Z " />
<glyph glyph-name="Scaron" unicode="&#x160;" horiz-adv-x="1109" d="M940 1028 L826 1028 Q814 1140 757 1201 Q681 1283 546 1283 Q439 1283 368 1228 Q280 1161 280 1057 Q280 960 366 898 Q411 865 463 841 L615 770 Q837 667 902 585 Q980 489 980 356 Q980 167 832 60 Q717 -23 549 -23 Q324 -23 208 119 Q126 219 116 400 L232 400 Q239 264 301 188 Q342 138 410 110 Q478 82 554 82 Q686 82 772 156 Q858 230 858 349 Q858 456 780 528 Q727 577 576 647 Q356 749 297 791 Q161 889 161 1049 Q161 1204 283 1301 Q392 1388 554 1388 Q769 1388 874 1241 Q933 1159 940 1028 Z M891 1758 L631 1496 L479 1496 L218 1758 L328 1758 L555 1570 L782 1758 L891 1758 Z " />
<glyph glyph-name="scaron" unicode="&#x161;" horiz-adv-x="865" d="M757 711 L653 711 Q643 803 599 845 Q544 899 440 899 Q344 899 286 849 Q238 807 238 737 Q238 674 283 638 Q326 604 460 564 Q609 520 661 490 Q777 422 777 273 Q777 145 695 65 Q604 -24 440 -24 Q227 -24 141 108 Q95 180 95 291 L200 291 Q220 72 440 72 Q536 72 597 119 Q664 170 664 262 Q664 345 604 387 Q577 406 529 424 Q515 429 383 470 Q236 516 183 575 Q127 639 127 734 Q127 864 229 934 Q318 996 442 996 Q543 996 621 955 Q749 888 757 711 Z M749 1424 L522 1145 L370 1145 L144 1424 L253 1424 L446 1225 L639 1424 L749 1424 Z " />
<glyph glyph-name="Tcommaaccent" unicode="&#x162;" horiz-adv-x="921" d="M49 1365 L873 1365 L873 1263 L519 1263 L519 0 L403 0 L403 1263 L49 1263 L49 1365 Z M418 -487 L331 -487 Q444 -383 462 -293 Q451 -295 445 -295 Q409 -295 383 -266 Q359 -240 359 -204 Q359 -161 392 -133 Q419 -109 458 -109 Q501 -109 531 -140 Q563 -172 563 -229 Q563 -348 418 -487 Z " />
<glyph glyph-name="tcommaaccent" unicode="&#x163;" horiz-adv-x="612" d="M310 969 L552 969 L551 880 L308 880 L299 350 Q297 257 297 241 Q297 135 319 108 Q347 74 409 74 Q475 74 549 107 L547 7 Q471 -19 391 -19 Q281 -19 227 33 Q185 74 185 175 Q185 213 188 278 Q191 337 191 355 L203 880 L57 880 L59 969 L204 969 L209 1249 L315 1249 L310 969 Z M298 -476 L213 -476 Q322 -375 340 -288 Q331 -289 324 -289 Q289 -289 263 -261 Q240 -236 240 -201 Q240 -160 272 -132 Q299 -109 336 -109 Q378 -109 407 -139 Q438 -171 438 -226 Q438 -340 298 -476 Z " />
<glyph glyph-name="Tcaron" unicode="&#x164;" horiz-adv-x="921" d="M49 1365 L873 1365 L873 1263 L519 1263 L519 0 L403 0 L403 1263 L49 1263 L49 1365 Z M797 1758 L537 1496 L385 1496 L125 1758 L234 1758 L461 1570 L688 1758 L797 1758 Z " />
<glyph glyph-name="tcaron" unicode="&#x165;" horiz-adv-x="579" d="M310 969 L552 969 L551 880 L308 880 L299 350 Q297 257 297 241 Q297 135 319 108 Q347 74 409 74 Q475 74 549 107 L547 7 Q471 -19 391 -19 Q281 -19 227 33 Q185 74 185 175 Q185 213 188 278 Q191 337 191 355 L203 880 L57 880 L59 969 L204 969 L209 1249 L315 1249 L310 969 Z M480 1079 L395 1079 Q504 1180 523 1267 Q513 1266 506 1266 Q472 1266 446 1294 Q423 1319 423 1354 Q423 1396 455 1423 Q481 1446 518 1446 Q560 1446 589 1416 Q620 1385 620 1329 Q620 1214 480 1079 Z " />
<glyph glyph-name="Tbar" unicode="&#x166;" horiz-adv-x="921" d="M49 1365 L873 1365 L873 1263 L519 1263 L519 880 L786 880 L786 784 L519 784 L519 0 L403 0 L403 784 L136 784 L136 880 L403 880 L403 1263 L49 1263 L49 1365 Z " />
<glyph glyph-name="tbar" unicode="&#x167;" horiz-adv-x="612" d="M310 969 L552 969 L551 880 L308 880 L306 719 L548 719 L546 630 L304 630 L299 350 L299 263 L299 241 Q299 135 321 108 Q348 74 410 74 Q477 74 549 107 L547 7 Q471 -19 392 -19 Q281 -19 228 33 Q186 74 186 172 Q186 206 188 278 Q190 326 191 355 L198 630 L58 630 L58 719 L200 719 L203 880 L57 880 L59 969 L204 969 L209 1249 L315 1249 L310 969 Z " />
<glyph glyph-name="Utilde" unicode="&#x168;" horiz-adv-x="1246" d="M159 1365 L275 1365 L275 555 Q276 400 281 355 Q292 244 345 185 Q398 125 494 99 Q557 82 622 82 Q741 82 831 131 Q917 177 947 263 Q969 326 969 449 L970 555 L970 1365 L1086 1365 L1086 553 Q1086 390 1081 335 Q1070 211 999 125 Q875 -23 622 -23 Q428 -23 307 68 Q204 145 174 273 Q159 335 159 453 L159 553 L159 1365 Z M375 1514 L296 1548 Q311 1612 331 1651 Q378 1740 477 1740 Q545 1740 633 1682 Q679 1651 704 1636 Q738 1616 773 1616 Q856 1616 872 1747 L949 1712 Q941 1646 921 1607 Q900 1567 861 1542 Q818 1514 770 1514 Q723 1514 682 1535 Q643 1555 593 1589 Q521 1637 478 1637 Q403 1637 375 1514 Z " />
<glyph glyph-name="utilde" unicode="&#x169;" horiz-adv-x="979" d="M149 969 L255 969 L255 364 Q255 211 288 158 Q342 73 465 73 Q601 73 674 188 Q720 260 720 411 L720 969 L826 969 L826 294 Q826 158 827 127 Q829 59 848 0 L741 0 Q721 62 720 138 Q685 66 641 30 Q574 -24 465 -24 Q348 -24 268 34 Q174 100 156 218 Q149 263 149 369 L149 969 Z M266 1163 L190 1179 Q225 1390 360 1390 Q421 1390 499 1330 Q586 1264 625 1264 Q697 1264 713 1395 L793 1377 Q784 1289 749 1233 Q703 1160 627 1160 Q563 1160 476 1226 Q395 1287 357 1287 Q290 1287 266 1163 Z " />
<glyph glyph-name="Umacron" unicode="&#x16a;" horiz-adv-x="1246" d="M159 1365 L275 1365 L275 555 Q276 400 281 355 Q292 244 345 185 Q398 125 494 99 Q557 82 622 82 Q741 82 831 131 Q917 177 947 263 Q969 326 969 449 L970 555 L970 1365 L1086 1365 L1086 553 Q1086 390 1081 335 Q1070 211 999 125 Q875 -23 622 -23 Q428 -23 307 68 Q204 145 174 273 Q159 335 159 453 L159 553 L159 1365 Z M337 1672 L908 1672 L908 1580 L337 1580 L337 1672 Z " />
<glyph glyph-name="umacron" unicode="&#x16b;" horiz-adv-x="979" d="M149 969 L255 969 L255 364 Q255 211 288 158 Q342 73 465 73 Q601 73 674 188 Q720 260 720 411 L720 969 L826 969 L826 294 Q826 158 827 127 Q829 59 848 0 L741 0 Q721 62 720 138 Q685 66 641 30 Q574 -24 465 -24 Q348 -24 268 34 Q174 100 156 218 Q149 263 149 369 L149 969 Z M211 1328 L759 1328 L759 1233 L211 1233 L211 1328 Z " />
<glyph glyph-name="Ubreve" unicode="&#x16c;" horiz-adv-x="1246" d="M159 1365 L275 1365 L275 555 Q276 400 281 355 Q292 244 345 185 Q398 125 494 99 Q557 82 622 82 Q741 82 831 131 Q917 177 947 263 Q969 326 969 449 L970 555 L970 1365 L1086 1365 L1086 553 Q1086 390 1081 335 Q1070 211 999 125 Q875 -23 622 -23 Q428 -23 307 68 Q204 145 174 273 Q159 335 159 453 L159 553 L159 1365 Z M352 1761 L429 1761 Q442 1703 476 1665 Q535 1598 624 1598 Q713 1598 770 1665 Q803 1703 817 1761 L894 1761 Q886 1691 861 1639 Q789 1494 626 1494 Q461 1494 386 1639 Q359 1691 352 1761 Z " />
<glyph glyph-name="ubreve" unicode="&#x16d;" horiz-adv-x="979" d="M149 969 L255 969 L255 364 Q255 211 288 158 Q342 73 465 73 Q601 73 674 188 Q720 260 720 411 L720 969 L826 969 L826 294 Q826 158 827 127 Q829 59 848 0 L741 0 Q721 62 720 138 Q685 66 641 30 Q574 -24 465 -24 Q348 -24 268 34 Q174 100 156 218 Q149 263 149 369 L149 969 Z M246 1409 L325 1409 Q337 1350 365 1311 Q416 1243 491 1243 Q568 1243 616 1310 Q644 1348 656 1409 L734 1409 Q727 1338 705 1285 Q642 1139 494 1139 Q345 1139 277 1286 Q253 1339 246 1409 Z " />
<glyph glyph-name="Uring" unicode="&#x16e;" horiz-adv-x="1246" d="M159 1365 L275 1365 L275 555 Q276 400 281 355 Q292 244 345 185 Q398 125 494 99 Q557 82 622 82 Q741 82 831 131 Q917 177 947 263 Q969 326 969 449 L970 555 L970 1365 L1086 1365 L1086 553 Q1086 390 1081 335 Q1070 211 999 125 Q875 -23 622 -23 Q428 -23 307 68 Q204 145 174 273 Q159 335 159 453 L159 553 L159 1365 Z M625 1828 Q699 1828 753 1774 Q807 1720 807 1644 Q807 1568 753 1514 Q699 1460 623 1460 Q547 1460 493 1514 Q439 1568 439 1644 Q439 1721 493 1774 Q548 1828 625 1828 Z M624 1746 Q581 1746 551 1716 Q521 1687 521 1644 Q521 1603 551 1573 Q581 1543 623 1543 Q665 1543 695 1573 Q725 1603 725 1644 Q725 1687 695 1716 Q665 1746 624 1746 Z " />
<glyph glyph-name="uring" unicode="&#x16f;" horiz-adv-x="979" d="M149 969 L255 969 L255 364 Q255 211 288 158 Q342 73 465 73 Q601 73 674 188 Q720 260 720 411 L720 969 L826 969 L826 294 Q826 158 827 127 Q829 59 848 0 L741 0 Q721 62 720 138 Q685 66 641 30 Q574 -24 465 -24 Q348 -24 268 34 Q174 100 156 218 Q149 263 149 369 L149 969 Z M493 1480 Q566 1480 620 1426 Q674 1373 674 1296 Q674 1220 620 1166 Q567 1112 490 1112 Q414 1112 361 1166 Q307 1220 307 1296 Q307 1373 361 1426 Q415 1480 493 1480 Z M492 1398 Q448 1398 419 1368 Q389 1338 389 1296 Q389 1254 419 1224 Q448 1194 491 1194 Q533 1194 562 1224 Q592 1254 592 1296 Q592 1339 562 1368 Q532 1398 492 1398 Z " />
<glyph glyph-name="Uhungarumlaut" unicode="&#x170;" horiz-adv-x="1246" d="M159 1365 L275 1365 L275 555 Q276 400 281 355 Q292 244 345 185 Q398 125 494 99 Q557 82 622 82 Q741 82 831 131 Q917 177 947 263 Q969 326 969 449 L970 555 L970 1365 L1086 1365 L1086 553 Q1086 390 1081 335 Q1070 211 999 125 Q875 -23 622 -23 Q428 -23 307 68 Q204 145 174 273 Q159 335 159 453 L159 553 L159 1365 Z M439 1496 L635 1758 L771 1758 L541 1496 L439 1496 Z M644 1496 L840 1758 L976 1758 L746 1496 L644 1496 Z " />
<glyph glyph-name="uhungarumlaut" unicode="&#x171;" horiz-adv-x="979" d="M149 969 L255 969 L255 364 Q255 211 288 158 Q342 73 465 73 Q601 73 674 188 Q720 260 720 411 L720 969 L826 969 L826 294 Q826 158 827 127 Q829 59 848 0 L741 0 Q721 62 720 138 Q685 66 641 30 Q574 -24 465 -24 Q348 -24 268 34 Q174 100 156 218 Q149 263 149 369 L149 969 Z M326 1143 L499 1406 L635 1406 L428 1143 L326 1143 Z M538 1143 L711 1406 L847 1406 L640 1143 L538 1143 Z " />
<glyph glyph-name="Uogonek" unicode="&#x172;" horiz-adv-x="1246" d="M967 -272 L967 -360 Q897 -381 840 -381 Q775 -381 726 -353 Q633 -301 633 -205 Q633 -134 703 -69 Q726 -48 793 1 Q705 -23 624 -23 Q428 -23 307 68 Q204 145 174 273 Q159 335 159 453 L159 553 L159 1365 L275 1365 L275 555 Q276 400 281 355 Q292 244 345 185 Q398 125 494 99 Q557 82 622 82 Q741 82 831 131 Q916 176 947 263 Q970 330 970 555 L970 1365 L1086 1365 L1086 553 Q1086 391 1081 336 Q1072 223 1005 133 Q971 86 883 4 Q757 -115 757 -180 Q757 -226 794 -256 Q827 -283 882 -283 Q923 -283 967 -272 Z " />
<glyph glyph-name="uogonek" unicode="&#x173;" horiz-adv-x="979" d="M848 0 Q779 -52 748 -82 Q704 -125 704 -169 Q704 -213 739 -239 Q773 -264 822 -264 Q861 -264 901 -251 L901 -336 Q839 -354 788 -354 Q726 -354 676 -328 Q634 -307 610 -264 Q590 -228 590 -187 Q590 -112 661 -55 Q680 -40 741 0 Q721 62 720 138 Q685 66 641 30 Q574 -24 465 -24 Q348 -24 268 34 Q174 100 156 218 Q149 263 149 369 L149 969 L255 969 L255 364 Q255 211 288 158 Q342 73 465 73 Q601 73 674 188 Q720 260 720 411 L720 969 L826 969 L826 294 Q827 104 832 66 Q836 38 848 0 Z " />
<glyph glyph-name="Wcircumflex" unicode="&#x174;" horiz-adv-x="1528" d="M43 1365 L155 1365 L421 169 L714 1365 L815 1365 L1109 169 L1377 1365 L1489 1365 L1170 -11 L1050 -11 L765 1115 L479 -11 L359 -11 L43 1365 Z M431 1496 L691 1758 L843 1758 L1104 1496 L995 1496 L767 1684 L540 1496 L431 1496 Z " />
<glyph glyph-name="wcircumflex" unicode="&#x175;" horiz-adv-x="1293" d="M32 969 L145 969 L362 173 L598 969 L695 969 L931 173 L1148 969 L1261 969 L982 -14 L885 -14 L647 808 L408 -14 L311 -14 L32 969 Z M344 1145 L571 1424 L723 1424 L949 1145 L840 1145 L647 1344 L454 1145 L344 1145 Z " />
<glyph glyph-name="Ycircumflex" unicode="&#x176;" horiz-adv-x="1014" d="M32 1365 L169 1365 L509 696 L845 1365 L982 1365 L562 585 L565 0 L449 0 L452 585 L32 1365 Z M171 1496 L431 1758 L583 1758 L844 1496 L734 1496 L507 1684 L280 1496 L171 1496 Z " />
<glyph glyph-name="ycircumflex" unicode="&#x177;" horiz-adv-x="855" d="M33 969 L148 969 L427 138 L716 969 L828 969 L512 82 Q439 -127 404 -200 Q304 -408 88 -408 Q72 -408 54 -407 L54 -312 Q185 -312 242 -255 Q289 -207 336 -85 Q347 -58 368 1 L33 969 Z M128 1145 L354 1424 L506 1424 L733 1145 L623 1145 L430 1344 L237 1145 L128 1145 Z " />
<glyph glyph-name="Zacute" unicode="&#x179;" horiz-adv-x="1003" d="M106 1365 L932 1365 L932 1286 L205 102 L921 102 L921 0 L68 0 L68 90 L788 1263 L106 1263 L106 1365 Z M383 1496 L647 1758 L817 1758 L502 1496 L383 1496 Z " />
<glyph glyph-name="zacute" unicode="&#x17a;" horiz-adv-x="796" d="M84 969 L759 969 L759 892 L170 89 L742 89 L742 0 L44 0 L44 85 L625 880 L84 880 L84 969 Z M307 1144 L503 1407 L673 1407 L403 1144 L307 1144 Z " />
<glyph glyph-name="Zdotaccent" unicode="&#x17b;" horiz-adv-x="1003" d="M106 1365 L932 1365 L932 1286 L205 102 L921 102 L921 0 L68 0 L68 90 L788 1263 L106 1263 L106 1365 Z M519 1744 Q565 1744 600 1710 Q634 1676 634 1627 Q634 1578 600 1544 Q566 1510 517 1510 Q468 1510 434 1544 Q400 1579 400 1627 Q400 1676 434 1710 Q469 1744 519 1744 Z " />
<glyph glyph-name="zdotaccent" unicode="&#x17c;" horiz-adv-x="796" d="M84 969 L759 969 L759 892 L170 89 L742 89 L742 0 L44 0 L44 85 L625 880 L84 880 L84 969 Z M424 1378 Q463 1378 491 1349 Q520 1321 520 1280 Q520 1240 491 1212 Q463 1183 423 1183 Q382 1183 354 1212 Q325 1240 325 1280 Q325 1322 354 1349 Q383 1378 424 1378 Z " />
<glyph glyph-name="Zcaron" unicode="&#x17d;" horiz-adv-x="1003" d="M106 1365 L932 1365 L932 1286 L205 102 L921 102 L921 0 L68 0 L68 90 L788 1263 L106 1263 L106 1365 Z M854 1758 L593 1496 L441 1496 L181 1758 L290 1758 L517 1570 L745 1758 L854 1758 Z " />
<glyph glyph-name="zcaron" unicode="&#x17e;" horiz-adv-x="796" d="M84 969 L759 969 L759 892 L170 89 L742 89 L742 0 L44 0 L44 85 L625 880 L84 880 L84 969 Z M724 1424 L498 1145 L346 1145 L120 1424 L229 1424 L422 1225 L615 1424 L724 1424 Z " />
<glyph glyph-name="longs" unicode="&#x17f;" horiz-adv-x="552" d="M174 0 L174 1032 Q174 1149 180 1192 Q194 1284 263 1338 Q327 1388 418 1388 Q475 1388 549 1363 L549 1255 Q490 1291 426 1291 Q330 1291 304 1214 Q291 1176 291 1040 L291 0 L174 0 Z " />
<glyph glyph-name="uni018F" unicode="&#x18f;" horiz-adv-x="1305" d="M107 727 L1059 727 Q1059 737 1059 743 Q1059 860 1006 995 Q893 1283 654 1283 Q480 1283 361 1117 Q337 1084 322 1047 L209 1097 Q233 1149 272 1198 Q426 1388 652 1388 Q884 1388 1033 1198 Q1183 1007 1183 690 Q1183 363 1033 167 Q888 -23 653 -23 Q499 -23 374 66 Q225 172 161 401 Q132 503 107 727 Z M235 638 Q249 471 317 328 Q433 82 653 82 Q789 82 890 183 Q1053 345 1062 638 L235 638 Z " />
<glyph glyph-name="Ohorn" unicode="&#x1a0;" horiz-adv-x="1305" d="M1086 1117 Q1149 1192 1162 1254 Q1152 1253 1145 1253 Q1109 1253 1083 1281 Q1059 1307 1059 1343 Q1059 1386 1092 1414 Q1119 1438 1158 1438 Q1201 1438 1231 1407 Q1263 1375 1263 1319 Q1263 1201 1118 1060 L1115 1060 Q1189 890 1189 683 Q1189 370 1033 167 Q888 -23 652 -23 Q417 -23 272 167 Q116 371 116 683 Q116 994 272 1198 Q417 1388 652 1388 Q929 1388 1086 1117 Z M653 1283 Q470 1283 360 1117 Q243 940 243 690 Q243 426 360 248 Q470 82 653 82 Q836 82 945 248 Q1062 427 1062 683 Q1062 943 945 1117 Q833 1283 653 1283 Z " />
<glyph glyph-name="ohorn" unicode="&#x1a1;" horiz-adv-x="1010" d="M836 799 Q893 865 906 927 Q894 925 889 925 Q855 925 829 953 Q806 978 806 1013 Q806 1055 838 1083 Q864 1106 901 1106 Q943 1106 972 1076 Q1003 1045 1003 989 Q1003 871 864 741 Q910 629 910 482 Q910 242 782 97 Q674 -24 505 -24 Q336 -24 228 97 Q100 242 100 485 Q100 728 228 874 Q337 996 505 996 Q717 996 836 799 Z M506 899 Q380 899 304 800 Q212 679 212 490 Q212 291 304 171 Q380 73 506 73 Q632 73 707 171 Q799 291 799 485 Q799 681 707 800 Q630 899 506 899 Z " />
<glyph glyph-name="Uhorn" unicode="&#x1af;" horiz-adv-x="1246" d="M159 1365 L275 1365 L275 555 Q276 400 281 355 Q292 244 345 185 Q398 125 494 99 Q557 82 622 82 Q741 82 831 131 Q917 177 947 263 Q969 326 969 449 L970 555 L970 1365 L1086 1365 L1086 553 Q1086 390 1081 335 Q1070 211 999 125 Q875 -23 622 -23 Q428 -23 307 68 Q204 145 174 273 Q159 335 159 453 L159 553 L159 1365 Z M1255 1099 L1168 1099 Q1281 1204 1300 1293 Q1288 1291 1282 1291 Q1247 1291 1221 1320 Q1197 1345 1197 1382 Q1197 1425 1229 1453 Q1257 1477 1296 1477 Q1338 1477 1368 1446 Q1400 1414 1400 1357 Q1400 1239 1255 1099 Z " />
<glyph glyph-name="uhorn" unicode="&#x1b0;" horiz-adv-x="979" d="M149 969 L255 969 L255 364 Q255 211 288 158 Q342 73 465 73 Q601 73 674 188 Q720 260 720 411 L720 969 L826 969 L826 294 Q826 158 827 127 Q829 59 848 0 L741 0 Q721 62 720 138 Q685 66 641 30 Q574 -24 465 -24 Q348 -24 268 34 Q174 100 156 218 Q149 263 149 369 L149 969 Z M996 749 L911 749 Q1020 850 1039 936 Q1028 935 1022 935 Q988 935 962 963 Q939 988 939 1023 Q939 1064 971 1092 Q997 1115 1034 1115 Q1076 1115 1105 1085 Q1136 1054 1136 998 Q1136 884 996 749 Z " />
<glyph glyph-name="uni01CD" unicode="&#x1cd;" horiz-adv-x="1134" d="M522 1377 L612 1377 L1085 0 L963 0 L829 388 L305 388 L170 0 L49 0 L522 1377 Z M795 490 L567 1210 L338 490 L795 490 Z M904 1758 L643 1496 L491 1496 L231 1758 L340 1758 L567 1570 L794 1758 L904 1758 Z " />
<glyph glyph-name="uni01CE" unicode="&#x1ce;" horiz-adv-x="949" d="M244 727 L133 727 Q146 842 215 909 Q305 996 478 996 Q623 996 711 927 Q782 871 792 754 Q796 709 796 623 L796 268 L795 190 Q795 80 821 0 L715 0 Q697 59 690 137 Q601 -24 404 -24 Q278 -24 197 41 Q100 118 100 254 Q100 461 328 545 Q468 597 690 631 L690 682 Q690 790 653 834 Q600 899 475 899 Q274 899 244 727 Z M690 546 Q475 504 372 459 Q212 390 212 258 Q212 173 273 119 Q326 73 412 73 Q568 73 643 196 Q690 271 690 436 L690 546 Z M786 1424 L559 1145 L407 1145 L181 1424 L290 1424 L483 1225 L676 1424 L786 1424 Z " />
<glyph glyph-name="uni01D1" unicode="&#x1d1;" horiz-adv-x="508" d="M313 0 L195 0 L217 982 L300 982 L313 0 Z M254 1366 Q296 1366 327 1335 Q358 1305 358 1262 Q358 1219 328 1188 Q298 1156 252 1156 Q209 1156 178 1188 Q148 1218 148 1261 Q148 1306 180 1336 Q211 1366 254 1366 Z " />
<glyph glyph-name="uni01D2" unicode="&#x1d2;" horiz-adv-x="1010" d="M505 996 Q673 996 782 874 Q910 729 910 485 Q910 242 782 97 Q674 -24 506 -24 Q336 -24 228 97 Q100 242 100 492 Q100 730 228 874 Q338 996 505 996 Z M506 899 Q380 899 304 800 Q212 679 212 490 Q212 291 304 171 Q380 73 506 73 Q632 73 707 171 Q799 291 799 485 Q799 681 707 800 Q630 899 506 899 Z M805 1424 L578 1145 L426 1145 L200 1424 L309 1424 L502 1225 L695 1424 L805 1424 Z " />
<glyph glyph-name="uni01D3" unicode="&#x1d3;" horiz-adv-x="1246" d="M159 1365 L275 1365 L275 555 Q276 400 281 355 Q292 244 345 185 Q398 125 494 99 Q557 82 622 82 Q741 82 831 131 Q917 177 947 263 Q969 326 969 449 L970 555 L970 1365 L1086 1365 L1086 553 Q1086 390 1081 335 Q1070 211 999 125 Q875 -23 622 -23 Q428 -23 307 68 Q204 145 174 273 Q159 335 159 453 L159 553 L159 1365 Z M959 1758 L699 1496 L547 1496 L286 1758 L395 1758 L623 1570 L850 1758 L959 1758 Z " />
<glyph glyph-name="uni01D4" unicode="&#x1d4;" horiz-adv-x="979" d="M149 969 L255 969 L255 364 Q255 211 288 158 Q342 73 465 73 Q601 73 674 188 Q720 260 720 411 L720 969 L826 969 L826 294 Q826 158 827 127 Q829 59 848 0 L741 0 Q721 62 720 138 Q685 66 641 30 Q574 -24 465 -24 Q348 -24 268 34 Q174 100 156 218 Q149 263 149 369 L149 969 Z M787 1424 L561 1145 L409 1145 L182 1424 L292 1424 L485 1225 L678 1424 L787 1424 Z " />
<glyph glyph-name="uni01DD" unicode="&#x1dd;" horiz-adv-x="975" d="M101 501 L763 501 Q759 674 701 771 Q623 900 468 900 Q357 900 290 832 Q261 802 229 741 L125 759 Q216 996 466 996 Q652 996 762 868 Q875 737 875 499 Q875 223 733 79 Q631 -24 477 -24 Q275 -24 171 152 Q100 273 100 463 Q100 475 101 501 Z M215 412 Q222 295 263 215 Q334 73 481 73 Q625 73 703 214 Q746 293 759 412 L215 412 Z " />
<glyph glyph-name="Gcaron" unicode="&#x1e6;" horiz-adv-x="1260" d="M734 669 L1126 669 L1126 110 Q941 -23 694 -23 Q460 -23 326 106 Q116 306 116 690 Q116 1052 314 1251 Q451 1388 664 1388 Q884 1388 1010 1245 Q1084 1161 1108 1010 L994 1010 Q960 1138 902 1195 Q813 1283 660 1283 Q497 1283 398 1176 Q243 1006 243 687 Q243 516 297 365 Q353 205 481 132 Q569 82 695 82 Q854 82 1014 170 L1014 558 L734 557 L734 669 Z M1005 1758 L744 1496 L592 1496 L332 1758 L441 1758 L668 1570 L895 1758 L1005 1758 Z " />
<glyph glyph-name="gcaron" unicode="&#x1e7;" horiz-adv-x="958" d="M911 969 L911 884 L712 889 Q808 806 808 652 Q808 509 721 434 Q683 402 620 380 Q592 370 489 343 Q398 318 348 295 Q288 266 288 224 Q288 199 315 184 Q339 171 476 158 Q625 144 676 132 Q914 78 914 -128 Q914 -273 785 -351 Q671 -420 487 -420 Q289 -420 169 -334 Q67 -262 67 -140 Q67 -26 152 40 Q198 75 275 102 Q172 141 172 214 Q172 280 247 324 Q286 347 346 370 Q143 443 143 651 Q143 821 265 913 Q352 978 484 978 Q553 978 624 959 L911 969 Z M485 889 Q392 889 328 832 Q255 767 255 655 Q255 554 317 496 Q380 437 477 437 Q574 437 633 492 Q697 550 697 655 Q697 749 644 813 Q583 889 485 889 Z M487 46 Q348 46 268 6 Q170 -44 170 -136 Q170 -218 253 -269 Q340 -322 489 -322 Q672 -322 754 -250 Q808 -203 808 -135 Q808 -34 702 12 Q624 46 487 46 Z M798 1424 L571 1145 L420 1145 L193 1424 L302 1424 L496 1225 L688 1424 L798 1424 Z " />
<glyph glyph-name="uni01F4" unicode="&#x1f4;" horiz-adv-x="1260" d="M734 669 L1126 669 L1126 110 Q941 -23 694 -23 Q460 -23 326 106 Q116 306 116 690 Q116 1052 314 1251 Q451 1388 664 1388 Q884 1388 1010 1245 Q1084 1161 1108 1010 L994 1010 Q960 1138 902 1195 Q813 1283 660 1283 Q497 1283 398 1176 Q243 1006 243 687 Q243 516 297 365 Q353 205 481 132 Q569 82 695 82 Q854 82 1014 170 L1014 558 L734 557 L734 669 Z M533 1496 L797 1758 L967 1758 L652 1496 L533 1496 Z " />
<glyph glyph-name="Aringacute" unicode="&#x1fa;" horiz-adv-x="1134" d="M522 1377 L612 1377 L1085 0 L963 0 L829 388 L305 388 L170 0 L49 0 L522 1377 Z M795 490 L567 1210 L338 490 L795 490 Z M566 1771 Q640 1771 694 1717 Q748 1664 748 1587 Q748 1511 694 1457 Q640 1403 564 1403 Q488 1403 434 1457 Q380 1511 380 1587 Q380 1664 434 1717 Q489 1771 566 1771 Z M565 1689 Q522 1689 492 1659 Q462 1629 462 1587 Q462 1545 492 1516 Q522 1486 564 1486 Q607 1486 636 1516 Q666 1545 666 1587 Q666 1630 636 1659 Q606 1689 565 1689 Z M303 1747 L567 2009 L738 2009 L422 1747 L303 1747 Z " />
<glyph glyph-name="AEacute" unicode="&#x1fc;" horiz-adv-x="1702" d="M819 1365 L1602 1365 L1602 1263 L1008 1263 L1008 759 L1555 759 L1555 656 L1008 656 L1008 102 L1602 102 L1602 0 L887 0 L887 390 L399 390 L181 0 L48 0 L819 1365 Z M887 493 L887 1266 L456 493 L887 493 Z M942 1496 L1206 1758 L1376 1758 L1061 1496 L942 1496 Z " />
<glyph glyph-name="aeacute" unicode="&#x1fd;" horiz-adv-x="1547" d="M1447 477 L789 477 Q791 300 848 208 Q931 73 1089 73 Q1249 73 1329 232 L1432 213 Q1408 134 1350 76 Q1252 -24 1089 -24 Q936 -24 832 68 Q774 118 741 188 Q693 102 643 60 Q546 -24 404 -24 Q283 -24 200 37 Q100 110 100 236 Q100 360 200 445 Q306 534 495 557 Q571 566 676 566 L676 633 Q676 779 646 825 Q599 899 475 899 Q282 899 230 718 L130 718 Q149 833 222 904 Q317 996 476 996 Q641 996 719 912 Q755 873 769 812 Q873 996 1072 996 Q1201 996 1295 917 Q1449 788 1447 477 Z M1324 566 Q1321 700 1271 782 Q1200 899 1070 899 Q931 899 849 756 Q805 678 793 566 L1324 566 Z M676 477 Q534 478 433 454 Q212 401 212 238 Q212 161 269 116 Q325 73 409 73 Q564 73 636 197 Q676 265 676 393 L676 477 Z M720 1144 L916 1407 L1086 1407 L816 1144 L720 1144 Z " />
<glyph glyph-name="Oslashacute" unicode="&#x1fe;" horiz-adv-x="1305" d="M987 1260 L1058 1365 L1159 1365 L1045 1195 Q1189 1001 1189 702 Q1189 360 1016 152 Q939 58 825 12 Q740 -23 645 -23 Q457 -23 316 106 L245 0 L145 0 L258 170 Q115 370 115 662 Q115 1004 288 1213 Q366 1307 479 1353 Q564 1388 660 1388 Q841 1388 987 1260 Z M923 1164 Q812 1283 661 1283 Q542 1283 446 1208 Q343 1127 288 966 Q242 830 242 658 Q242 437 329 275 L923 1164 Z M380 202 Q490 81 644 81 Q781 81 886 180 Q1010 296 1048 532 Q1062 619 1062 710 Q1062 930 975 1090 L380 202 Z M569 1496 L833 1758 L1004 1758 L688 1496 L569 1496 Z " />
<glyph glyph-name="oslashacute" unicode="&#x1ff;" horiz-adv-x="1010" d="M190 140 Q100 284 100 473 Q100 732 243 883 Q350 997 509 997 Q664 997 776 885 L840 967 L931 967 L822 827 Q911 689 911 495 Q911 238 768 88 Q660 -24 500 -24 Q345 -24 238 79 L176 0 L80 0 L190 140 Z M260 230 L710 802 Q630 900 511 900 Q344 900 260 720 Q211 616 211 466 Q211 333 260 230 Z M751 737 L303 162 Q378 72 500 72 Q666 72 750 249 Q799 352 799 501 Q799 635 751 737 Z M452 1144 L647 1407 L818 1407 L548 1144 L452 1144 Z " />
<glyph glyph-name="Scommaaccent" unicode="&#x218;" horiz-adv-x="1109" d="M940 1028 L826 1028 Q814 1140 757 1201 Q681 1283 546 1283 Q439 1283 368 1228 Q280 1161 280 1057 Q280 960 366 898 Q411 865 463 841 L615 770 Q837 667 902 585 Q980 489 980 356 Q980 167 832 60 Q717 -23 549 -23 Q324 -23 208 119 Q126 219 116 400 L232 400 Q239 264 301 188 Q342 138 410 110 Q478 82 554 82 Q686 82 772 156 Q858 230 858 349 Q858 456 780 528 Q727 577 576 647 Q356 749 297 791 Q161 889 161 1049 Q161 1204 283 1301 Q392 1388 554 1388 Q769 1388 874 1241 Q933 1159 940 1028 Z M506 -487 L418 -487 Q532 -382 550 -293 Q538 -295 533 -295 Q497 -295 471 -266 Q447 -240 447 -204 Q447 -161 479 -133 Q507 -109 546 -109 Q589 -109 619 -140 Q651 -172 651 -229 Q651 -347 506 -487 Z " />
<glyph glyph-name="scommaaccent" unicode="&#x219;" horiz-adv-x="865" d="M757 711 L653 711 Q643 803 599 845 Q544 899 440 899 Q344 899 286 849 Q238 807 238 737 Q238 674 283 638 Q326 604 460 564 Q609 520 661 490 Q777 422 777 273 Q777 145 695 65 Q604 -24 440 -24 Q227 -24 141 108 Q95 180 95 291 L200 291 Q220 72 440 72 Q536 72 597 119 Q664 170 664 262 Q664 345 604 387 Q577 406 529 424 Q515 429 383 470 Q236 516 183 575 Q127 639 127 734 Q127 864 229 934 Q318 996 442 996 Q543 996 621 955 Q749 888 757 711 Z M405 -476 L320 -476 Q429 -375 448 -288 Q438 -289 431 -289 Q396 -289 370 -261 Q347 -236 347 -201 Q347 -160 379 -132 Q406 -109 443 -109 Q485 -109 514 -139 Q545 -170 545 -226 Q545 -341 405 -476 Z " />
<glyph glyph-name="uni021A" unicode="&#x21a;" horiz-adv-x="921" d="M49 1365 L873 1365 L873 1263 L519 1263 L519 0 L403 0 L403 1263 L49 1263 L49 1365 Z M418 -487 L331 -487 Q444 -383 462 -293 Q451 -295 445 -295 Q409 -295 383 -266 Q359 -240 359 -204 Q359 -161 392 -133 Q419 -109 458 -109 Q501 -109 531 -140 Q563 -172 563 -229 Q563 -348 418 -487 Z " />
<glyph glyph-name="uni021B" unicode="&#x21b;" horiz-adv-x="612" d="M310 969 L552 969 L551 880 L308 880 L299 350 Q297 257 297 241 Q297 135 319 108 Q347 74 409 74 Q475 74 549 107 L547 7 Q471 -19 391 -19 Q281 -19 227 33 Q185 74 185 175 Q185 213 188 278 Q191 337 191 355 L203 880 L57 880 L59 969 L204 969 L209 1249 L315 1249 L310 969 Z M298 -476 L213 -476 Q322 -375 340 -288 Q331 -289 324 -289 Q289 -289 263 -261 Q240 -236 240 -201 Q240 -160 272 -132 Q299 -109 336 -109 Q378 -109 407 -139 Q438 -171 438 -226 Q438 -340 298 -476 Z " />
<glyph glyph-name="Adotaccent" unicode="&#x226;" horiz-adv-x="1134" d="M522 1377 L612 1377 L1085 0 L963 0 L829 388 L305 388 L170 0 L49 0 L522 1377 Z M795 490 L567 1210 L338 490 L795 490 Z M568 1744 Q615 1744 650 1710 Q684 1676 684 1627 Q684 1579 650 1544 Q616 1510 567 1510 Q518 1510 484 1544 Q450 1579 450 1627 Q450 1676 484 1710 Q519 1744 568 1744 Z " />
<glyph glyph-name="adotaccent" unicode="&#x227;" horiz-adv-x="949" d="M244 727 L133 727 Q146 842 215 909 Q305 996 478 996 Q623 996 711 927 Q782 871 792 754 Q796 709 796 623 L796 268 L795 190 Q795 80 821 0 L715 0 Q697 59 690 137 Q601 -24 404 -24 Q278 -24 197 41 Q100 118 100 254 Q100 461 328 545 Q468 597 690 631 L690 682 Q690 790 653 834 Q600 899 475 899 Q274 899 244 727 Z M690 546 Q475 504 372 459 Q212 390 212 258 Q212 173 273 119 Q326 73 412 73 Q568 73 643 196 Q690 271 690 436 L690 546 Z M483 1378 Q522 1378 550 1349 Q579 1321 579 1280 Q579 1240 550 1212 Q522 1183 482 1183 Q441 1183 413 1212 Q384 1240 384 1280 Q384 1322 413 1349 Q442 1378 483 1378 Z " />
<glyph glyph-name="dotlessj" unicode="&#x237;" horiz-adv-x="501" d="M230 969 L347 969 L347 66 Q347 -87 338 -146 Q316 -279 226 -336 Q147 -387 10 -387 Q-10 -387 -48 -386 L-48 -289 Q-29 -291 -10 -291 Q143 -291 194 -209 Q221 -164 227 -81 Q230 -27 230 66 L230 969 Z " />
<glyph glyph-name="uni0259" unicode="&#x259;" horiz-adv-x="975" d="M101 501 L763 501 Q759 674 701 771 Q623 900 468 900 Q357 900 290 832 Q261 802 229 741 L125 759 Q216 996 466 996 Q652 996 762 868 Q875 737 875 499 Q875 223 733 79 Q631 -24 477 -24 Q275 -24 171 152 Q100 273 100 463 Q100 475 101 501 Z M215 412 Q222 295 263 215 Q334 73 481 73 Q625 73 703 214 Q746 293 759 412 L215 412 Z " />
<glyph glyph-name="afii57929" unicode="&#x2bc;" horiz-adv-x="480" d="M208 938 L79 938 Q215 1065 239 1178 Q227 1177 219 1177 Q179 1177 149 1209 Q122 1239 122 1280 Q122 1329 159 1361 Q190 1388 233 1388 Q283 1388 317 1353 Q353 1316 353 1250 Q353 1105 208 938 Z " />
<glyph glyph-name="uni02C9" unicode="&#x2c9;" horiz-adv-x="1024" d="M238 1328 L786 1328 L786 1233 L238 1233 L238 1328 Z " />
<glyph glyph-name="tonos" unicode="&#x384;" horiz-adv-x="258" d="M174 1092 L84 1092 L68 1447 L190 1447 L174 1092 Z " />
<glyph glyph-name="dieresistonos" unicode="&#x385;" horiz-adv-x="784" d="M167 1378 Q206 1378 234 1349 Q263 1321 263 1280 Q263 1240 234 1212 Q206 1183 166 1183 Q125 1183 97 1212 Q68 1240 68 1280 Q68 1322 97 1349 Q126 1378 167 1378 Z M620 1378 Q659 1378 687 1349 Q716 1321 716 1280 Q716 1240 687 1212 Q659 1183 619 1183 Q578 1183 550 1212 Q521 1240 521 1280 Q521 1322 550 1349 Q579 1378 620 1378 Z M437 1092 L347 1092 L331 1447 L453 1447 L437 1092 Z " />
<glyph glyph-name="Alphatonos" unicode="&#x386;" horiz-adv-x="1167" d="M555 1377 L645 1377 L1118 0 L996 0 L862 388 L338 388 L203 0 L82 0 L555 1377 Z M828 490 L600 1210 L371 490 L828 490 Z M270 1092 L180 1092 L164 1447 L286 1447 L270 1092 Z " />
<glyph glyph-name="uni0387" unicode="&#x387;" horiz-adv-x="526" d="M263 617 Q306 617 337 585 Q367 555 367 511 Q367 468 335 437 Q304 407 262 407 Q218 407 188 438 Q157 469 157 511 Q157 555 187 585 Q218 617 263 617 Z " />
<glyph glyph-name="Epsilontonos" unicode="&#x388;" horiz-adv-x="1050" d="M343 758 L901 758 L901 656 L343 656 L343 102 L951 102 L951 0 L227 0 L227 1365 L941 1365 L941 1263 L343 1263 L343 758 Z M113 1092 L23 1092 L7 1447 L129 1447 L113 1092 Z " />
<glyph glyph-name="Etatonos" unicode="&#x389;" horiz-adv-x="1314" d="M343 763 L1018 763 L1018 1365 L1134 1365 L1134 0 L1018 0 L1018 666 L343 666 L343 0 L227 0 L227 1365 L343 1365 L343 763 Z M113 1092 L23 1092 L7 1447 L129 1447 L113 1092 Z " />
<glyph glyph-name="Iotatonos" unicode="&#x38a;" horiz-adv-x="523" d="M346 0 L224 0 L224 1365 L346 1365 L346 0 Z M113 1092 L23 1092 L7 1447 L129 1447 L113 1092 Z " />
<glyph glyph-name="Omicrontonos" unicode="&#x38c;" horiz-adv-x="1341" d="M689 1388 Q843 1388 967 1298 Q1103 1199 1171 1011 Q1225 863 1225 683 Q1225 371 1069 167 Q924 -23 689 -23 Q452 -23 308 167 Q152 371 152 692 Q152 895 226 1061 Q305 1239 450 1324 Q558 1388 689 1388 Z M689 1283 Q506 1283 396 1117 Q279 940 279 690 Q279 426 396 248 Q506 82 689 82 Q872 82 981 248 Q1098 426 1098 683 Q1098 943 981 1117 Q868 1283 689 1283 Z M161 1092 L71 1092 L55 1447 L177 1447 L161 1092 Z " />
<glyph glyph-name="Upsilontonos" unicode="&#x38e;" horiz-adv-x="1146" d="M164 1365 L301 1365 L642 696 L978 1365 L1115 1365 L695 585 L698 0 L581 0 L584 585 L164 1365 Z M106 1092 L16 1092 L0 1447 L122 1447 L106 1092 Z " />
<glyph glyph-name="Omegatonos" unicode="&#x38f;" horiz-adv-x="1397" d="M158 1092 L68 1092 L52 1447 L174 1447 L158 1092 Z M930 142 L930 102 L1295 102 L1295 0 L808 0 L808 212 Q922 227 1003 294 Q1168 432 1168 732 Q1168 1066 975 1204 Q865 1283 717 1283 Q552 1283 436 1185 Q267 1043 267 732 Q267 540 338 412 Q434 237 627 212 L627 0 L140 0 L140 102 L505 102 L505 142 Q399 172 320 245 Q140 408 140 729 Q140 1121 389 1292 Q529 1388 718 1388 Q928 1388 1076 1270 Q1295 1094 1295 729 Q1295 375 1079 215 Q1013 166 930 142 Z " />
<glyph glyph-name="iotadieresistonos" unicode="&#x390;" horiz-adv-x="424" d="M153 969 L270 969 L270 0 L153 0 L153 969 Z M-13 1378 Q26 1378 54 1349 Q83 1321 83 1280 Q83 1240 54 1212 Q26 1183 -14 1183 Q-55 1183 -83 1212 Q-112 1240 -112 1280 Q-112 1322 -83 1349 Q-54 1378 -13 1378 Z M440 1378 Q479 1378 507 1349 Q536 1321 536 1280 Q536 1240 507 1212 Q479 1183 439 1183 Q398 1183 370 1212 Q341 1240 341 1280 Q341 1322 370 1349 Q399 1378 440 1378 Z M257 1092 L167 1092 L151 1447 L273 1447 L257 1092 Z " />
<glyph glyph-name="Alpha" unicode="&#x391;" horiz-adv-x="1134" d="M522 1377 L612 1377 L1085 0 L963 0 L829 388 L305 388 L170 0 L49 0 L522 1377 Z M795 490 L567 1210 L338 490 L795 490 Z " />
<glyph glyph-name="Beta" unicode="&#x392;" horiz-adv-x="1099" d="M180 1365 L390 1365 Q539 1365 613 1357 Q761 1341 845 1263 Q940 1176 940 1026 Q940 796 713 726 Q817 700 877 658 Q1011 563 1011 376 Q1011 198 898 96 Q814 21 645 7 Q558 0 390 0 L180 0 L180 1365 Z M296 765 L430 765 Q539 765 607 777 Q715 795 768 866 Q818 931 818 1024 Q818 1134 751 1196 Q700 1243 610 1255 Q552 1263 425 1263 L296 1263 L296 765 Z M296 102 L439 102 Q561 102 640 110 Q883 136 883 383 Q883 505 809 578 Q743 644 612 657 Q551 663 437 663 L296 663 L296 102 Z " />
<glyph glyph-name="Gamma" unicode="&#x393;" horiz-adv-x="924" d="M180 0 L180 1365 L883 1365 L883 1263 L302 1263 L302 0 L180 0 Z " />
<glyph glyph-name="uni0394" unicode="&#x394;" horiz-adv-x="1068" d="M7 0 L477 1377 L592 1377 L1061 0 L7 0 Z M905 102 L530 1227 L161 102 L905 102 Z " />
<glyph glyph-name="Epsilon" unicode="&#x395;" horiz-adv-x="1004" d="M296 758 L854 758 L854 656 L296 656 L296 102 L904 102 L904 0 L180 0 L180 1365 L895 1365 L895 1263 L296 1263 L296 758 Z " />
<glyph glyph-name="Zeta" unicode="&#x396;" horiz-adv-x="1003" d="M106 1365 L932 1365 L932 1286 L205 102 L921 102 L921 0 L68 0 L68 90 L788 1263 L106 1263 L106 1365 Z " />
<glyph glyph-name="Eta" unicode="&#x397;" horiz-adv-x="1267" d="M296 763 L972 763 L972 1365 L1088 1365 L1088 0 L972 0 L972 666 L296 666 L296 0 L180 0 L180 1365 L296 1365 L296 763 Z " />
<glyph glyph-name="Theta" unicode="&#x398;" horiz-adv-x="1305" d="M653 1388 Q807 1388 931 1298 Q1067 1199 1135 1011 Q1189 863 1189 683 Q1189 371 1033 167 Q958 69 849 19 Q758 -23 654 -23 Q416 -23 272 167 Q116 371 116 692 Q116 896 190 1061 Q269 1239 414 1324 Q522 1388 653 1388 Z M653 1283 Q470 1283 360 1117 Q243 940 243 690 Q243 426 360 248 Q470 82 653 82 Q836 82 945 248 Q1062 427 1062 683 Q1062 943 945 1117 Q833 1283 653 1283 Z M406 739 L899 739 L899 642 L406 642 L406 739 Z " />
<glyph glyph-name="Iota" unicode="&#x399;" horiz-adv-x="476" d="M299 0 L177 0 L177 1365 L299 1365 L299 0 Z " />
<glyph glyph-name="Kappa" unicode="&#x39a;" horiz-adv-x="1099" d="M870 1365 L1017 1365 L444 715 L1077 0 L908 0 L299 713 L870 1365 Z M180 1365 L296 1365 L296 0 L180 0 L180 1365 Z " />
<glyph glyph-name="Lambda" unicode="&#x39b;" horiz-adv-x="1068" d="M1061 0 L939 0 L530 1227 L128 0 L7 0 L477 1377 L592 1377 L1061 0 Z " />
<glyph glyph-name="Mu" unicode="&#x39c;" horiz-adv-x="1560" d="M180 1365 L368 1365 L780 131 L1192 1365 L1380 1365 L1380 0 L1264 0 L1264 1259 L839 0 L722 0 L296 1259 L296 0 L180 0 L180 1365 Z " />
<glyph glyph-name="Nu" unicode="&#x39d;" horiz-adv-x="1285" d="M180 1365 L309 1365 L997 170 L997 1365 L1105 1365 L1105 0 L970 0 L290 1191 L290 0 L180 0 L180 1365 Z " />
<glyph glyph-name="Xi" unicode="&#x39e;" horiz-adv-x="1018" d="M131 656 L131 758 L887 758 L887 656 L131 656 Z M82 0 L82 102 L936 102 L936 0 L82 0 Z M91 1263 L91 1365 L927 1365 L927 1263 L91 1263 Z " />
<glyph glyph-name="Omicron" unicode="&#x39f;" horiz-adv-x="1305" d="M653 1388 Q807 1388 931 1298 Q1067 1199 1135 1011 Q1189 863 1189 683 Q1189 371 1033 167 Q958 69 849 19 Q758 -23 654 -23 Q416 -23 272 167 Q116 371 116 692 Q116 896 190 1061 Q269 1239 414 1324 Q522 1388 653 1388 Z M653 1283 Q470 1283 360 1117 Q243 940 243 690 Q243 426 360 248 Q470 82 653 82 Q836 82 945 248 Q1062 427 1062 683 Q1062 943 945 1117 Q833 1283 653 1283 Z " />
<glyph glyph-name="Pi" unicode="&#x3a0;" horiz-adv-x="1267" d="M296 1268 L296 0 L180 0 L180 1365 L1088 1365 L1088 0 L972 0 L972 1268 L296 1268 Z " />
<glyph glyph-name="Rho" unicode="&#x3a1;" horiz-adv-x="1050" d="M180 1365 L374 1365 Q640 1365 746 1330 Q864 1291 931 1179 Q984 1090 984 964 Q984 809 902 711 Q813 603 647 584 Q560 574 402 574 L296 574 L296 0 L180 0 L180 1365 Z M296 676 L398 676 Q571 676 656 694 Q856 735 856 966 Q856 1097 784 1174 Q723 1241 602 1254 Q531 1263 371 1263 L296 1263 L296 676 Z " />
<glyph glyph-name="Sigma" unicode="&#x3a3;" horiz-adv-x="919" d="M517 671 L52 1286 L52 1365 L878 1365 L878 1263 L212 1263 L652 671 L163 102 L867 102 L867 0 L14 0 L14 90 L517 671 Z " />
<glyph glyph-name="Tau" unicode="&#x3a4;" horiz-adv-x="921" d="M49 1365 L873 1365 L873 1263 L519 1263 L519 0 L403 0 L403 1263 L49 1263 L49 1365 Z " />
<glyph glyph-name="Upsilon" unicode="&#x3a5;" horiz-adv-x="1014" d="M32 1365 L169 1365 L509 696 L845 1365 L982 1365 L562 585 L565 0 L449 0 L452 585 L32 1365 Z " />
<glyph glyph-name="Phi" unicode="&#x3a6;" horiz-adv-x="1430" d="M774 0 L655 0 L655 115 Q458 124 323 211 Q82 366 82 683 Q82 1028 363 1177 Q486 1242 655 1251 L655 1365 L774 1365 L774 1251 Q971 1241 1106 1154 Q1347 999 1347 683 Q1347 337 1066 188 Q943 123 774 115 L774 0 Z M655 1149 Q497 1143 385 1065 Q205 937 205 683 Q205 406 414 282 Q517 221 655 216 L655 1149 Z M774 1149 L774 216 Q932 222 1044 300 Q1224 427 1224 683 Q1224 959 1015 1083 Q912 1144 774 1149 Z " />
<glyph glyph-name="Chi" unicode="&#x3a7;" horiz-adv-x="1083" d="M68 1365 L204 1365 L544 808 L884 1365 L1020 1365 L611 716 L1040 0 L908 0 L544 604 L181 0 L48 0 L477 716 L68 1365 Z " />
<glyph glyph-name="Psi" unicode="&#x3a8;" horiz-adv-x="1241" d="M682 0 L560 0 L560 310 Q394 310 279 382 Q130 476 103 667 Q96 718 96 817 L96 1365 L212 1365 L212 819 Q212 713 227 641 Q260 485 431 433 Q494 414 560 415 L560 1365 L682 1365 L682 415 Q749 414 811 433 Q982 485 1015 641 Q1030 713 1030 819 L1030 1365 L1146 1365 L1146 817 Q1146 705 1135 645 Q1100 447 926 361 Q821 310 682 310 L682 0 Z " />
<glyph glyph-name="uni03A9" unicode="&#x3a9;" horiz-adv-x="1360" d="M892 142 L892 102 L1257 102 L1257 0 L770 0 L770 212 Q884 227 965 294 Q1130 432 1130 732 Q1130 1066 937 1204 Q827 1283 680 1283 Q514 1283 398 1185 Q229 1043 229 732 Q229 540 300 412 Q396 237 589 212 L589 0 L102 0 L102 102 L467 102 L467 142 Q362 172 282 245 Q102 408 102 729 Q102 1121 351 1292 Q491 1388 680 1388 Q890 1388 1038 1270 Q1257 1094 1257 729 Q1257 375 1041 215 Q975 166 892 142 Z " />
<glyph glyph-name="Iotadieresis" unicode="&#x3aa;" horiz-adv-x="476" d="M299 0 L177 0 L177 1365 L299 1365 L299 0 Z M103 1730 Q144 1730 174 1700 Q204 1670 204 1627 Q204 1585 174 1555 Q144 1525 102 1525 Q59 1525 29 1555 Q-1 1585 -1 1627 Q-1 1671 29 1700 Q60 1730 103 1730 Z M376 1730 Q417 1730 447 1700 Q477 1670 477 1627 Q477 1585 447 1555 Q417 1525 375 1525 Q332 1525 302 1555 Q272 1585 272 1627 Q272 1671 302 1700 Q333 1730 376 1730 Z " />
<glyph glyph-name="Upsilondieresis" unicode="&#x3ab;" horiz-adv-x="1014" d="M32 1365 L169 1365 L509 696 L845 1365 L982 1365 L562 585 L565 0 L449 0 L452 585 L32 1365 Z M329 1732 Q371 1732 401 1701 Q432 1671 432 1627 Q432 1584 401 1554 Q371 1523 328 1523 Q284 1523 254 1554 Q223 1584 223 1627 Q223 1672 254 1701 Q285 1732 329 1732 Z M689 1732 Q731 1732 761 1701 Q792 1671 792 1627 Q792 1584 761 1554 Q731 1523 688 1523 Q644 1523 614 1554 Q583 1584 583 1627 Q583 1672 614 1701 Q645 1732 689 1732 Z " />
<glyph glyph-name="alphatonos" unicode="&#x3ac;" horiz-adv-x="1033" d="M552 1092 L462 1092 L446 1447 L568 1447 L552 1092 Z M798 306 Q749 152 683 75 Q599 -24 469 -24 Q350 -24 261 55 Q187 121 144 232 Q100 346 100 486 Q100 726 222 875 Q321 996 482 996 Q732 996 800 674 L842 969 L958 969 L860 486 L965 0 L849 0 L798 306 Z M753 486 Q716 700 644 805 Q579 899 477 899 Q388 899 322 833 Q212 722 212 483 Q212 252 322 139 Q386 73 471 73 Q589 73 667 220 Q702 286 732 391 Q755 473 753 486 Z " />
<glyph glyph-name="epsilontonos" unicode="&#x3ad;" horiz-adv-x="918" d="M482 1447 L451 1093 L376 1093 L344 1447 L482 1447 Z M482 533 L482 444 L459 444 Q358 444 327 439 Q175 412 175 269 Q175 160 265 106 Q320 73 406 73 Q516 73 574 127 Q616 166 634 217 Q645 247 656 289 L764 275 Q739 168 706 118 Q648 29 556 -3 Q497 -24 401 -24 Q259 -24 173 37 Q62 116 62 257 Q62 439 255 490 Q84 550 84 724 Q84 860 200 939 Q284 997 407 997 Q557 997 648 913 Q704 863 727 799 Q742 761 755 702 L649 689 Q621 793 570 842 Q509 900 402 900 Q282 900 227 819 Q196 774 196 713 Q196 642 241 594 Q292 538 385 534 Q404 533 459 533 L482 533 Z " />
<glyph glyph-name="etatonos" unicode="&#x3ae;" horiz-adv-x="1005" d="M131 969 L234 969 Q253 914 254 823 Q350 996 552 996 Q693 996 774 921 Q841 859 852 744 Q857 696 857 556 L857 -404 L751 -404 L751 563 Q751 670 747 705 Q736 808 687 852 Q634 900 543 900 Q396 900 315 781 Q260 699 260 556 L260 0 L154 0 L154 645 Q154 842 148 886 Q144 920 131 969 Z M569 1092 L479 1092 L463 1447 L585 1447 L569 1092 Z " />
<glyph glyph-name="iotatonos" unicode="&#x3af;" horiz-adv-x="424" d="M153 969 L270 969 L270 0 L153 0 L153 969 Z M257 1092 L167 1092 L151 1447 L273 1447 L257 1092 Z " />
<glyph glyph-name="upsilondieresistonos" unicode="&#x3b0;" horiz-adv-x="974" d="M149 969 L255 969 L255 338 Q255 73 487 73 Q720 73 720 338 L720 969 L826 969 L826 336 Q826 209 789 135 Q711 -24 487 -24 Q264 -24 185 135 Q149 209 149 336 L149 969 Z M263 1378 Q302 1378 330 1349 Q359 1321 359 1280 Q359 1240 330 1212 Q302 1183 262 1183 Q221 1183 193 1212 Q164 1240 164 1280 Q164 1322 193 1349 Q222 1378 263 1378 Z M716 1378 Q755 1378 783 1349 Q812 1321 812 1280 Q812 1240 783 1212 Q755 1183 715 1183 Q674 1183 646 1212 Q617 1240 617 1280 Q617 1321 646 1349 Q675 1378 716 1378 Z M532 1092 L443 1092 L427 1447 L548 1447 L532 1092 Z " />
<glyph glyph-name="alpha" unicode="&#x3b1;" horiz-adv-x="1033" d="M798 306 Q749 152 683 75 Q599 -24 469 -24 Q350 -24 261 55 Q187 121 144 232 Q100 346 100 486 Q100 726 222 875 Q321 996 482 996 Q732 996 800 674 L842 969 L958 969 L860 486 L965 0 L849 0 L798 306 Z M753 486 Q716 700 644 805 Q579 899 477 899 Q388 899 322 833 Q212 722 212 483 Q212 252 322 139 Q386 73 471 73 Q589 73 667 220 Q702 286 732 391 Q755 473 753 486 Z " />
<glyph glyph-name="beta" unicode="&#x3b2;" horiz-adv-x="1012" d="M154 -404 L154 940 Q154 1103 200 1196 Q253 1303 368 1355 Q441 1388 533 1388 Q689 1388 782 1297 Q885 1195 885 1031 Q885 882 800 791 Q754 741 669 720 Q769 693 823 633 Q912 535 912 374 Q912 190 809 77 Q716 -24 563 -24 Q363 -24 263 141 L263 -404 L154 -404 Z M482 671 L482 760 L534 760 Q639 760 698 821 Q773 898 773 1028 Q773 1135 717 1205 Q648 1291 528 1291 Q387 1291 316 1176 Q263 1091 263 935 L263 509 Q263 306 320 210 Q360 142 427 106 Q488 73 555 73 Q668 73 735 157 Q801 240 801 377 Q801 553 690 629 Q628 671 544 671 L482 671 Z " />
<glyph glyph-name="gamma" unicode="&#x3b3;" horiz-adv-x="834" d="M362 -14 L20 969 L132 969 L418 117 L704 969 L814 969 L471 -14 L471 -404 L362 -404 L362 -14 Z " />
<glyph glyph-name="delta" unicode="&#x3b4;" horiz-adv-x="1010" d="M530 981 L206 1294 L206 1371 L866 1371 L866 1282 L368 1282 L706 952 Q799 862 843 782 Q910 658 910 482 Q910 242 782 97 Q674 -24 505 -24 Q337 -24 228 97 Q100 242 100 492 Q100 751 241 886 Q345 986 476 986 Q499 986 530 981 Z M506 900 Q380 900 304 801 Q212 680 212 491 Q212 291 304 171 Q380 73 506 73 Q632 73 707 171 Q799 292 799 485 Q799 682 707 801 Q630 900 506 900 Z " />
<glyph glyph-name="epsilon" unicode="&#x3b5;" horiz-adv-x="918" d="M482 533 L482 444 L459 444 Q358 444 327 439 Q175 412 175 269 Q175 160 265 106 Q320 73 406 73 Q516 73 574 127 Q616 166 634 217 Q645 247 656 289 L764 275 Q739 168 706 118 Q648 29 556 -3 Q497 -24 401 -24 Q259 -24 173 37 Q62 116 62 257 Q62 439 255 490 Q84 550 84 724 Q84 860 200 939 Q284 997 407 997 Q557 997 648 913 Q704 863 727 799 Q742 761 755 702 L649 689 Q621 793 570 842 Q509 900 402 900 Q282 900 227 819 Q196 774 196 713 Q196 642 241 594 Q292 538 385 534 Q404 533 459 533 L482 533 Z " />
<glyph glyph-name="zeta" unicode="&#x3b6;" horiz-adv-x="767" d="M808 1294 Q518 1064 403 928 Q283 785 241 653 Q212 563 212 461 Q212 259 313 151 Q364 96 438 79 Q474 71 563 57 Q674 40 707 17 Q759 -19 759 -87 Q759 -204 628 -404 L519 -404 Q599 -264 621 -213 Q645 -155 645 -111 Q645 -68 614 -51 Q592 -39 518 -30 Q426 -18 385 -6 Q268 27 191 132 Q100 255 100 455 Q100 662 205 831 Q288 964 465 1121 Q545 1192 658 1282 L165 1282 L165 1371 L808 1371 L808 1294 Z " />
<glyph glyph-name="eta" unicode="&#x3b7;" horiz-adv-x="1005" d="M131 969 L234 969 Q253 914 254 823 Q350 996 552 996 Q693 996 774 921 Q841 859 852 744 Q857 696 857 556 L857 -404 L751 -404 L751 563 Q751 670 747 705 Q736 808 687 852 Q634 900 543 900 Q396 900 315 781 Q260 699 260 556 L260 0 L154 0 L154 645 Q154 842 148 886 Q144 920 131 969 Z " />
<glyph glyph-name="theta" unicode="&#x3b8;" horiz-adv-x="1010" d="M212 727 L798 727 Q790 926 744 1057 Q662 1291 505 1291 Q407 1291 334 1193 Q225 1048 212 727 Z M798 638 L212 638 Q220 434 266 305 Q348 73 505 73 Q603 73 676 170 Q785 313 798 638 Z M505 1388 Q621 1388 715 1300 Q817 1204 868 1020 Q910 871 910 681 Q910 351 782 145 Q734 69 660 21 Q591 -23 506 -23 Q388 -23 295 64 Q195 157 142 342 Q100 489 100 691 Q100 1016 228 1219 Q336 1388 505 1388 Z " />
<glyph glyph-name="iota" unicode="&#x3b9;" horiz-adv-x="424" d="M154 969 L271 969 L271 0 L154 0 L154 969 Z " />
<glyph glyph-name="kappa" unicode="&#x3ba;" horiz-adv-x="885" d="M690 969 L821 969 L403 524 L851 0 L700 0 L264 518 L690 969 Z M154 969 L260 969 L260 0 L154 0 L154 969 Z " />
<glyph glyph-name="lambda" unicode="&#x3bb;" horiz-adv-x="828" d="M358 966 L214 1371 L331 1371 L471 983 L472 983 L815 0 L702 0 L417 852 L131 0 L21 0 L358 966 Z " />
<glyph glyph-name="uni03BC" unicode="&#x3bc;" horiz-adv-x="979" d="M258 41 L258 -404 L149 -404 L149 969 L255 969 L255 364 Q255 211 289 158 Q342 73 465 73 Q601 73 674 188 Q720 260 720 411 L720 969 L826 969 L826 294 Q826 158 827 127 Q829 59 848 0 L741 0 Q721 62 720 138 Q685 66 641 30 Q574 -24 465 -24 Q344 -24 258 41 Z " />
<glyph glyph-name="nu" unicode="&#x3bd;" horiz-adv-x="835" d="M21 969 L133 969 L419 117 L705 969 L815 969 L472 -14 L364 -14 L21 969 Z " />
<glyph glyph-name="xi" unicode="&#x3be;" horiz-adv-x="801" d="M407 1279 L135 1279 L135 1365 L768 1365 L768 1279 L625 1279 Q500 1279 435 1219 Q355 1147 355 1042 Q355 933 441 876 Q510 830 615 830 L650 830 L650 733 L609 733 Q465 733 383 690 Q307 650 268 570 Q229 491 229 390 Q229 183 368 106 Q415 80 567 57 Q678 40 712 16 Q763 -20 763 -87 Q763 -205 623 -404 L515 -404 Q602 -263 624 -214 Q650 -155 650 -112 Q650 -68 619 -51 Q597 -39 523 -30 Q364 -10 290 36 Q211 84 166 173 Q118 266 118 387 Q118 577 224 686 Q300 764 448 793 Q381 812 335 849 Q244 922 244 1039 Q244 1145 322 1221 Q356 1256 407 1279 Z " />
<glyph glyph-name="omicron" unicode="&#x3bf;" horiz-adv-x="1010" d="M505 996 Q673 996 782 874 Q910 729 910 485 Q910 242 782 97 Q674 -24 506 -24 Q336 -24 228 97 Q100 242 100 492 Q100 730 228 874 Q338 996 505 996 Z M506 899 Q380 899 304 800 Q212 679 212 490 Q212 291 304 171 Q380 73 506 73 Q632 73 707 171 Q799 291 799 485 Q799 681 707 800 Q630 899 506 899 Z " />
<glyph glyph-name="rho" unicode="&#x3c1;" horiz-adv-x="1002" d="M143 -404 L143 448 Q143 689 216 817 Q269 910 360 958 Q434 996 526 996 Q721 996 821 828 Q902 694 902 481 Q902 222 776 78 Q687 -24 538 -24 Q352 -24 252 141 L252 -404 L143 -404 Z M522 899 Q373 899 301 755 Q247 648 247 486 Q247 325 308 215 Q387 73 528 73 Q644 73 704 155 Q791 272 791 477 Q791 607 753 712 Q686 899 522 899 Z " />
<glyph glyph-name="uni03C2" unicode="&#x3c2;" horiz-adv-x="913" d="M845 656 L739 656 Q725 752 681 811 Q617 899 501 899 Q379 899 307 806 Q212 683 212 483 Q212 301 293 184 Q346 107 432 82 Q464 73 569 57 Q680 40 713 17 Q765 -19 765 -87 Q765 -203 631 -400 L523 -400 Q605 -260 626 -212 Q651 -154 651 -111 Q651 -67 620 -50 Q598 -38 524 -29 Q380 -11 314 27 Q100 150 100 483 Q100 760 256 903 Q357 996 504 996 Q694 996 787 849 Q834 774 845 656 Z " />
<glyph glyph-name="sigma" unicode="&#x3c3;" horiz-adv-x="1003" d="M986 969 L986 880 Q955 880 929 880 Q842 880 746 891 Q910 751 910 481 Q910 242 782 97 Q674 -24 505 -24 Q336 -24 228 97 Q100 242 100 485 Q100 728 228 874 Q337 996 504 996 Q549 996 695 979 Q783 969 986 969 Z M506 899 Q380 899 304 800 Q212 679 212 490 Q212 291 304 171 Q380 73 506 73 Q632 73 707 171 Q799 291 799 485 Q799 681 707 800 Q630 899 506 899 Z " />
<glyph glyph-name="tau" unicode="&#x3c4;" horiz-adv-x="693" d="M400 880 L400 0 L294 0 L294 880 L7 880 L7 969 L686 969 L686 880 L400 880 Z " />
<glyph glyph-name="upsilon" unicode="&#x3c5;" horiz-adv-x="974" d="M149 969 L255 969 L255 338 Q255 73 487 73 Q720 73 720 338 L720 969 L826 969 L826 336 Q826 209 789 135 Q711 -24 487 -24 Q264 -24 185 135 Q149 209 149 336 L149 969 Z " />
<glyph glyph-name="phi" unicode="&#x3c6;" horiz-adv-x="1191" d="M654 -404 L537 -404 L537 -24 Q396 -21 291 55 Q100 193 100 483 Q100 708 213 839 Q257 890 320 932 L375 859 Q305 795 275 745 Q212 639 212 483 Q212 333 276 227 Q364 79 537 73 L537 996 Q562 997 577 997 Q798 997 921 900 Q1091 764 1091 483 Q1091 293 1004 163 Q882 -19 654 -24 L654 -404 Z M654 899 L654 73 Q761 77 837 136 Q908 192 946 290 Q979 377 979 485 Q979 637 915 743 Q826 893 654 899 Z " />
<glyph glyph-name="chi" unicode="&#x3c7;" horiz-adv-x="796" d="M463 326 L803 -404 L684 -404 L398 224 L109 -404 L-7 -404 L336 326 L44 969 L158 969 L401 427 L646 969 L767 969 L463 326 Z " />
<glyph glyph-name="psi" unicode="&#x3c8;" horiz-adv-x="1225" d="M668 -404 L559 -404 L559 -24 Q149 1 149 400 L149 969 L255 969 L255 403 Q255 85 559 73 L559 969 L668 969 L668 73 Q971 85 971 403 L971 969 L1077 969 L1077 400 Q1077 1 668 -24 L668 -404 Z " />
<glyph glyph-name="omega" unicode="&#x3c9;" horiz-adv-x="1232" d="M616 113 Q611 106 599 84 Q539 -24 413 -24 Q250 -24 164 144 Q100 271 100 483 Q100 689 168 828 Q198 890 278 957 L335 869 Q292 824 274.5 796 Q257 768 243 721 Q212 616 212 479 Q212 280 275 169 Q330 73 409 73 Q477 73 517 138 Q560 207 560 352 L560 579 L672 579 L672 352 Q672 207 715 138 Q755 73 823 73 Q910 73 966 187 Q1020 296 1020 478 Q1020 643 972 757 Q950 807 890 868 L954 955 Q1037 882 1074 798 Q1132 666 1132 482 Q1132 252 1056 122 Q970 -24 819 -24 Q708 -24 645 65 Q639 74 624 100 Q621 106 616 113 Z " />
<glyph glyph-name="iotadieresis" unicode="&#x3ca;" horiz-adv-x="424" d="M153 969 L270 969 L270 0 L153 0 L153 969 Z M83 1377 Q121 1377 150 1349 Q178 1321 178 1281 Q178 1241 150 1212 Q122 1184 82 1184 Q41 1184 13 1212 Q-15 1241 -15 1280 Q-15 1321 13 1349 Q42 1377 83 1377 Z M344 1377 Q382 1377 411 1349 Q439 1321 439 1281 Q439 1241 411 1212 Q383 1184 343 1184 Q303 1184 274 1212 Q246 1241 246 1280 Q246 1321 274 1349 Q304 1377 344 1377 Z " />
<glyph glyph-name="upsilondieresis" unicode="&#x3cb;" horiz-adv-x="974" d="M149 969 L255 969 L255 338 Q255 73 487 73 Q720 73 720 338 L720 969 L826 969 L826 336 Q826 209 789 135 Q711 -24 487 -24 Q264 -24 185 135 Q149 209 149 336 L149 969 Z M315 1378 Q354 1378 382 1349 Q411 1321 411 1280 Q411 1240 382 1212 Q354 1183 314 1183 Q273 1183 245 1212 Q216 1240 216 1280 Q216 1322 245 1349 Q274 1378 315 1378 Z M663 1378 Q702 1378 730 1349 Q759 1321 759 1280 Q759 1240 730 1212 Q702 1183 662 1183 Q621 1183 593 1212 Q564 1240 564 1280 Q564 1321 593 1349 Q622 1378 663 1378 Z " />
<glyph glyph-name="omicrontonos" unicode="&#x3cc;" horiz-adv-x="1010" d="M505 996 Q673 996 782 874 Q910 729 910 485 Q910 242 782 97 Q674 -24 506 -24 Q336 -24 228 97 Q100 242 100 492 Q100 730 228 874 Q338 996 505 996 Z M506 899 Q380 899 304 800 Q212 679 212 490 Q212 291 304 171 Q380 73 506 73 Q632 73 707 171 Q799 291 799 485 Q799 681 707 800 Q630 899 506 899 Z M550 1092 L460 1092 L444 1447 L566 1447 L550 1092 Z " />
<glyph glyph-name="upsilontonos" unicode="&#x3cd;" horiz-adv-x="974" d="M149 969 L255 969 L255 338 Q255 73 487 73 Q720 73 720 338 L720 969 L826 969 L826 336 Q826 209 789 135 Q711 -24 487 -24 Q264 -24 185 135 Q149 209 149 336 L149 969 Z M541 1092 L452 1092 L436 1447 L558 1447 L541 1092 Z " />
<glyph glyph-name="omegatonos" unicode="&#x3ce;" horiz-adv-x="1232" d="M661 1092 L571 1092 L555 1447 L677 1447 L661 1092 Z M616 113 Q611 106 599 84 Q539 -24 413 -24 Q250 -24 164 144 Q100 271 100 483 Q100 689 168 828 Q198 890 278 957 L335 869 Q292 824 274.5 796 Q257 768 243 721 Q212 616 212 479 Q212 280 275 169 Q330 73 409 73 Q477 73 517 138 Q560 207 560 352 L560 579 L672 579 L672 352 Q672 207 715 138 Q755 73 823 73 Q910 73 966 187 Q1020 296 1020 478 Q1020 643 972 757 Q950 807 890 868 L954 955 Q1037 882 1074 798 Q1132 666 1132 482 Q1132 252 1056 122 Q970 -24 819 -24 Q708 -24 645 65 Q639 74 624 100 Q621 106 616 113 Z " />
<glyph glyph-name="theta1" unicode="&#x3d1;" horiz-adv-x="1011" d="M883 811 Q888 745 888 693 Q888 356 751 144 Q643 -24 452 -24 Q349 -24 270 32 Q174 101 155 241 Q149 286 149 336 L149 384 L34 384 L34 474 L255 474 L255 338 Q255 227 288 171 Q345 73 462 73 Q561 73 634 155 Q777 316 777 695 Q777 759 772 811 Q632 811 587 813 Q375 821 268 919 Q183 997 183 1125 Q183 1267 289 1340 Q358 1388 459 1388 Q661 1388 772 1204 Q849 1077 873 900 L984 900 L984 811 L883 811 Z M762 900 Q742 1031 689 1128 Q600 1289 452 1289 Q383 1289 338 1243 Q295 1198 295 1128 Q295 1029 370 970 Q451 906 613 901 Q642 900 762 900 Z " />
<glyph glyph-name="phi1" unicode="&#x3d5;" horiz-adv-x="1188" d="M651 -404 L537 -404 L537 -24 Q396 -21 291 55 Q100 193 100 485 Q100 677 187 808 Q307 988 537 996 L537 1371 L651 1371 L651 996 Q790 991 896 917 Q1088 781 1088 485 Q1088 293 1001 163 Q879 -19 651 -24 L651 -404 Z M537 902 Q430 898 352 838 Q280 781 242 682 Q209 594 209 485 Q209 332 273 225 Q362 76 537 70 L537 902 Z M651 902 L651 70 Q759 74 836 134 Q979 245 979 485 Q979 638 915 745 Q825 896 651 902 Z " />
<glyph glyph-name="afii10023" unicode="&#x401;" horiz-adv-x="1004" d="M296 758 L854 758 L854 656 L296 656 L296 102 L904 102 L904 0 L180 0 L180 1365 L895 1365 L895 1263 L296 1263 L296 758 Z M363 1732 Q405 1732 435 1701 Q466 1671 466 1627 Q466 1584 435 1554 Q405 1523 361 1523 Q318 1523 288 1554 Q257 1584 257 1627 Q257 1672 288 1701 Q319 1732 363 1732 Z M723 1732 Q764 1732 795 1701 Q826 1671 826 1627 Q826 1584 795 1554 Q765 1523 721 1523 Q678 1523 648 1554 Q617 1584 617 1627 Q617 1672 648 1701 Q679 1732 723 1732 Z " />
<glyph glyph-name="afii10051" unicode="&#x402;" horiz-adv-x="1278" d="M440 780 Q575 891 787 891 Q999 891 1091 765 Q1132 709 1142 626 Q1148 582 1148 451 L1148 66 Q1148 -87 1139 -145 Q1117 -278 1027 -336 Q948 -387 812 -387 Q792 -387 753 -386 L753 -289 Q775 -291 792 -291 Q952 -291 1005 -209 Q1033 -164 1038 -80 Q1042 -27 1042 66 L1042 457 Q1042 642 976 721 Q916 794 778 794 Q628 794 519 719 Q474 688 440 638 L440 0 L324 0 L324 1263 L49 1263 L49 1365 L873 1365 L873 1263 L440 1263 L440 780 Z " />
<glyph glyph-name="afii10052" unicode="&#x403;" horiz-adv-x="924" d="M180 0 L180 1365 L883 1365 L883 1263 L302 1263 L302 0 L180 0 Z M470 1496 L734 1758 L905 1758 L589 1496 L470 1496 Z " />
<glyph glyph-name="afii10053" unicode="&#x404;" horiz-adv-x="1233" d="M245 737 L760 737 L760 635 L245 635 Q253 428 330 288 Q444 82 665 82 Q867 82 959 246 Q1006 330 1020 449 L1133 449 Q1116 276 1043 166 Q916 -23 671 -23 Q422 -23 275 156 Q116 349 116 681 Q116 1052 309 1245 Q451 1388 664 1388 Q885 1388 1011 1242 Q1087 1152 1109 1009 L994 1009 Q928 1283 662 1283 Q424 1283 312 1040 Q252 912 245 737 Z " />
<glyph glyph-name="afii10054" unicode="&#x405;" horiz-adv-x="1109" d="M940 1028 L826 1028 Q814 1140 757 1201 Q681 1283 546 1283 Q439 1283 368 1228 Q280 1161 280 1057 Q280 960 366 898 Q411 865 463 841 L615 770 Q837 667 902 585 Q980 489 980 356 Q980 167 832 60 Q717 -23 549 -23 Q324 -23 208 119 Q126 219 116 400 L232 400 Q239 264 301 188 Q342 138 410 110 Q478 82 554 82 Q686 82 772 156 Q858 230 858 349 Q858 456 780 528 Q727 577 576 647 Q356 749 297 791 Q161 889 161 1049 Q161 1204 283 1301 Q392 1388 554 1388 Q769 1388 874 1241 Q933 1159 940 1028 Z " />
<glyph glyph-name="afii10055" unicode="&#x406;" horiz-adv-x="476" d="M299 0 L177 0 L177 1365 L299 1365 L299 0 Z " />
<glyph glyph-name="afii10056" unicode="&#x407;" horiz-adv-x="476" d="M299 0 L177 0 L177 1365 L299 1365 L299 0 Z M103 1730 Q144 1730 174 1700 Q204 1670 204 1627 Q204 1585 174 1555 Q144 1525 102 1525 Q59 1525 29 1555 Q-1 1585 -1 1627 Q-1 1671 29 1700 Q60 1730 103 1730 Z M376 1730 Q417 1730 447 1700 Q477 1670 477 1627 Q477 1585 447 1555 Q417 1525 375 1525 Q332 1525 302 1555 Q272 1585 272 1627 Q272 1671 302 1700 Q333 1730 376 1730 Z " />
<glyph glyph-name="afii10057" unicode="&#x408;" horiz-adv-x="557" d="M258 1365 L380 1365 L380 276 Q380 142 373 92 Q358 -24 266 -86 Q174 -148 39 -148 Q27 -148 -2 -147 L-2 -44 Q12 -45 18 -45 Q162 -45 219 32 Q251 74 256 154 Q258 189 258 278 L258 1365 Z " />
<glyph glyph-name="afii10058" unicode="&#x409;" horiz-adv-x="1697" d="M851 0 L851 1268 L394 1268 L299 303 Q288 189 265 138 Q218 30 102 2 Q66 -7 0 -7 L0 96 Q51 96 77 105 Q149 131 173 224 Q183 266 191 348 L282 1365 L967 1365 L967 792 L1073 792 Q1231 792 1318 782 Q1484 763 1573 655 Q1655 556 1655 402 Q1655 219 1542 112 Q1449 23 1279 8 Q1190 0 1045 0 L851 0 Z M967 690 L967 102 L1042 102 Q1202 102 1273 111 Q1527 140 1527 400 Q1527 631 1327 672 Q1242 690 1069 690 L967 690 Z " />
<glyph glyph-name="afii10059" unicode="&#x40a;" horiz-adv-x="1817" d="M971 777 L971 1365 L1087 1365 L1087 777 L1193 777 Q1351 777 1438 767 Q1604 748 1693 642 Q1775 545 1775 394 Q1775 215 1662 110 Q1569 22 1399 8 Q1310 0 1165 0 L971 0 L971 680 L296 680 L296 0 L180 0 L180 1365 L296 1365 L296 777 L971 777 Z M1087 680 L1087 102 L1162 102 Q1322 102 1393 110 Q1647 140 1647 395 Q1647 622 1447 663 Q1361 680 1189 680 L1087 680 Z " />
<glyph glyph-name="afii10060" unicode="&#x40b;" horiz-adv-x="1286" d="M440 730 L463 748 Q594 853 788 853 Q917 853 1010 794 Q1123 722 1147 583 Q1156 530 1156 426 L1156 0 L1034 0 L1034 400 Q1034 533 1016 589 Q989 670 907 711 Q847 740 766 740 Q618 740 515 663 Q484 639 440 589 L440 0 L324 0 L324 1263 L49 1263 L49 1365 L873 1365 L873 1263 L440 1263 L440 730 Z " />
<glyph glyph-name="afii10061" unicode="&#x40c;" horiz-adv-x="1099" d="M870 1365 L1017 1365 L444 715 L1077 0 L908 0 L299 713 L870 1365 Z M180 1365 L296 1365 L296 0 L180 0 L180 1365 Z M524 1496 L789 1758 L959 1758 L643 1496 L524 1496 Z " />
<glyph glyph-name="afii10062" unicode="&#x40e;" horiz-adv-x="983" d="M725 1761 L790 1761 Q783 1689 756 1637 Q722 1569 664 1531 Q599 1488 519 1488 Q407 1488 331 1567 Q261 1641 248 1761 L314 1761 Q328 1705 364 1668 Q427 1604 519 1604 Q612 1604 674 1668 Q710 1705 725 1761 Z M32 1365 L169 1365 L515 569 L845 1365 L976 1365 L371 0 L255 0 L456 448 L32 1365 Z " />
<glyph glyph-name="afii10145" unicode="&#x40f;" horiz-adv-x="1267" d="M692 0 L692 -205 L576 -205 L576 0 L180 0 L180 1365 L296 1365 L296 97 L972 97 L972 1365 L1088 1365 L1088 0 L692 0 Z " />
<glyph glyph-name="afii10017" unicode="&#x410;" horiz-adv-x="1134" d="M522 1377 L612 1377 L1085 0 L963 0 L829 388 L305 388 L170 0 L49 0 L522 1377 Z M795 490 L567 1210 L338 490 L795 490 Z " />
<glyph glyph-name="afii10018" unicode="&#x411;" horiz-adv-x="1039" d="M296 1263 L296 792 L401 792 Q560 792 647 782 Q813 762 902 655 Q984 556 984 402 Q984 219 871 112 Q778 23 608 8 Q519 0 374 0 L180 0 L180 1365 L870 1365 L870 1263 L296 1263 Z M296 690 L296 102 L371 102 Q531 102 602 111 Q856 140 856 400 Q856 631 656 672 Q571 690 398 690 L296 690 Z " />
<glyph glyph-name="afii10019" unicode="&#x412;" horiz-adv-x="1099" d="M180 1365 L390 1365 Q539 1365 613 1357 Q761 1341 845 1263 Q940 1176 940 1026 Q940 796 713 726 Q817 700 877 658 Q1011 563 1011 376 Q1011 198 898 96 Q814 21 645 7 Q558 0 390 0 L180 0 L180 1365 Z M296 765 L430 765 Q539 765 607 777 Q715 795 768 866 Q818 931 818 1024 Q818 1134 751 1196 Q700 1243 610 1255 Q552 1263 425 1263 L296 1263 L296 765 Z M296 102 L439 102 Q561 102 640 110 Q883 136 883 383 Q883 505 809 578 Q743 644 612 657 Q551 663 437 663 L296 663 L296 102 Z " />
<glyph glyph-name="afii10020" unicode="&#x413;" horiz-adv-x="924" d="M180 0 L180 1365 L883 1365 L883 1263 L302 1263 L302 0 L180 0 Z " />
<glyph glyph-name="afii10021" unicode="&#x414;" horiz-adv-x="1164" d="M297 1365 L982 1365 L982 97 L1085 97 L1085 -205 L969 -205 L969 0 L123 0 L123 -205 L7 -205 L7 97 L45 97 Q128 97 167 172 Q194 223 206 348 L297 1365 Z M240 97 L866 97 L866 1268 L409 1268 L314 303 Q300 157 240 97 Z " />
<glyph glyph-name="afii10022" unicode="&#x415;" horiz-adv-x="1004" d="M296 758 L854 758 L854 656 L296 656 L296 102 L904 102 L904 0 L180 0 L180 1365 L895 1365 L895 1263 L296 1263 L296 758 Z " />
<glyph glyph-name="afii10024" unicode="&#x416;" horiz-adv-x="1514" d="M699 1365 L815 1365 L815 763 L938 763 L1347 1365 L1480 1365 L1038 720 L1520 0 L1385 0 L938 666 L815 666 L815 0 L699 0 L699 666 L575 666 L128 0 L-7 0 L476 720 L33 1365 L166 1365 L575 763 L699 763 L699 1365 Z " />
<glyph glyph-name="afii10025" unicode="&#x417;" horiz-adv-x="1110" d="M473 737 L561 737 L598 736 Q712 736 790 802 Q880 878 880 1009 Q880 1140 790 1217 Q713 1283 581 1283 Q392 1283 304 1163 Q262 1105 239 1009 L124 1009 Q149 1171 246 1267 Q368 1386 582 1386 Q777 1386 888 1288 Q1006 1184 1006 1014 Q1006 841 879 748 Q821 705 734 692 Q841 672 899 623 Q1007 532 1007 374 Q1007 209 896 96 Q779 -23 579 -23 Q294 -23 171 199 Q113 302 100 449 L213 449 Q229 312 289 221 Q381 82 563 82 Q712 82 801 174 Q881 257 881 383 Q881 544 753 606 Q694 635 587 635 L473 635 L473 737 Z " />
<glyph glyph-name="afii10026" unicode="&#x418;" horiz-adv-x="1285" d="M180 0 L180 1365 L290 1365 L290 242 L997 1256 L997 1365 L1105 1365 L1105 0 L997 0 L997 1087 L290 82 L290 0 L180 0 Z " />
<glyph glyph-name="afii10027" unicode="&#x419;" horiz-adv-x="1285" d="M396 1761 L473 1761 Q486 1703 521 1665 Q580 1598 668 1598 Q757 1598 815 1665 Q847 1703 861 1761 L938 1761 Q930 1691 905 1639 Q833 1494 670 1494 Q506 1494 430 1639 Q404 1691 396 1761 Z M180 0 L180 1365 L290 1365 L290 242 L997 1256 L997 1365 L1105 1365 L1105 0 L997 0 L997 1087 L290 82 L290 0 L180 0 Z " />
<glyph glyph-name="afii10028" unicode="&#x41a;" horiz-adv-x="1099" d="M870 1365 L1017 1365 L444 715 L1077 0 L908 0 L299 713 L870 1365 Z M180 1365 L296 1365 L296 0 L180 0 L180 1365 Z " />
<glyph glyph-name="afii10029" unicode="&#x41b;" horiz-adv-x="1147" d="M394 1268 L299 303 Q288 189 265 138 Q218 30 102 2 Q66 -7 0 -7 L0 96 Q51 96 77 105 Q149 132 173 224 Q183 266 191 348 L282 1365 L967 1365 L967 0 L851 0 L851 1268 L394 1268 Z " />
<glyph glyph-name="afii10030" unicode="&#x41c;" horiz-adv-x="1560" d="M180 1365 L368 1365 L780 131 L1192 1365 L1380 1365 L1380 0 L1264 0 L1264 1259 L839 0 L722 0 L296 1259 L296 0 L180 0 L180 1365 Z " />
<glyph glyph-name="afii10031" unicode="&#x41d;" horiz-adv-x="1267" d="M296 763 L972 763 L972 1365 L1088 1365 L1088 0 L972 0 L972 666 L296 666 L296 0 L180 0 L180 1365 L296 1365 L296 763 Z " />
<glyph glyph-name="afii10032" unicode="&#x41e;" horiz-adv-x="1305" d="M653 1388 Q807 1388 931 1298 Q1067 1199 1135 1011 Q1189 863 1189 683 Q1189 371 1033 167 Q958 69 849 19 Q758 -23 654 -23 Q416 -23 272 167 Q116 371 116 692 Q116 896 190 1061 Q269 1239 414 1324 Q522 1388 653 1388 Z M653 1283 Q470 1283 360 1117 Q243 940 243 690 Q243 426 360 248 Q470 82 653 82 Q836 82 945 248 Q1062 427 1062 683 Q1062 943 945 1117 Q833 1283 653 1283 Z " />
<glyph glyph-name="afii10033" unicode="&#x41f;" horiz-adv-x="1267" d="M296 1268 L296 0 L180 0 L180 1365 L1088 1365 L1088 0 L972 0 L972 1268 L296 1268 Z " />
<glyph glyph-name="afii10034" unicode="&#x420;" horiz-adv-x="1050" d="M180 1365 L374 1365 Q640 1365 746 1330 Q864 1291 931 1179 Q984 1090 984 964 Q984 809 902 711 Q813 603 647 584 Q560 574 402 574 L296 574 L296 0 L180 0 L180 1365 Z M296 676 L398 676 Q571 676 656 694 Q856 735 856 966 Q856 1097 784 1174 Q723 1241 602 1254 Q531 1263 371 1263 L296 1263 L296 676 Z " />
<glyph glyph-name="afii10035" unicode="&#x421;" horiz-adv-x="1233" d="M1108 1009 L994 1009 Q927 1283 662 1283 Q476 1283 365 1133 Q243 966 243 683 Q243 376 388 202 Q489 82 664 82 Q866 82 958 246 Q1006 330 1019 449 L1133 449 Q1116 276 1042 166 Q916 -23 671 -23 Q422 -23 275 156 Q116 349 116 680 Q116 1052 309 1245 Q451 1388 663 1388 Q885 1388 1010 1242 Q1087 1152 1108 1009 Z " />
<glyph glyph-name="afii10036" unicode="&#x422;" horiz-adv-x="921" d="M49 1365 L873 1365 L873 1263 L519 1263 L519 0 L403 0 L403 1263 L49 1263 L49 1365 Z " />
<glyph glyph-name="afii10037" unicode="&#x423;" horiz-adv-x="980" d="M32 1365 L169 1365 L502 551 L845 1365 L973 1365 L377 0 L255 0 L447 430 L32 1365 Z " />
<glyph glyph-name="afii10038" unicode="&#x424;" horiz-adv-x="1430" d="M774 0 L655 0 L655 115 Q458 124 323 211 Q82 366 82 683 Q82 1028 363 1177 Q486 1242 655 1251 L655 1365 L774 1365 L774 1251 Q971 1241 1106 1154 Q1347 999 1347 683 Q1347 337 1066 188 Q943 123 774 115 L774 0 Z M655 1149 Q497 1143 385 1065 Q205 937 205 683 Q205 406 414 282 Q517 221 655 216 L655 1149 Z M774 1149 L774 216 Q932 222 1044 300 Q1224 427 1224 683 Q1224 959 1015 1083 Q912 1144 774 1149 Z " />
<glyph glyph-name="afii10039" unicode="&#x425;" horiz-adv-x="1083" d="M68 1365 L204 1365 L544 808 L884 1365 L1020 1365 L611 716 L1040 0 L908 0 L544 604 L181 0 L48 0 L477 716 L68 1365 Z " />
<glyph glyph-name="afii10040" unicode="&#x426;" horiz-adv-x="1269" d="M1088 97 L1190 97 L1190 -205 L1074 -205 L1074 0 L180 0 L180 1365 L296 1365 L296 97 L972 97 L972 1365 L1088 1365 L1088 97 Z " />
<glyph glyph-name="afii10041" unicode="&#x427;" horiz-adv-x="1122" d="M823 617 Q692 512 498 512 Q370 512 276 571 Q164 642 139 782 Q130 835 130 939 L130 1365 L252 1365 L252 965 Q252 832 270 776 Q297 694 380 653 Q439 624 521 624 Q664 624 771 702 Q800 723 823 751 L823 1365 L945 1365 L945 0 L823 0 L823 617 Z " />
<glyph glyph-name="afii10042" unicode="&#x428;" horiz-adv-x="1777" d="M947 97 L1481 97 L1481 1365 L1597 1365 L1597 0 L180 0 L180 1365 L296 1365 L296 97 L831 97 L831 1365 L947 1365 L947 97 Z " />
<glyph glyph-name="afii10043" unicode="&#x429;" horiz-adv-x="1779" d="M1584 0 L180 0 L180 1365 L296 1365 L296 96 L831 96 L831 1365 L947 1365 L947 96 L1481 96 L1481 1365 L1597 1365 L1597 96 L1700 96 L1700 -205 L1584 -205 L1584 0 Z " />
<glyph glyph-name="afii10044" unicode="&#x42a;" horiz-adv-x="1222" d="M0 1365 L492 1365 L492 792 L598 792 Q756 792 843 782 Q1009 763 1098 655 Q1180 556 1180 402 Q1180 219 1067 112 Q974 23 804 8 Q715 0 570 0 L376 0 L376 1263 L0 1263 L0 1365 Z M492 690 L492 102 L567 102 Q727 102 798 111 Q1052 140 1052 400 Q1052 631 852 672 Q767 690 594 690 L492 690 Z " />
<glyph glyph-name="afii10045" unicode="&#x42b;" horiz-adv-x="1449" d="M180 0 L180 1365 L296 1365 L296 792 L402 792 Q560 792 647 782 Q813 763 902 655 Q984 556 984 402 Q984 219 871 112 Q778 23 608 8 Q519 0 374 0 L180 0 Z M296 690 L296 102 L371 102 Q531 102 602 111 Q856 140 856 400 Q856 631 656 672 Q571 690 398 690 L296 690 Z M1272 0 L1150 0 L1150 1365 L1272 1365 L1272 0 Z " />
<glyph glyph-name="afii10046" unicode="&#x42c;" horiz-adv-x="1025" d="M180 0 L180 1365 L296 1365 L296 792 L402 792 Q560 792 647 782 Q813 763 902 655 Q984 556 984 402 Q984 219 871 112 Q778 23 608 8 Q519 0 374 0 L180 0 Z M296 690 L296 102 L371 102 Q531 102 602 111 Q856 140 856 400 Q856 631 656 672 Q571 690 398 690 L296 690 Z " />
<glyph glyph-name="afii10047" unicode="&#x42d;" horiz-adv-x="1233" d="M988 737 Q980 935 905 1072 Q791 1283 571 1283 Q305 1283 239 1009 L124 1009 Q149 1172 246 1267 Q370 1388 569 1388 Q782 1388 924 1245 Q1117 1052 1117 681 Q1117 349 958 156 Q811 -23 562 -23 Q293 -23 170 199 Q113 302 100 449 L213 449 Q229 312 289 221 Q382 82 568 82 Q815 82 926 335 Q981 461 988 635 L473 635 L473 737 L988 737 Z " />
<glyph glyph-name="afii10048" unicode="&#x42e;" horiz-adv-x="1718" d="M533 763 Q549 964 627 1108 Q706 1253 827 1324 Q936 1388 1066 1388 Q1301 1388 1446 1198 Q1602 994 1602 682 Q1602 370 1446 167 Q1302 -23 1066 -23 Q884 -23 750 97 Q589 240 544 505 Q532 580 530 666 L296 666 L296 0 L180 0 L180 1365 L296 1365 L296 763 L533 763 Z M1066 1283 Q884 1283 774 1117 Q657 939 657 689 Q657 426 774 248 Q883 82 1067 82 Q1249 82 1358 248 Q1475 426 1475 682 Q1475 943 1358 1117 Q1246 1283 1066 1283 Z " />
<glyph glyph-name="afii10049" unicode="&#x42f;" horiz-adv-x="1130" d="M950 1365 L950 0 L834 0 L834 606 L581 606 L214 0 L69 0 L444 623 Q150 720 150 991 Q150 1155 253 1254 Q347 1343 530 1359 Q598 1365 742 1365 L950 1365 Z M834 708 L834 1263 L735 1263 Q584 1263 513 1255 Q403 1242 343 1180 Q278 1111 278 992 Q278 866 351 793 Q419 726 552 713 Q607 708 738 708 L834 708 Z " />
<glyph glyph-name="afii10065" unicode="&#x430;" horiz-adv-x="949" d="M244 727 L133 727 Q146 842 215 909 Q305 996 478 996 Q623 996 711 927 Q782 871 792 754 Q796 709 796 623 L796 268 L795 190 Q795 80 821 0 L715 0 Q697 59 690 137 Q601 -24 404 -24 Q278 -24 197 41 Q100 118 100 254 Q100 461 328 545 Q468 597 690 631 L690 682 Q690 790 653 834 Q600 899 475 899 Q274 899 244 727 Z M690 546 Q475 504 372 459 Q212 390 212 258 Q212 173 273 119 Q326 73 412 73 Q568 73 643 196 Q690 271 690 436 L690 546 Z " />
<glyph glyph-name="afii10066" unicode="&#x431;" horiz-adv-x="1010" d="M814 1388 L814 1291 Q777 1261 713 1261 Q689 1261 648 1270 Q580 1286 533 1286 Q379 1286 305 1131 Q241 999 216 825 Q326 996 511 996 Q675 996 782 874 Q910 727 910 485 Q910 242 782 97 Q674 -24 505 -24 Q371 -24 273 55 Q158 147 120 329 Q98 431 98 576 Q98 864 171 1080 Q273 1383 519 1383 Q553 1383 671 1365 Q708 1360 731 1360 Q776 1360 814 1388 Z M506 899 Q380 899 304 800 Q212 679 212 490 Q212 291 304 171 Q380 73 506 73 Q632 73 707 171 Q799 291 799 485 Q799 681 707 800 Q630 899 506 899 Z " />
<glyph glyph-name="afii10067" unicode="&#x432;" horiz-adv-x="848" d="M154 969 L445 969 Q570 969 638 926 Q739 862 739 727 Q739 560 572 502 Q767 448 767 271 Q767 122 643 46 Q587 13 519 4 Q490 0 427 0 L154 0 L154 969 Z M260 450 L260 89 L419 89 Q532 89 580 122 Q655 174 655 275 Q655 405 529 440 Q493 450 397 450 L260 450 Z M260 880 L260 539 L385 539 Q627 539 627 722 Q627 824 540 862 Q500 880 417 880 L260 880 Z " />
<glyph glyph-name="afii10068" unicode="&#x433;" horiz-adv-x="684" d="M260 880 L260 0 L154 0 L154 969 L671 969 L671 880 L260 880 Z " />
<glyph glyph-name="afii10069" unicode="&#x434;" horiz-adv-x="944" d="M791 89 L883 89 L883 -205 L777 -205 L777 0 L109 0 L109 -205 L3 -205 L3 89 L24 89 Q116 89 153 160 Q178 208 189 326 L247 969 L791 969 L791 89 Z M685 89 L685 880 L349 880 L290 284 Q275 135 220 89 L685 89 Z " />
<glyph glyph-name="afii10070" unicode="&#x435;" horiz-adv-x="975" d="M874 472 L212 472 Q216 298 274 201 Q351 72 507 72 Q618 72 685 141 Q713 170 746 232 L849 213 Q759 -24 508 -24 Q322 -24 213 104 Q100 235 100 473 Q100 749 242 893 Q343 996 497 996 Q699 996 803 820 Q874 698 874 510 Q874 493 874 472 Z M760 561 Q752 677 712 758 Q640 899 493 899 Q349 899 272 758 Q229 680 216 561 L760 561 Z " />
<glyph glyph-name="afii10072" unicode="&#x436;" horiz-adv-x="1151" d="M523 969 L629 969 L629 560 L736 560 L1011 969 L1135 969 L826 523 L1158 0 L1032 0 L733 471 L629 471 L629 0 L523 0 L523 471 L419 471 L119 0 L-7 0 L325 523 L16 969 L141 969 L416 560 L523 560 L523 969 Z " />
<glyph glyph-name="afii10073" unicode="&#x437;" horiz-adv-x="880" d="M398 533 L420 533 Q520 533 560 545 Q636 568 667 637 Q684 672 684 713 Q684 785 641 834 Q585 900 478 900 Q262 900 225 656 L119 656 Q132 790 194 872 Q288 997 472 997 Q596 997 680 939 Q796 860 796 724 Q796 550 624 490 Q818 439 818 258 Q818 116 707 37 Q621 -24 479 -24 Q350 -24 278 18 Q131 104 109 328 L219 328 Q244 73 474 73 Q560 73 614 106 Q705 160 705 269 Q705 421 535 441 Q511 444 420 444 L398 444 L398 533 Z " />
<glyph glyph-name="afii10074" unicode="&#x438;" horiz-adv-x="997" d="M741 971 L847 971 L847 0 L741 0 L741 737 L256 66 L256 0 L150 0 L150 971 L256 971 L256 224 L741 901 L741 971 Z " />
<glyph glyph-name="afii10075" unicode="&#x439;" horiz-adv-x="1010" d="M726 1430 L791 1430 Q783 1354 757 1298 Q723 1226 664 1185 Q600 1140 520 1140 Q407 1140 332 1224 Q262 1302 249 1430 L315 1430 Q329 1368 365 1327 Q428 1256 520 1256 Q612 1256 675 1327 Q711 1368 726 1430 Z M741 971 L847 971 L847 0 L741 0 L741 737 L256 66 L256 0 L150 0 L150 971 L256 971 L256 224 L741 901 L741 971 Z " />
<glyph glyph-name="afii10076" unicode="&#x43a;" horiz-adv-x="885" d="M690 969 L821 969 L403 524 L851 0 L700 0 L264 518 L690 969 Z M154 969 L260 969 L260 0 L154 0 L154 969 Z " />
<glyph glyph-name="afii10077" unicode="&#x43b;" horiz-adv-x="940" d="M344 880 L285 283 Q275 178 254 130 Q210 29 102 3 Q69 -5 7 -5 L7 91 Q56 91 79 100 Q145 124 168 211 Q178 249 184 325 L242 969 L786 969 L786 0 L680 0 L680 880 L344 880 Z " />
<glyph glyph-name="afii10078" unicode="&#x43c;" horiz-adv-x="1231" d="M611 129 L924 969 L1078 969 L1078 0 L972 0 L972 838 L658 0 L560 0 L260 838 L260 0 L154 0 L154 969 L311 969 L611 129 Z " />
<glyph glyph-name="afii10079" unicode="&#x43d;" horiz-adv-x="1010" d="M751 471 L260 471 L260 0 L154 0 L154 969 L260 969 L260 560 L751 560 L751 969 L857 969 L857 0 L751 0 L751 471 Z " />
<glyph glyph-name="afii10080" unicode="&#x43e;" horiz-adv-x="1010" d="M505 996 Q673 996 782 874 Q910 729 910 485 Q910 242 782 97 Q674 -24 506 -24 Q336 -24 228 97 Q100 242 100 492 Q100 730 228 874 Q338 996 505 996 Z M506 899 Q380 899 304 800 Q212 679 212 490 Q212 291 304 171 Q380 73 506 73 Q632 73 707 171 Q799 291 799 485 Q799 681 707 800 Q630 899 506 899 Z " />
<glyph glyph-name="afii10081" unicode="&#x43f;" horiz-adv-x="1010" d="M751 880 L260 880 L260 0 L154 0 L154 969 L857 969 L857 0 L751 0 L751 880 Z " />
<glyph glyph-name="afii10082" unicode="&#x440;" horiz-adv-x="1012" d="M154 -404 L154 687 Q154 901 134 969 L244 969 Q259 921 262 818 Q303 894 348 931 Q427 997 541 997 Q685 997 778 893 Q913 743 913 480 Q913 222 787 78 Q698 -24 549 -24 Q363 -24 263 141 L263 -404 L154 -404 Z M539 901 Q423 901 352 806 Q258 680 258 486 Q258 291 346 173 Q422 73 539 73 Q655 73 715 155 Q802 273 802 479 Q802 695 708 818 Q645 901 539 901 Z " />
<glyph glyph-name="afii10083" unicode="&#x441;" horiz-adv-x="955" d="M845 656 L739 656 Q725 752 681 811 Q617 899 501 899 Q379 899 307 806 Q212 683 212 484 Q212 269 319 151 Q391 73 506 73 Q635 73 699 178 Q737 240 745 328 L855 328 Q841 181 771 93 Q680 -24 511 -24 Q350 -24 241 81 Q100 218 100 482 Q100 760 256 903 Q357 996 504 996 Q694 996 787 849 Q834 774 845 656 Z " />
<glyph glyph-name="afii10084" unicode="&#x442;" horiz-adv-x="693" d="M400 880 L400 0 L294 0 L294 880 L7 880 L7 969 L686 969 L686 880 L400 880 Z " />
</font>
</svg>
