<?xml version="1.0" encoding="UTF-8" standalone="no"?>
<!DOCTYPE svg  PUBLIC '-//W3C//DTD SVG 1.1//EN'  'http://www.w3.org/Graphics/SVG/1.1/DTD/svg11.dtd'>
<svg xmlns="http://www.w3.org/2000/svg">
<defs>
<font id="CorporateS-Demi" horiz-adv-x="500">
<font-face underline-position="-13" font-weight="600" descent="-200" panose-1="0 0 7 0 0 0 0 0 0 0" units-per-em="1000" unicode-range="U+0020-2666" bbox="-174 -261 933 905" x-height="475" underline-thickness="89" font-family="Corporate S Demi" ascent="800" cap-height="667"/>
<missing-glyph horiz-adv-x="1000"/>
<glyph glyph-name=".notdef" horiz-adv-x="1000"/>
<glyph glyph-name=".null" horiz-adv-x="0"/>
<glyph glyph-name="nonmarkingreturn" horiz-adv-x="333"/>
<glyph glyph-name="space" horiz-adv-x="250" unicode=" "/>
<glyph glyph-name="exclam" horiz-adv-x="250" unicode="!" d="M125 126q28 0 47.5 -20t19.5 -48t-20 -47.5t-48 -19.5t-47.5 19.5t-19.5 47.5t19.5 48t48.5 20zM72 652h106l-13 -447h-83z"/>
<glyph glyph-name="quotedbl" horiz-adv-x="431" unicode='&quot;' d="M324 399h-64l-18 268h99zM171 399h-64l-17 268h99z"/>
<glyph glyph-name="numbersign" horiz-adv-x="600" unicode="#" d="M379 405h-134l-21 -130h134zM555 275l-11 -70h-116l-32 -205h-81l32 205h-134l-32 -205h-81l32 205h-114l11 70h114l21 130h-114l11 70h114l30 192h81l-30 -192h134l30 192h81l-30 -192h116l-11 -70h-116l-21 -130h116z"/>
<glyph glyph-name="dollar" horiz-adv-x="553" unicode="$" d="M302 284v-209q51 4 80 31t29 69q0 49 -41 79q-16 11 -68 30zM251 407v183q-97 -18 -97 -90q0 -46 40 -69q13 -8 57 -24zM302 589v-199q83 -28 119 -49q92 -53 92 -156q0 -83 -57.5 -136.5t-153.5 -59.5v-82h-51v82q-101 7 -157 64.5t-54 154.5h97q6 -114 114 -132v225 q-86 29 -116 47q-80 47 -80 143q0 80 52.5 130t143.5 57v71h51v-72q84 -8 136 -58t51 -124h-97q-9 79 -90 94z"/>
<glyph glyph-name="percent" horiz-adv-x="647" unicode="%" d="M163 612q-30 0 -48.5 -28t-18.5 -72q0 -45 18.5 -73t47.5 -28t47.5 28t18.5 73q0 44 -18.5 72t-46.5 28zM163 672q55 0 94 -46.5t39 -113.5q0 -68 -39 -114.5t-95 -46.5t-95 46.5t-39 114.5t39 114t96 46zM485 256q-30 0 -48.5 -28t-18.5 -72q0 -45 18.5 -73t48.5 -28 q29 0 47.5 28t18.5 73q0 44 -18.5 72t-47.5 28zM486 316q55 0 94 -46.5t39 -113.5q0 -68 -39 -114.5t-95 -46.5q-57 0 -96 46.5t-39 114.5t39 114t97 46zM475 667h85l-389 -667h-84z"/>
<glyph glyph-name="ampersand" horiz-adv-x="586" unicode="&amp;" d="M355 117l-139 185q-49 -38 -69 -67t-20 -63q0 -44 34 -72.5t87 -28.5q64 0 107 46zM234 419q71 57 71 108q0 24 -17 39.5t-44 15.5t-45.5 -16.5t-18.5 -40.5q0 -22 10 -41t44 -65zM431 321h79q1 -12 1 -29q0 -108 -49 -177l85 -115h-105l-36 53q-65 -62 -161 -62 q-94 0 -152.5 52t-58.5 135q0 54 27 96t100 101q-46 59 -59 86t-13 61q0 59 43.5 97t111.5 38q65 0 105 -36.5t40 -96.5q0 -46 -23 -83t-80 -84l124 -168q21 41 21 112v20z"/>
<glyph glyph-name="quotesingle" horiz-adv-x="250" unicode="&apos;" d="M157 399h-63l-18 268h99z"/>
<glyph glyph-name="parenleft" horiz-adv-x="294" unicode="(" d="M186 672h75q-106 -154 -106 -432q0 -281 106 -440h-75q-121 160 -121 436q0 277 121 436z"/>
<glyph glyph-name="parenright" horiz-adv-x="295" unicode=")" d="M108 -200h-75q106 156 106 433q0 287 -106 439h75q122 -159 122 -436q0 -275 -122 -436z"/>
<glyph glyph-name="asterisk" d="M224 530v120h51v-120l115 37l15 -49l-114 -37l71 -97l-42 -30l-70 97l-71 -97l-41 30l70 97l-114 37l16 49z" unicode="*"/>
<glyph glyph-name="plus" horiz-adv-x="553" unicode="+" d="M315 371h188v-74h-188v-195h-77v195h-188v74h188v195h77v-195z"/>
<glyph glyph-name="comma" horiz-adv-x="245" unicode="," d="M91 -189h-63q34 40 58.5 94.5t26.5 95.5q-32 1 -50 17.5t-18 44.5t20.5 47.5t50.5 19.5q33 0 53 -25.5t20 -67.5q0 -51 -22.5 -102.5t-75.5 -123.5z"/>
<glyph glyph-name="hyphen" horiz-adv-x="267" unicode="-" d="M0 288h267v-73h-267v73z"/>
<glyph glyph-name="period" horiz-adv-x="253" unicode="." d="M127 126q28 0 47.5 -20t19.5 -48t-20 -47.5t-48 -19.5t-47.5 19.5t-19.5 47.5t19.5 48t48.5 20z"/>
<glyph glyph-name="slash" horiz-adv-x="563" unicode="/" d="M37 -173l408 840h82l-408 -840h-82z"/>
<glyph glyph-name="zero" horiz-adv-x="553" unicode="0" d="M278 579q-57 0 -84 -48q-43 -74 -43 -206q0 -130 43 -202q26 -48 83 -48q56 0 82 48q43 74 43 204q0 131 -43 204q-28 48 -81 48zM280 663q104 0 163.5 -90t59.5 -246q0 -157 -60 -246.5t-166 -89.5t-166.5 89t-60.5 245q0 161 60.5 249.5t169.5 88.5z"/>
<glyph glyph-name="one" horiz-adv-x="553" unicode="1" d="M169 486v58q65 2 100.5 28.5t46.5 81.5h69v-654h-100v486h-116z"/>
<glyph glyph-name="two" horiz-adv-x="553" unicode="2" d="M169 465h-87q1 93 53.5 145.5t145.5 52.5q86 0 138 -45.5t52 -121.5q0 -58 -44 -124.5t-223 -280.5h274v-91h-403v80l15 18q42 52 64 78q140 170 177 225t37 93q0 36 -25.5 58.5t-66.5 22.5q-47 0 -75 -28.5t-32 -81.5z"/>
<glyph glyph-name="three" horiz-adv-x="553" unicode="3" d="M177 480h-87q4 87 56 135t143 48q85 0 136.5 -46t51.5 -123q0 -101 -102 -144q117 -37 117 -158q0 -91 -59.5 -146.5t-156.5 -55.5q-101 0 -158 53.5t-56 147.5h91q1 -54 32.5 -83.5t88.5 -29.5q55 0 86.5 30.5t31.5 82.5q0 74 -66 99q-30 11 -94 11q-11 0 -20 -1v84 q13 -1 25 -1q67 0 103 27t36 76q0 41 -26 65.5t-70 24.5q-90 0 -103 -96z"/>
<glyph glyph-name="four" horiz-adv-x="553" unicode="4" d="M308 227v310l-178 -310h178zM402 227h116v-82h-114v-152h-101v152h-268v79l256 430h111v-427z"/>
<glyph glyph-name="five" horiz-adv-x="553" unicode="5" d="M136 650h313l-7 -89h-231l-27 -156q49 36 106 36q89 0 143.5 -59t54.5 -154q0 -102 -62.5 -169.5t-157.5 -67.5q-87 0 -142 49t-60 132h94q15 -94 105 -94q53 0 85.5 40t32.5 105q0 61 -30 98t-79 37q-65 0 -107 -61l-87 12z"/>
<glyph glyph-name="six" horiz-adv-x="553" unicode="6" d="M276 365q-50 0 -81 -40t-31 -104q0 -63 32 -104t81 -41q50 0 80.5 39.5t30.5 105.5q0 64 -31 104t-81 40zM301 662h110q-112 -130 -171 -228q29 10 59 10q84 0 137.5 -61.5t53.5 -158.5q0 -103 -58.5 -168t-151.5 -65q-94 0 -155.5 65.5t-61.5 166.5q0 125 98 268 q44 65 140 171z"/>
<glyph glyph-name="seven" horiz-adv-x="553" unicode="7" d="M64 650h425v-78l-313 -572h-111l305 555h-306v95z"/>
<glyph glyph-name="eight" horiz-adv-x="553" unicode="8" d="M277 300q-50 0 -82 -32t-32 -82t31.5 -81.5t81.5 -31.5t81.5 31.5t31.5 81.5t-31.5 82t-80.5 32zM278 581q-45 0 -72.5 -27.5t-27.5 -72.5q0 -44 27.5 -72t71.5 -28q43 0 70.5 28t27.5 72t-27 72t-70 28zM152 343q-75 43 -75 134q0 80 57.5 133t142.5 53t142 -53.5 t57 -132.5q0 -91 -75 -134q90 -51 90 -154q0 -86 -60.5 -142t-154.5 -56q-93 0 -153.5 56t-60.5 142q0 103 90 154z"/>
<glyph glyph-name="nine" horiz-adv-x="553" unicode="9" d="M279 578q-51 0 -83 -41t-32 -106q0 -64 31 -104t81 -40t81 40t31 105t-30 105.5t-79 40.5zM250 -12h-110q45 50 96.5 118.5t76.5 111.5q-27 -10 -59 -10q-83 0 -137 62t-54 156q0 104 61 170.5t156 66.5t152.5 -64t57.5 -169q0 -98 -56 -201.5t-184 -240.5z"/>
<glyph glyph-name="colon" horiz-adv-x="253" unicode=":" d="M127 475q28 0 47.5 -20t19.5 -48t-20 -47.5t-48 -19.5t-47.5 19.5t-19.5 47.5q0 29 19.5 48.5t48.5 19.5zM127 126q28 0 47.5 -20t19.5 -48t-20 -47.5t-48 -19.5t-47.5 19.5t-19.5 47.5t19.5 48t48.5 20z"/>
<glyph glyph-name="semicolon" horiz-adv-x="245" unicode=";" d="M91 -189h-63q34 40 58.5 94.5t26.5 95.5q-32 1 -50 17.5t-18 44.5t20.5 47.5t50.5 19.5q33 0 53 -25.5t20 -67.5q0 -51 -22.5 -102.5t-75.5 -123.5zM115 475q28 0 47.5 -20t19.5 -47q0 -28 -20 -48t-48 -20t-47.5 19.5t-19.5 47.5q0 29 19.5 48.5t48.5 19.5z"/>
<glyph glyph-name="less" d="M466 591v-98l-329 -155l329 -155v-97l-433 211v83z" unicode="&lt;"/>
<glyph glyph-name="equal" horiz-adv-x="553" unicode="=" d="M50 296h453v-75h-453v75zM50 447h453v-75h-453v75z"/>
<glyph glyph-name="greater" d="M34 85v98l329 155l-329 156v97l433 -211v-84z" unicode="&gt;"/>
<glyph glyph-name="question" horiz-adv-x="415" unicode="?" d="M248 204h-93v31q0 72 10.5 98t55.5 75q37 38 48.5 58t11.5 44q0 29 -18.5 46.5t-50.5 17.5q-76 0 -83 -88h-80q3 80 36 119q48 57 139 57q76 0 119 -39.5t43 -107.5q0 -40 -16 -69.5t-66 -82.5q-39 -42 -47.5 -61t-8.5 -70v-28zM202 126q28 0 47.5 -20t19.5 -48 t-20 -47.5t-48 -19.5t-47.5 19.5t-19.5 47.5t20 48t48 20z"/>
<glyph glyph-name="at" horiz-adv-x="733" unicode="@" d="M380 434q-43 0 -74 -38.5t-31 -92.5q0 -43 21.5 -68.5t58.5 -25.5q43 0 71 38.5t28 97.5q0 42 -19.5 65.5t-54.5 23.5zM485 493h70l-39 -202q-7 -38 -7 -46q0 -20 8.5 -32t21.5 -12q37 0 67.5 56.5t30.5 124.5q0 105 -70 170t-183 65q-122 0 -202 -82t-80 -207 q0 -122 77 -201q75 -78 215 -78q104 0 194 40l17 -63q-95 -39 -211 -39q-163 0 -260 92q-49 46 -75.5 112t-26.5 138q0 150 100 250t251 100q139 0 228.5 -83.5t89.5 -213.5q0 -95 -50 -167t-115 -72q-61 0 -75 66q-46 -67 -121 -67q-64 0 -104.5 45t-40.5 116 q0 82 52 141.5t123 59.5q73 0 105 -63z"/>
<glyph glyph-name="A" horiz-adv-x="585" unicode="A" d="M387 245l-95 300l-94 -300h189zM242 669h100l228 -669h-107l-49 156h-243l-50 -156h-106z"/>
<glyph glyph-name="B" horiz-adv-x="570" unicode="B" d="M184 85h62q96 0 129 15q51 22 51 95q0 75 -62 99q-32 12 -116 12h-64v-221zM184 389h59q75 0 107 16q45 23 45 83q0 61 -49 82q-31 12 -109 12h-53v-193zM83 667h152q110 0 159 -16q48 -17 75.5 -57t27.5 -94q0 -57 -26.5 -91.5t-83.5 -52.5q146 -34 146 -167 q0 -61 -32.5 -108t-85.5 -64q-34 -11 -70.5 -14t-123.5 -3h-138v667z"/>
<glyph glyph-name="C" horiz-adv-x="600" unicode="C" d="M556 465h-91q-24 124 -138 124q-81 0 -128.5 -69t-47.5 -187t48 -186.5t130 -68.5q128 0 143 160h94q-8 -122 -68 -186t-166 -64q-132 0 -210.5 93.5t-78.5 250.5q0 184 102 278q77 69 183 69q100 0 159.5 -55.5t68.5 -158.5z"/>
<glyph glyph-name="D" horiz-adv-x="637" unicode="D" d="M186 89h54q65 0 97.5 6.5t61.5 25.5q42 28 65 83.5t23 129.5q0 156 -95 214q-30 19 -63 24.5t-114 5.5h-29v-489zM83 667h135q153 0 221 -36q71 -38 113 -118t42 -179t-39.5 -178t-109.5 -117q-42 -24 -89 -31.5t-152 -7.5h-121v667z"/>
<glyph glyph-name="E" horiz-adv-x="520" unicode="E" d="M186 390h268v-89h-268v-212h300v-89h-403v667h395v-89h-292v-188z"/>
<glyph glyph-name="F" horiz-adv-x="504" unicode="F" d="M186 390h268v-89h-268v-301h-103v667h395v-89h-292v-188z"/>
<glyph glyph-name="G" horiz-adv-x="632" unicode="G" d="M352 338h223v-276q-105 -74 -234 -74q-138 0 -218 93t-80 253q0 157 78.5 251t209.5 94q123 0 187 -80q40 -49 48 -133h-92q-22 123 -141 123q-85 0 -133.5 -68t-48.5 -187q0 -121 50 -188.5t140 -67.5q77 0 146 43v136h-135v81z"/>
<glyph glyph-name="H" horiz-adv-x="659" unicode="H" d="M186 391h288v276h103v-667h-103v306h-288v-306h-103v667h103v-276z"/>
<glyph glyph-name="I" horiz-adv-x="269" unicode="I" d="M186 0h-104v667h104v-667z"/>
<glyph glyph-name="J" horiz-adv-x="313" unicode="J" d="M129 667h104v-532q0 -82 -3.5 -111.5t-17.5 -55.5q-40 -80 -184 -80q-17 0 -31 1v86q89 0 115 29q11 13 14 35t3 95v533z"/>
<glyph glyph-name="K" horiz-adv-x="593" unicode="K" d="M83 667h103v-667h-103v667zM444 667h121l-260 -312l281 -355h-135l-263 352z"/>
<glyph glyph-name="L" horiz-adv-x="496" unicode="L" d="M83 667h106v-578h287v-89h-393v667z"/>
<glyph glyph-name="M" horiz-adv-x="791" unicode="M" d="M83 667h148l164 -555l166 555h147v-667h-95v553l-165 -553h-106l-164 553v-553h-95v667z"/>
<glyph glyph-name="N" horiz-adv-x="668" unicode="N" d="M83 667h111l293 -510v510h98v-667h-107l-297 509v-509h-98v667z"/>
<glyph glyph-name="O" horiz-adv-x="660" unicode="O" d="M331 590q-82 0 -131 -68.5t-49 -184.5q0 -121 48 -190.5t132 -69.5q83 0 131 69.5t48 187.5t-48.5 187t-130.5 69zM331 679q129 0 208 -95t79 -250t-79 -250.5t-208 -95.5q-131 0 -209.5 95.5t-78.5 254.5q0 151 80 246t208 95z"/>
<glyph glyph-name="P" horiz-adv-x="547" unicode="P" d="M186 348h44q84 0 119 10q32 9 50.5 36.5t18.5 66.5q0 75 -56 101q-37 16 -133 16h-43v-230zM83 667h134q133 0 187 -19q56 -19 88.5 -69.5t32.5 -118.5q0 -66 -31.5 -115t-86.5 -68q-51 -18 -177 -18h-44v-259h-103v667z"/>
<glyph glyph-name="Q" horiz-adv-x="676" unicode="Q" d="M331 590q-81 0 -130.5 -69.5t-49.5 -183.5q0 -120 48.5 -190t131.5 -70q81 0 130 70t49 186q0 117 -49 187t-130 70zM579 146l135 -150h-122l-66 73q-79 -81 -196 -81q-128 0 -207.5 95.5t-79.5 250.5q0 154 79.5 249.5t208.5 95.5q128 0 207.5 -95t79.5 -249 q0 -103 -39 -189z"/>
<glyph glyph-name="R" horiz-adv-x="577" unicode="R" d="M186 357h46q89 0 121 12q65 24 65 101q0 66 -52 91q-21 11 -47 14t-92 3h-41v-221zM83 667h143q83 0 123.5 -5.5t74.5 -21.5q47 -23 74 -68t27 -103q0 -133 -127 -184l164 -285h-122l-151 268h-103v-268h-103v667z"/>
<glyph glyph-name="S" horiz-adv-x="557" unicode="S" d="M493 482h-99q-4 51 -35.5 79t-83.5 28q-47 0 -78 -24.5t-31 -61.5t37 -59q19 -13 114 -53q72 -30 102.5 -47t49.5 -38q43 -48 43 -120q0 -90 -62.5 -144t-166.5 -54q-113 0 -175 58t-67 170h100q12 -138 144 -138q53 0 87 25.5t34 65.5q0 43 -43 73q-25 16 -110 53 q-102 44 -137 76q-53 48 -53 123q0 81 60.5 133t154.5 52q122 0 180 -82q31 -43 35 -115z"/>
<glyph glyph-name="T" horiz-adv-x="484" unicode="T" d="M16 667h453v-89h-176v-578h-103v578h-174v89z"/>
<glyph glyph-name="U" horiz-adv-x="651" unicode="U" d="M75 667h103v-387q0 -97 16 -131q32 -71 132 -71q52 0 87.5 22t49.5 61q11 31 11 119v387h103v-389q0 -74 -4 -105.5t-17 -60.5q-27 -59 -87.5 -91.5t-142.5 -32.5t-142.5 32.5t-87.5 91.5q-13 30 -17 61.5t-4 104.5v389z"/>
<glyph glyph-name="V" horiz-adv-x="587" unicode="V" d="M10 667h110l174 -549l173 549h108l-230 -669h-107z"/>
<glyph glyph-name="W" horiz-adv-x="826" unicode="W" d="M13 667h97l128 -543l131 543h89l130 -543l130 543h95l-166 -669h-115l-120 475l-119 -475h-115z"/>
<glyph glyph-name="X" horiz-adv-x="565" unicode="X" d="M30 667h118l136 -230l138 230h118l-197 -319l208 -348h-118l-149 254l-152 -254h-117l208 348z"/>
<glyph glyph-name="Y" horiz-adv-x="539" unicode="Y" d="M5 667h117l149 -287l147 287h115l-212 -396v-271h-103v271z"/>
<glyph glyph-name="Z" horiz-adv-x="497" unicode="Z" d="M52 667h420v-72l-324 -506h315v-89h-437v81l321 499h-295v87z"/>
<glyph glyph-name="bracketleft" horiz-adv-x="294" unicode="[" d="M83 667h177v-78h-90v-704h90v-79h-177v861z"/>
<glyph glyph-name="backslash" horiz-adv-x="563" unicode="\" d="M527 -173h-82l-408 840h82z"/>
<glyph glyph-name="bracketright" horiz-adv-x="294" unicode="]" d="M212 -194h-177v78h90v704h-90v79h177v-861z"/>
<glyph glyph-name="asciicircum" d="M120 352h-104l169 318h130l169 -318h-104l-130 240z" unicode="^"/>
<glyph glyph-name="underscore" d="M0 -57h500v-89h-500v89z" unicode="_"/>
<glyph glyph-name="grave" d="M328 540h-77l-167 151h128z" unicode="`"/>
<glyph glyph-name="a" horiz-adv-x="495" unicode="a" d="M331 204v37q-104 -16 -145 -39t-41 -66q0 -31 22.5 -50t58.5 -19q64 0 91 50q14 25 14 87zM155 341h-95q8 65 48 101q53 44 146 44q60 0 101 -19.5t56 -54.5q15 -34 15 -112v-185q0 -80 15 -115h-91q-8 29 -8 59q-39 -70 -136 -70q-75 0 -118.5 36.5t-43.5 99.5 q0 101 109 142q49 19 178 42v13q0 46 -19 65t-64 19q-80 0 -93 -65z"/>
<glyph glyph-name="b" horiz-adv-x="530" unicode="b" d="M282 402q-53 0 -84 -45t-31 -122q0 -74 30 -118.5t80 -44.5q52 0 82 45t30 122q0 75 -29 119t-78 44zM70 671h98v-261q53 76 133 76q83 0 136 -69.5t53 -178.5q0 -110 -55.5 -179.5t-144.5 -69.5q-87 0 -129 76q-1 -40 -9 -65h-87q5 36 5 129v542z"/>
<glyph glyph-name="c" horiz-adv-x="482" unicode="c" d="M440 318h-97q-7 47 -28.5 68.5t-60.5 21.5q-52 0 -83 -46.5t-31 -125.5t30.5 -124t84.5 -45q42 0 64 23.5t28 75.5h96q-5 -83 -55.5 -131t-132.5 -48q-97 0 -156.5 68.5t-59.5 180.5q0 115 59 183.5t158 68.5q80 0 127 -44t57 -126z"/>
<glyph glyph-name="d" horiz-adv-x="529" unicode="d" d="M254 403q-53 0 -83 -44.5t-30 -123.5q0 -76 29.5 -119.5t80.5 -43.5q52 0 82 44.5t30 121.5q0 76 -29.5 120.5t-79.5 44.5zM459 671v-525q0 -105 9 -146h-93q-6 24 -6 46q0 11 1 21q-24 -41 -55.5 -59.5t-78.5 -18.5q-89 0 -142.5 67t-53.5 177q0 111 54 182t139 71 q43 0 72 -16t56 -54v255h98z"/>
<glyph glyph-name="e" horiz-adv-x="501" unicode="e" d="M141 289h221q-14 120 -107 120q-90 0 -114 -120zM462 216h-324q3 -72 35.5 -110t90.5 -38q70 0 100 62l88 -6q-20 -66 -69 -101.5t-122 -35.5q-101 0 -161.5 67t-60.5 178q0 116 60 186t159 70q94 0 149.5 -68t55.5 -183q0 -12 -1 -21z"/>
<glyph glyph-name="f" horiz-adv-x="307" unicode="f" d="M180 475h115v-78h-114v-397h-100v397h-65v78h65v30q0 87 23 124q36 55 114 55q45 0 93 -18v-83q-44 16 -75 16q-39 0 -51 -35q-5 -20 -5 -68v-21z"/>
<glyph glyph-name="g" horiz-adv-x="508" unicode="g" d="M239 13q-61 0 -95 -18.5t-34 -50.5q0 -33 38.5 -52t103.5 -19q60 0 94.5 19t34.5 51q0 34 -37 52t-105 18zM248 408q-42 0 -67.5 -24.5t-25.5 -64.5q0 -37 24.5 -60t65.5 -23q42 0 67 23t25 61t-25 63t-64 25zM488 475v-72h-97q32 -32 32 -95q0 -86 -68 -118 q-24 -12 -45 -16.5t-94 -15.5q-22 -3 -36 -13t-14 -21q0 -13 14 -19q10 -4 86 -12q111 -11 148 -31q62 -33 62 -111q0 -72 -60 -112.5t-166 -40.5q-103 0 -164.5 37.5t-61.5 100.5q0 42 23.5 69t74.5 45q-52 20 -52 56q0 24 19 41.5t65 34.5q-87 41 -87 136q0 76 51 121 t136 45q40 0 83 -13z"/>
<glyph glyph-name="h" horiz-adv-x="530" unicode="h" d="M71 671h98v-250q52 65 137 65q43 0 78.5 -17t54.5 -47q14 -22 19 -53t5 -96v-273h-98v257q0 73 -13 98q-22 44 -76 44q-59 0 -90 -53q-17 -31 -17 -94v-252h-98v671z"/>
<glyph glyph-name="i" horiz-adv-x="242" unicode="i" d="M123 678q26 0 43 -17.5t17 -45.5q0 -27 -17 -44t-45 -17t-45 17t-17 43q0 28 17.5 46t46.5 18zM71 475h100v-475h-100v475z"/>
<glyph glyph-name="j" horiz-adv-x="262" unicode="j" d="M146 678q27 0 43.5 -17t16.5 -45t-17 -45t-45 -17t-45 17t-17 44q0 28 18 45.5t46 17.5zM93 475h100v-419q0 -78 -6 -111t-26 -61q-47 -69 -171 -69h-24v85h15q79 0 101 42q7 15 8.5 30.5t2.5 82.5v420z"/>
<glyph glyph-name="k" horiz-adv-x="511" unicode="k" d="M71 671h98v-671h-98v671zM357 475h119l-188 -217l203 -258h-133l-187 256z"/>
<glyph glyph-name="l" horiz-adv-x="242" unicode="l" d="M71 671h100v-671h-100v671z"/>
<glyph glyph-name="m" horiz-adv-x="802" unicode="m" d="M59 475h95q10 -26 10 -64q48 75 141 75q96 0 134 -80q55 80 150 80t128 -66q11 -23 14 -45t3 -92v-283h-98v282q0 61 -12 84q-20 33 -72 33q-100 0 -100 -125v-274h-98v271q0 70 -10 90q-19 38 -73 38q-65 0 -89 -52q-13 -29 -13 -77v-270h-98v346q0 62 -2 82.5t-10 46.5 z"/>
<glyph glyph-name="n" horiz-adv-x="527" unicode="n" d="M58 475h95q9 -23 10 -65q49 76 143 76q46 0 82 -19.5t53 -53.5q12 -23 15.5 -48.5t3.5 -91.5v-273h-98v257q0 72 -12 99q-20 43 -74 43q-60 0 -90 -52q-17 -30 -17 -94v-253h-98v309q0 88 -1.5 110t-11.5 56z"/>
<glyph glyph-name="o" horiz-adv-x="521" unicode="o" d="M261 408q-53 0 -87 -47t-34 -122q0 -78 33 -125t88 -47q53 0 86.5 47t33.5 123t-33.5 123.5t-86.5 47.5zM261 488q97 0 159 -70.5t62 -180.5q0 -109 -62 -179.5t-159 -70.5q-98 0 -160 71t-62 183q0 107 63 177t159 70z"/>
<glyph glyph-name="p" horiz-adv-x="529" unicode="p" d="M281 403q-52 0 -83 -45t-31 -122q0 -74 31 -118.5t83 -44.5q51 0 79.5 43.5t28.5 121.5q0 77 -29 121t-79 44zM71 -197v525q0 106 -9 147h93q9 -27 9 -62q46 73 132 73q87 0 140.5 -68t53.5 -179q0 -110 -53 -180t-137 -70q-79 0 -131 69v-255h-98z"/>
<glyph glyph-name="q" horiz-adv-x="529" unicode="q" d="M251 403q-50 0 -80 -45.5t-30 -121.5q0 -75 30 -119t80 -44q52 0 82 44t30 121q0 74 -30.5 119.5t-81.5 45.5zM361 -197v254q-28 -37 -55.5 -52.5t-68.5 -15.5q-87 0 -142 68t-55 177q0 113 54.5 182.5t143.5 69.5q88 0 128 -73q0 37 9 62h93q-9 -41 -9 -147v-525h-98z "/>
<glyph glyph-name="r" horiz-adv-x="353" unicode="r" d="M64 475h94q7 -40 7 -73q0 -15 -1 -27q51 111 130 111q18 0 47 -10v-99q-38 21 -69 21q-58 0 -86 -65q-17 -38 -17 -116v-217h-99v321q0 104 -6 154z"/>
<glyph glyph-name="s" horiz-adv-x="463" unicode="s" d="M415 336h-95q-10 75 -86 75q-34 0 -56 -17t-22 -43t20 -39t93 -34q96 -28 123 -58q28 -34 28 -83q0 -70 -49 -110t-134 -40q-95 0 -145.5 42.5t-50.5 123.5h93q7 -89 100 -89q40 0 63.5 18t23.5 48q0 29 -31 46q-18 9 -103 35q-70 20 -98 48q-31 33 -31 83q0 65 49 105.5 t129 40.5q81 0 128 -39.5t51 -112.5z"/>
<glyph glyph-name="t" horiz-adv-x="337" unicode="t" d="M197 475h104l-1 -78h-105l-3 -210q-1 -32 -1 -40q0 -41 11 -56t40 -15q34 0 70 16l-1 -83q-50 -19 -96 -19q-77 0 -109 51q-16 27 -16 87q0 11 2 59l6 210h-73l1 78h75l3 136h95z"/>
<glyph glyph-name="u" horiz-adv-x="528" unicode="u" d="M68 475h98v-280q0 -64 16 -86q24 -33 73 -33q59 0 87 49q17 30 17 89v261h98v-329q0 -80 1.5 -98.5t10.5 -47.5h-94q-8 24 -10 59q-46 -70 -130 -70q-98 0 -143 72q-24 40 -24 131v283z"/>
<glyph glyph-name="v" horiz-adv-x="469" unicode="v" d="M10 475h103l121 -368l120 368h103l-169 -479h-109z"/>
<glyph glyph-name="w" horiz-adv-x="708" unicode="w" d="M14 475h100l94 -355l105 355h81l104 -355l96 355h99l-140 -479h-102l-99 325l-98 -325h-102z"/>
<glyph glyph-name="x" horiz-adv-x="473" unicode="x" d="M27 475h117l92 -150l94 150h118l-151 -222l172 -253h-119l-114 175l-114 -175h-119l174 253z"/>
<glyph glyph-name="y" horiz-adv-x="471" unicode="y" d="M16 475h104l117 -378l120 378h103l-159 -452q-32 -93 -48.5 -123.5t-46.5 -55.5q-54 -44 -147 -44q-18 0 -32 1v85q8 1 18 1h7q59 2 84.5 21.5t45.5 77.5z"/>
<glyph glyph-name="z" horiz-adv-x="412" unicode="z" d="M45 475h342v-73l-249 -321h248v-81h-364v76l245 318h-222v81z"/>
<glyph glyph-name="braceleft" horiz-adv-x="294" unicode="{" d="M187 504v-141q0 -53 -12 -79t-47 -48q35 -22 47 -47.5t12 -78.5v-141q0 -62 15.5 -77t79.5 -15v-76q-14 -1 -31 -1q-86 0 -118.5 34t-32.5 123v156q0 43 -12.5 63.5t-42.5 27.5v64q30 8 42.5 28t12.5 63v156q0 89 32.5 123t118.5 34h31v-77q-66 -1 -80.5 -15t-14.5 -76z "/>
<glyph glyph-name="bar" d="M201 667h98v-834h-98v834z" unicode="|"/>
<glyph glyph-name="braceright" horiz-adv-x="294" unicode="}" d="M107 -31v141q0 53 12 78.5t47 47.5q-35 22 -47 48t-12 79v141q0 62 -14.5 76t-80.5 15v77h31q86 0 118.5 -34t32.5 -123v-156q0 -43 12.5 -63.5t42.5 -27.5v-64q-30 -7 -42.5 -27.5t-12.5 -63.5v-156q0 -89 -34 -124q-34 -33 -117 -33q-17 0 -31 1v76h14q60 0 74 27 q7 17 7 65z"/>
<glyph glyph-name="asciitilde" horiz-adv-x="667" unicode="~" d="M148 206l-56 36q23 49 36 68q42 58 107 58q36 0 109 -30q65 -28 92 -28q26 0 43.5 12.5t38.5 47.5l57 -34q-31 -65 -63 -90q-40 -31 -89 -31q-30 0 -142 45q-31 13 -54 13q-24 0 -41.5 -15t-37.5 -52z"/>
<glyph glyph-name="uni00A0" horiz-adv-x="250" unicode=" "/>
<glyph glyph-name="exclamdown" horiz-adv-x="250" unicode="¡" d="M124 475q28 0 48 -19.5t20 -47.5t-20 -48t-48 -20t-47.5 20t-19.5 48t19.5 47.5t47.5 19.5zM178 -186h-106l13 447h83z"/>
<glyph glyph-name="cent" horiz-adv-x="553" unicode="¢" d="M260 178v329q-86 -34 -86 -169q0 -132 86 -160zM310 509v-332q63 16 72 95h97q-3 -71 -51 -121t-118 -55v-96h-52v97q-87 14 -135.5 78t-48.5 164q0 105 49 171.5t137 80.5v83h51v-83q70 -6 114 -50.5t52 -116.5h-99q-5 37 -20.5 56.5t-47.5 28.5z"/>
<glyph glyph-name="sterling" horiz-adv-x="553" unicode="£" d="M252 382h152v-74h-166q-21 -150 -70 -229q53 14 105 14q6 0 14 -0.5t22.5 -1t26.5 -0.5l34 -1q35 0 45 15q14 21 16 67h82q0 -79 -27 -124q-31 -52 -116 -52q-18 0 -98 5q-41 3 -75 3q-74 0 -158 -10q59 70 96 313h-87v75h101q24 127 40 176q22 63 59.5 91t99.5 28 q89 0 127 -57q22 -33 26 -100h-88q-4 38 -18.5 54.5t-44.5 16.5q-50 0 -68 -57q-13 -42 -28 -138z"/>
<glyph glyph-name="currency" horiz-adv-x="667" unicode="¤" d="M335 522q-65 0 -110 -44.5t-45 -109.5q0 -63 45 -108.5t108 -45.5t108 45t45 109q0 63 -44.5 108.5t-106.5 45.5zM39 130l97 99q-47 64 -47 139q0 72 48 140l-100 99l55 55l99 -99q67 47 143 47q74 0 140 -46l98 98l55 -55l-98 -98q48 -68 48 -140q0 -74 -47 -140l99 -99 l-54 -55l-99 99q-67 -48 -142 -48q-71 0 -143 48l-98 -98z"/>
<glyph glyph-name="yen" horiz-adv-x="553" unicode="¥" d="M417 437h91v-64h-124l-38 -73h162v-64h-178v-236h-103v236h-181v64h165l-39 73h-126v64h93l-120 230h116l143 -288l143 288h114z"/>
<glyph glyph-name="brokenbar" d="M201 153h98v-320h-98v320zM201 667h98v-339h-98v339z" unicode="¦"/>
<glyph glyph-name="section" d="M207 361q-66 -37 -66 -83q0 -30 28 -53.5t124 -72.5q65 38 65 85q0 37 -42 62q-55 35 -109 62zM430 486h-81q-7 50 -30 73.5t-66 23.5q-37 0 -61 -19t-24 -49q0 -28 20 -45q13 -12 91 -54q94 -50 123 -74q45 -38 45 -95q0 -84 -88 -132q67 -50 67 -124q0 -73 -48.5 -114 t-134.5 -41q-94 0 -143 46.5t-50 135.5h83q7 -55 32.5 -78.5t76.5 -23.5q43 0 68 20.5t25 56.5q0 39 -49 69q-14 9 -111 61q-124 65 -124 150q0 75 88 129q-34 28 -48 52.5t-14 59.5q0 64 49.5 106.5t124.5 42.5q83 0 129 -45.5t50 -131.5z" unicode="§"/>
<glyph glyph-name="dieresis" d="M338 680q25 0 42.5 -18t17.5 -43t-18 -43t-43 -18t-43 18t-18 43q0 26 18 43.5t44 17.5zM164 679q25 0 42.5 -17.5t17.5 -42.5t-17.5 -43t-42.5 -18t-43 17.5t-18 42.5q0 26 17.5 43.5t43.5 17.5z" unicode="¨"/>
<glyph glyph-name="copyright" horiz-adv-x="768" unicode="©" d="M387 631q-124 0 -209.5 -86.5t-85.5 -211.5q0 -123 85.5 -210t206.5 -87t206 87t85 211q0 121 -85 209t-203 88zM388 680q140 0 240.5 -102t100.5 -244q0 -143 -101.5 -244.5t-244.5 -101.5t-244 101t-101 244q0 146 101.5 246.5t248.5 100.5zM546 414h-63q-15 73 -84 73 q-50 0 -80 -40.5t-30 -108.5t30 -107.5t81 -39.5q39 0 61.5 24t25.5 70h64q-2 -71 -42.5 -112t-108.5 -41q-83 0 -133.5 56t-50.5 149q0 95 50 152t132 57q65 0 104.5 -35t43.5 -97z"/>
<glyph glyph-name="ordfeminine" d="M111 323h270v-46h-270v46zM300 504v23q-66 -14 -90 -27t-24 -37q0 -17 13 -28t35 -11q35 0 50.5 19t15.5 61zM192 580h-63q3 46 35 70.5t89 24.5q77 0 100 -45q10 -18 10 -69v-111q0 -47 10 -71h-61q-5 16 -6 31q-30 -37 -84 -37q-47 0 -74.5 22.5t-27.5 60.5q0 61 69 89 q25 9 111 28v8q0 42 -51 42t-57 -43z" unicode="ª"/>
<glyph glyph-name="guillemotleft" horiz-adv-x="438" unicode="«" d="M214 0h-80l-100 233l100 243h80l-84 -243zM375 0h-80l-100 233l100 243h80l-84 -243z"/>
<glyph glyph-name="logicalnot" d="M368 0v175h-335v92h433v-267h-98z" unicode="¬"/>
<glyph glyph-name="uni00AD" horiz-adv-x="267" unicode="­" d="M0 288h267v-73h-267v73z"/>
<glyph glyph-name="registered" horiz-adv-x="768" unicode="®" d="M387 635q-125 0 -211.5 -87.5t-86.5 -214.5q0 -124 86.5 -212t208.5 -88t208 88.5t86 212.5q0 123 -86 212t-205 89zM388 680q140 0 240.5 -102t100.5 -244q0 -143 -101.5 -244.5t-244.5 -101.5t-244 101t-101 244q0 146 101.5 246.5t248.5 100.5zM325 349h26q54 0 74 7 q39 14 39 58q0 37 -31 51q-19 10 -85 10h-23v-126zM255 533h93q85 0 124 -16q64 -29 64 -104q0 -78 -77 -110l103 -171h-82l-95 159h-60v-159h-70v401z"/>
<glyph glyph-name="macron" d="M109 648h281v-64h-281v64z" unicode="¯"/>
<glyph glyph-name="degree" d="M251 619q-35 0 -60.5 -24.5t-25.5 -58.5q0 -36 25 -61t61 -25q35 0 60.5 25t25.5 60q0 34 -25.5 59t-60.5 25zM251 679q61 0 104 -42t43 -102t-43 -102.5t-104 -42.5q-62 0 -105 42.5t-43 104.5q0 58 43.5 100t104.5 42z" unicode="°"/>
<glyph glyph-name="plusminus" horiz-adv-x="553" unicode="±" d="M50 88h453v-75h-453v75zM315 386h188v-74h-188v-170h-77v170h-188v74h188v195h77v-195z"/>
<glyph glyph-name="twosuperior" horiz-adv-x="361" unicode="²" d="M119 535h-59q0 59 33 91t94 32q55 0 88 -28t33 -74q0 -35 -25 -71t-139 -165h168v-60h-257v52q2 3 9 10.5t18 20.5t23 26q87 99 110.5 131.5t23.5 54.5q0 20 -15 32.5t-40 12.5q-60 0 -65 -65z"/>
<glyph glyph-name="threesuperior" horiz-adv-x="361" unicode="³" d="M116 549h-59q1 53 34.5 82.5t92.5 29.5q54 0 87 -27.5t33 -73.5q0 -61 -59 -85q68 -23 68 -94q0 -54 -38 -87.5t-99 -33.5q-66 0 -101.5 32t-34.5 91h61q0 -66 73 -66q34 0 52.5 17t18.5 46q0 33 -23 48t-73 15q-9 0 -16 -1v56q8 -1 18 -1q85 0 85 58q0 22 -15.5 35.5 t-41.5 13.5q-56 0 -63 -55z"/>
<glyph glyph-name="acute" d="M189 540l116 151h128l-167 -151h-77z" unicode="´"/>
<glyph glyph-name="mu" d="M37 -170v650h98v-264q0 -50 8 -76t28 -46q31 -31 78 -31q52 0 85 41q31 40 31 119v257h98v-480h-98v72q-40 -83 -118 -83q-71 0 -112 68v-227h-98z" unicode="µ"/>
<glyph glyph-name="paragraph" horiz-adv-x="621" unicode="¶" d="M218 -95v413h-13q-80 0 -130.5 48t-50.5 124q0 49 22 88.5t61 61.5q50 27 148 27h294v-77h-66v-685h-85v685h-95v-685h-85z"/>
<glyph glyph-name="periodcentered" horiz-adv-x="253" unicode="·" d="M127 318q28 0 47.5 -20t19.5 -48t-19.5 -47.5t-47.5 -19.5t-48 19.5t-20 47.5t19.5 48t48.5 20z"/>
<glyph glyph-name="cedilla" d="M214 0h58l-20 -50q89 -15 89 -84q0 -40 -28 -66.5t-72 -26.5q-36 0 -81 24v43q42 -17 60 -17q24 0 38 13.5t14 36.5t-17 37t-46 14q-12 0 -24 -1z" unicode="¸"/>
<glyph glyph-name="onesuperior" horiz-adv-x="361" unicode="¹" d="M78 547v40q42 1 63.5 16t28.5 49h48v-392h-68v287h-72z"/>
<glyph glyph-name="ordmasculine" d="M115 323h270v-46h-270v46zM250 623q-33 0 -53 -27.5t-20 -71.5t20 -72t52 -28q34 0 54 27t20 73q0 44 -20.5 71.5t-52.5 27.5zM250 675q61 0 100 -42.5t39 -108.5q0 -67 -39.5 -109.5t-101.5 -42.5q-59 0 -98 43t-39 109t39 108.5t100 42.5z" unicode="º"/>
<glyph glyph-name="guillemotright" horiz-adv-x="438" unicode="»" d="M225 476h80l100 -232l-100 -244h-80l84 244zM64 476h80l100 -232l-100 -244h-80l84 244z"/>
<glyph glyph-name="onequarter" horiz-adv-x="852" unicode="¼" d="M688 140v171l-103 -171h103zM752 140h72v-54h-71v-90h-68v90h-167v50l161 256h73v-252zM575 650h81l-378 -650h-81zM78 547v40q79 1 92 65h48v-392h-68v287h-72z"/>
<glyph glyph-name="onehalf" horiz-adv-x="852" unicode="½" d="M610 275h-59q0 59 33 91t93 32q56 0 89 -28t33 -74q0 -35 -28 -75t-136 -161h168v-60h-257v52q7 7 10 11l40 46q87 99 110.5 131.5t23.5 54.5q0 20 -15.5 32.5t-39.5 12.5q-60 0 -65 -65zM575 650h81l-378 -650h-81zM78 547v40q79 1 92 65h48v-392h-68v287h-72z"/>
<glyph glyph-name="threequarters" horiz-adv-x="852" unicode="¾" d="M688 140v171l-103 -171h103zM752 140h72v-54h-71v-90h-68v90h-167v50l161 256h73v-252zM575 650h81l-378 -650h-81zM116 549h-59q1 53 34.5 82.5t92.5 29.5q54 0 87 -27.5t33 -73.5q0 -61 -59 -85q68 -23 68 -94q0 -54 -38 -87.5t-99 -33.5q-66 0 -101.5 32t-34.5 91h61 q0 -66 73 -66q34 0 52.5 17t18.5 46q0 33 -23 48t-73 15q-9 0 -16 -1v56q8 -1 18 -1q85 0 85 58q0 22 -15.5 35.5t-41.5 13.5q-56 0 -63 -55z"/>
<glyph glyph-name="questiondown" horiz-adv-x="415" unicode="¿" d="M179 262h93v-31q0 -72 -10.5 -98t-55.5 -75q-37 -39 -48.5 -58.5t-11.5 -43.5q0 -29 19 -46.5t51 -17.5q76 0 82 88h80q-3 -80 -36 -119q-48 -57 -139 -57q-75 0 -118.5 39.5t-43.5 107.5q0 40 16 69.5t67 82.5q38 41 47 61t9 69q0 17 -1 29zM225 475q28 0 47.5 -19.5 t19.5 -47.5t-20 -48t-48 -20t-47.5 20t-19.5 48t20 47.5t48 19.5z"/>
<glyph glyph-name="Agrave" horiz-adv-x="585" unicode="À" d="M362 725h-95l-186 151h128zM387 245l-95 300l-94 -300h189zM242 669h100l228 -669h-107l-49 156h-243l-50 -156h-106z"/>
<glyph glyph-name="Aacute" horiz-adv-x="585" unicode="Á" d="M223 725l153 151h128l-186 -151h-95zM387 245l-95 300l-94 -300h189zM242 669h100l228 -669h-107l-49 156h-243l-50 -156h-106z"/>
<glyph glyph-name="Acircumflex" horiz-adv-x="585" unicode="Â" d="M113 732l134 137h91l134 -137h-95l-84 83l-84 -83h-96zM387 245l-95 300l-94 -300h189zM242 669h100l228 -669h-107l-49 156h-243l-50 -156h-106z"/>
<glyph glyph-name="Atilde" horiz-adv-x="585" unicode="Ã" d="M179 737l-51 15q14 53 38 77.5t61 24.5q28 0 72 -20q48 -22 66 -22q33 0 52 49l47 -15q-10 -50 -35.5 -78t-60.5 -28q-28 0 -74 19q-55 23 -68 23q-36 0 -47 -45zM387 245l-95 300l-94 -300h189zM242 669h100l228 -669h-107l-49 156h-243l-50 -156h-106z"/>
<glyph glyph-name="Adieresis" horiz-adv-x="585" unicode="Ä" d="M384 866q27 0 46 -19.5t19 -45.5q0 -28 -19 -47t-46 -19q-28 0 -47 19t-19 46q0 28 19 47t47 19zM202 866q27 0 46 -19.5t19 -45.5q0 -28 -19 -47t-46 -19q-28 0 -47 19t-19 46q0 28 19 47t47 19zM387 245l-95 300l-94 -300h189zM242 669h100l228 -669h-107l-49 156h-243 l-50 -156h-106z"/>
<glyph glyph-name="Aring" horiz-adv-x="585" unicode="Å" d="M293 858q-20 0 -34.5 -14.5t-14.5 -34.5t14.5 -34.5t34.5 -14.5t34 14.5t14 34.5t-14 34.5t-34 14.5zM294 905q38 0 66 -28t28 -68t-28 -68t-67 -28q-40 0 -68 28t-28 68t28.5 68t68.5 28zM387 245l-95 300l-94 -300h189zM242 669h100l228 -669h-107l-49 156h-243 l-50 -156h-106z"/>
<glyph glyph-name="AE" horiz-adv-x="886" unicode="Æ" d="M457 245v328l-187 -328h187zM407 667h439v-89h-284v-189h260v-89h-260v-211h290v-89h-395v156h-238l-90 -156h-112z"/>
<glyph glyph-name="Ccedilla" horiz-adv-x="600" unicode="Ç" d="M338 -12l-16 -46q101 -17 101 -98q0 -45 -32 -75t-81 -30q-38 0 -91 26v50q43 -19 66 -19q27 0 43 15.5t16 41.5q0 27 -19 42.5t-51 15.5q-7 0 -28 -3l29 86q-55 7 -113 50q-119 90 -119 289q0 188 106 280q75 66 180 66q99 0 158.5 -56t68.5 -158h-91q-24 124 -138 124 q-81 0 -128.5 -69.5t-47.5 -187.5q0 -117 47.5 -185.5t129.5 -68.5q129 0 144 160h94q-5 -117 -64.5 -182.5t-163.5 -67.5z"/>
<glyph glyph-name="Egrave" horiz-adv-x="520" unicode="È" d="M365 725h-95l-186 151h128zM183 390h268v-89h-268v-212h300v-89h-403v667h395v-89h-292v-188z"/>
<glyph glyph-name="Eacute" horiz-adv-x="520" unicode="É" d="M193 725l153 151h128l-186 -151h-95zM186 390h268v-89h-268v-212h300v-89h-403v667h395v-89h-292v-188z"/>
<glyph glyph-name="Ecircumflex" horiz-adv-x="520" unicode="Ê" d="M102 732l134 137h90l134 -137h-94l-85 83l-84 -83h-95zM186 390h268v-89h-268v-212h300v-89h-403v667h395v-89h-292v-188z"/>
<glyph glyph-name="Edieresis" horiz-adv-x="520" unicode="Ë" d="M373 866q27 0 46 -19t19 -46q0 -28 -19 -47t-46 -19q-28 0 -47 19t-19 46q0 28 19 47t47 19zM190 866q27 0 46 -19t19 -46q0 -28 -19 -47t-46 -19q-28 0 -47 19t-19 46q0 28 19 47t47 19zM186 390h268v-89h-268v-212h300v-89h-403v667h395v-89h-292v-188z"/>
<glyph glyph-name="Igrave" horiz-adv-x="269" unicode="Ì" d="M199 725h-88l-159 151h121zM186 0h-104v667h104v-667z"/>
<glyph glyph-name="Iacute" horiz-adv-x="269" unicode="Í" d="M69 725l126 151h121l-159 -151h-88zM186 0h-104v667h104v-667z"/>
<glyph glyph-name="Icircumflex" horiz-adv-x="269" unicode="Î" d="M-21 732l110 137h91l111 -137h-92l-64 83l-64 -83h-92zM187 0h-104v667h104v-667z"/>
<glyph glyph-name="Idieresis" horiz-adv-x="269" unicode="Ï" d="M216 863q26 0 44 -18.5t18 -44.5t-18.5 -44.5t-44.5 -18.5t-44.5 18.5t-18.5 44.5t18.5 44.5t45.5 18.5zM56 863q26 0 44 -18.5t18 -44.5t-18.5 -44.5t-44.5 -18.5t-44.5 18.5t-18.5 44.5t18.5 44.5t45.5 18.5zM187 0h-104v667h104v-667z"/>
<glyph glyph-name="Eth" horiz-adv-x="637" unicode="Ð" d="M186 89h54q65 0 97.5 6.5t61.5 25.5q42 28 65 83.5t23 129.5q0 156 -95 214q-30 19 -63 24.5t-114 5.5h-29v-188h145v-83h-145v-218zM83 667h135q153 0 221 -36q71 -38 113 -118t42 -179t-39.5 -178t-109.5 -117q-42 -24 -89 -31.5t-152 -7.5h-121v307h-60v83h60v277z "/>
<glyph glyph-name="Ntilde" horiz-adv-x="668" unicode="Ñ" d="M223 737l-51 15q27 102 99 102q28 0 72 -20q48 -22 66 -22q33 0 52 49l47 -15q-10 -50 -35.5 -78t-60.5 -28q-30 0 -74 19q-54 23 -67 23q-38 0 -48 -45zM83 667h111l293 -510v510h98v-667h-107l-297 509v-509h-98v667z"/>
<glyph glyph-name="Ograve" horiz-adv-x="660" unicode="Ò" d="M330 590q-83 0 -131 -68.5t-48 -187.5t47.5 -188t129.5 -69q86 0 134 68.5t48 189.5q0 119 -48 187t-132 68zM330 679q130 0 209 -94.5t79 -249.5q0 -187 -112 -284q-73 -63 -179 -63q-99 0 -172 63q-112 96 -112 283t112 282q75 63 175 63zM419 725h-95l-186 151h128z "/>
<glyph glyph-name="Oacute" horiz-adv-x="660" unicode="Ó" d="M330 590q-83 0 -131 -68.5t-48 -187.5t47.5 -188t129.5 -69q86 0 134 68.5t48 189.5q0 119 -48 187t-132 68zM330 679q130 0 209 -94.5t79 -249.5q0 -187 -112 -284q-73 -63 -179 -63q-99 0 -172 63q-112 96 -112 283t112 282q75 63 175 63zM242 725l153 151h128 l-186 -151h-95z"/>
<glyph glyph-name="Ocircumflex" horiz-adv-x="660" unicode="Ô" d="M330 590q-83 0 -131 -68.5t-48 -187.5t47.5 -188t129.5 -69q86 0 134 68.5t48 189.5q0 119 -48 187t-132 68zM330 679q130 0 209 -94.5t79 -249.5q0 -187 -112 -284q-73 -63 -179 -63q-99 0 -172 63q-112 96 -112 283t112 282q75 63 175 63zM151 732l134 137h90l134 -137 h-94l-85 83l-84 -83h-95z"/>
<glyph glyph-name="Otilde" horiz-adv-x="660" unicode="Õ" d="M330 590q-83 0 -131 -68.5t-48 -187.5t47.5 -188t129.5 -69q86 0 134 68.5t48 189.5q0 119 -48 187t-132 68zM330 679q130 0 209 -94.5t79 -249.5q0 -187 -112 -284q-73 -63 -179 -63q-99 0 -172 63q-112 96 -112 283t112 282q75 63 175 63zM218 737l-51 15 q27 102 99 102q28 0 72 -20q48 -22 67 -22q32 0 51 49l47 -15q-9 -49 -35 -77.5t-61 -28.5q-28 0 -74 19q-55 23 -67 23q-37 0 -48 -45z"/>
<glyph glyph-name="Odieresis" horiz-adv-x="660" unicode="Ö" d="M330 590q-83 0 -131 -68.5t-48 -187.5t47.5 -188t129.5 -69q86 0 134 68.5t48 189.5q0 119 -48 187t-132 68zM330 679q130 0 209 -94.5t79 -249.5q0 -187 -112 -284q-73 -63 -179 -63q-99 0 -172 63q-112 96 -112 283t112 282q75 63 175 63zM422 866q27 0 46 -19t19 -46 q0 -28 -19 -47t-46 -19q-28 0 -47 19t-19 46q0 28 19 47t47 19zM239 866q27 0 46 -19.5t19 -45.5q0 -28 -19 -47t-46 -19q-28 0 -47 19t-19 46q0 28 19 47t47 19z"/>
<glyph glyph-name="multiply" horiz-adv-x="553" unicode="×" d="M331 334l142 -143l-53 -53l-142 142l-145 -145l-54 54l145 145l-142 143l53 53l142 -143l143 143l54 -54z"/>
<glyph glyph-name="Oslash" horiz-adv-x="660" unicode="Ø" d="M481 487l-265 -361q53 -50 117 -50q81 0 129 70.5t48 189.5q0 75 -29 151zM179 187l264 358q-47 46 -113 46q-82 0 -130.5 -70.5t-48.5 -190.5q0 -72 28 -143zM503 620l41 53h80l-76 -100q70 -91 70 -242q0 -152 -80 -248t-206 -96q-98 0 -176 62l-41 -56h-78l75 103 q-37 54 -53 108.5t-16 129.5q0 196 121 290q70 55 166 55q97 0 173 -59z"/>
<glyph glyph-name="Ugrave" horiz-adv-x="651" unicode="Ù" d="M75 667h103v-387q0 -97 16 -131q32 -71 132 -71q52 0 87.5 22t49.5 61q11 31 11 119v387h103v-389q0 -74 -4 -105.5t-17 -60.5q-27 -59 -87.5 -91.5t-142.5 -32.5t-142.5 32.5t-87.5 91.5q-13 30 -17 61.5t-4 104.5v389zM419 725h-95l-186 151h127z"/>
<glyph glyph-name="Uacute" horiz-adv-x="651" unicode="Ú" d="M75 667h103v-387q0 -97 16 -131q32 -71 132 -71q52 0 87.5 22t49.5 61q11 31 11 119v387h103v-389q0 -74 -4 -105.5t-17 -60.5q-27 -59 -87.5 -91.5t-142.5 -32.5t-142.5 32.5t-87.5 91.5q-13 30 -17 61.5t-4 104.5v389zM234 725l153 151h128l-186 -151h-95z"/>
<glyph glyph-name="Ucircumflex" horiz-adv-x="651" unicode="Û" d="M75 667h103v-387q0 -97 16 -131q32 -71 132 -71q52 0 87.5 22t49.5 61q11 31 11 119v387h103v-389q0 -74 -4 -105.5t-17 -60.5q-27 -59 -87.5 -91.5t-142.5 -32.5t-142.5 32.5t-87.5 91.5q-13 30 -17 61.5t-4 104.5v389zM147 732l134 137h90l134 -137h-95l-84 83l-84 -83 h-95z"/>
<glyph glyph-name="Udieresis" horiz-adv-x="651" unicode="Ü" d="M75 667h103v-387q0 -97 16 -131q32 -71 132 -71q52 0 87.5 22t49.5 61q11 31 11 119v387h103v-389q0 -74 -4 -105.5t-17 -60.5q-27 -59 -87.5 -91.5t-142.5 -32.5t-142.5 32.5t-87.5 91.5q-13 30 -17 61.5t-4 104.5v389zM417 866q27 0 46 -19.5t19 -45.5q0 -28 -19 -47 t-46 -19q-28 0 -47 19t-19 46q0 28 19 47t47 19zM235 866q27 0 46 -19t19 -46q0 -28 -19 -47t-46 -19q-28 0 -47 19t-19 46q0 28 19 47t47 19z"/>
<glyph glyph-name="Yacute" horiz-adv-x="539" unicode="Ý" d="M181 725l154 151h127l-186 -151h-95zM5 667h117l148 -287l148 287h115l-212 -396v-271h-103v271z"/>
<glyph glyph-name="Thorn" horiz-adv-x="547" unicode="Þ" d="M186 271h44q84 0 119 10q32 9 50.5 36.5t18.5 65.5q0 75 -56 101q-34 16 -133 16h-43v-229zM83 667h103v-78h31q133 0 187 -19q56 -19 88.5 -69t32.5 -118q0 -66 -31.5 -115.5t-86.5 -67.5q-53 -18 -177 -18h-44v-182h-103v667z"/>
<glyph glyph-name="germandbls" horiz-adv-x="526" unicode="ß" d="M62 0v421q0 84 4.5 115.5t20.5 59.5q47 80 166 80q82 0 134 -45.5t52 -117.5q0 -100 -102 -135q150 -34 150 -188q0 -86 -49 -141.5t-125 -55.5q-39 0 -77 19v87q31 -19 65 -19q39 0 62 28.5t23 77.5q0 68 -42.5 105.5t-120.5 38.5q-5 0 -10 1v85q7 -1 20 -1q50 0 79 24 t29 67q0 40 -24.5 64.5t-64.5 24.5q-63 0 -82 -50q-10 -26 -10 -115v-430h-98z"/>
<glyph glyph-name="agrave" horiz-adv-x="495" unicode="à" d="M331 204v37q-104 -16 -145 -39t-41 -66q0 -31 22.5 -50t58.5 -19q64 0 91 50q14 25 14 87zM155 341h-95q8 65 48 101q53 44 146 44q60 0 101 -19.5t56 -54.5q15 -34 15 -112v-185q0 -80 15 -115h-91q-8 29 -8 59q-39 -70 -136 -70q-75 0 -118.5 36.5t-43.5 99.5 q0 101 109 142q49 19 178 42v13q0 46 -19 65t-64 19q-80 0 -93 -65zM325 540h-76l-167 151h127z"/>
<glyph glyph-name="aacute" horiz-adv-x="495" unicode="á" d="M331 204v37q-104 -16 -145 -39t-41 -66q0 -31 22.5 -50t58.5 -19q64 0 91 50q14 25 14 87zM155 341h-95q8 65 48 101q53 44 146 44q60 0 101 -19.5t56 -54.5q15 -34 15 -112v-185q0 -80 15 -115h-91q-8 29 -8 59q-39 -70 -136 -70q-75 0 -118.5 36.5t-43.5 99.5 q0 101 109 142q49 19 178 42v13q0 46 -19 65t-64 19q-80 0 -93 -65zM174 540l116 151h128l-167 -151h-77z"/>
<glyph glyph-name="acircumflex" horiz-adv-x="495" unicode="â" d="M331 204v37q-104 -16 -145 -39t-41 -66q0 -31 22.5 -50t58.5 -19q64 0 91 50q14 25 14 87zM155 341h-95q8 65 48 101q53 44 146 44q60 0 101 -19.5t56 -54.5q15 -34 15 -112v-185q0 -80 15 -115h-91q-8 29 -8 59q-39 -70 -136 -70q-75 0 -118.5 36.5t-43.5 99.5 q0 101 109 142q49 19 178 42v13q0 46 -19 65t-64 19q-80 0 -93 -65zM85 545l117 146h91l117 -146h-91l-71 90l-71 -90h-92z"/>
<glyph glyph-name="atilde" horiz-adv-x="495" unicode="ã" d="M331 204v37q-104 -16 -145 -39t-41 -66q0 -31 22.5 -50t58.5 -19q64 0 91 50q14 25 14 87zM155 341h-95q8 65 48 101q53 44 146 44q60 0 101 -19.5t56 -54.5q15 -34 15 -112v-185q0 -80 15 -115h-91q-8 29 -8 59q-39 -70 -136 -70q-75 0 -118.5 36.5t-43.5 99.5 q0 101 109 142q49 19 178 42v13q0 46 -19 65t-64 19q-80 0 -93 -65zM143 555l-47 13q25 104 87 104q26 0 67 -20q45 -22 61 -22q28 0 46 49l44 -12q-9 -51 -32 -80t-54 -29q-24 0 -71 22q-46 21 -60 21q-29 0 -41 -46z"/>
<glyph glyph-name="adieresis" horiz-adv-x="495" unicode="ä" d="M333 680q25 0 42.5 -18t17.5 -43t-17.5 -43t-43.5 -18t-43.5 18t-17.5 43q0 26 18 43.5t44 17.5zM160 679q25 0 42.5 -17.5t17.5 -42.5t-17.5 -43t-42.5 -18t-43 17.5t-18 42.5q0 26 17.5 43.5t43.5 17.5zM331 204v37q-104 -16 -145 -39t-41 -66q0 -31 22.5 -50t58.5 -19 q64 0 91 50q14 25 14 87zM155 341h-95q8 65 48 101q53 44 146 44q60 0 101 -19.5t56 -54.5q15 -34 15 -112v-185q0 -80 15 -115h-91q-8 29 -8 59q-39 -70 -136 -70q-75 0 -118.5 36.5t-43.5 99.5q0 101 109 142q49 19 178 42v13q0 46 -19 65t-64 19q-80 0 -93 -65z"/>
<glyph glyph-name="aring" horiz-adv-x="495" unicode="å" d="M331 204v37q-104 -16 -145 -39t-41 -66q0 -31 22.5 -50t58.5 -19q64 0 91 50q14 25 14 87zM155 341h-95q8 65 48 101q53 44 146 44q60 0 101 -19.5t56 -54.5q15 -34 15 -112v-185q0 -80 15 -115h-91q-8 29 -8 59q-39 -70 -136 -70q-75 0 -118.5 36.5t-43.5 99.5 q0 101 109 142q49 19 178 42v13q0 46 -19 65t-64 19q-80 0 -93 -65zM249 674q-21 0 -35.5 -14.5t-14.5 -34.5t14.5 -34.5t34.5 -14.5t34.5 14.5t14.5 34.5t-14 34.5t-34 14.5zM249 721q39 0 67 -28.5t28 -67.5q0 -40 -28 -68t-68 -28t-68 28t-28 68t28.5 68t68.5 28z"/>
<glyph glyph-name="ae" horiz-adv-x="795" unicode="æ" d="M326 217h-11q-82 0 -126 -23.5t-44 -66.5q0 -29 21 -46t55 -17q105 0 105 134v19zM431 289h221q-16 121 -106 121q-94 0 -115 -121zM757 216h-331q1 -70 35.5 -109.5t96.5 -39.5q71 0 101 63l89 -7q-15 -62 -65.5 -99t-122.5 -37q-129 0 -186 101q-45 -101 -166 -101 q-74 0 -119 36.5t-45 96.5q0 79 73.5 123.5t208.5 46.5v26q0 50 -18 71t-61 21q-75 0 -93 -75h-95q8 74 58.5 114.5t134.5 40.5q56 0 91 -16.5t58 -54.5q61 71 149 71q96 0 151.5 -69.5t55.5 -188.5v-14z"/>
<glyph glyph-name="ccedilla" horiz-adv-x="482" unicode="ç" d="M253 -13l-13 -37q89 -15 89 -84q0 -40 -28 -66.5t-72 -26.5q-36 0 -81 24v43q41 -17 60 -17q24 0 38 13.5t14 36.5t-17 37t-46 14q-12 0 -24 -1l27 71q-56 15 -91 50q-70 72 -70 192q0 115 59 183.5t158 68.5q80 0 127 -44t57 -126h-96q-8 47 -29.5 68.5t-60.5 21.5 q-52 0 -83 -46.5t-31 -125.5t30.5 -124t84.5 -45q42 0 64 23.5t29 75.5h96q-5 -82 -56.5 -130.5t-132.5 -48.5h-2z"/>
<glyph glyph-name="egrave" horiz-adv-x="501" unicode="è" d="M141 289h221q-14 120 -107 120q-90 0 -114 -120zM462 216h-324q3 -72 35.5 -110t90.5 -38q70 0 100 62l88 -6q-20 -66 -69 -101.5t-122 -35.5q-101 0 -161.5 67t-60.5 178q0 116 60 186t159 70q94 0 149.5 -68t55.5 -183q0 -12 -1 -21zM334 540h-77l-167 151h127z"/>
<glyph glyph-name="eacute" horiz-adv-x="501" unicode="é" d="M141 289h221q-14 120 -107 120q-90 0 -114 -120zM462 216h-324q3 -72 35.5 -110t90.5 -38q70 0 100 62l88 -6q-20 -66 -69 -101.5t-122 -35.5q-101 0 -161.5 67t-60.5 178q0 116 60 186t159 70q94 0 149.5 -68t55.5 -183q0 -12 -1 -21zM188 540l116 151h128l-167 -151 h-77z"/>
<glyph glyph-name="ecircumflex" horiz-adv-x="501" unicode="ê" d="M141 289h221q-14 120 -107 120q-90 0 -114 -120zM462 216h-324q3 -72 35.5 -110t90.5 -38q70 0 100 62l88 -6q-20 -66 -69 -101.5t-122 -35.5q-101 0 -161.5 67t-60.5 178q0 116 60 186t159 70q94 0 149.5 -68t55.5 -183q0 -12 -1 -21zM98 545l117 146h91l117 -146h-91 l-71 90l-71 -90h-92z"/>
<glyph glyph-name="edieresis" horiz-adv-x="501" unicode="ë" d="M348 680q25 0 42.5 -18t17.5 -43t-18 -43t-43 -18t-43 18t-18 43q0 26 18 43.5t44 17.5zM175 679q25 0 42.5 -17.5t17.5 -42.5t-17.5 -43t-42.5 -18t-43 17.5t-18 42.5q0 26 18 43.5t43 17.5zM141 289h221q-14 120 -107 120q-90 0 -114 -120zM462 216h-324 q3 -72 35.5 -110t90.5 -38q70 0 100 62l88 -6q-20 -66 -69 -101.5t-122 -35.5q-101 0 -161.5 67t-60.5 178q0 116 60 186t159 70q94 0 149.5 -68t55.5 -183q0 -12 -1 -21z"/>
<glyph glyph-name="igrave" horiz-adv-x="242" unicode="ì" d="M178 540h-73l-134 151h118zM71 475h100v-475h-100v475z"/>
<glyph glyph-name="iacute" horiz-adv-x="242" unicode="í" d="M64 540l90 151h117l-134 -151h-73zM71 475h100v-475h-100v475z"/>
<glyph glyph-name="icircumflex" horiz-adv-x="242" unicode="î" d="M-15 545l91 146h90l91 -146h-85l-51 90l-51 -90h-85zM71 475h100v-475h-100v475z"/>
<glyph glyph-name="idieresis" horiz-adv-x="242" unicode="ï" d="M198 678q24 0 41 -17.5t17 -41.5q0 -25 -17 -42t-42 -17q-24 0 -41.5 17t-17.5 42t17.5 42t42.5 17zM47 678q24 0 41 -17.5t17 -41.5q0 -25 -17 -42t-42 -17t-42 17t-17 42t17.5 42t42.5 17zM71 475h100v-475h-100v475z"/>
<glyph glyph-name="eth" horiz-adv-x="521" unicode="ð" d="M263 406q-56 0 -89.5 -46.5t-33.5 -122.5q0 -75 34 -122.5t87 -47.5t86.5 47.5t33.5 121.5q0 76 -32.5 123t-85.5 47zM271 628l74 42l34 -47l-73 -40q107 -122 141.5 -188.5t34.5 -151.5q0 -115 -60 -185.5t-158 -70.5q-99 0 -162 69.5t-63 179.5q0 106 58.5 175.5 t146.5 69.5q25 0 59 -14l-62 80l-69 -37l-35 44l72 41l-42 51l54 34z"/>
<glyph glyph-name="ntilde" horiz-adv-x="527" unicode="ñ" d="M58 475h95q9 -23 10 -65q49 76 143 76q46 0 82 -19.5t53 -53.5q12 -23 15.5 -48.5t3.5 -91.5v-273h-98v257q0 72 -12 99q-20 43 -74 43q-60 0 -90 -52q-17 -30 -17 -94v-253h-98v309q0 88 -1.5 110t-11.5 56zM149 555l-46 13q25 104 87 104q26 0 67 -20q45 -22 61 -22 q29 0 46 49l44 -12q-9 -51 -32 -80t-54 -29q-26 0 -71 22q-46 21 -60 21q-29 0 -42 -46z"/>
<glyph glyph-name="ograve" horiz-adv-x="521" unicode="ò" d="M261 408q-53 0 -87 -47t-34 -122q0 -78 33 -125t88 -47q53 0 86.5 47t33.5 123t-33.5 123.5t-86.5 47.5zM261 488q97 0 159 -70.5t62 -180.5q0 -109 -62 -179.5t-159 -70.5q-98 0 -160 71t-62 183q0 107 63 177t159 70zM330 540h-76l-168 151h128z"/>
<glyph glyph-name="oacute" horiz-adv-x="521" unicode="ó" d="M261 408q-53 0 -87 -47t-34 -122q0 -78 33 -125t88 -47q53 0 86.5 47t33.5 123t-33.5 123.5t-86.5 47.5zM261 488q97 0 159 -70.5t62 -180.5q0 -109 -62 -179.5t-159 -70.5q-98 0 -160 71t-62 183q0 107 63 177t159 70zM187 540l117 151h127l-167 -151h-77z"/>
<glyph glyph-name="ocircumflex" horiz-adv-x="521" unicode="ô" d="M261 408q-53 0 -87 -47t-34 -122q0 -78 33 -125t88 -47q53 0 86.5 47t33.5 123t-33.5 123.5t-86.5 47.5zM261 488q97 0 159 -70.5t62 -180.5q0 -109 -62 -179.5t-159 -70.5q-98 0 -160 71t-62 183q0 107 63 177t159 70zM98 545l117 146h91l117 -146h-91l-71 90l-71 -90 h-92z"/>
<glyph glyph-name="otilde" horiz-adv-x="521" unicode="õ" d="M261 408q-53 0 -87 -47t-34 -122q0 -78 33 -125t88 -47q53 0 86.5 47t33.5 123t-33.5 123.5t-86.5 47.5zM261 488q97 0 159 -70.5t62 -180.5q0 -109 -62 -179.5t-159 -70.5q-98 0 -160 71t-62 183q0 107 63 177t159 70zM160 555l-46 13q24 104 87 104q23 0 67 -20 q44 -22 61 -22q28 0 46 49l43 -12q-8 -50 -31.5 -79.5t-54.5 -29.5q-23 0 -70 22q-45 21 -60 21q-30 0 -42 -46z"/>
<glyph glyph-name="odieresis" horiz-adv-x="521" unicode="ö" d="M348 680q25 0 42.5 -18t17.5 -43t-18 -43t-43 -18t-43 18t-18 43q0 26 18 43.5t44 17.5zM175 679q25 0 42.5 -17.5t17.5 -42.5t-17.5 -43t-42.5 -18t-43 17.5t-18 42.5q0 26 18 43.5t43 17.5zM261 408q-53 0 -87 -47t-34 -122q0 -78 33 -125t88 -47q53 0 86.5 47 t33.5 123t-33.5 123.5t-86.5 47.5zM261 488q97 0 159 -70.5t62 -180.5q0 -109 -62 -179.5t-159 -70.5q-98 0 -160 71t-62 183q0 107 63 177t159 70z"/>
<glyph glyph-name="divide" horiz-adv-x="553" unicode="÷" d="M50 372h453v-75h-453v75zM277 543q24 0 41 -17.5t17 -41.5q0 -25 -17.5 -42t-41.5 -17q-25 0 -42 17t-17 42t17.5 42t42.5 17zM277 242q24 0 41 -17.5t17 -41.5q0 -25 -17.5 -42t-41.5 -17q-25 0 -42 17t-17 42t17.5 42t42.5 17z"/>
<glyph glyph-name="oslash" horiz-adv-x="521" unicode="ø" d="M367 322l-188 -219q37 -36 81 -36q54 0 87.5 48t33.5 125q0 37 -14 82zM151 155l188 215q-26 38 -81 38q-52 0 -85.5 -48.5t-33.5 -124.5q0 -39 12 -80zM80 81l-4 7q-22 41 -30 72.5t-8 75.5q0 110 62.5 181t159.5 71q42 0 73 -11.5t70 -41.5l37 40h70l-70 -79 q3 -9 3 -10l15 -27q24 -45 24 -122q0 -109 -62.5 -179.5t-159.5 -70.5q-84 0 -142 53l-36 -40h-72z"/>
<glyph glyph-name="ugrave" horiz-adv-x="528" unicode="ù" d="M68 475h98v-280q0 -64 16 -86q24 -33 73 -33q59 0 87 49q17 30 17 89v261h98v-329q0 -80 1.5 -98.5t10.5 -47.5h-94q-8 24 -10 59q-46 -70 -130 -70q-98 0 -143 72q-24 40 -24 131v283zM343 540h-77l-167 151h127z"/>
<glyph glyph-name="uacute" horiz-adv-x="528" unicode="ú" d="M68 475h98v-280q0 -64 16 -86q24 -33 73 -33q59 0 87 49q17 30 17 89v261h98v-329q0 -80 1.5 -98.5t10.5 -47.5h-94q-8 24 -10 59q-46 -70 -130 -70q-98 0 -143 72q-24 40 -24 131v283zM190 540l116 151h127l-167 -151h-76z"/>
<glyph glyph-name="ucircumflex" horiz-adv-x="528" unicode="û" d="M68 475h98v-280q0 -64 16 -86q24 -33 73 -33q59 0 87 49q17 30 17 89v261h98v-329q0 -80 1.5 -98.5t10.5 -47.5h-94q-8 24 -10 59q-46 -70 -130 -70q-98 0 -143 72q-24 40 -24 131v283zM100 545l117 146h90l117 -146h-90l-72 90l-71 -90h-91z"/>
<glyph glyph-name="udieresis" horiz-adv-x="528" unicode="ü" d="M350 680q25 0 42.5 -18t17.5 -43t-18 -43t-43 -18t-43 18t-18 43q0 26 18 43.5t44 17.5zM176 679q25 0 42.5 -17.5t17.5 -42.5t-17.5 -43t-42.5 -18t-43 17.5t-18 42.5q0 26 17.5 43.5t43.5 17.5zM68 475h98v-280q0 -64 16 -86q24 -33 73 -33q59 0 87 49q17 30 17 89v261 h98v-329q0 -80 1.5 -98.5t10.5 -47.5h-94q-8 24 -10 59q-46 -70 -130 -70q-98 0 -143 72q-24 40 -24 131v283z"/>
<glyph glyph-name="yacute" horiz-adv-x="471" unicode="ý" d="M165 540l116 151h128l-167 -151h-77zM16 475h104l117 -378l120 378h103l-159 -452q-33 -93 -49 -124t-46 -55q-54 -44 -147 -44h-32v86q8 1 18 1h7q59 2 84.5 21.5t45.5 77.5z"/>
<glyph glyph-name="thorn" horiz-adv-x="529" unicode="þ" d="M281 403q-52 0 -83 -45.5t-31 -122.5q0 -74 31 -118.5t83 -44.5q46 0 71 31q37 49 37 134q0 76 -29 121t-79 45zM71 -197v868h98v-259q46 74 127 74q87 0 140.5 -68.5t53.5 -178.5q0 -112 -52.5 -181t-137.5 -69q-43 0 -73 15.5t-58 53.5v-255h-98z"/>
<glyph glyph-name="OE" horiz-adv-x="947" unicode="Œ" d="M334 590q-87 0 -135 -68t-48 -191q0 -119 48 -186.5t132 -67.5q83 0 131.5 69t48.5 187t-48 187.5t-129 69.5zM511 603v64h393v-89h-290v-188h266v-89h-266v-212h299v-89h-402v64q-37 -41 -78.5 -58.5t-99.5 -17.5q-134 0 -212 93t-78 252q0 161 78 253.5t213 92.5 q110 0 177 -76z"/>
<glyph glyph-name="oe" horiz-adv-x="842" unicode="œ" d="M262 408q-55 0 -88.5 -47t-33.5 -124q0 -76 33.5 -123t87.5 -47q53 0 86 47t33 123q0 75 -33 123t-85 48zM477 285h225q-11 125 -109 125q-95 0 -116 -125zM803 214h-329q1 -70 35 -108.5t94 -38.5q77 0 103 63l88 -6q-19 -66 -68 -101.5t-122 -35.5q-112 0 -177 90 q-35 -48 -73 -69t-91 -21q-98 0 -161 70.5t-63 180.5t62.5 180t161.5 70q111 0 165 -94q37 50 76 72t94 22q92 0 148.5 -68t56.5 -180v-26z"/>
<glyph glyph-name="Scaron" horiz-adv-x="557" unicode="Š" d="M459 869l-134 -137h-90l-134 137h94l85 -83l84 83h95zM494 482h-100q-11 107 -120 107q-48 0 -79.5 -25.5t-31.5 -63.5q0 -39 40 -63q25 -14 112 -47q117 -44 154 -85q43 -47 43 -119q0 -92 -61 -145t-167 -53q-144 0 -207 90q-35 51 -36 138h100q3 -65 31 -97 q38 -41 112 -41q54 0 88.5 27.5t34.5 70.5q0 48 -44 77q-29 18 -111 49q-104 39 -139 71q-53 45 -53 121q0 83 59.5 134t156.5 51q123 0 183 -82q31 -42 35 -115z"/>
<glyph glyph-name="scaron" horiz-adv-x="463" unicode="š" d="M415 336h-95q-10 75 -86 75q-34 0 -56 -17t-22 -43t20 -39t93 -34q96 -28 123 -58q28 -34 28 -83q0 -70 -49 -110t-134 -40q-95 0 -145.5 42.5t-50.5 123.5h93q7 -89 100 -89q40 0 63.5 18t23.5 48q0 29 -31 46q-18 9 -103 35q-70 20 -98 48q-31 33 -31 83q0 65 49 105.5 t129 40.5q81 0 128 -39.5t51 -112.5zM399 691l-117 -146h-90l-117 146h90l72 -90l71 90h91z"/>
<glyph glyph-name="Ydieresis" horiz-adv-x="539" unicode="Ÿ" d="M5 667h117l149 -287l147 287h115l-212 -396v-271h-103v271zM360 866q27 0 46 -19.5t19 -45.5q0 -28 -19 -47t-46 -19q-28 0 -47 19t-19 46q0 28 19 47t47 19zM178 866q27 0 46 -19.5t19 -45.5q0 -28 -19 -47t-46 -19q-28 0 -47 19t-19 46q0 28 19 47t47 19z"/>
<glyph glyph-name="circumflex" d="M88 545l117 146h91l117 -146h-91l-71 90l-72 -90h-91z" unicode="ˆ"/>
<glyph glyph-name="tilde" d="M144 555l-46 12q24 105 87 105q23 0 67 -20q45 -22 61 -22q28 0 46 49l44 -12q-9 -51 -32 -80t-54 -29q-23 0 -71 22q-44 21 -60 21q-28 0 -42 -46z" unicode="˜"/>
<glyph glyph-name="Alpha" horiz-adv-x="585" unicode="Α" d="M387 245l-95 300l-94 -300h189zM242 669h100l228 -669h-107l-49 156h-243l-50 -156h-106z"/>
<glyph glyph-name="Beta" horiz-adv-x="570" unicode="Β" d="M184 85h62q96 0 129 15q51 22 51 95q0 75 -62 99q-32 12 -116 12h-64v-221zM184 389h59q75 0 107 16q45 23 45 83q0 61 -49 82q-31 12 -109 12h-53v-193zM83 667h152q110 0 159 -16q48 -17 75.5 -57t27.5 -94q0 -57 -26.5 -91.5t-83.5 -52.5q146 -34 146 -167 q0 -61 -32.5 -108t-85.5 -64q-34 -11 -70.5 -14t-123.5 -3h-138v667z"/>
<glyph glyph-name="Gamma" horiz-adv-x="496" unicode="Γ" d="M83 0v667h393v-89h-287v-578h-106z"/>
<glyph glyph-name="uni0394" horiz-adv-x="595" unicode="Δ" d="M442 89l-146 460l-145 -460h291zM15 0l230 669h107l228 -669h-565z"/>
<glyph glyph-name="Epsilon" horiz-adv-x="520" unicode="Ε" d="M186 390h268v-89h-268v-212h300v-89h-403v667h395v-89h-292v-188z"/>
<glyph glyph-name="Zeta" horiz-adv-x="497" unicode="Ζ" d="M52 667h420v-72l-324 -506h315v-89h-437v81l321 499h-295v87z"/>
<glyph glyph-name="Eta" horiz-adv-x="659" unicode="Η" d="M186 391h288v276h103v-667h-103v306h-288v-306h-103v667h103v-276z"/>
<glyph glyph-name="Theta" horiz-adv-x="660" unicode="Θ" d="M221 376h218v-85h-218v85zM331 590q-82 0 -131 -68.5t-49 -184.5q0 -121 48 -190.5t132 -69.5q83 0 131 69.5t48 187.5t-48.5 187t-130.5 69zM331 679q129 0 208 -95t79 -250t-79 -250.5t-208 -95.5q-131 0 -209.5 95.5t-78.5 254.5q0 151 80 246t208 95z"/>
<glyph glyph-name="Iota" horiz-adv-x="269" unicode="Ι" d="M186 0h-104v667h104v-667z"/>
<glyph glyph-name="Kappa" horiz-adv-x="593" unicode="Κ" d="M83 667h103v-667h-103v667zM444 667h121l-260 -312l281 -355h-135l-263 352z"/>
<glyph glyph-name="Lambda" horiz-adv-x="587" unicode="Λ" d="M576 0h-110l-174 549l-173 -549h-108l230 669h107z"/>
<glyph glyph-name="Mu" horiz-adv-x="791" unicode="Μ" d="M83 667h148l164 -555l166 555h147v-667h-95v553l-165 -553h-106l-164 553v-553h-95v667z"/>
<glyph glyph-name="Nu" horiz-adv-x="668" unicode="Ν" d="M83 667h111l293 -510v510h98v-667h-107l-297 509v-509h-98v667z"/>
<glyph glyph-name="Xi" horiz-adv-x="535" unicode="Ξ" d="M43 578v89h449v-89h-449zM34 0v89h466v-89h-466zM67 301v89h401v-89h-401z"/>
<glyph glyph-name="Omicron" horiz-adv-x="660" unicode="Ο" d="M331 590q-82 0 -131 -68.5t-49 -184.5q0 -121 48 -190.5t132 -69.5q83 0 131 69.5t48 187.5t-48.5 187t-130.5 69zM331 679q129 0 208 -95t79 -250t-79 -250.5t-208 -95.5q-131 0 -209.5 95.5t-78.5 254.5q0 151 80 246t208 95z"/>
<glyph glyph-name="Pi" horiz-adv-x="659" unicode="Π" d="M186 582v-582h-103v667h494v-667h-103v582h-288z"/>
<glyph glyph-name="Rho" horiz-adv-x="547" unicode="Ρ" d="M186 348h44q84 0 119 10q32 9 50.5 36.5t18.5 66.5q0 75 -56 101q-37 16 -133 16h-43v-230zM83 667h134q133 0 187 -19q56 -19 88.5 -69.5t32.5 -118.5q0 -66 -31.5 -115t-86.5 -68q-51 -18 -177 -18h-44v-259h-103v667z"/>
<glyph glyph-name="Sigma" horiz-adv-x="488" unicode="Σ" d="M27 0v81l220 251l-197 263v72h425v-88h-288l182 -247l-209 -243h315v-89h-448z"/>
<glyph glyph-name="Tau" horiz-adv-x="484" unicode="Τ" d="M16 667h453v-89h-176v-578h-103v578h-174v89z"/>
<glyph glyph-name="Upsilon" horiz-adv-x="539" unicode="Υ" d="M5 667h117l149 -287l147 287h115l-212 -396v-271h-103v271z"/>
<glyph glyph-name="Phi" horiz-adv-x="718" unicode="Φ" d="M408 667v-65q125 -2 202.5 -77.5t77.5 -196.5t-77.5 -196.5t-202.5 -76.5v-55h-98v55q-125 1 -202.5 76.5t-77.5 196.5t77.5 196.5t202.5 77.5v65h98zM310 140v371q-28 0 -58 -9q-68 -21 -96 -73q-24 -46 -24 -105q0 -83 48.5 -133.5t129.5 -50.5zM408 511v-371 q81 0 129.5 50.5t48.5 133.5q0 94 -53 144q-50 43 -125 43z"/>
<glyph glyph-name="Chi" horiz-adv-x="565" unicode="Χ" d="M30 667h118l136 -230l138 230h118l-197 -319l208 -348h-118l-149 254l-152 -254h-117l208 348z"/>
<glyph glyph-name="Psi" horiz-adv-x="673" unicode="Ψ" d="M389 130v-130h-104v129q-59 6 -110 31t-80 62q-26 34 -34 70.5t-8 124.5v250h103v-251q0 -72 6.5 -101.5t28.5 -52.5q30 -32 94 -44v449h104v-448q62 10 93 43q22 23 28.5 52.5t6.5 101.5v251h103v-250q0 -93 -11 -133q-18 -64 -75.5 -103.5t-144.5 -50.5z"/>
<glyph glyph-name="alpha" horiz-adv-x="570" unicode="α" d="M375 235q-28 95 -57.5 134t-72.5 39q-47 0 -76 -47t-29 -124q0 -76 29 -123t75 -47q43 0 72.5 38t58.5 130zM410 359l21 116h100l-66 -234l75 -241h-97l-29 125q-54 -138 -171 -138q-91 0 -147.5 69.5t-56.5 180.5q0 110 57 180.5t146 70.5q61 0 100 -30.5t68 -98.5z"/>
<glyph glyph-name="beta" horiz-adv-x="529" unicode="β" d="M251 395h14q46 0 73 28.5t27 76.5q0 49 -26 76t-72 27q-57 0 -84 -46q-15 -25 -15 -87v-253q0 -62 26 -98q34 -47 94 -47q48 0 75.5 32.5t27.5 90.5q0 122 -128 122h-12v78zM70 -197v643v11v11q0 104 54 159.5t154 55.5q87 0 137.5 -47t50.5 -127q0 -121 -118 -150 q74 -17 109 -58t35 -113q0 -89 -50.5 -144t-133.5 -55q-48 0 -79.5 15.5t-60.5 53.5v-255h-98z"/>
<glyph glyph-name="gamma" horiz-adv-x="463" unicode="γ" d="M182 -2l-174 477h103l120 -368l121 368h102l-174 -477v-195h-98v195z"/>
<glyph glyph-name="delta" horiz-adv-x="521" unicode="δ" d="M261 408q-53 0 -87 -47t-34 -122q0 -78 33 -125t88 -47q54 0 87.5 47t33.5 123t-33.5 123.5t-87.5 47.5zM228 477l-136 121v73h342v-81h-201l125 -110q69 -61 97 -114.5t28 -126.5q0 -111 -62 -181.5t-160 -70.5t-160 70.5t-62 180.5q0 101 52 167t137 72z"/>
<glyph glyph-name="epsilon" horiz-adv-x="461" unicode="ε" d="M418 332l-96 -6q-16 82 -90 82q-36 0 -58 -18t-22 -48q0 -38 30 -54q27 -16 53 -16h3l3 1q2 1 4 1h23v-77h-19q-111 0 -111 -67q0 -29 22.5 -45t62.5 -16q45 0 69.5 20.5t33.5 66.5l96 -7q-8 -60 -47 -106q-50 -56 -151 -56q-85 0 -136 37.5t-51 100.5q0 90 109 112 q-95 28 -95 114q0 62 49 99.5t131 37.5q79 0 128 -40.5t59 -115.5z"/>
<glyph glyph-name="zeta" horiz-adv-x="406" unicode="ζ" d="M279 590h-206v81h340v-71q-91 -66 -136.5 -107t-78.5 -88q-60 -83 -60 -171q0 -94 47 -139q19 -18 38 -25t73 -17q62 -11 83.5 -26.5t21.5 -51.5q0 -24 -10 -54q-10 -34 -45 -99q-1 -3 -9 -19h-92q12 26 14 28q2 5 17 30q29 50 29 77q0 23 -8 30t-44 13q-78 12 -118 40 q-45 31 -70.5 85t-25.5 121q0 100 57.5 187t182.5 176z"/>
<glyph glyph-name="eta" horiz-adv-x="527" unicode="η" d="M58 475h95q9 -23 10 -65q49 76 143 76q46 0 82 -19.5t53 -53.5q12 -23 15.5 -48.5t3.5 -91.5v-470h-98v454q0 72 -12 99q-20 43 -74 43q-60 0 -90 -52q-17 -30 -17 -94v-253h-98v309q0 88 -1.5 110t-11.5 56z"/>
<glyph glyph-name="theta" horiz-adv-x="521" unicode="θ" d="M261 684q97 0 159 -98.5t62 -251.5t-62 -251t-159 -98q-98 0 -160 98.5t-62 255.5q0 149 63 247t159 98zM380 294h-239q6 -104 38.5 -165t81.5 -61t81 61t38 165zM141 372h240q-7 110 -39 171t-83 61q-48 0 -80 -62.5t-38 -169.5z"/>
<glyph glyph-name="iota" horiz-adv-x="242" unicode="ι" d="M71 475h100v-475h-100v475z"/>
<glyph glyph-name="kappa" horiz-adv-x="511" unicode="κ" d="M71 475h98v-475h-98v475zM357 475h119l-188 -217l203 -258h-133l-187 256z"/>
<glyph glyph-name="lambda" horiz-adv-x="463" unicode="λ" d="M185 497l-60 174h100l63 -182l166 -489h-104l-117 377l-121 -377h-102z"/>
<glyph glyph-name="uni03BC" horiz-adv-x="528" unicode="μ" d="M166 1v-198h-98v672h98v-280q0 -63 16 -86q24 -33 73 -33q59 0 87 49q17 30 17 89v261h98v-329q0 -80 1.5 -98.5t10.5 -47.5h-94q-8 24 -10 59q-44 -70 -130 -70q-34 0 -69 12z"/>
<glyph glyph-name="nu" horiz-adv-x="469" unicode="ν" d="M10 475h103l121 -368l120 368h103l-169 -479h-109z"/>
<glyph glyph-name="xi" horiz-adv-x="406" unicode="ξ" d="M385 671v-71q-70 0 -100 -6q-44 -9 -69 -33t-25 -58q0 -76 135 -79v-81q-66 -1 -88 -4t-42 -16q-55 -32 -55 -118q0 -84 57 -122q18 -12 33 -17t66 -14q57 -10 75 -21q29 -18 29 -56q0 -55 -49 -148h-92q45 89 45 123q0 14 -10 20.5t-41 10.5q-103 14 -157.5 72.5 t-54.5 153.5q0 73 36.5 122t101.5 63q-87 33 -87 102q0 60 58 96h-106v81h340z"/>
<glyph glyph-name="omicron" horiz-adv-x="521" unicode="ο" d="M261 408q-53 0 -87 -47t-34 -122q0 -78 33 -125t88 -47q53 0 86.5 47t33.5 123t-33.5 123.5t-86.5 47.5zM261 488q97 0 159 -70.5t62 -180.5q0 -109 -62 -179.5t-159 -70.5q-98 0 -160 71t-62 183q0 107 63 177t159 70z"/>
<glyph glyph-name="pi" horiz-adv-x="536" unicode="π" d="M358 397h-166v-397h-98v397h-67v78h496v-78h-67v-397h-98v397z"/>
<glyph glyph-name="rho" horiz-adv-x="524" unicode="ρ" d="M275 409q-52 0 -83 -46t-31 -124q0 -75 31 -120.5t83 -45.5q51 0 79.5 44.5t28.5 123.5q0 78 -29 123t-79 45zM65 -197v414q0 96 21 147q53 124 196 124q81 0 130 -49q72 -72 72 -200q0 -110 -53 -180t-137 -70q-79 0 -131 69v-255h-98z"/>
<glyph glyph-name="uni03C2" horiz-adv-x="466" unicode="ς" d="M440 318h-97q-7 47 -28.5 68.5t-60.5 21.5q-52 0 -83 -46.5t-31 -124.5q0 -99 47 -143q19 -18 37.5 -25t73.5 -17q62 -11 83.5 -26.5t21.5 -51.5q0 -57 -60 -171h-93q57 108 57 145q0 14 -10 20.5t-42 11.5q-79 12 -119 40q-97 67 -97 220q0 112 59.5 180t157.5 68 q80 0 127 -44t57 -126z"/>
<glyph glyph-name="sigma" horiz-adv-x="529" unicode="σ" d="M261 408q-53 0 -87 -47t-34 -122q0 -78 33 -125t88 -47q54 0 87.5 47t33.5 123t-33.5 123.5t-87.5 47.5zM513 475v-81q-9 -1 -20 -1q-21 0 -63 3q53 -62 53 -159q0 -110 -62.5 -180t-159.5 -70t-159.5 70t-62.5 180q0 114 63.5 182.5t169.5 68.5q21 0 78 -7q35 -5 63 -6 h33h67z"/>
<glyph glyph-name="tau" horiz-adv-x="381" unicode="τ" d="M239 0h-98v397h-138v78h374v-78h-138v-397z"/>
<glyph glyph-name="upsilon" horiz-adv-x="525" unicode="υ" d="M457 475v-283q0 -61 -10.5 -95.5t-38.5 -61.5q-49 -49 -145 -49q-97 0 -146 49q-28 27 -38.5 61.5t-10.5 95.5v283h98v-291q0 -53 17 -79q29 -38 80 -38q57 0 83 45q13 23 13 72v291h98z"/>
<glyph glyph-name="phi" horiz-adv-x="614" unicode="φ" d="M356 411v-347q56 4 89.5 51.5t33.5 121.5q0 75 -33.5 122.5t-89.5 51.5zM259 64v424q30 3 38 3h16h17q110 0 178 -70t68 -184q0 -107 -61.5 -176.5t-158.5 -73.5v-184h-97v184q-98 4 -159 74t-61 179q0 140 111 216l45 -55q-59 -62 -59 -162q0 -76 33.5 -123t89.5 -52z "/>
<glyph glyph-name="chi" horiz-adv-x="442" unicode="χ" d="M269 170l180 -367h-113l-119 258l-118 -258h-106l177 359l-153 313h113l92 -209l94 209h103z"/>
<glyph glyph-name="psi" horiz-adv-x="618" unicode="ψ" d="M358 471v-402q51 4 77 41q18 24 18 74v291h97v-287q0 -59 -13.5 -93.5t-46.5 -60.5q-51 -38 -132 -46v-185h-98v185q-81 8 -132 46q-33 26 -46.5 60.5t-13.5 93.5v287h97v-291q0 -32 5 -49t19 -33q26 -29 71 -33v402h98z"/>
<glyph glyph-name="theta1" horiz-adv-x="550" unicode="ϑ" d="M375 457q-13 79 -36 114t-63 35q-28 0 -45 -18t-17 -47q0 -44 38.5 -64t122.5 -20zM9 256h175v-111q0 -38 18 -58t52 -20q77 0 109 118q20 69 20 194h-29q-108 0 -162 31q-79 44 -79 136q0 62 42.5 100.5t111.5 38.5q171 0 209 -228h54v-78h-48q1 -8 1 -25 q0 -175 -60 -271.5t-169 -96.5q-79 0 -123.5 41.5t-44.5 115.5v7v3v14h-77v89z"/>
<glyph glyph-name="uni2002" unicode=" "/>
<glyph glyph-name="uni2003" horiz-adv-x="1000" unicode=" "/>
<glyph glyph-name="uni2009" horiz-adv-x="125" unicode=" "/>
<glyph glyph-name="endash" d="M56 288h387v-73h-387v73z" unicode="–"/>
<glyph glyph-name="emdash" horiz-adv-x="606" unicode="—" d="M0 288h606v-73h-606v73z"/>
<glyph glyph-name="quoteleft" horiz-adv-x="209" unicode="‘" d="M116 679h59q-23 -23 -40.5 -57t-19.5 -59q30 -1 46.5 -16t16.5 -40q0 -26 -19 -44t-45 -18q-31 0 -49.5 22.5t-18.5 59.5q0 70 70 152z"/>
<glyph glyph-name="quotesinglbase" horiz-adv-x="216" unicode="‚" d="M100 -115h-59q24 25 41 58t19 58q-30 1 -46.5 16t-16.5 41t18.5 44t45.5 18q31 0 49.5 -22.5t18.5 -59.5q0 -71 -70 -153z"/>
<glyph glyph-name="quotedblleft" horiz-adv-x="374" unicode="“" d="M116 679h59q-23 -23 -40.5 -57t-19.5 -59q30 -1 46.5 -16t16.5 -40q0 -26 -19 -44t-45 -18q-31 0 -49.5 22.5t-18.5 59.5q0 70 70 152zM280 679h59q-23 -24 -40.5 -57.5t-18.5 -58.5q30 -1 46.5 -16t16.5 -40q0 -26 -19 -44t-46 -18q-30 0 -49 22.5t-19 59.5q0 68 70 152 z"/>
<glyph glyph-name="quotedblright" horiz-adv-x="378" unicode="”" d="M262 444h-58q23 26 40 58.5t19 57.5q-30 1 -46.5 16t-16.5 41t18.5 44t45.5 18q31 0 49.5 -22.5t18.5 -59.5q0 -70 -70 -153zM93 444h-59q24 26 41 58.5t19 57.5q-30 1 -46.5 16t-16.5 41t18.5 44t45.5 18q31 0 49.5 -22.5t18.5 -60.5q0 -69 -70 -152z"/>
<glyph glyph-name="dagger" d="M204 650h94v-181h158v-78h-158v-523h-94v523h-159v78h159v181z" unicode="†"/>
<glyph glyph-name="daggerdbl" d="M203 650h92v-101h161v-78h-161v-400h161v-78h-161v-125h-92v125h-159v78h159v400h-159v78h159v101z" unicode="‡"/>
<glyph glyph-name="ellipsis" horiz-adv-x="704" unicode="…" d="M578 126q28 0 47.5 -20t19.5 -48t-20 -47.5t-48 -19.5t-47.5 19.5t-19.5 47.5t20 48t48 20zM352 126q28 0 47.5 -20t19.5 -48t-20 -47.5t-48 -19.5t-47.5 19.5t-19.5 47.5t20 48t48 20zM127 126q28 0 47.5 -20t19.5 -48t-20 -47.5t-48 -19.5t-47.5 19.5t-19.5 47.5 t19.5 48t48.5 20z"/>
<glyph glyph-name="perthousand" horiz-adv-x="962" unicode="‰" d="M163 612q-30 0 -48.5 -28t-18.5 -72q0 -45 18.5 -73t47.5 -28t47.5 28t18.5 73q0 44 -18.5 72t-46.5 28zM163 672q55 0 94 -46.5t39 -113.5q0 -68 -39 -114.5t-95 -46.5t-95 46.5t-39 114.5t39 114t96 46zM800 256q-30 0 -48.5 -28t-18.5 -72q0 -45 18.5 -73t47.5 -28 t47.5 28t18.5 73q0 44 -18.5 72t-46.5 28zM800 316q55 0 94 -46.5t39 -113.5q0 -68 -39 -114.5t-95 -46.5t-95 46.5t-39 114.5t39 114t96 46zM485 256q-30 0 -48.5 -28t-18.5 -72q0 -45 18.5 -73t48.5 -28q29 0 47.5 28t18.5 73q0 44 -18.5 72t-47.5 28zM486 316 q55 0 94 -46.5t39 -113.5q0 -68 -39 -114.5t-95 -46.5q-57 0 -96 46.5t-39 114.5t39 114t97 46zM475 667h85l-389 -667h-84z"/>
<glyph glyph-name="guilsinglleft" horiz-adv-x="274" unicode="‹" d="M214 0h-84l-100 233l100 243h84l-84 -243z"/>
<glyph glyph-name="guilsinglright" horiz-adv-x="274" unicode="›" d="M60 476h84l100 -232l-100 -244h-84l84 244z"/>
<glyph glyph-name="uni203E" d="M0 876h500v-89h-500v89z" unicode="‾"/>
<glyph glyph-name="fraction" horiz-adv-x="111" unicode="⁄" d="M204 650h80l-378 -650h-80z"/>
<glyph glyph-name="Euro" horiz-adv-x="558" unicode="€" d="M205 420h281l-28 -62h-260q-1 -11 -1 -33q0 -18 1 -28h232l-28 -62h-196q9 -84 45.5 -122t108.5 -38q66 0 110 28t82 94v-131q-46 -41 -94.5 -59t-115.5 -18q-135 0 -198 102q-32 53 -42 144h-87l27 62h54q-1 8 -1 21q0 26 2 40h-78l27 62h57q44 255 251 255 q132 0 207 -89l-42 -93q-38 53 -75 75.5t-87 22.5q-87 0 -126 -79q-13 -25 -26 -92z"/>
<glyph glyph-name="trademark" horiz-adv-x="806" unicode="™" d="M343 667h97l113 -322l114 322h97v-400h-65v314l-111 -314h-70l-111 313v-313h-64v400zM7 667h287v-58h-108v-342h-70v342h-109v58z"/>
<glyph glyph-name="arrowleft" horiz-adv-x="667" unicode="←" d="M653 363v-51h-500q15 -19 33.5 -56t18.5 -48q0 -14 -15 -14q-8 0 -22 17q-47 55 -132 103q-23 13 -23 21q0 10 16 19q61 36 86.5 56.5t58.5 59.5q8 9 16 9q15 0 15 -15q0 -29 -52 -101h500z"/>
<glyph glyph-name="arrowup" horiz-adv-x="667" unicode="↑" d="M360 13h-51v501q-19 -16 -56 -34.5t-48 -18.5q-14 0 -14 15q0 8 17 23q55 46 103 132q13 23 21 23q10 0 19 -17q38 -62 58 -87.5t58 -57.5q9 -8 9 -16q0 -15 -15 -15q-12 0 -42 15.5t-59 37.5v-501z"/>
<glyph glyph-name="arrowright" horiz-adv-x="667" unicode="→" d="M13 310v51h500q-15 20 -33.5 57t-18.5 48q0 14 15 14q8 0 22 -17q48 -57 132 -104q23 -13 23 -21q0 -10 -16 -19q-62 -38 -87.5 -58t-57.5 -58q-9 -9 -16 -9q-15 0 -15 15q0 29 52 101h-500z"/>
<glyph glyph-name="arrowdown" horiz-adv-x="667" unicode="↓" d="M307 653h51v-500q19 16 56 34t48 18q14 0 14 -15q0 -8 -17 -22q-55 -47 -103 -132q-13 -23 -21 -23q-10 0 -19 16q-37 62 -57 87t-59 58q-9 8 -9 16q0 15 15 15q27 0 101 -52v500z"/>
<glyph glyph-name="partialdiff" d="M252 361q-54 0 -91 -43t-37 -106q0 -62 37 -105t89 -43q53 0 89 44.5t36 108.5q0 62 -35 103t-88 41zM75 582l12 86q90 -10 151 -35t111 -71q126 -115 126 -306q0 -121 -62 -193.5t-164 -72.5q-93 0 -159 66.5t-66 160.5q0 91 60 154t147 63q44 0 74.5 -13.5t61.5 -47.5 q-32 88 -107.5 142t-184.5 67z" unicode="∂"/>
<glyph glyph-name="emptyset" horiz-adv-x="618" unicode="∅" d="M202 194l167 330q-28 9 -59 9q-78 0 -132.5 -54.5t-54.5 -131.5q0 -94 79 -153zM417 499l-166 -330q33 -9 58 -9q78 0 132.5 54.5t54.5 132.5q0 95 -79 152zM496 655l-53 -105q109 -75 109 -203q0 -101 -71 -172t-172 -71q-43 0 -84 15l-53 -106l-49 25l53 106 q-52 35 -80.5 88.5t-28.5 114.5q0 101 71 171.5t172 70.5q43 0 85 -15l53 106z"/>
<glyph glyph-name="product" horiz-adv-x="714" unicode="∏" d="M38 750h638v-92h-82v-816h82v-92h-261v92h81v816h-279v-816h81v-92h-260v92h81v816h-81v92z"/>
<glyph glyph-name="summation" horiz-adv-x="667" unicode="∑" d="M608 750v-239h-89l-9 147h-374l251 -390l-251 -426h383l6 145h92v-237h-592v102l246 416l-246 381v101h583z"/>
<glyph glyph-name="minus" horiz-adv-x="553" unicode="−" d="M50 372h453v-75h-453v75z"/>
<glyph glyph-name="radical" horiz-adv-x="667" unicode="√" d="M667 830v-92h-188l-193 -738h-127l-71 286h-88v92h169l28 -111q8 -28 22 -142h8q27 166 67 320l100 385h273z"/>
<glyph glyph-name="infinity" horiz-adv-x="667" unicode="∞" d="M285 340q-48 75 -98 75q-31 0 -51.5 -21t-20.5 -53q0 -31 21 -53t51 -22q27 0 49 16.5t49 57.5zM383 340q47 -74 98 -74q30 0 50.5 21.5t20.5 52.5q0 32 -20.5 53t-51.5 21q-27 0 -48 -16t-49 -58zM336 276q-71 -93 -161 -93q-69 0 -113 44t-44 114q0 69 44.5 113 t112.5 44q90 0 157 -93q68 93 161 93q69 0 112.5 -44t43.5 -114q0 -69 -43.5 -113.5t-111.5 -44.5q-91 0 -158 94z"/>
<glyph glyph-name="intersection" horiz-adv-x="619" unicode="∩" d="M569 0h-98v305q0 93 -5.5 134t-21.5 67q-20 34 -56.5 53.5t-77.5 19.5q-44 0 -82.5 -22.5t-56.5 -59.5q-22 -45 -22 -192v-305h-98v303q0 127 8.5 174.5t37.5 87.5q74 102 213 102q74 0 133 -31.5t93 -88.5q20 -35 26.5 -82t6.5 -162v-303z"/>
<glyph glyph-name="union" horiz-adv-x="619" unicode="∪" d="M51 667h98v-305q0 -92 5.5 -133.5t21.5 -67.5q20 -33 56.5 -52.5t77.5 -19.5q44 0 82.5 22.5t56.5 59.5q22 43 22 191v305h98v-302q0 -127 -8 -175t-37 -88q-76 -102 -214 -102q-73 0 -132 31.5t-93 88.5q-21 35 -27.5 82t-6.5 163v302z"/>
<glyph glyph-name="similar" d="M64 257l-56 36q29 67 62.5 96.5t80.5 29.5q38 0 109 -30q67 -28 92 -28q27 0 44 12.5t38 47.5l57 -34q-32 -66 -63 -90q-40 -31 -89 -31q-31 0 -142 45q-31 13 -53 13q-25 0 -42.5 -15t-37.5 -52z" unicode="∼"/>
<glyph glyph-name="approxequal" d="M64 165l-56 36q30 68 63 97t80 29q38 0 109 -30q68 -28 92 -28q27 0 44 12.5t38 47.5l57 -34q-32 -66 -63 -90q-40 -31 -88 -31q-32 0 -143 45q-29 13 -53 13q-25 0 -42.5 -15t-37.5 -52zM64 348l-56 36q30 68 63 97t81 29q37 0 108 -31q45 -19 59.5 -23.5t32.5 -4.5 q27 0 44 13t38 48l57 -34q-31 -65 -63 -90q-40 -32 -89 -32q-31 0 -142 46q-31 13 -54 13q-24 0 -41.5 -15t-37.5 -52z" unicode="≈"/>
<glyph glyph-name="notequal" d="M267 467l55 110l64 -30l-39 -80h120v-88h-160l-40 -81h200v-88h-240l-52 -106l-65 30l37 76h-114v88h154l40 81h-194v88h234z" unicode="≠"/>
<glyph glyph-name="equivalence" d="M33 230h433v-88h-433v88zM33 382h433v-88h-433v88zM33 535h433v-89h-433v89z" unicode="≡"/>
<glyph glyph-name="lessequal" d="M466 124v-92h-433v92h433zM466 636v-93l-329 -149l329 -148v-93l-433 198v84z" unicode="≤"/>
<glyph glyph-name="greaterequal" d="M33 32v92h433v-92h-433zM33 153v93l329 149l-329 148v93l433 -201v-84z" unicode="≥"/>
<glyph glyph-name="dotmath" horiz-adv-x="253" unicode="⋅" d="M127 318q28 0 47.5 -20t19.5 -48t-19.5 -47.5t-47.5 -19.5t-48 19.5t-20 47.5t19.5 48t48.5 20z"/>
<glyph glyph-name="lozenge" horiz-adv-x="667" unicode="◊" d="M334 604l-197 -270l197 -271l197 271zM334 693l259 -359l-259 -360l-260 360z"/>
<glyph glyph-name="spade" horiz-adv-x="667" unicode="♠" d="M108 0v18q70 14 102 29t63 49q52 60 56 159q-12 -26 -13 -28q-20 -33 -56 -53.5t-76 -20.5q-49 0 -84.5 37t-35.5 88q0 81 104 169q142 115 164 239q26 -80 51.5 -117t99.5 -105q73 -67 97 -103.5t24 -83.5q0 -52 -35.5 -87.5t-86.5 -35.5q-84 0 -140 101 q6 -108 58.5 -163t167.5 -74v-18h-460z"/>
<glyph glyph-name="club" horiz-adv-x="667" unicode="♣" d="M561 0h-455v18q113 16 167 78.5t54 177.5q-22 -38 -34 -52q-27 -35 -66.5 -55t-79.5 -20q-59 0 -101.5 44.5t-42.5 107.5q0 62 38.5 104.5t93.5 42.5q19 0 33 -4.5t53 -24.5q-35 53 -35 100q0 59 43.5 101t104.5 42t104 -42t43 -101q0 -47 -35 -100q40 20 53 24.5t33 4.5 q55 0 93.5 -42.5t38.5 -104.5q0 -64 -42.5 -108t-103.5 -44q-37 0 -76 19t-64 50q-17 21 -38 58q2 -65 15 -106t44 -76q32 -32 62.5 -46.5t99.5 -27.5v-18z"/>
<glyph glyph-name="heart" horiz-adv-x="667" unicode="♥" d="M332 -11q-16 67 -52 128.5t-134 192.5q-54 74 -72 113t-18 82q0 56 37.5 95t91.5 39q76 0 120 -68q13 -19 27 -62q37 131 147 131q55 0 93.5 -38.5t38.5 -92.5q0 -50 -24 -100.5t-86 -128.5q-143 -179 -169 -291z"/>
<glyph glyph-name="diamond" horiz-adv-x="667" unicode="♦" d="M333 693q22 -47 111.5 -173t142.5 -186q-71 -85 -141.5 -184.5t-112.5 -175.5q-71 135 -253 360q180 226 253 359z"/>
</font>
</defs>
</svg>
