<?xml version="1.0" encoding="UTF-8" standalone="no"?>
<!DOCTYPE svg  PUBLIC '-//W3C//DTD SVG 1.1//EN'  'http://www.w3.org/Graphics/SVG/1.1/DTD/svg11.dtd'>
<svg xmlns="http://www.w3.org/2000/svg">
<defs>
<font id="CorporateACon-Reg" horiz-adv-x="428">
<font-face underline-position="-69" font-weight="400" descent="-200" panose-1="0 0 5 6 0 0 0 0 0 0" units-per-em="1000" unicode-range="U+0020-2666" font-stretch="condensed" bbox="-144 -233 712 873" x-height="472" underline-thickness="38" font-family="CorporateACon" ascent="800" cap-height="670"/>
<missing-glyph horiz-adv-x="1000"/>
<glyph glyph-name=".notdef" horiz-adv-x="1000"/>
<glyph glyph-name=".null" horiz-adv-x="0"/>
<glyph glyph-name="nonmarkingreturn" horiz-adv-x="333"/>
<glyph glyph-name="space" horiz-adv-x="210" unicode=" "/>
<glyph glyph-name="exclam" horiz-adv-x="212" unicode="!" d="M108 90q20 0 34 -14t14 -34t-14 -34.5t-34 -14.5t-34.5 14.5t-14.5 34.5t14.5 34t34.5 14zM86 200l-14 454h69l-15 -454h-40z"/>
<glyph glyph-name="quotedbl" horiz-adv-x="312" unicode='&quot;' d="M234 399h-44l-8 268h61zM122 399h-43l-9 268h61z"/>
<glyph glyph-name="numbersign" horiz-adv-x="496" unicode="#" d="M315 413h-116l-18 -147h116zM437 266l-7 -54h-90l-27 -212h-50l27 212h-116l-27 -212h-50l27 212h-90l7 54h90l18 147h-90l7 54h90l26 200h50l-26 -200h116l25 200h50l-25 -200h90l-7 -54h-90l-18 -147h90z"/>
<glyph glyph-name="dollar" d="M226 291v-270q44 7 69.5 42.5t25.5 90.5q0 49 -21 79.5t-74 57.5zM199 403v242q-40 -7 -63 -40t-23 -83q0 -41 18.5 -66.5t67.5 -52.5zM199 -90v80q-63 6 -112 58l-30 -63h-13v217h19q10 -83 45 -130t91 -51v285q-84 45 -110 74q-38 43 -38 116q0 77 40.5 126.5 t107.5 54.5v80h27v-80q59 -6 94 -53l24 56h13v-185h-19q-13 73 -40 109.5t-72 41.5v-259q12 -8 30 -19q74 -43 101 -83t27 -106q0 -80 -44 -132.5t-114 -56.5v-80h-27z" unicode="$"/>
<glyph glyph-name="percent" horiz-adv-x="496" unicode="%" d="M361 290q-53 0 -53 -138q0 -134 52 -134t52 136t-51 136zM362 314q46 0 74.5 -44t28.5 -115t-29.5 -116t-76.5 -45q-46 0 -75 45t-29 116q0 69 30.5 114t76.5 45zM75 0l313 667h33l-313 -667h-33zM137 649q-25 0 -39 -34.5t-14 -95.5q0 -142 52 -142t52 135 q0 137 -51 137zM138 673q46 0 74.5 -44t28.5 -115q0 -70 -29.5 -115.5t-75.5 -45.5q-47 0 -76 44.5t-29 117.5q0 68 30.5 113t76.5 45z"/>
<glyph glyph-name="ampersand" horiz-adv-x="482" unicode="&amp;" d="M313 80l-138 235q-41 -38 -58 -71.5t-17 -79.5q0 -62 30.5 -100.5t79.5 -38.5q48 0 103 55zM190 412q38 43 53 72t15 63q0 36 -16 59t-40 23q-26 0 -44 -24.5t-18 -60.5q0 -50 50 -132zM222 358l131 -223q30 54 30 110q0 18 -9 25t-33 9v29q31 -5 58 -5q28 0 59 5v-29 q-28 -2 -35.5 -9.5t-11.5 -37.5q-7 -75 -38 -130l21 -38q19 -32 29 -38.5t40 -8.5v-20q-31 4 -51 4q-21 0 -50 -4l-30 54q-35 -34 -64.5 -48t-66.5 -14q-74 0 -121.5 50.5t-47.5 129.5q0 56 25 100t88 98q-38 70 -48 96t-10 58q0 58 33.5 96.5t83.5 38.5q46 0 75 -34.5 t29 -89.5q0 -43 -18.5 -80.5t-67.5 -93.5z"/>
<glyph glyph-name="quotesingle" horiz-adv-x="200" unicode="&apos;" d="M122 399h-43l-9 268h61z"/>
<glyph glyph-name="parenleft" horiz-adv-x="257" unicode="(" d="M181 683h26q-74 -183 -74 -447q0 -263 74 -447h-26q-118 174 -118 447q0 272 118 447z"/>
<glyph glyph-name="parenright" horiz-adv-x="257" unicode=")" d="M76 -211h-26q74 183 74 447t-74 447h26q118 -173 118 -447q0 -273 -118 -447z"/>
<glyph glyph-name="asterisk" d="M214 468l-57 -100l-34 31l62 92l-91 30l13 49l89 -38l-4 115h44l-4 -115l90 38l13 -49l-92 -30l62 -92l-33 -31z" unicode="*"/>
<glyph glyph-name="plus" d="M48 308v59h139v175h54v-175h140v-59h-140v-175h-54v175h-139z" unicode="+"/>
<glyph glyph-name="comma" horiz-adv-x="197" unicode="," d="M75 -167h-40q26 33 46.5 81t22.5 82h-3q-3 -2 -7 -2q-18 0 -29 14t-11 36q0 24 13.5 39.5t33.5 15.5q22 0 35 -18t13 -48q0 -88 -74 -200z"/>
<glyph glyph-name="hyphen" horiz-adv-x="215" unicode="-" d="M5 245v45h205v-45h-205z"/>
<glyph glyph-name="period" horiz-adv-x="197" unicode="." d="M101 92q19 0 33.5 -14t14.5 -34t-14 -34.5t-34 -14.5t-34.5 14.5t-14.5 34.5t14.5 34t34.5 14z"/>
<glyph glyph-name="slash" horiz-adv-x="333" unicode="/" d="M-64 -194l339 861h44l-339 -861h-44z"/>
<glyph glyph-name="zero" d="M215 632q-44 0 -68.5 -77t-24.5 -215q0 -320 94 -320q44 0 67.5 77t23.5 223q0 186 -32 257q-24 55 -60 55zM216 661q54 0 95 -45q31 -34 51 -116t20 -174q0 -169 -52 -262q-41 -73 -115 -73q-82 0 -125 90t-43 260q0 95 22.5 173t60.5 112q38 35 86 35z" unicode="0"/>
<glyph glyph-name="one" d="M256 683v-595q0 -40 10.5 -51.5t52.5 -15.5v-24q-48 6 -99 6t-99 -6v24q42 4 52.5 15.5t10.5 51.5v459h-87v24q50 4 86.5 34t48.5 78h24z" unicode="1"/>
<glyph glyph-name="two" d="M363 70l-8 -70h-299v56q125 183 189 308q37 72 37 137q0 47 -23.5 75.5t-61.5 28.5q-91 0 -105 -139h-26q5 86 33 133q38 62 118 62q62 0 101.5 -42.5t39.5 -109.5q0 -61 -42 -138.5t-196 -300.5h243z" unicode="2"/>
<glyph glyph-name="three" d="M50 185h28q6 -143 105 -143q52 0 82 39.5t30 106.5q0 81 -38 116q-29 27 -92 27h-6v35q60 1 86 31q31 39 31 98q0 53 -22.5 84t-62.5 31q-83 0 -102 -123h-25q14 174 144 174q64 0 102.5 -43t38.5 -114q0 -113 -103 -150q124 -35 124 -168q0 -85 -47.5 -140t-120.5 -55 q-72 0 -112 51t-40 143z" unicode="3"/>
<glyph glyph-name="four" d="M237 236v370l-159 -370h159zM236 -15v188h-216l217 495h71v-432h82v-63h-82v-188h-72z" unicode="4"/>
<glyph glyph-name="five" d="M337 582h-192l-38 -193q42 56 106 56q70 0 113.5 -60t43.5 -158q0 -59 -19.5 -112.5t-51.5 -83.5q-41 -40 -100 -40q-130 0 -139 166h28q11 -115 93 -115q51 0 82 50.5t31 133.5q0 79 -28.5 125t-77.5 46q-60 0 -95 -75l-31 2l57 328h225z" unicode="5"/>
<glyph glyph-name="six" d="M213 417q-88 0 -88 -202q0 -94 22.5 -144.5t64.5 -50.5t64.5 50.5t22.5 145.5q0 201 -86 201zM298 693h41q-50 -58 -97.5 -129.5t-72.5 -126.5q31 13 57 13q66 0 108.5 -63.5t42.5 -161.5q0 -103 -46 -168.5t-117 -65.5q-73 0 -119.5 65t-46.5 167q0 127 90 268 q64 101 160 202z" unicode="6"/>
<glyph glyph-name="seven" horiz-adv-x="429" unicode="7" d="M83 0l232 579h-266v73h330l-231 -652h-65z"/>
<glyph glyph-name="eight" d="M216 632q-35 0 -54 -37.5t-19 -104.5q0 -64 18.5 -99.5t52.5 -35.5q33 0 52 36.5t19 99.5q0 67 -18 104t-51 37zM216 326q-38 0 -61.5 -40.5t-23.5 -107.5q0 -73 22.5 -115.5t60.5 -42.5t61 42.5t23 113.5q0 69 -22 109.5t-60 40.5zM279 342q92 -40 92 -160 q0 -86 -43 -138.5t-114 -52.5t-113.5 51.5t-42.5 137.5q0 113 90 162q-78 42 -78 147q0 76 41 124t106 48q64 0 102.5 -46.5t38.5 -122.5q0 -105 -79 -150z" unicode="8"/>
<glyph glyph-name="nine" d="M218 632q-83 0 -83 -189q0 -208 82 -208q83 0 83 191q0 206 -82 206zM140 -42h-41q47 56 92 129t69 129q-29 -14 -56 -14q-63 0 -104 64t-41 162q0 102 43.5 167.5t111.5 65.5q71 0 115.5 -65t44.5 -169q0 -125 -83 -265q-73 -118 -151 -204z" unicode="9"/>
<glyph glyph-name="colon" horiz-adv-x="197" unicode=":" d="M98 89q20 0 34 -14.5t14 -33.5q0 -20 -14 -34.5t-34 -14.5t-34.5 14.5t-14.5 34.5t14.5 34t34.5 14zM101 424q19 0 33.5 -14t14.5 -34t-14 -34.5t-34 -14.5t-34.5 14.5t-14.5 34.5t14.5 34t34.5 14z"/>
<glyph glyph-name="semicolon" horiz-adv-x="198" unicode=";" d="M101 425q19 0 33.5 -14.5t14.5 -33.5q0 -20 -14 -34.5t-34 -14.5t-34.5 14.5t-14.5 34.5t14.5 34t34.5 14zM75 -167h-40q26 33 46.5 81t22.5 82h-3q-3 -2 -7 -2q-18 0 -29 14t-11 36q0 24 13.5 39.5t33.5 15.5q22 0 35 -18t13 -48q0 -88 -74 -200z"/>
<glyph glyph-name="less" horiz-adv-x="410" unicode="&lt;" d="M370 610v-34l-256 -209l256 -214v-91l-330 276v6z"/>
<glyph glyph-name="equal" d="M48 242v59h333v-59h-333zM48 373v59h333v-59h-333z" unicode="="/>
<glyph glyph-name="greater" horiz-adv-x="410" unicode="&gt;" d="M40 62v35l256 209l-256 213v91l330 -275v-6z"/>
<glyph glyph-name="question" horiz-adv-x="316" unicode="?" d="M140 90q20 0 34 -14t14 -34t-14 -34.5t-34 -14.5t-34.5 14.5t-14.5 34.5t14.5 34t34.5 14zM151 191h-34q-3 36 -3 53q0 69 27 114q7 11 37 52q43 57 43 108q0 40 -19.5 63t-51.5 23q-41 0 -64.5 -30.5t-27.5 -87.5h-22q0 84 35.5 129.5t100.5 45.5q55 0 88 -39t33 -104 q0 -45 -16 -77.5t-59 -75.5q-40 -40 -53 -71.5t-14 -91.5v-11z"/>
<glyph glyph-name="at" horiz-adv-x="579" unicode="@" d="M300 440q-40 0 -75.5 -71.5t-35.5 -151.5q0 -38 15 -63.5t38 -25.5q32 0 55 42q20 40 34 94.5t14 96.5q0 79 -45 79zM507 137h40q-20 -41 -38.5 -65t-48.5 -48q-70 -54 -152 -54q-124 0 -209.5 92.5t-85.5 227.5q0 136 84 228t207 92q67 0 125.5 -29.5t95.5 -82.5 q40 -56 40 -139q0 -104 -61 -182q-26 -34 -60.5 -55t-64.5 -21q-26 0 -40 17t-19 56q-24 -38 -44 -53t-45 -15q-45 0 -74 39t-29 100q0 86 50 151.5t116 65.5q54 0 66 -70l13 62h55l-57 -263q-4 -16 -4 -32q0 -14 7 -24t17 -10q20 0 46.5 21t44.5 52q47 78 47 164 q0 88 -65.5 149t-158.5 61q-109 0 -181 -79.5t-72 -200.5q0 -122 73 -204.5t181 -82.5q126 0 201 132z"/>
<glyph glyph-name="A" horiz-adv-x="524" unicode="A" d="M159 224h165l-76 297zM150 193l-28 -94q-9 -30 -9 -48q0 -14 11.5 -21t40.5 -9v-24q-43 5 -76 5t-76 -5v24q37 3 49 14.5t26 55.5l184 597l166 -608q11 -35 23.5 -45t49.5 -14v-24q-56 8 -97 8q-42 0 -98 -8v24q48 5 48 30q0 11 -5 34l-27 108h-182z"/>
<glyph glyph-name="B" horiz-adv-x="468" unicode="B" d="M168 333v-251q0 -32 9 -41.5t39 -9.5h18q55 0 84.5 41t29.5 117q0 85 -38 121q-25 23 -79 23h-63zM168 364h42q37 0 58 10t35 34q20 34 20 94q0 84 -33 114q-22 20 -67 20h-55v-272zM31 667h207q86 0 123 -45q40 -48 40 -117q0 -107 -94 -149q57 -13 88 -56.5t31 -108.5 q0 -55 -23.5 -100.5t-63.5 -68.5q-39 -22 -109 -22h-199v24q41 5 52 16t11 50v486q0 40 -11 51t-52 15v25z"/>
<glyph glyph-name="C" horiz-adv-x="490" unicode="C" d="M406 225h29q-4 -112 -50.5 -175t-125.5 -63q-96 0 -154.5 94.5t-58.5 250.5q0 158 59 252.5t158 94.5q76 0 123 -58l27 56h16v-196h-20q-17 85 -50 125.5t-87 40.5q-71 0 -109 -80.5t-38 -232.5q0 -144 38.5 -223t108.5 -79q59 0 94.5 51t39.5 142z"/>
<glyph glyph-name="D" horiz-adv-x="518" unicode="D" d="M165 636v-555q0 -33 9 -42.5t40 -9.5q97 0 138 75q46 82 46 231q0 145 -46 227q-41 74 -134 74h-53zM27 642v25h194q72 0 120 -27t82 -86q53 -97 53 -220q0 -84 -26 -159.5t-69 -116.5q-61 -58 -160 -58h-194v24q41 5 52 16t11 51v485q0 40 -11 51t-52 15z"/>
<glyph glyph-name="E" horiz-adv-x="445" unicode="E" d="M402 161l-19 -161h-352v25q41 4 52 15t11 51v485q0 39 -11 50.5t-52 15.5v25h348l14 -150h-19q-15 72 -33.5 95.5t-59.5 23.5h-112v-274h111q26 0 35 15.5t11 66.5h20v-196h-20q-2 50 -12 66.5t-38 16.5h-107v-241q0 -35 10.5 -47t41.5 -12h55q49 0 67 25q24 33 40 105 h19z"/>
<glyph glyph-name="F" horiz-adv-x="426" unicode="F" d="M172 331v-243q0 -40 10.5 -51.5t51.5 -15.5v-24q-61 8 -99 8t-101 -8v24q42 4 52.5 15.5t10.5 51.5v488q0 39 -11 50.5t-52 15.5v25h348l14 -150h-19q-15 71 -34 95t-60 24h-111v-274h110q24 0 32 11q12 18 15 71h20v-196h-20q-2 50 -12.5 66.5t-39.5 16.5h-105z"/>
<glyph glyph-name="G" horiz-adv-x="515" unicode="G" d="M386 622l29 57h16v-198h-20q-19 87 -52.5 127t-87.5 40q-149 0 -149 -319q0 -152 37.5 -231.5t109.5 -79.5q49 0 101 34v173q0 28 -10.5 37t-48.5 13v24q48 -6 91 -6q42 0 90 6v-24q-36 -5 -44.5 -13t-8.5 -39v-165q-53 -38 -92 -53.5t-81 -15.5q-103 0 -163 93t-60 253 q0 157 59.5 250.5t159.5 93.5q74 0 124 -57z"/>
<glyph glyph-name="H" horiz-adv-x="552" unicode="H" d="M168 363h217v216q0 40 -10.5 51.5t-51.5 15.5v24q66 -7 100 -7q33 0 99 7v-24q-42 -4 -52.5 -15.5t-10.5 -51.5v-491q0 -40 10.5 -51.5t52.5 -15.5v-24q-63 8 -99 8t-100 -8v24q41 4 51.5 15.5t10.5 51.5v244h-217v-244q0 -40 10.5 -51.5t51.5 -15.5v-24q-64 8 -100 8 t-99 -8v24q42 4 52.5 15.5t10.5 51.5v491q0 40 -10.5 51.5t-52.5 15.5v24q66 -7 99 -7q34 0 100 7v-24q-41 -4 -51.5 -15.5t-10.5 -51.5v-216z"/>
<glyph glyph-name="I" horiz-adv-x="261" unicode="I" d="M231 21v-24q-64 8 -99 8q-36 0 -101 -8v24q42 4 52.5 15.5t10.5 51.5v491q0 40 -11 51t-52 16v24q67 -7 101 -7q33 0 99 7v-24q-41 -5 -51.5 -16t-10.5 -51v-491q0 -40 10.5 -51.5t51.5 -15.5z"/>
<glyph glyph-name="J" horiz-adv-x="259" unicode="J" d="M0 -69v30q8 -1 16 -1q44 0 60.5 27t16.5 98v494q0 40 -10.5 51.5t-51.5 15.5v24q66 -7 100 -7q33 0 99 7v-24q-41 -5 -51.5 -16t-10.5 -51v-459q0 -86 -23 -127q-35 -63 -117 -63q-15 0 -28 1z"/>
<glyph glyph-name="K" horiz-adv-x="520" unicode="K" d="M241 404l176 -318q22 -38 38.5 -50.5t49.5 -14.5v-24q-60 8 -104 8t-104 -8v24q12 2 13 2q42 4 42 24q0 10 -14 36l-140 263l-32 -45v-213q0 -40 10 -51.5t50 -15.5v-24q-55 8 -94 8q-40 0 -101 -8v24q41 5 52 16t11 51v491q0 40 -11 51.5t-52 15.5v24q67 -7 101 -7t96 7 v-24q-41 -5 -51.5 -16t-10.5 -51v-231l179 251q10 15 10 26q0 17 -36 20q-7 0 -13 1v24q45 -5 82 -5t82 5v-24q-35 -2 -53 -12.5t-41 -40.5z"/>
<glyph glyph-name="L" horiz-adv-x="414" unicode="L" d="M402 161l-18 -161h-353v25q41 4 52 15.5t11 50.5v488q0 40 -11 51t-52 16v24q67 -7 101 -7q33 0 99 7v-24q-41 -5 -51.5 -16t-10.5 -51v-486q0 -35 10.5 -47t39.5 -12h56q50 0 68 25q26 36 40 102h19z"/>
<glyph glyph-name="M" horiz-adv-x="667" unicode="M" d="M143 595l-17 -507v-9q0 -32 12 -42.5t54 -14.5v-25q-49 5 -80 5t-82 -5v25h9q36 4 45.5 15t11.5 51l17 491v6q0 35 -12.5 46t-53.5 14v25q40 -4 67 -4q41 0 78 5l147 -498l147 498q44 -5 78 -5q24 0 64 4v-24q-43 -4 -54.5 -16t-11.5 -51l8 -491q2 -40 12.5 -51t53.5 -15 v-25q-64 8 -101 8t-101 -8v25q42 2 54 14t12 50v2l-8 506l-129 -435l-40 -141h-12l-41 145z"/>
<glyph glyph-name="N" horiz-adv-x="548" unicode="N" d="M455 -20h-13q-9 18 -27 52q-3 7 -56 107l-234 438v-489q0 -40 11 -51.5t54 -15.5v-24q-55 5 -81 5q-28 0 -78 -5v24q43 4 54 15.5t11 51.5v528q-18 26 -66 30v24q42 -3 68 -3q23 0 59 3l268 -500v409q0 40 -11 51t-53 16v24q53 -5 81 -5q29 0 78 5v-24q-43 -5 -54 -16 t-11 -51v-599z"/>
<glyph glyph-name="O" horiz-adv-x="516" unicode="O" d="M258 652q-64 0 -100 -83t-36 -231q0 -153 36 -237.5t101 -84.5q63 0 98 83.5t35 232.5q0 153 -35 236.5t-99 83.5zM257 680q100 0 157.5 -95t57.5 -261q0 -90 -26.5 -170.5t-68.5 -118.5q-51 -47 -118 -47q-80 0 -136 64q-36 40 -58 117t-22 163q0 159 58 253.5t156 94.5 z"/>
<glyph glyph-name="P" horiz-adv-x="446" unicode="P" d="M169 332h52q70 0 100 51q23 41 23 104q0 87 -40 125q-24 24 -78 24h-57v-304zM169 301v-213q0 -40 10.5 -51.5t51.5 -15.5v-24q-64 8 -99 8q-36 0 -101 -8v24q42 4 52.5 15.5t10.5 51.5v488q0 40 -11 51t-52 15v25h205q97 0 138 -50q45 -53 45 -133q0 -85 -46.5 -134 t-127.5 -49h-76z"/>
<glyph glyph-name="Q" horiz-adv-x="514" unicode="Q" d="M258 652q-64 0 -100 -83t-36 -230q0 -151 36 -237t100 -86q54 0 88 59q46 82 46 255q0 154 -35 238t-99 84zM520 -11h-23q-34 0 -56.5 12t-53.5 46q-53 -59 -128 -59q-81 0 -136 63q-36 40 -58 118t-22 164q0 159 58 253t156 94t156 -94.5t58 -253.5q0 -121 -42 -219 q48 -98 91 -98v-26z"/>
<glyph glyph-name="R" horiz-adv-x="487" unicode="R" d="M169 348h57q55 0 82 33q33 38 33 114q0 141 -111 141h-61v-288zM168 317v-229q0 -39 11 -51t51 -16v-24q-61 8 -98 8t-101 -8v24q42 4 52.5 15.5t10.5 51.5v488q0 40 -11 51t-52 15v25h209q91 0 133 -51q43 -49 43 -124q0 -135 -134 -169q29 -9 44 -27t30 -60l53 -157 q13 -36 24.5 -46t40.5 -12v-24q-36 3 -56 3q-19 0 -55 -3q-5 13 -22 61l-59 179q-15 47 -33 63.5t-53 16.5h-28z"/>
<glyph glyph-name="S" horiz-adv-x="425" unicode="S" d="M52 202h20q23 -180 139 -180q48 0 78.5 36t30.5 94q0 49 -23 81t-87 70q-90 53 -120 93t-30 106q0 78 42.5 126t111.5 48q63 0 104 -51l23 55h15v-184h-20q-14 78 -42 114t-74 36q-43 0 -71 -33.5t-28 -84.5q0 -45 23 -72.5t101 -75.5q81 -50 109 -91.5t28 -110.5 q0 -83 -45 -135t-116 -52q-72 0 -126 57l-28 -63h-15v217z"/>
<glyph glyph-name="T" horiz-adv-x="433" unicode="T" d="M414 514h-20q-17 75 -35 98.5t-59 23.5h-46v-548q0 -40 10.5 -51.5t51.5 -15.5v-24q-61 8 -99 8t-101 -8v24q42 4 52.5 15.5t10.5 51.5v548h-41q-41 0 -60.5 -24t-37.5 -98h-20l22 153h350z"/>
<glyph glyph-name="U" horiz-adv-x="542" unicode="U" d="M357 646v24q53 -5 81 -5q30 0 77 5v-24q-42 -5 -53 -16t-11 -51v-375q0 -85 -28 -133q-46 -82 -151 -82q-109 0 -157 86q-26 45 -26 125v379q0 40 -11 51t-52 16v24q67 -7 101 -7q33 0 99 7v-24q-41 -5 -51.5 -16t-10.5 -51v-387q0 -74 16 -103q31 -56 107 -56 q63 0 100 40q34 37 34 125v381q0 40 -11 51t-53 16z"/>
<glyph glyph-name="V" horiz-adv-x="523" unicode="V" d="M282 134l122 437q9 31 9 45t-12 21t-41 9v24q39 -5 73 -5q35 0 77 5v-24q-32 -3 -46.5 -15t-24.5 -44l-170 -599h-19l-165 596q-11 37 -23 47.5t-49 14.5v24q56 -7 97 -7t97 7v-24q-50 -6 -50 -29q0 -4 6 -34z"/>
<glyph glyph-name="W" horiz-adv-x="712" unicode="W" d="M231 -12h-16l-130 599q-8 33 -21 45t-44 14v24q53 -7 95 -7q41 0 94 7v-24q-30 -4 -41.5 -10.5t-11.5 -19.5q0 -6 4 -30l87 -410l122 506h18l120 -507l89 408q5 23 5 35q0 13 -11 19.5t-39 8.5v24q37 -5 71 -5t72 5v-24q-32 -2 -44.5 -12.5t-20.5 -40.5l-136 -604h-16 l-123 523z"/>
<glyph glyph-name="X" horiz-adv-x="507" unicode="X" d="M282 378l125 -292q19 -41 32 -51.5t50 -13.5v-24q-63 7 -103 7t-103 -7v24q12 2 14 2q41 5 41 25q0 16 -14 49l-85 197l-102 -205q-16 -30 -16 -44q0 -20 51 -24v-24q-42 5 -79 5t-79 -5v24q32 2 50.5 16.5t42.5 59.5l117 233l-110 255q-13 35 -27.5 46t-49.5 15v24 q56 -7 100 -7t100 7v-24q-31 -4 -42.5 -9.5t-11.5 -15.5q0 -12 9 -33l75 -174l85 169q13 26 13 39q0 20 -50 24v24q37 -5 78 -5t78 5v-24q-35 -4 -50 -14t-30 -38z"/>
<glyph glyph-name="Y" horiz-adv-x="483" unicode="Y" d="M206 291l-117 300q-13 31 -26.5 41t-46.5 14v24q57 -7 100 -7q41 0 100 7v-24q-31 -3 -43 -8.5t-12 -17.5q0 -11 7 -32l101 -256l98 257q8 21 8 31q0 12 -11.5 17.5t-42.5 8.5v24q43 -5 75 -5q33 0 74 5v-24q-34 -5 -47 -15t-25 -39l-117 -301v-203q0 -40 10.5 -51.5 t51.5 -15.5v-24q-64 8 -100 8q-35 0 -100 -8v24q42 4 52.5 15.5t10.5 51.5v203z"/>
<glyph glyph-name="Z" horiz-adv-x="440" unicode="Z" d="M30 0l286 636h-130q-45 0 -66.5 -24.5t-36.5 -92.5h-21l21 148h326l-286 -636h147q54 0 72 23q26 33 48 108h20l-23 -162h-357z"/>
<glyph glyph-name="bracketleft" horiz-adv-x="257" unicode="[" d="M230 637h-76v-801h76v-30h-139v861h139v-30z"/>
<glyph glyph-name="backslash" horiz-adv-x="333" unicode="\" d="M396 -194h-44l-339 861h44z"/>
<glyph glyph-name="bracketright" horiz-adv-x="257" unicode="]" d="M27 -164h76v801h-76v30h139v-861h-139v30z"/>
<glyph glyph-name="asciicircum" horiz-adv-x="410" unicode="^" d="M424 287h-27l-167 320l-171 -320h-73l220 413h5z"/>
<glyph glyph-name="underscore" horiz-adv-x="410" unicode="_" d="M25 -88h361v-38h-361v38z"/>
<glyph glyph-name="grave" horiz-adv-x="410" unicode="`" d="M254 551h-36l-131 147h89z"/>
<glyph glyph-name="a" horiz-adv-x="383" unicode="a" d="M241 182v86q-70 -16 -101 -50t-31 -93q0 -43 16 -67t45 -24q37 0 54 35.5t17 112.5zM361 26v-26q-28 -7 -47 -7q-56 0 -63 82q-20 -45 -43.5 -64.5t-60.5 -19.5q-49 0 -79.5 35.5t-30.5 92.5q0 77 60 119q59 43 144 56v71q0 89 -60 89q-28 0 -44.5 -15t-16.5 -40v-12 q1 -6 1 -17q0 -42 -35 -42q-29 0 -29 34q0 49 39 84t92 35q73 0 106 -60q17 -31 17 -100v-209q0 -49 6.5 -69t23.5 -20q5 0 20 3z"/>
<glyph glyph-name="b" horiz-adv-x="415" unicode="b" d="M223 453q-41 0 -64 -55.5t-23 -157.5q0 -124 24 -174q23 -47 61 -47q83 0 83 218q0 216 -81 216zM67 -11v586q0 39 -9 48.5t-44 10.5v18q65 7 123 26v-271q35 74 95 74q64 0 105 -68.5t41 -176.5t-42 -176.5t-108 -68.5q-37 0 -61.5 20.5t-40.5 65.5l-37 -88h-22z"/>
<glyph glyph-name="c" horiz-adv-x="359" unicode="c" d="M313 493v-165h-19q-20 129 -88 129q-44 0 -68 -59t-24 -168q0 -208 90 -208q71 0 85 132h32q-7 -80 -40 -122.5t-86 -42.5q-71 0 -114 67t-43 177q0 112 44 181.5t114 69.5q50 0 82 -42l20 51h15z"/>
<glyph glyph-name="d" horiz-adv-x="420" unicode="d" d="M189 450q-78 0 -78 -215q0 -219 81 -219q39 0 60.5 52.5t21.5 147.5q0 234 -85 234zM401 33v-17q-75 -12 -110 -26q-8 41 -11 78q-32 -80 -97 -80q-64 0 -105 68.5t-41 176.5t40 176.5t104 68.5q32 0 53 -16.5t39 -55.5v169q0 39 -9 48.5t-45 10.5v18q65 7 124 26v-577 q0 -43 9 -54.5t41 -13.5h8z"/>
<glyph glyph-name="e" horiz-adv-x="377" unicode="e" d="M111 283h159q-6 173 -78 173q-69 0 -81 -173zM309 154h31q-8 -78 -44.5 -121t-96.5 -43q-74 0 -118 66.5t-44 179.5q0 110 43 178t113 68q68 0 106 -61t41 -174h-231q3 -113 22 -164q24 -60 77 -60q41 0 67.5 34t33.5 97z"/>
<glyph glyph-name="f" horiz-adv-x="247" unicode="f" d="M151 472h89v-37h-89v-364q0 -32 10 -42t45 -12v-20q-50 6 -90 6t-89 -6v20q34 2 44 12t10 42v364h-52v31q37 1 46.5 11.5t10.5 51.5q2 58 14 88q27 64 97 64q36 0 58 -20.5t22 -53.5q0 -38 -32 -38q-31 0 -31 29q0 5 3 18q1 4 1 12q0 28 -22 28q-20 0 -33 -21 q-12 -21 -12 -84v-79z"/>
<glyph glyph-name="g" horiz-adv-x="404" unicode="g" d="M187 17q-59 0 -91 -22.5t-32 -62.5q0 -43 36.5 -71t92.5 -28q57 0 90.5 26t33.5 70q0 43 -33.5 65.5t-96.5 22.5zM196 456q-34 0 -53 -32t-19 -88q0 -62 18 -96t52 -34t52 33.5t18 95.5q0 58 -18 89.5t-50 31.5zM282 455h106v-40l-76 3q19 -38 19 -84q0 -77 -46 -118 q-25 -21 -77 -39l-23 -8q-40 -13 -53.5 -23t-13.5 -24q0 -17 15.5 -24.5t54.5 -8.5q62 -2 109 -19q73 -30 73 -116q0 -68 -48 -110t-126 -42q-75 0 -121 38t-46 100q0 74 77 107q-40 22 -40 58q0 55 84 82q-44 16 -68 53t-24 89q0 71 37.5 111.5t104.5 40.5q46 0 82 -26z "/>
<glyph glyph-name="h" horiz-adv-x="442" unicode="h" d="M23 634v18q62 7 123 26v-264q39 67 103 67q63 0 96 -57q20 -38 20 -108v-245q0 -32 9.5 -42t44.5 -12v-20q-48 6 -87 6q-40 0 -87 -6v20q30 2 40 12t10 40v251q0 61 -16 88.5t-52 27.5q-44 0 -66 -40q-15 -29 -15 -80v-247q0 -29 10 -40t39 -12v-20q-47 6 -86 6t-87 -6 v20q34 2 44 12t10 42v504q0 39 -9 48.5t-44 10.5z"/>
<glyph glyph-name="i" horiz-adv-x="233" unicode="i" d="M116 660q20 0 34 -14t14 -34t-14 -34.5t-34 -14.5t-34.5 14.5t-14.5 34.5t14.5 34t34.5 14zM153 489v-418q0 -32 10 -42t45 -12v-20q-53 6 -90 6t-89 -6v20q35 2 44.5 12t9.5 42v316q0 39 -8.5 48.5t-44.5 10.5v17q65 7 123 26z"/>
<glyph glyph-name="j" horiz-adv-x="231" unicode="j" d="M115 663q19 0 33.5 -14.5t14.5 -33.5q0 -20 -14 -34.5t-34 -14.5t-34.5 14.5t-14.5 34.5t14.5 34t34.5 14zM28 446v17q66 7 124 26v-476q0 -123 -52 -174q-45 -41 -111 -42v26q50 11 71.5 45t21.5 104v415q0 38 -9 48t-45 11z"/>
<glyph glyph-name="k" horiz-adv-x="437" unicode="k" d="M239 305l113 -234q17 -33 30 -43t42 -11v-20q-35 4 -56 4q-22 0 -55 -4l-116 254l-52 -68v-112q0 -31 10 -41.5t44 -12.5v-20q-49 6 -89 6q-38 0 -88 -6v20q34 2 44 12t10 42v504q0 39 -9 48.5t-44 10.5v18q62 7 123 26v-446l124 171q14 20 14 28q0 21 -44 24v20 q40 -5 76 -5t80 5v-20q-31 -3 -45.5 -11.5t-34.5 -35.5z"/>
<glyph glyph-name="l" horiz-adv-x="228" unicode="l" d="M151 678v-607q0 -32 10 -42t45 -12v-20q-53 6 -90 6t-89 -6v20q34 2 44 12t10 42v505q0 38 -9 48t-44 10v18q64 7 123 26z"/>
<glyph glyph-name="m" horiz-adv-x="647" unicode="m" d="M29 442v18q67 11 107 30q6 -37 9 -85q22 41 47 58.5t61 17.5q69 0 96 -78q22 41 48 59.5t63 18.5q57 0 83.5 -36.5t26.5 -115.5v-258q0 -32 10 -42t45 -12v-20q-48 6 -88 6t-87 -6v20q30 2 40 12t10 40v263q0 56 -14.5 79.5t-48.5 23.5q-37 0 -56.5 -29t-19.5 -83v-254 q0 -30 10 -40t40 -12v-20q-47 6 -85 6q-37 0 -84 -6v20q29 2 39 12t10 40v261q0 56 -14 80.5t-47 24.5q-42 0 -62 -37q-16 -29 -16 -86v-243q0 -30 10 -40t40 -12v-20q-47 6 -87 6q-39 0 -87 -6v20q34 2 44 12t10 42v309q0 43 -6.5 52t-36.5 10h-10z"/>
<glyph glyph-name="n" horiz-adv-x="448" unicode="n" d="M30 442v18q64 10 107 30q6 -32 9 -87q40 78 109 78q65 0 97 -57q20 -38 20 -108v-245q0 -32 10 -42t44 -12v-20q-48 6 -87 6q-40 0 -87 -6v20q30 2 40 12t10 40v251q0 61 -16 88.5t-52 27.5q-45 0 -66 -40q-15 -29 -15 -80v-247q0 -29 10 -40t39 -12v-20q-47 6 -86 6 t-87 -6v20q35 2 44.5 12t9.5 42v309q0 41 -7 51t-36 11h-10z"/>
<glyph glyph-name="o" horiz-adv-x="385" unicode="o" d="M194 458q-83 0 -83 -224q0 -219 82 -219t82 219q0 224 -81 224zM197 484q54 0 93 -44q26 -31 42.5 -87t16.5 -116q0 -109 -44 -178.5t-112 -69.5q-69 0 -112.5 69t-43.5 178t44.5 178.5t115.5 69.5z"/>
<glyph glyph-name="p" horiz-adv-x="425" unicode="p" d="M231 453q-41 0 -63.5 -55t-22.5 -157q0 -222 87 -222q82 0 82 214q0 220 -83 220zM22 447v18q61 5 106 18q7 -29 11 -84q36 82 100 82q65 0 107 -69t42 -176q0 -109 -41 -177t-106 -68q-32 0 -53.5 16t-41.5 54v-187q0 -32 10 -42t44 -12v-20q-52 6 -91 6t-87 -6v20 q34 2 44 12t10 42v513q0 44 -14 53q-7 6 -40 7z"/>
<glyph glyph-name="q" horiz-adv-x="425" unicode="q" d="M194 453q-83 0 -83 -219q0 -215 82 -215q87 0 87 221q0 213 -86 213zM403 447h-11q-26 -2 -34.5 -13.5t-8.5 -46.5v-513q0 -32 9.5 -42t43.5 -12v-20q-47 6 -86 6t-91 -6v20q35 2 44.5 12t9.5 42v187q-20 -38 -41.5 -54t-53.5 -16q-65 0 -106 68t-41 177q0 107 42 176 t107 69t100 -82q4 55 11 84q46 -13 106 -18v-18z"/>
<glyph glyph-name="r" horiz-adv-x="313" unicode="r" d="M207 17v-20q-50 6 -90 6q-39 0 -89 -6v20q34 2 44 12t10 42v313q0 39 -5 49q-8 14 -36 14h-5q-4 0 -7 -1v18q74 11 106 24q6 -38 9 -95q24 91 93 91q30 0 49 -21.5t19 -56.5q0 -23 -10 -37t-28 -14q-15 0 -24.5 9.5t-9.5 23.5q0 6 4 21q1 4 1 11q0 9 -6 15.5t-15 6.5 q-30 0 -47.5 -43t-17.5 -119v-209q0 -32 11 -42.5t44 -11.5z"/>
<glyph glyph-name="s" horiz-adv-x="351" unicode="s" d="M48 -12v167h19q20 -134 101 -134q34 0 57 25t23 62q0 30 -16.5 50.5t-56.5 41.5q-71 37 -96.5 68t-25.5 79q0 60 34 97t89 37q45 0 79 -31l13 40h15v-155h-19q-10 118 -82 118q-31 0 -51.5 -22.5t-20.5 -57.5q0 -28 16.5 -48.5t56.5 -41.5q73 -37 98.5 -67t25.5 -80 q0 -64 -36.5 -104.5t-94.5 -40.5q-53 0 -95 41l-18 -44h-15z"/>
<glyph glyph-name="t" horiz-adv-x="258" unicode="t" d="M244 50v-30q-42 -29 -77 -29q-50 0 -71.5 33.5t-21.5 111.5v14l3 285h-49v31q75 1 97 149h22v-143h90v-37h-90v-294q0 -71 11 -92q11 -19 35 -19q20 0 51 20z"/>
<glyph glyph-name="u" horiz-adv-x="440" unicode="u" d="M18 446v17q62 7 123 26v-338q0 -61 16.5 -87.5t53.5 -26.5q80 0 80 127v223q0 35 -8 47t-32 12h-8h-6v17q62 7 124 26v-400q0 -36 7.5 -45t37.5 -10h10v-18q-66 -8 -111 -26q-6 42 -6 75v13q-19 -45 -45 -65.5t-65 -20.5q-67 0 -98 55q-20 37 -20 105v235q0 35 -7.5 47 t-31.5 12h-8h-6z"/>
<glyph glyph-name="v" horiz-adv-x="398" unicode="v" d="M209 -12h-21l-124 422q-9 27 -19 35t-41 10v20q58 -6 89 -6q26 0 84 6v-20q-43 0 -43 -22q0 -7 5 -24l80 -292l85 289q6 20 6 30q0 19 -40 19v20q36 -4 62 -4q25 0 61 4v-20q-29 -2 -39.5 -11t-19.5 -38z"/>
<glyph glyph-name="w" horiz-adv-x="576" unicode="w" d="M289 350l-96 -362h-23l-102 416q-9 32 -18 40.5t-38 10.5v20q44 -5 84 -5q39 0 83 5v-20q-46 0 -46 -21q0 -3 5 -26l65 -275l95 352h24l93 -354l67 276q4 13 4 26q0 22 -43 22v20q40 -4 66 -4t59 4v-20q-26 -1 -38 -11.5t-20 -36.5l-103 -419h-23z"/>
<glyph glyph-name="x" horiz-adv-x="418" unicode="x" d="M220 304l59 104q10 22 10 29q0 17 -40 18v20q41 -4 65 -4q25 0 66 4v-20q-28 -2 -40.5 -10t-27.5 -33l-78 -137l95 -206q16 -33 28.5 -42t42.5 -10v-20q-49 6 -89 6t-87 -6v20q41 3 41 20q0 9 -8 27l-64 138l-73 -129q-13 -24 -13 -36q0 -17 42 -20v-20q-47 4 -66 4 q-11 0 -66 -4v20q27 2 40 12t34 46l88 157l-84 181q-12 24 -24.5 32.5t-38.5 9.5v20q50 -5 85 -5t83 5v-20q-37 -3 -37 -18q0 -8 8 -26z"/>
<glyph glyph-name="y" horiz-adv-x="409" unicode="y" d="M191 16l-117 392q-9 28 -20 36.5t-41 10.5v20q45 -5 85 -5q39 0 84 5v-20q-42 -4 -42 -20q0 -9 6 -28l79 -283l84 279q7 24 7 32q0 19 -46 20v20q32 -4 61 -4t70 4v-20q-27 -4 -40.5 -14.5t-20.5 -34.5l-151 -489q-18 -60 -45.5 -86.5t-70.5 -26.5q-6 0 -11 1v50h8 q36 0 58.5 20t37.5 66z"/>
<glyph glyph-name="z" horiz-adv-x="368" unicode="z" d="M32 0l214 446h-85q-38 0 -58 -22.5t-35 -81.5h-18l18 130h266l-215 -446h91q41 0 58 20q24 33 42 98h18l-21 -144h-275z"/>
<glyph glyph-name="braceleft" horiz-adv-x="257" unicode="{" d="M211 -211h-14q-54 0 -76 25.5t-22 87.5v263q0 35 -10 52.5t-37 30.5q28 13 37.5 30t9.5 53v240q0 62 21.5 87t76.5 25h14q-50 -16 -50 -89v-244q0 -43 -11 -63.5t-43 -38.5q32 -19 43 -39.5t11 -62.5v-268q0 -72 50 -89z"/>
<glyph glyph-name="bar" horiz-adv-x="410" unicode="|" d="M186 667h38v-834h-38v834z"/>
<glyph glyph-name="braceright" horiz-adv-x="257" unicode="}" d="M46 683h15q54 0 75.5 -25t21.5 -87v-240q0 -36 10 -53.5t38 -29.5q-28 -12 -38 -29.5t-10 -53.5v-263q0 -62 -22 -87.5t-75 -25.5h-15q51 17 51 89v268q0 42 10.5 62.5t42.5 39.5q-32 19 -42.5 39t-10.5 63v244q0 72 -51 89z"/>
<glyph glyph-name="asciitilde" horiz-adv-x="543" unicode="~" d="M431 371l10 -9q-19 -40 -49.5 -66.5t-58.5 -26.5q-20 0 -52 14q-67 28 -94 28q-21 0 -35.5 -11.5t-38.5 -47.5l-11 8q47 95 108 95q29 0 76 -22q43 -18 67 -18q42 0 78 56z"/>
<glyph glyph-name="uni00A0" horiz-adv-x="210" unicode=" "/>
<glyph glyph-name="exclamdown" horiz-adv-x="212" unicode="¡" d="M105 469q19 0 33.5 -14.5t14.5 -33.5q0 -20 -14 -34.5t-34 -14.5t-34.5 14.5t-14.5 34.5t14.5 34t34.5 14zM126 272l15 -454h-69l14 454h40z"/>
<glyph glyph-name="cent" horiz-adv-x="430" unicode="¢" d="M223 122v428q-76 -22 -76 -222q0 -190 76 -206zM223 12v75q-69 6 -110 72.5t-41 172.5q0 133 63 204q36 39 88 43v75h27v-76q36 -7 61 -40l19 50h15v-164h-19q-16 115 -76 127v-429q29 6 48 40t24 89h31q-5 -67 -32.5 -110t-70.5 -51v-78h-27z"/>
<glyph glyph-name="sterling" horiz-adv-x="429" unicode="£" d="M375 553h-31q-4 47 -19 68.5t-43 21.5q-36 0 -59 -35q-23 -38 -35 -143l-10 -104h96v-37h-100l-11 -114q-11 -106 -64 -177q48 30 84 30q17 0 53 -10q27 -8 48 -8q54 0 68 100h29q-9 -83 -36 -114t-90 -31h-207q29 42 43 169l14 155h-57v37h61l8 82q11 114 52 174.5 t107 60.5q91 0 99 -125z"/>
<glyph glyph-name="currency" horiz-adv-x="553" unicode="¤" d="M279 412q-56 0 -95 -39t-39 -95q0 -55 38.5 -93.5t93.5 -38.5t93.5 38.5t38.5 93.5t-38.5 94.5t-91.5 39.5zM50 90l74 75q-39 53 -39 114q0 59 39 113l-76 75l38 38l75 -75q54 40 115 40t115 -40l76 75l38 -38l-75 -75q39 -54 39 -114t-39 -113l76 -75l-38 -38l-76 75 q-53 -39 -114 -39q-60 0 -115 39l-75 -75z"/>
<glyph glyph-name="yen" d="M144 402h-97v37h85l-46 151q-9 29 -23 41t-42 15v24q59 -7 91 -7q34 0 91 7v-24q-49 -6 -49 -26q0 -8 7 -32l76 -254l77 255q7 25 7 32q0 21 -47 25v24q40 -5 67 -5t68 5v-24q-32 -5 -45 -16.5t-23 -43.5l-44 -147h83v-37h-94l-23 -75h117v-37h-128v-202q0 -40 10.5 -51 t51.5 -16v-24q-61 8 -100 8q-37 0 -100 -8v24q41 5 52 16t11 51v202h-130v37h120z" unicode="¥"/>
<glyph glyph-name="brokenbar" horiz-adv-x="410" unicode="¦" d="M186 153h38v-320h-38v320zM186 667h38v-332h-38v332z"/>
<glyph glyph-name="section" horiz-adv-x="429" unicode="§" d="M266 327l-83 60q-37 -11 -53.5 -29.5t-16.5 -50.5q0 -49 47 -83l99 -74q58 34 58 90q0 51 -51 87zM66 14h29q9 -120 102 -120q41 0 67 27.5t26 70.5q0 59 -51 95l-110 81q-64 48 -64 121q0 46 21 74t68 45q-44 36 -59.5 63t-15.5 67q0 61 38.5 100.5t97.5 39.5 q62 0 99.5 -42t37.5 -111v-7h-28q-3 56 -29.5 87t-70.5 31q-39 0 -63.5 -24t-24.5 -62q0 -29 14 -50t49 -46l95 -68q69 -49 69 -123q0 -85 -79 -130q39 -32 54.5 -60.5t15.5 -69.5q0 -67 -40.5 -108.5t-105.5 -41.5q-64 0 -103 42.5t-39 111.5v7z"/>
<glyph glyph-name="dieresis" horiz-adv-x="413" unicode="¨" d="M281 666q19 0 32 -13.5t13 -31.5q0 -19 -13 -32.5t-32 -13.5t-32.5 13.5t-13.5 32.5t13.5 32t32.5 13zM137 666q19 0 32 -13.5t13 -31.5q0 -19 -13 -32.5t-32 -13.5t-32.5 13.5t-13.5 32.5t13.5 32t32.5 13z"/>
<glyph glyph-name="copyright" horiz-adv-x="648" unicode="©" d="M324 609q-116 0 -197.5 -81.5t-81.5 -197.5q0 -114 81.5 -196.5t194.5 -82.5q118 0 200 81t82 199q0 115 -82 196.5t-197 81.5zM324 640q128 0 219 -90.5t91 -218.5q0 -131 -91 -221t-223 -90q-125 0 -215.5 91.5t-90.5 218.5q0 128 91 219t219 91zM408 273h23 q-2 -70 -31.5 -108.5t-80.5 -38.5q-61 0 -98.5 57t-37.5 150q0 95 37.5 151.5t100.5 56.5q46 0 76 -34l17 33h13v-123h-16q-19 98 -83 98q-33 0 -54 -25q-36 -43 -36 -150q0 -181 89 -181q75 0 81 114z"/>
<glyph glyph-name="ordfeminine" horiz-adv-x="289" unicode="ª" d="M34 319h230v-38h-230v38zM176 492v50q-45 -10 -65.5 -30t-20.5 -54q0 -25 10.5 -39t28.5 -14q47 0 47 87zM254 401v-23q-17 -5 -31 -5q-32 0 -40 46q-23 -47 -66 -47q-32 0 -52.5 23t-20.5 59q0 88 132 111v33q0 59 -39 59t-39 -34q0 -2 1 -8v-8q0 -28 -24 -28 q-19 0 -19 24q0 32 25 54.5t60 22.5q48 0 69 -39q12 -21 12 -66v-125q0 -52 17 -52q3 0 15 3z"/>
<glyph glyph-name="guillemotleft" horiz-adv-x="329" unicode="«" d="M253 472h24l-66 -233l66 -239h-24l-96 239zM145 472h23l-66 -233l66 -239h-23l-97 239z"/>
<glyph glyph-name="logicalnot" horiz-adv-x="410" unicode="¬" d="M376 0h-75v230h-267v37h342v-267z"/>
<glyph glyph-name="uni00AD" horiz-adv-x="215" unicode="­" d="M5 245v45h205v-45h-205z"/>
<glyph glyph-name="registered" horiz-adv-x="648" unicode="®" d="M324 609q-116 0 -197.5 -81.5t-81.5 -197.5q0 -114 81.5 -196.5t194.5 -82.5q118 0 200 81t82 199q0 115 -82 196.5t-197 81.5zM324 640q128 0 219 -90.5t91 -218.5q0 -131 -91 -221t-223 -90q-125 0 -215.5 91.5t-90.5 218.5q0 128 91 219t219 91zM276 345h33 q66 0 66 83q0 80 -63 80h-36v-163zM276 320v-132q0 -22 5 -27.5t30 -8.5v-21q-36 5 -63 5q-26 0 -65 -5v21l8 1q21 2 27 8t6 27v288q0 22 -6.5 28t-34.5 8v21h135q51 0 80 -28.5t29 -78.5q0 -38 -19.5 -64t-54.5 -36q20 -11 35 -49l34 -93q8 -21 14.5 -26t26.5 -6v-21 q-18 2 -36 2t-35 -2q-8 19 -15 38l-38 106q-11 28 -20 36.5t-29 8.5h-14z"/>
<glyph glyph-name="macron" horiz-adv-x="410" unicode="¯" d="M83 603v51h244v-51h-244z"/>
<glyph glyph-name="degree" horiz-adv-x="429" unicode="°" d="M216 632q-38 0 -64 -25.5t-26 -62.5t26 -63t63 -26q36 0 62 26t26 62q0 37 -26 63t-61 26zM217 672q51 0 88.5 -38t37.5 -90q0 -54 -37.5 -91.5t-90.5 -37.5q-54 0 -91.5 37.5t-37.5 91.5q0 53 38 90.5t93 37.5z"/>
<glyph glyph-name="plusminus" d="M48 26v60h333v-60h-333zM48 308v59h142v175h54v-175h137v-59h-137v-169h-54v169h-142z" unicode="±"/>
<glyph glyph-name="twosuperior" horiz-adv-x="283" unicode="²" d="M237 308l-6 -48h-190v38q5 5 8 11q94 127 129 214q6 13 6 37q0 26 -14.5 42.5t-37.5 16.5q-54 0 -64 -83h-21q4 63 27 92.5t69 29.5q39 0 64.5 -26.5t25.5 -66.5q0 -36 -26.5 -83t-119.5 -174h150z"/>
<glyph glyph-name="threesuperior" horiz-adv-x="283" unicode="³" d="M37 377h22q4 -45 18.5 -65t44.5 -20q31 0 48.5 22.5t17.5 61.5q0 80 -75 80h-8v27h8q31 0 48 19t17 54q0 30 -14 47.5t-37 17.5q-49 0 -61 -73h-20q9 110 93 110q40 0 65 -26.5t25 -69.5q0 -63 -57 -89q69 -23 69 -99q0 -51 -30.5 -84.5t-76.5 -33.5q-92 0 -97 121z"/>
<glyph glyph-name="acute" horiz-adv-x="410" unicode="´" d="M178 551l78 147h89l-131 -147h-36z"/>
<glyph glyph-name="mu" horiz-adv-x="362" unicode="µ" d="M370 55v-15l-66 -50q-2 -1 -3 -1q-17 0 -28 23.5t-12 61.5q-43 -52 -69.5 -70.5t-57.5 -18.5q-64 0 -84 89q0 -83 7 -170q3 -25 3 -45q0 -21 -8 -34.5t-20 -13.5t-20.5 13t-8.5 31q0 20 5 60q22 163 22 368v174h55v-286q0 -78 17 -108q17 -33 55 -33q29 0 52 19t49 63 v345h50v-342q0 -44 6.5 -60t24.5 -16q12 0 31 16z"/>
<glyph glyph-name="paragraph" d="M284 -33v602q0 43 -6.5 55t-28.5 12q-23 0 -29.5 -12.5t-6.5 -54.5v-603q0 -41 7 -54t29 -13t28.5 12t6.5 56zM397 667v-24q-43 -4 -54.5 -15.5t-11.5 -50.5v-624q0 -40 11.5 -51t54.5 -15v-25q-76 8 -146 8q-71 0 -147 -8v25q41 4 51.5 15t10.5 51v374q-124 22 -124 176 q0 109 65 144q37 20 110 20h180z" unicode="¶"/>
<glyph glyph-name="periodcentered" horiz-adv-x="197" unicode="·" d="M99 292q19 0 33.5 -14t14.5 -34t-14 -34.5t-34 -14.5t-34.5 14.5t-14.5 34.5t14.5 34t34.5 14z"/>
<glyph glyph-name="cedilla" horiz-adv-x="415" unicode="¸" d="M166 -78l34 78h34l-24 -59q38 -4 55.5 -20.5t17.5 -47.5q0 -33 -21.5 -53.5t-56.5 -20.5q-29 0 -61 16v30q24 -9 41 -9q18 0 29.5 12t11.5 31q0 21 -14 31.5t-46 11.5z"/>
<glyph glyph-name="onesuperior" horiz-adv-x="283" unicode="¹" d="M170 670v-354q0 -23 6 -28.5t33 -7.5v-21q-41 3 -65 3t-63 -3v21q26 2 32 7.5t6 28.5v267h-53v21q66 3 84 66h20z"/>
<glyph glyph-name="ordmasculine" horiz-adv-x="289" unicode="º" d="M29 319h230v-38h-230v38zM145 658q-49 0 -49 -133q0 -131 48 -131q49 0 49 125q0 139 -48 139zM146 680q45 0 72 -43t27 -114q0 -65 -28.5 -108t-72.5 -43q-45 0 -73 43t-28 111q0 67 29 110.5t74 43.5z"/>
<glyph glyph-name="guillemotright" horiz-adv-x="329" unicode="»" d="M76 472l96 -233l-96 -239h-24l66 239l-66 233h24zM184 472l97 -233l-97 -239h-23l66 239l-66 233h23z"/>
<glyph glyph-name="onequarter" horiz-adv-x="595" unicode="¼" d="M170 670v-354q0 -23 6 -28.5t32 -7.5v-21q-36 4 -64 4q-27 0 -63 -4v21q26 2 32 8t6 28v268h-53v20q31 2 54 20t30 46h20zM472 146v205l-92 -205h92zM471 -9v111h-136l138 300h49v-256h50v-44h-50v-111h-51zM128 0l305 652h34l-306 -652h-33z"/>
<glyph glyph-name="onehalf" horiz-adv-x="595" unicode="½" d="M548 48l-6 -48h-190v38q8 10 8 11q98 135 129 213q6 15 6 36q0 26 -14.5 42.5t-37.5 16.5q-54 0 -64 -82h-21q7 121 96 121q40 0 65 -26t25 -67q0 -36 -26 -81t-120 -174h150zM169 670v-354q0 -22 6 -28t33 -8v-21q-36 4 -64 4q-27 0 -63 -4v21q26 2 32 8t6 28v268h-53 v20q67 5 84 66h19zM127 0l306 652h34l-306 -652h-34z"/>
<glyph glyph-name="threequarters" horiz-adv-x="595" unicode="¾" d="M37 376h22q3 -45 18 -65t45 -20q31 0 49 22.5t18 61.5q0 81 -75 81h-9v27h9q30 0 47 19.5t17 53.5q0 30 -14 47.5t-37 17.5q-49 0 -61 -73h-20q9 110 92 110q40 0 65 -26.5t25 -69.5q0 -60 -57 -89q70 -25 70 -100q0 -51 -30.5 -84.5t-76.5 -33.5q-92 0 -97 121zM472 146 v205l-92 -205h92zM471 -9v111h-136l138 300h49v-256h50v-44h-50v-111h-51zM128 0l306 652h33l-306 -652h-33z"/>
<glyph glyph-name="questiondown" horiz-adv-x="316" unicode="¿" d="M176 471q20 0 34 -14.5t14 -33.5q0 -20 -14 -34.5t-34 -14.5t-34.5 14.5t-14.5 34.5t14.5 34t34.5 14zM166 281h34q3 -36 3 -53q0 -68 -27 -113q-7 -12 -37 -52q-43 -57 -43 -108q0 -39 19.5 -62.5t51.5 -23.5q83 0 92 118h22q0 -63 -18 -102q-36 -74 -118 -74 q-55 0 -88 39t-33 104q0 46 16 78t60 76q39 39 53 70.5t14 82.5q0 11 -1 20z"/>
<glyph glyph-name="Agrave" horiz-adv-x="524" unicode="À" d="M321 724h-40l-157 137h97zM159 224h165l-76 297zM150 193l-28 -94q-9 -30 -9 -48q0 -14 11.5 -21t40.5 -9v-24q-43 5 -76 5t-76 -5v24q37 3 49 14.5t26 55.5l184 597l166 -608q11 -35 23.5 -45t49.5 -14v-24q-56 8 -97 8q-42 0 -98 -8v24q48 5 48 30q0 11 -5 34l-27 108 h-182z"/>
<glyph glyph-name="Aacute" horiz-adv-x="524" unicode="Á" d="M232 724l101 137h97l-158 -137h-40zM159 224h165l-76 297zM150 193l-28 -94q-9 -30 -9 -48q0 -14 11.5 -21t40.5 -9v-24q-43 5 -76 5t-76 -5v24q37 3 49 14.5t26 55.5l184 597l166 -608q11 -35 23.5 -45t49.5 -14v-24q-56 8 -97 8q-42 0 -98 -8v24q48 5 48 30q0 11 -5 34 l-27 108h-182z"/>
<glyph glyph-name="Acircumflex" horiz-adv-x="524" unicode="Â" d="M137 725l114 136h44l114 -136h-40l-96 84l-96 -84h-40zM159 224h165l-76 297zM150 193l-28 -94q-9 -30 -9 -48q0 -14 11.5 -21t40.5 -9v-24q-43 5 -76 5t-76 -5v24q37 3 49 14.5t26 55.5l184 597l166 -608q11 -35 23.5 -45t49.5 -14v-24q-56 8 -97 8q-42 0 -98 -8v24 q48 5 48 30q0 11 -5 34l-27 108h-182z"/>
<glyph glyph-name="Atilde" horiz-adv-x="524" unicode="Ã" d="M163 743l-24 8q11 51 30 74.5t49 23.5q17 0 30 -7t45 -35q19 -16 36 -16q19 0 30 11.5t19 40.5l23 -6q-6 -43 -18 -62q-24 -41 -62 -41q-27 0 -68 37q-24 21 -42 21q-32 0 -48 -49zM159 224h165l-76 297zM150 193l-28 -94q-9 -30 -9 -48q0 -14 11.5 -21t40.5 -9v-24 q-43 5 -76 5t-76 -5v24q37 3 49 14.5t26 55.5l184 597l166 -608q11 -35 23.5 -45t49.5 -14v-24q-56 8 -97 8q-42 0 -98 -8v24q48 5 48 30q0 11 -5 34l-27 108h-182z"/>
<glyph glyph-name="Adieresis" horiz-adv-x="524" unicode="Ä" d="M346 842q20 0 34 -14t14 -34t-14 -34.5t-34 -14.5t-34.5 14.5t-14.5 34.5t14.5 34t34.5 14zM202 842q20 0 34 -14t14 -34t-14 -34.5t-34 -14.5t-34.5 14.5t-14.5 34.5t14.5 34t34.5 14zM159 224h165l-76 297zM150 193l-28 -94q-9 -30 -9 -48q0 -14 11.5 -21t40.5 -9v-24 q-43 5 -76 5t-76 -5v24q37 3 49 14.5t26 55.5l184 597l166 -608q11 -35 23.5 -45t49.5 -14v-24q-56 8 -97 8q-42 0 -98 -8v24q48 5 48 30q0 11 -5 34l-27 108h-182z"/>
<glyph glyph-name="Aring" horiz-adv-x="524" unicode="Å" d="M272 839q-19 0 -31.5 -12.5t-12.5 -29.5q0 -18 12.5 -30.5t30.5 -12.5t30.5 12.5t12.5 30.5q0 17 -12.5 29.5t-29.5 12.5zM159 224h165l-76 297zM150 193l-28 -94q-9 -30 -9 -48q0 -14 11.5 -21t40.5 -9v-24q-43 5 -76 5t-76 -5v24q37 3 49 14.5t26 55.5l184 597 l166 -608q11 -35 23.5 -45t49.5 -14v-24q-56 8 -97 8q-42 0 -98 -8v24q48 5 48 30q0 11 -5 34l-27 108h-182zM272 873q31 0 53 -22.5t22 -53.5t-22.5 -53.5t-53.5 -22.5q-32 0 -54 22.5t-22 54.5q0 31 22.5 53t54.5 22z"/>
<glyph glyph-name="AE" horiz-adv-x="727" unicode="Æ" d="M381 257v377l-172 -377h172zM381 226h-186l-68 -149q-8 -19 -8 -31t12 -17.5t43 -6.5v-25q-62 5 -80 5t-81 -5v25q36 2 51.5 15t37.5 57l263 573h299l14 -150h-19q-16 73 -34 96t-59 23h-110v-274h109q26 0 35 16t11 66h20v-196h-20q-2 50 -12 66.5t-39 16.5h-104v-241 q0 -35 10.5 -47t42.5 -12h51q48 0 69.5 26.5t38.5 103.5h19l-19 -161h-352v25q43 4 54 15t11 51v135z"/>
<glyph glyph-name="Ccedilla" horiz-adv-x="490" unicode="Ç" d="M270 -12l-19 -46q76 -7 76 -72q0 -34 -22.5 -56.5t-56.5 -22.5q-29 0 -64 16v33q24 -9 41 -9q19 0 31.5 12.5t12.5 32.5q0 23 -14.5 33t-48.5 11l29 69q-87 14 -138 106t-51 236q0 159 59 253.5t158 94.5q76 0 123 -58l27 56h16v-196h-20q-17 85 -50 125.5t-87 40.5 q-71 0 -109 -80.5t-38 -232.5q0 -145 38.5 -223.5t108.5 -78.5q59 0 94.5 51t39.5 142h29q-3 -106 -46.5 -168.5t-118.5 -68.5z"/>
<glyph glyph-name="Egrave" horiz-adv-x="445" unicode="È" d="M289 724h-40l-158 137h97zM402 161l-19 -161h-352v25q41 4 52 15t11 51v485q0 39 -11 50.5t-52 15.5v25h348l14 -150h-19q-15 72 -33.5 95.5t-59.5 23.5h-112v-274h111q26 0 35 15.5t11 66.5h20v-196h-20q-2 50 -12 66.5t-38 16.5h-107v-241q0 -35 10.5 -47t41.5 -12h55 q49 0 67 25q24 33 40 105h19z"/>
<glyph glyph-name="Eacute" horiz-adv-x="445" unicode="É" d="M175 724l100 137h97l-157 -137h-40zM402 161l-19 -161h-352v25q41 4 52 15t11 51v485q0 39 -11 50.5t-52 15.5v25h348l14 -150h-19q-15 72 -33.5 95.5t-59.5 23.5h-112v-274h111q26 0 35 15.5t11 66.5h20v-196h-20q-2 50 -12 66.5t-38 16.5h-107v-241q0 -35 10.5 -47 t41.5 -12h55q49 0 67 25q24 33 40 105h19z"/>
<glyph glyph-name="Ecircumflex" horiz-adv-x="445" unicode="Ê" d="M89 725l114 135h45l113 -135h-39l-97 83l-96 -83h-40zM402 161l-19 -161h-352v25q41 4 52 15t11 51v485q0 39 -11 50.5t-52 15.5v25h348l14 -150h-19q-15 72 -33.5 95.5t-59.5 23.5h-112v-274h111q26 0 35 15.5t11 66.5h20v-196h-20q-2 50 -12 66.5t-38 16.5h-107v-241 q0 -35 10.5 -47t41.5 -12h55q49 0 67 25q24 33 40 105h19z"/>
<glyph glyph-name="Edieresis" horiz-adv-x="445" unicode="Ë" d="M289 842q19 0 33.5 -14t14.5 -34t-14 -34.5t-34 -14.5t-34.5 14.5t-14.5 34.5t14.5 34t34.5 14zM145 842q19 0 33.5 -14t14.5 -34t-14 -34.5t-34 -14.5t-34.5 14.5t-14.5 34.5t14.5 34t34.5 14zM402 161l-19 -161h-352v25q41 4 52 15t11 51v485q0 39 -11 50.5t-52 15.5 v25h348l14 -150h-19q-15 72 -33.5 95.5t-59.5 23.5h-112v-274h111q26 0 35 15.5t11 66.5h20v-196h-20q-2 50 -12 66.5t-38 16.5h-107v-241q0 -35 10.5 -47t41.5 -12h55q49 0 67 25q24 33 40 105h19z"/>
<glyph glyph-name="Igrave" horiz-adv-x="261" unicode="Ì" d="M181 724h-40l-150 137h95zM230 21v-24q-64 8 -99 8q-36 0 -101 -8v24q42 4 52.5 15.5t10.5 51.5v491q0 40 -11 51t-52 16v24q67 -7 101 -7q33 0 99 7v-24q-41 -5 -51.5 -16t-10.5 -51v-491q0 -40 10.5 -51.5t51.5 -15.5z"/>
<glyph glyph-name="Iacute" horiz-adv-x="264" unicode="Í" d="M86 724l94 137h95l-149 -137h-40zM231 21v-24q-64 8 -99 8q-36 0 -101 -8v24q42 4 52.5 15.5t10.5 51.5v491q0 40 -11 51t-52 16v24q67 -7 101 -7q33 0 99 7v-24q-41 -5 -51.5 -16t-10.5 -51v-491q0 -40 10.5 -51.5t51.5 -15.5z"/>
<glyph glyph-name="Icircumflex" horiz-adv-x="269" unicode="Î" d="M5 725l107 135h45l107 -135h-39l-90 83l-90 -83h-40zM234 21v-24q-64 8 -99 8q-36 0 -101 -8v24q42 4 52.5 15.5t10.5 51.5v491q0 40 -11 51t-52 16v24q67 -7 101 -7q33 0 99 7v-24q-41 -5 -51.5 -16t-10.5 -51v-491q0 -40 10.5 -51.5t51.5 -15.5z"/>
<glyph glyph-name="Idieresis" horiz-adv-x="265" unicode="Ï" d="M198 842q20 0 34 -14t14 -34t-14 -34.5t-34 -14.5t-34.5 14.5t-14.5 34.5t14.5 34t34.5 14zM69 842q19 0 33.5 -14t14.5 -34t-14 -34.5t-34 -14.5t-34.5 14.5t-14.5 34.5t14.5 34t34.5 14zM232 21v-24q-65 8 -101 8q-35 0 -99 -8v24q41 4 51.5 15.5t10.5 51.5v491 q0 40 -10.5 51t-51.5 16v24q66 -7 99 -7q34 0 101 7v-24q-41 -5 -52 -16t-11 -51v-491q0 -40 11 -51t52 -16z"/>
<glyph glyph-name="Eth" horiz-adv-x="518" unicode="Ð" d="M165 331v-250q0 -33 9 -42.5t39 -9.5q97 0 138 75q46 82 46 230q0 146 -46 228q-41 74 -134 74h-52v-268h118v-37h-118zM90 331h-63v37h63v208q0 40 -11 51t-52 15v25h194q71 0 119 -27t82 -86q53 -94 53 -221q0 -84 -26 -159t-69 -116q-61 -58 -160 -58h-193v24 q41 5 52 16t11 51v240z"/>
<glyph glyph-name="Ntilde" horiz-adv-x="548" unicode="Ñ" d="M168 743l-24 8q21 98 78 98q28 0 69 -36q25 -22 44 -22q33 0 48 52l23 -6q-5 -43 -18 -62q-26 -41 -62 -41q-27 0 -69 37q-22 21 -41 21q-32 0 -48 -49zM455 -20h-13q-9 18 -27 52q-3 7 -56 107l-234 438v-489q0 -40 11 -51.5t54 -15.5v-24q-55 5 -81 5q-28 0 -78 -5v24 q43 4 54 15.5t11 51.5v528q-18 26 -66 30v24q42 -3 68 -3q23 0 59 3l268 -500v409q0 40 -11 51t-53 16v24q53 -5 81 -5q29 0 78 5v-24q-43 -5 -54 -16t-11 -51v-599z"/>
<glyph glyph-name="Ograve" horiz-adv-x="516" unicode="Ò" d="M315 724h-40l-157 137h97zM258 652q-64 0 -100 -83t-36 -231q0 -153 36 -237.5t101 -84.5q63 0 98 83.5t35 232.5q0 153 -35 236.5t-99 83.5zM257 680q100 0 157.5 -95t57.5 -261q0 -90 -26.5 -170.5t-68.5 -118.5q-51 -47 -118 -47q-80 0 -136 64q-36 40 -58 117 t-22 163q0 159 58 253.5t156 94.5z"/>
<glyph glyph-name="Oacute" horiz-adv-x="516" unicode="Ó" d="M212 724l100 137h97l-157 -137h-40zM258 652q-64 0 -100 -83t-36 -231q0 -153 36 -237.5t101 -84.5q63 0 98 83.5t35 232.5q0 153 -35 236.5t-99 83.5zM257 680q100 0 157.5 -95t57.5 -261q0 -90 -26.5 -170.5t-68.5 -118.5q-51 -47 -118 -47q-80 0 -136 64 q-36 40 -58 117t-22 163q0 159 58 253.5t156 94.5z"/>
<glyph glyph-name="Ocircumflex" horiz-adv-x="516" unicode="Ô" d="M122 725l114 135h45l113 -135h-39l-97 83l-96 -83h-40zM258 652q-64 0 -100 -83t-36 -231q0 -153 36 -237.5t101 -84.5q63 0 98 83.5t35 232.5q0 153 -35 236.5t-99 83.5zM257 680q100 0 157.5 -95t57.5 -261q0 -90 -26.5 -170.5t-68.5 -118.5q-51 -47 -118 -47 q-80 0 -136 64q-36 40 -58 117t-22 163q0 159 58 253.5t156 94.5z"/>
<glyph glyph-name="Otilde" horiz-adv-x="516" unicode="Õ" d="M155 743l-23 8q11 51 29.5 74.5t48.5 23.5q27 0 68 -36q25 -22 44 -22q18 0 29.5 12t18.5 40l23 -6q-5 -43 -18 -62q-24 -41 -61 -41q-27 0 -69 37q-24 21 -42 21q-32 0 -48 -49zM258 652q-64 0 -100 -83t-36 -231q0 -153 36 -237.5t101 -84.5q63 0 98 83.5t35 232.5 q0 153 -35 236.5t-99 83.5zM257 680q100 0 157.5 -95t57.5 -261q0 -90 -26.5 -170.5t-68.5 -118.5q-51 -47 -118 -47q-80 0 -136 64q-36 40 -58 117t-22 163q0 159 58 253.5t156 94.5z"/>
<glyph glyph-name="Odieresis" horiz-adv-x="516" unicode="Ö" d="M330 842q20 0 34 -14t14 -34t-14 -34.5t-34 -14.5t-34.5 14.5t-14.5 34.5t14.5 34t34.5 14zM186 842q20 0 34 -14t14 -34t-14 -34.5t-34 -14.5t-34.5 14.5t-14.5 34.5t14.5 34t34.5 14zM258 652q-64 0 -100 -83t-36 -231q0 -153 36 -237.5t101 -84.5q63 0 98 83.5 t35 232.5q0 153 -35 236.5t-99 83.5zM257 680q100 0 157.5 -95t57.5 -261q0 -90 -26.5 -170.5t-68.5 -118.5q-51 -47 -118 -47q-80 0 -136 64q-36 40 -58 117t-22 163q0 159 58 253.5t156 94.5z"/>
<glyph glyph-name="multiply" d="M64 482l35 43l116 -146l116 144l32 -40l-115 -145l116 -145l-34 -44l-117 146l-115 -144l-33 41l116 144z" unicode="×"/>
<glyph glyph-name="Oslash" horiz-adv-x="516" unicode="Ø" d="M135 170l236 367q-38 115 -112 115q-65 0 -102 -87t-37 -241q0 -82 15 -154zM381 497l-236 -368q34 -113 113 -113q65 0 100.5 87.5t35.5 247.5q0 87 -13 146zM494 667l-67 -103q45 -90 45 -224q0 -160 -58.5 -256t-155.5 -96q-92 0 -152 84l-47 -72h-37l67 102 q-46 94 -46 229q0 158 59 253.5t156 95.5q92 0 152 -86l48 73h36z"/>
<glyph glyph-name="Ugrave" horiz-adv-x="542" unicode="Ù" d="M347 724h-40l-158 137h97zM357 646v24q53 -5 81 -5q30 0 77 5v-24q-42 -5 -53 -16t-11 -51v-375q0 -85 -28 -133q-46 -82 -151 -82q-109 0 -157 86q-26 45 -26 125v379q0 40 -11 51t-52 16v24q67 -7 101 -7q33 0 99 7v-24q-41 -5 -51.5 -16t-10.5 -51v-387q0 -74 16 -103 q31 -56 107 -56q63 0 100 40q34 37 34 125v381q0 40 -11 51t-53 16z"/>
<glyph glyph-name="Uacute" horiz-adv-x="542" unicode="Ú" d="M240 724l101 137h97l-157 -137h-41zM357 646v24q53 -5 81 -5q30 0 77 5v-24q-42 -5 -53 -16t-11 -51v-375q0 -85 -28 -133q-46 -82 -151 -82q-109 0 -157 86q-26 45 -26 125v379q0 40 -11 51t-52 16v24q67 -7 101 -7q33 0 99 7v-24q-41 -5 -51.5 -16t-10.5 -51v-387 q0 -74 16 -103q31 -56 107 -56q63 0 100 40q34 37 34 125v381q0 40 -11 51t-53 16z"/>
<glyph glyph-name="Ucircumflex" horiz-adv-x="542" unicode="Û" d="M156 725l113 135h45l114 -135h-40l-96 83l-96 -83h-40zM357 646v24q53 -5 81 -5q30 0 77 5v-24q-42 -5 -53 -16t-11 -51v-375q0 -85 -28 -133q-46 -82 -151 -82q-109 0 -157 86q-26 45 -26 125v379q0 40 -11 51t-52 16v24q67 -7 101 -7q33 0 99 7v-24q-41 -5 -51.5 -16 t-10.5 -51v-387q0 -74 16 -103q31 -56 107 -56q63 0 100 40q34 37 34 125v381q0 40 -11 51t-53 16z"/>
<glyph glyph-name="Udieresis" horiz-adv-x="542" unicode="Ü" d="M365 842q19 0 33.5 -14t14.5 -34t-14 -34.5t-34 -14.5t-34.5 14.5t-14.5 34.5t14.5 34t34.5 14zM221 842q19 0 33.5 -14t14.5 -34t-14 -34.5t-34 -14.5t-34.5 14.5t-14.5 34.5t14.5 34t34.5 14zM357 646v24q53 -5 81 -5q30 0 77 5v-24q-42 -5 -53 -16t-11 -51v-375 q0 -85 -28 -133q-46 -82 -151 -82q-109 0 -157 86q-26 45 -26 125v379q0 40 -11 51t-52 16v24q67 -7 101 -7q33 0 99 7v-24q-41 -5 -51.5 -16t-10.5 -51v-387q0 -74 16 -103q31 -56 107 -56q63 0 100 40q34 37 34 125v381q0 40 -11 51t-53 16z"/>
<glyph glyph-name="Yacute" horiz-adv-x="483" unicode="Ý" d="M215 724l101 137h96l-157 -137h-40zM206 291l-117 300q-13 31 -26.5 41t-46.5 14v24q57 -7 100 -7q41 0 100 7v-24q-31 -3 -43 -8.5t-12 -17.5q0 -11 7 -32l101 -256l98 257q8 21 8 31q0 12 -11.5 17.5t-42.5 8.5v24q43 -5 75 -5q33 0 74 5v-24q-34 -5 -47 -15t-25 -39 l-117 -301v-203q0 -40 10.5 -51.5t51.5 -15.5v-24q-64 8 -100 8q-35 0 -100 -8v24q42 4 52.5 15.5t10.5 51.5v203z"/>
<glyph glyph-name="Thorn" horiz-adv-x="446" unicode="Þ" d="M169 227h52q70 0 100 51q23 41 23 104q0 87 -40 124q-24 24 -78 24h-57v-303zM169 561h67q97 0 138 -50q45 -53 45 -133q0 -85 -46.5 -133.5t-127.5 -48.5h-76v-108q0 -40 10.5 -51.5t51.5 -15.5v-24q-64 8 -99 8q-36 0 -101 -8v24q42 4 52.5 15.5t10.5 51.5v491 q0 40 -11 51t-52 16v24q67 -7 101 -7q33 0 99 7v-24q-41 -5 -51.5 -16t-10.5 -51v-18z"/>
<glyph glyph-name="germandbls" horiz-adv-x="422" unicode="ß" d="M176 353v31q53 2 77.5 36t24.5 105q0 57 -16.5 88t-46.5 31q-69 0 -69 -122v-524q-39 3 -56 3q-25 0 -68 -4v20q34 2 44 12t10 42v413q0 79 27 123q17 31 48 48.5t66 17.5q56 0 93.5 -43.5t37.5 -109.5q0 -51 -21.5 -86t-69.5 -61q128 -40 128 -193q0 -79 -37 -133 t-91 -54q-34 0 -67 29v27q22 -14 41 -14q37 0 59.5 38t22.5 101q0 171 -137 179z"/>
<glyph glyph-name="agrave" horiz-adv-x="383" unicode="à" d="M239 551h-35l-132 147h89zM241 182v86q-70 -16 -101.5 -50t-31.5 -93q0 -43 16 -67t45 -24q38 0 55 35.5t17 112.5zM361 26v-26q-27 -7 -47 -7q-29 0 -44 19.5t-19 62.5q-20 -45 -43.5 -64.5t-60.5 -19.5q-49 0 -79.5 35.5t-30.5 92.5q0 77 59 119q60 43 145 56v71 q0 89 -60 89q-28 0 -44.5 -15.5t-16.5 -40.5q0 -11 1 -18v-11q0 -41 -35 -41q-29 0 -29 34q0 49 39 84t92 35q74 0 106 -60q17 -31 17 -100v-209q0 -50 6.5 -69.5t23.5 -19.5q5 0 20 3z"/>
<glyph glyph-name="aacute" horiz-adv-x="383" unicode="á" d="M156 551l79 147h88l-131 -147h-36zM241 182v86q-70 -16 -101.5 -50t-31.5 -93q0 -43 16 -67t45 -24q38 0 55 35.5t17 112.5zM361 26v-26q-27 -7 -47 -7q-29 0 -44 19.5t-19 62.5q-20 -45 -43.5 -64.5t-60.5 -19.5q-49 0 -79.5 35.5t-30.5 92.5q0 77 59 119q60 43 145 56 v71q0 89 -60 89q-28 0 -44.5 -15.5t-16.5 -40.5q0 -11 1 -18v-11q0 -41 -35 -41q-29 0 -29 34q0 49 39 84t92 35q74 0 106 -60q17 -31 17 -100v-209q0 -50 6.5 -69.5t23.5 -19.5q5 0 20 3z"/>
<glyph glyph-name="acircumflex" horiz-adv-x="383" unicode="â" d="M68 552l106 146h37l106 -146h-38l-87 86l-86 -86h-38zM241 182v86q-70 -16 -101.5 -50t-31.5 -93q0 -43 16 -67t45 -24q38 0 55 35.5t17 112.5zM361 26v-26q-27 -7 -47 -7q-29 0 -44 19.5t-19 62.5q-20 -45 -43.5 -64.5t-60.5 -19.5q-49 0 -79.5 35.5t-30.5 92.5 q0 77 59 119q60 43 145 56v71q0 89 -60 89q-28 0 -44.5 -15.5t-16.5 -40.5q0 -11 1 -18v-11q0 -41 -35 -41q-29 0 -29 34q0 49 39 84t92 35q74 0 106 -60q17 -31 17 -100v-209q0 -50 6.5 -69.5t23.5 -19.5q5 0 20 3z"/>
<glyph glyph-name="atilde" horiz-adv-x="383" unicode="ã" d="M97 577l-22 8q12 53 29 75.5t45 22.5t62 -33q26 -25 44 -25q17 0 27.5 11.5t18.5 40.5l22 -6q-14 -103 -76 -103q-27 0 -65 37q-22 21 -39 21q-30 0 -46 -49zM241 182v86q-70 -16 -101.5 -50t-31.5 -93q0 -43 16 -67t45 -24q38 0 55 35.5t17 112.5zM361 26v-26 q-27 -7 -47 -7q-29 0 -44 19.5t-19 62.5q-20 -45 -43.5 -64.5t-60.5 -19.5q-49 0 -79.5 35.5t-30.5 92.5q0 77 59 119q60 43 145 56v71q0 89 -60 89q-28 0 -44.5 -15.5t-16.5 -40.5q0 -11 1 -18v-11q0 -41 -35 -41q-29 0 -29 34q0 49 39 84t92 35q74 0 106 -60 q17 -31 17 -100v-209q0 -50 6.5 -69.5t23.5 -19.5q5 0 20 3z"/>
<glyph glyph-name="adieresis" horiz-adv-x="383" unicode="ä" d="M241 182v86q-70 -16 -101.5 -50t-31.5 -93q0 -43 16 -67t45 -24q38 0 55 35.5t17 112.5zM361 26v-26q-27 -7 -47 -7q-29 0 -44 19.5t-19 62.5q-20 -45 -43.5 -64.5t-60.5 -19.5q-49 0 -79.5 35.5t-30.5 92.5q0 77 59 119q60 43 145 56v71q0 89 -60 89q-28 0 -44.5 -15.5 t-16.5 -40.5q0 -11 1 -18v-11q0 -41 -35 -41q-29 0 -29 34q0 49 39 84t92 35q74 0 106 -60q17 -31 17 -100v-209q0 -50 6.5 -69.5t23.5 -19.5q5 0 20 3zM264 666q19 0 32 -13.5t13 -31.5q0 -19 -13 -32.5t-32 -13.5q-20 0 -33 13.5t-13 32.5t13.5 32t32.5 13zM120 666 q19 0 32 -13.5t13 -31.5q0 -19 -13 -32.5t-32 -13.5q-20 0 -33 13.5t-13 32.5t13.5 32t32.5 13z"/>
<glyph glyph-name="aring" horiz-adv-x="383" unicode="å" d="M199 674q-18 0 -31 -12.5t-13 -30.5t12.5 -30.5t31.5 -12.5q17 0 30 12.5t13 30.5q0 17 -13 30t-30 13zM200 707q31 0 53 -22.5t22 -53.5t-22.5 -53.5t-53.5 -22.5q-32 0 -54.5 22.5t-22.5 54.5t22.5 53.5t55.5 21.5zM241 182v86q-70 -16 -101.5 -50t-31.5 -93 q0 -43 16 -67t45 -24q38 0 55 35.5t17 112.5zM361 26v-26q-27 -7 -47 -7q-29 0 -44 19.5t-19 62.5q-20 -45 -43.5 -64.5t-60.5 -19.5q-49 0 -79.5 35.5t-30.5 92.5q0 77 59 119q60 43 145 56v71q0 89 -60 89q-28 0 -44.5 -15.5t-16.5 -40.5q0 -11 1 -18v-11q0 -41 -35 -41 q-29 0 -29 34q0 49 39 84t92 35q74 0 106 -60q17 -31 17 -100v-209q0 -50 6.5 -69.5t23.5 -19.5q5 0 20 3z"/>
<glyph glyph-name="ae" horiz-adv-x="585" unicode="æ" d="M246 182v69q-73 -11 -106 -41.5t-33 -86.5q0 -40 16.5 -64t45.5 -24q40 0 58.5 35.5t18.5 111.5zM318 283h160q-5 172 -77 172q-68 0 -83 -172zM517 154h32q-7 -78 -44.5 -120.5t-98.5 -42.5q-98 0 -141 111q-19 -60 -46.5 -85.5t-71.5 -25.5q-49 0 -80 35.5t-31 90.5 q0 141 210 164v84q0 89 -65 89q-26 0 -43.5 -15t-17.5 -37v-13q1 -7 1 -19q0 -42 -35 -42q-29 0 -29 34q0 49 38.5 84t91.5 35q72 0 106 -59q43 59 109 59q68 0 105.5 -60.5t40.5 -174.5h-231q1 -104 16 -148q25 -74 83 -74q42 0 68 33.5t33 96.5z"/>
<glyph glyph-name="ccedilla" horiz-adv-x="359" unicode="ç" d="M289 154h32q-14 -149 -111 -164l-20 -49q72 -7 72 -68q0 -33 -21.5 -53.5t-56.5 -20.5q-29 0 -60 16v30q24 -9 40 -9q18 0 29.5 12t11.5 31q0 21 -13.5 31t-45.5 12l30 68q-65 12 -101.5 76.5t-36.5 165.5q0 112 43.5 182t114.5 70q50 0 82 -42l20 51h15v-165h-19 q-20 129 -88 129q-44 0 -68 -59t-24 -168q0 -208 90 -208q71 0 85 132z"/>
<glyph glyph-name="egrave" horiz-adv-x="377" unicode="è" d="M240 551h-36l-131 147h88zM111 283h159q-6 173 -78 173q-69 0 -81 -173zM309 154h31q-8 -78 -44.5 -121t-96.5 -43q-74 0 -118 66.5t-44 179.5q0 110 43 178t113 68q68 0 106 -61t41 -174h-231q3 -113 22 -164q24 -60 77 -60q41 0 67.5 34t33.5 97z"/>
<glyph glyph-name="eacute" horiz-adv-x="377" unicode="é" d="M155 551l79 147h88l-131 -147h-36zM111 283h159q-6 173 -78 173q-69 0 -81 -173zM309 154h31q-8 -78 -44.5 -121t-96.5 -43q-74 0 -118 66.5t-44 179.5q0 110 43 178t113 68q68 0 106 -61t41 -174h-231q3 -113 22 -164q24 -60 77 -60q41 0 67.5 34t33.5 97z"/>
<glyph glyph-name="ecircumflex" horiz-adv-x="377" unicode="ê" d="M68 552l105 146h39l105 -146h-38l-86 86l-87 -86h-38zM111 283h159q-6 173 -78 173q-69 0 -81 -173zM309 154h31q-8 -78 -44.5 -121t-96.5 -43q-74 0 -118 66.5t-44 179.5q0 110 43 178t113 68q68 0 106 -61t41 -174h-231q3 -113 22 -164q24 -60 77 -60q41 0 67.5 34 t33.5 97z"/>
<glyph glyph-name="edieresis" horiz-adv-x="377" unicode="ë" d="M270 666q19 0 32 -13.5t13 -31.5q0 -19 -13 -32.5t-32 -13.5q-20 0 -33 13.5t-13 32.5t13.5 32t32.5 13zM126 666q19 0 32 -13.5t13 -31.5q0 -19 -13 -32.5t-32 -13.5q-20 0 -33 13.5t-13 32.5t13.5 32t32.5 13zM111 283h159q-6 173 -78 173q-69 0 -81 -173zM309 154h31 q-8 -78 -44.5 -121t-96.5 -43q-74 0 -118 66.5t-44 179.5q0 110 43 178t113 68q68 0 106 -61t41 -174h-231q3 -113 22 -164q24 -60 77 -60q41 0 67.5 34t33.5 97z"/>
<glyph glyph-name="igrave" horiz-adv-x="229" unicode="ì" d="M154 551h-36l-128 147h89zM149 489v-418q0 -32 9.5 -42t44.5 -12v-20q-50 6 -89 6t-89 -6v20q34 2 44 12t10 42v316q0 39 -8.5 48.5t-44.5 10.5v17q64 7 123 26z"/>
<glyph glyph-name="iacute" horiz-adv-x="239" unicode="í" d="M78 551l75 147h88l-128 -147h-35zM153 489v-418q0 -32 10 -42t45 -12v-20q-52 6 -90 6q-39 0 -89 -6v20q35 2 44.5 12t9.5 42v316q0 39 -8.5 48.5t-44.5 10.5v17q63 7 123 26z"/>
<glyph glyph-name="icircumflex" horiz-adv-x="246" unicode="î" d="M3 552l96 146h38l95 -146h-36l-78 86l-79 -86h-36zM157 489v-418q0 -32 9.5 -42t44.5 -12v-20q-49 6 -89 6t-89 -6v20q35 3 44.5 12.5t9.5 41.5v316q0 39 -8.5 48.5t-45.5 10.5v17q62 7 124 26z"/>
<glyph glyph-name="idieresis" horiz-adv-x="236" unicode="ï" d="M170 666q19 0 32 -13.5t13 -31.5q0 -19 -13 -32.5t-32 -13.5q-20 0 -33 13.5t-13 32.5t13.5 32t32.5 13zM56 666q19 0 32 -13.5t13 -31.5q0 -19 -13 -32.5t-32 -13.5q-20 0 -33 13.5t-13 32.5t13.5 32t32.5 13zM152 489v-418q0 -32 10 -42t44 -12v-20q-49 6 -89 6t-89 -6 v20q35 3 44.5 12.5t9.5 41.5v316q0 38 -9 48t-45 11v17q65 7 124 26z"/>
<glyph glyph-name="eth" horiz-adv-x="385" unicode="ð" d="M193 456q-82 0 -82 -213q0 -227 83 -227q81 0 81 215q0 225 -82 225zM224 473l-48 85l-59 -46l-15 28l59 47l-43 76l19 15l50 -70l62 49l15 -29l-59 -47l66 -104q44 -70 61 -122.5t17 -120.5q0 -107 -43.5 -175.5t-111.5 -68.5q-69 0 -113 69.5t-44 178.5q0 106 44 175 t111 69q17 0 32 -9z"/>
<glyph glyph-name="ntilde" horiz-adv-x="448" unicode="ñ" d="M127 577l-22 8q12 54 28.5 76t45.5 22q28 0 62 -33q26 -25 44 -25q17 0 27.5 11.5t18.5 40.5l22 -6q-14 -103 -76 -103q-25 0 -65 37q-22 21 -39 21q-30 0 -46 -49zM30 442v18q64 10 107 30q6 -32 9 -87q40 78 109 78q65 0 97 -57q20 -38 20 -108v-245q0 -32 10 -42 t44 -12v-20q-48 6 -87 6q-40 0 -87 -6v20q30 2 40 12t10 40v251q0 61 -16 88.5t-52 27.5q-45 0 -66 -40q-15 -29 -15 -80v-247q0 -29 10 -40t39 -12v-20q-47 6 -86 6t-87 -6v20q35 2 44.5 12t9.5 42v309q0 41 -7 51t-36 11h-10z"/>
<glyph glyph-name="ograve" horiz-adv-x="385" unicode="ò" d="M252 551h-36l-131 147h89zM194 458q-83 0 -83 -224q0 -219 82 -219t82 219q0 224 -81 224zM197 484q69 0 110.5 -69t41.5 -184q0 -62 -20 -120.5t-52 -87.5q-38 -34 -84 -34q-69 0 -112.5 69t-43.5 178t44.5 178.5t115.5 69.5z"/>
<glyph glyph-name="oacute" horiz-adv-x="385" unicode="ó" d="M156 551l79 147h88l-131 -147h-36zM194 458q-83 0 -83 -224q0 -219 82 -219t82 219q0 224 -81 224zM197 484q69 0 110.5 -69t41.5 -184q0 -62 -20 -120.5t-52 -87.5q-38 -34 -84 -34q-69 0 -112.5 69t-43.5 178t44.5 178.5t115.5 69.5z"/>
<glyph glyph-name="ocircumflex" horiz-adv-x="385" unicode="ô" d="M69 552l105 146h38l105 -146h-38l-86 86l-86 -86h-38zM194 458q-83 0 -83 -224q0 -219 82 -219t82 219q0 224 -81 224zM197 484q69 0 110.5 -69t41.5 -184q0 -62 -20 -120.5t-52 -87.5q-38 -34 -84 -34q-69 0 -112.5 69t-43.5 178t44.5 178.5t115.5 69.5z"/>
<glyph glyph-name="otilde" horiz-adv-x="385" unicode="õ" d="M97 577l-23 8q12 54 29 76t46 22q28 0 61 -33q26 -25 45 -25q17 0 27.5 11.5t18.5 40.5l22 -6q-14 -103 -77 -103q-26 0 -64 37q-22 21 -39 21q-30 0 -46 -49zM194 458q-83 0 -83 -224q0 -219 82 -219t82 219q0 224 -81 224zM197 484q69 0 110.5 -69t41.5 -184 q0 -62 -20 -120.5t-52 -87.5q-38 -34 -84 -34q-69 0 -112.5 69t-43.5 178t44.5 178.5t115.5 69.5z"/>
<glyph glyph-name="odieresis" horiz-adv-x="385" unicode="ö" d="M265 666q19 0 32 -13.5t13 -31.5q0 -19 -13 -32.5t-32 -13.5t-32.5 13.5t-13.5 32.5t13.5 32t32.5 13zM122 666q19 0 32 -13.5t13 -31.5q0 -19 -13 -32.5t-32 -13.5q-20 0 -33 13.5t-13 32.5t13.5 32t32.5 13zM194 458q-83 0 -83 -224q0 -219 82 -219t82 219 q0 224 -81 224zM197 484q69 0 110.5 -69t41.5 -184q0 -62 -20 -120.5t-52 -87.5q-38 -34 -84 -34q-69 0 -112.5 69t-43.5 178t44.5 178.5t115.5 69.5z"/>
<glyph glyph-name="divide" d="M215 248q19 0 33.5 -14t14.5 -34t-14 -34.5t-34 -14.5t-34.5 14.5t-14.5 34.5t14.5 34t34.5 14zM216 524q20 0 34 -14t14 -34t-14 -34.5t-34 -14.5t-34.5 14.5t-14.5 34.5t14.5 34t34.5 14zM48 308v58h333v-58h-333z" unicode="÷"/>
<glyph glyph-name="oslash" horiz-adv-x="385" unicode="ø" d="M269 336l-147 -236q9 -37 28.5 -59.5t42.5 -22.5q40 0 62 59.5t22 166.5q0 52 -8 92zM115 141l147 236q-19 77 -69 77q-40 0 -62.5 -58.5t-22.5 -163.5q0 -48 7 -91zM21 -3l49 77q-33 69 -33 160q0 108 45 178t115 70q59 0 100 -53l30 46h32l-46 -72q35 -68 35 -163 q0 -109 -44.5 -179.5t-112.5 -70.5q-60 0 -105 58l-32 -51h-33z"/>
<glyph glyph-name="ugrave" horiz-adv-x="440" unicode="ù" d="M267 551h-36l-131 147h88zM18 446v17q62 7 123 26v-338q0 -61 16.5 -87.5t53.5 -26.5q80 0 80 127v223q0 37 -8 47.5t-37 10.5l-9 1v17q62 7 124 26v-400q0 -36 7.5 -45t37.5 -10h10v-18q-66 -8 -111 -26q-6 55 -6 77v11q-19 -45 -45 -65.5t-65 -20.5q-67 0 -98 55 q-20 37 -20 105v235q0 37 -8 47.5t-36 10.5z"/>
<glyph glyph-name="uacute" horiz-adv-x="440" unicode="ú" d="M175 551l79 147h88l-131 -147h-36zM18 446v17q62 7 123 26v-338q0 -61 16.5 -87.5t53.5 -26.5q80 0 80 127v223q0 37 -8 47.5t-37 10.5l-9 1v17q62 7 124 26v-400q0 -36 7.5 -45t37.5 -10h10v-18q-66 -8 -111 -26q-6 55 -6 77v11q-19 -45 -45 -65.5t-65 -20.5 q-67 0 -98 55q-20 37 -20 105v235q0 37 -8 47.5t-36 10.5z"/>
<glyph glyph-name="ucircumflex" horiz-adv-x="440" unicode="û" d="M92 552l106 146h37l106 -146h-38l-87 86l-86 -86h-38zM18 446v17q62 7 123 26v-338q0 -61 16.5 -87.5t53.5 -26.5q80 0 80 127v223q0 37 -8 47.5t-37 10.5l-9 1v17q62 7 124 26v-400q0 -36 7.5 -45t37.5 -10h10v-18q-66 -8 -111 -26q-6 55 -6 77v11q-19 -45 -45 -65.5 t-65 -20.5q-67 0 -98 55q-20 37 -20 105v235q0 37 -8 47.5t-36 10.5z"/>
<glyph glyph-name="udieresis" horiz-adv-x="440" unicode="ü" d="M289 666q19 0 32 -13.5t13 -31.5q0 -19 -13 -32.5t-32 -13.5t-32.5 13.5t-13.5 32.5t13.5 32t32.5 13zM146 666q19 0 32 -13.5t13 -31.5q0 -19 -13 -32.5t-32 -13.5q-20 0 -33 13.5t-13 32.5t13.5 32t32.5 13zM18 446v17q62 7 123 26v-338q0 -61 16.5 -87.5t53.5 -26.5 q80 0 80 127v223q0 37 -8 47.5t-37 10.5l-9 1v17q62 7 124 26v-400q0 -36 7.5 -45t37.5 -10h10v-18q-66 -8 -111 -26q-6 55 -6 77v11q-19 -45 -45 -65.5t-65 -20.5q-67 0 -98 55q-20 37 -20 105v235q0 37 -8 47.5t-36 10.5z"/>
<glyph glyph-name="yacute" horiz-adv-x="409" unicode="ý" d="M177 551l78 147h89l-131 -147h-36zM191 16l-117 392q-9 28 -20 36.5t-41 10.5v20q45 -5 85 -5q39 0 84 5v-20q-42 -4 -42 -20q0 -9 6 -28l79 -283l84 279q7 24 7 32q0 19 -46 20v20q32 -4 61 -4t70 4v-20q-27 -4 -40.5 -14.5t-20.5 -34.5l-151 -489q-18 -60 -45.5 -86.5 t-70.5 -26.5q-6 0 -11 1v50h8q36 0 58.5 20t37.5 66z"/>
<glyph glyph-name="thorn" horiz-adv-x="425" unicode="þ" d="M232 453q-41 0 -63.5 -54.5t-22.5 -156.5q0 -223 88 -223q81 0 81 216q0 218 -83 218zM147 678v-265q34 68 93 68q65 0 107 -69t42 -176q0 -109 -41 -177t-106 -68q-32 0 -53.5 16t-41.5 54v-187q0 -32 9.5 -42t44.5 -12v-20q-54 6 -91 6q-38 0 -87 -6v20q35 2 44.5 12 t9.5 42v701q0 39 -9 48.5t-45 10.5v18q66 7 124 26z"/>
<glyph glyph-name="OE" horiz-adv-x="742" unicode="Œ" d="M259 650q-66 0 -102.5 -82.5t-36.5 -232.5q0 -151 37 -234.5t104 -83.5q64 0 100 82t36 225q0 158 -35.5 242t-102.5 84zM398 0v95q-34 -59 -66 -83t-78 -24q-75 0 -132 63q-35 40 -57.5 118t-22.5 164q0 156 57.5 251t151.5 95q95 0 145 -105v93h282l14 -150h-19 q-15 72 -33.5 95.5t-59.5 23.5h-117v-274h116q24 0 31 11q12 16 15 71h20v-196h-20q-2 50 -12 66.5t-38 16.5h-112v-241q0 -35 11.5 -47t43.5 -12h57q47 0 68.5 26.5t38.5 103.5h19l-19 -161h-284z"/>
<glyph glyph-name="oe" horiz-adv-x="614" unicode="œ" d="M195 456q-84 0 -84 -224q0 -216 82 -216q39 0 60.5 54.5t21.5 154.5q0 231 -80 231zM347 273h160q-6 184 -78 184q-69 0 -82 -184zM546 154h32q-8 -78 -45 -120.5t-97 -42.5q-79 0 -127 79q-47 -80 -117 -80q-68 0 -111.5 68.5t-43.5 176.5q0 109 45 178t115 69t113 -78 q47 77 120 77q70 0 107.5 -63t39.5 -182h-231q1 -96 16 -139q25 -73 83 -73q41 0 67.5 34t33.5 96z"/>
<glyph glyph-name="Scaron" horiz-adv-x="425" unicode="Š" d="M354 859l-114 -136h-44l-114 136h40l96 -83l96 83h40zM52 202h20q23 -180 139 -180q48 0 78.5 36t30.5 94q0 49 -23 81t-87 70q-90 53 -120 93t-30 106q0 78 42.5 126t111.5 48q63 0 104 -51l23 55h15v-184h-20q-14 78 -42 114t-74 36q-43 0 -71 -33.5t-28 -84.5 q0 -45 23.5 -73t100.5 -75q80 -50 108.5 -91.5t28.5 -110.5q0 -83 -45 -135t-116 -52q-72 0 -126 57l-28 -63h-15v217z"/>
<glyph glyph-name="scaron" horiz-adv-x="351" unicode="š" d="M301 696l-106 -146h-38l-105 146h38l86 -86l87 86h38zM48 -12v167h19q20 -134 101 -134q34 0 57 25t23 62q0 30 -16.5 50.5t-56.5 41.5q-71 37 -96.5 68t-25.5 79q0 60 34 97t89 37q45 0 79 -31l13 40h15v-155h-19q-10 118 -82 118q-31 0 -51.5 -22.5t-20.5 -57.5 q0 -28 16.5 -48.5t56.5 -41.5q73 -37 98.5 -67t25.5 -80q0 -64 -36.5 -104.5t-94.5 -40.5q-53 0 -95 41l-18 -44h-15z"/>
<glyph glyph-name="Ydieresis" horiz-adv-x="483" unicode="Ÿ" d="M336 842q20 0 34 -14t14 -34t-14 -34.5t-34 -14.5t-34.5 14.5t-14.5 34.5t14.5 34t34.5 14zM192 842q20 0 34 -14t14 -34t-14 -34.5t-34 -14.5t-34.5 14.5t-14.5 34.5t14.5 34t34.5 14zM206 291l-117 300q-13 31 -26.5 41t-46.5 14v24q57 -7 100 -7q41 0 100 7v-24 q-31 -3 -43 -8.5t-12 -17.5q0 -11 7 -32l101 -256l98 257q8 21 8 31q0 12 -11.5 17.5t-42.5 8.5v24q43 -5 75 -5q33 0 74 5v-24q-34 -5 -47 -15t-25 -39l-117 -301v-203q0 -40 10.5 -51.5t51.5 -15.5v-24q-64 8 -100 8q-35 0 -100 -8v24q42 4 52.5 15.5t10.5 51.5v203z"/>
<glyph glyph-name="circumflex" horiz-adv-x="410" unicode="ˆ" d="M81 552l105 146h39l105 -146h-38l-87 86l-86 -86h-38z"/>
<glyph glyph-name="tilde" horiz-adv-x="410" unicode="˜" d="M103 577l-22 8q12 54 29 76t46 22q17 0 28.5 -7t42.5 -35q17 -16 34 -16t27.5 11.5t19.5 40.5l21 -6q-6 -49 -26 -76t-50 -27q-25 0 -65 37q-21 21 -39 21q-29 0 -46 -49z"/>
<glyph glyph-name="Alpha" horiz-adv-x="524" unicode="Α" d="M159 224h165l-76 297zM150 193l-28 -94q-9 -30 -9 -48q0 -14 11.5 -21t40.5 -9v-24q-43 5 -76 5t-76 -5v24q37 3 49 14.5t26 55.5l184 597l166 -608q11 -35 23.5 -45t49.5 -14v-24q-56 8 -97 8q-42 0 -98 -8v24q48 5 48 30q0 11 -5 34l-27 108h-182z"/>
<glyph glyph-name="Beta" horiz-adv-x="468" unicode="Β" d="M168 333v-251q0 -32 9 -41.5t39 -9.5h18q55 0 84.5 41t29.5 117q0 85 -38 121q-25 23 -79 23h-63zM168 364h42q37 0 58 10t35 34q20 34 20 94q0 84 -33 114q-22 20 -67 20h-55v-272zM31 667h207q86 0 123 -45q40 -48 40 -117q0 -107 -94 -149q57 -13 88 -56.5t31 -108.5 q0 -55 -23.5 -100.5t-63.5 -68.5q-39 -22 -109 -22h-199v24q41 5 52 16t11 50v486q0 40 -11 51t-52 15v25z"/>
<glyph glyph-name="Gamma" horiz-adv-x="414" unicode="Γ" d="M231 21v-24q-64 8 -99 8q-36 0 -101 -8v24q42 4 52.5 15.5t10.5 51.5v488q0 39 -11 50.5t-52 15.5v25h348l15 -150h-19q-16 72 -34.5 95.5t-59.5 23.5h-112v-548q0 -40 10.5 -51.5t51.5 -15.5z"/>
<glyph glyph-name="uni0394" horiz-adv-x="413" unicode="Δ" d="M56 63h185q59 0 59 29q0 13 -6 33l-106 409zM407 0h-400l193 679h19z"/>
<glyph glyph-name="Epsilon" horiz-adv-x="445" unicode="Ε" d="M402 161l-19 -161h-352v25q41 4 52 15t11 51v485q0 39 -11 50.5t-52 15.5v25h348l14 -150h-19q-15 72 -33.5 95.5t-59.5 23.5h-112v-274h111q26 0 35 15.5t11 66.5h20v-196h-20q-2 50 -12 66.5t-38 16.5h-107v-241q0 -35 10.5 -47t41.5 -12h55q49 0 67 25q24 33 40 105 h19z"/>
<glyph glyph-name="Zeta" horiz-adv-x="440" unicode="Ζ" d="M30 0l286 636h-130q-45 0 -66.5 -24.5t-36.5 -92.5h-21l21 148h326l-286 -636h147q54 0 72 23q26 33 48 108h20l-23 -162h-357z"/>
<glyph glyph-name="Eta" horiz-adv-x="552" unicode="Η" d="M168 363h217v216q0 40 -10.5 51.5t-51.5 15.5v24q66 -7 100 -7q33 0 99 7v-24q-42 -4 -52.5 -15.5t-10.5 -51.5v-491q0 -40 10.5 -51.5t52.5 -15.5v-24q-63 8 -99 8t-100 -8v24q41 4 51.5 15.5t10.5 51.5v244h-217v-244q0 -40 10.5 -51.5t51.5 -15.5v-24q-64 8 -100 8 t-99 -8v24q42 4 52.5 15.5t10.5 51.5v491q0 40 -10.5 51.5t-52.5 15.5v24q66 -7 99 -7q34 0 100 7v-24q-41 -4 -51.5 -15.5t-10.5 -51.5v-216z"/>
<glyph glyph-name="Theta" horiz-adv-x="516" unicode="Θ" d="M258 652q-64 0 -100 -83t-36 -231q0 -153 36 -237.5t101 -84.5q63 0 98 83.5t35 232.5q0 153 -35 236.5t-99 83.5zM257 680q100 0 157.5 -95t57.5 -261q0 -90 -26.5 -170.5t-68.5 -118.5q-51 -47 -118 -47q-80 0 -136 64q-36 40 -58 117t-22 163q0 159 58 253.5t156 94.5 zM199 237h-20v196h20q2 -49 11 -64t35 -15h26q26 0 35 15t11 64h20v-196h-20q-2 48 -12 64t-38 16h-18q-28 0 -38 -16t-12 -64z"/>
<glyph glyph-name="Iota" horiz-adv-x="261" unicode="Ι" d="M231 21v-24q-64 8 -99 8q-36 0 -101 -8v24q42 4 52.5 15.5t10.5 51.5v491q0 40 -11 51t-52 16v24q67 -7 101 -7q33 0 99 7v-24q-41 -5 -51.5 -16t-10.5 -51v-491q0 -40 10.5 -51.5t51.5 -15.5z"/>
<glyph glyph-name="Kappa" horiz-adv-x="520" unicode="Κ" d="M241 404l176 -318q22 -38 38.5 -50.5t49.5 -14.5v-24q-60 8 -104 8t-104 -8v24q12 2 13 2q42 4 42 24q0 10 -14 36l-140 263l-32 -45v-213q0 -40 10 -51.5t50 -15.5v-24q-55 8 -94 8q-40 0 -101 -8v24q41 5 52 16t11 51v491q0 40 -11 51.5t-52 15.5v24q67 -7 101 -7t96 7 v-24q-41 -5 -51.5 -16t-10.5 -51v-231l179 251q10 15 10 26q0 17 -36 20q-7 0 -13 1v24q45 -5 82 -5t82 5v-24q-35 -2 -53 -12.5t-41 -40.5z"/>
<glyph glyph-name="Lambda" horiz-adv-x="523" unicode="Λ" d="M242 534l-123 -438q-9 -31 -9 -45t12 -21t41 -9v-24q-37 6 -73 6q-37 0 -77 -6v24q32 3 46.5 15t24.5 44l170 599h20l164 -596q11 -37 23.5 -47.5t48.5 -14.5v-24q-53 8 -96 8q-44 0 -97 -8v24q49 6 49 29q0 13 -6 34z"/>
<glyph glyph-name="Mu" horiz-adv-x="667" unicode="Μ" d="M143 595l-17 -507v-9q0 -32 12 -42.5t54 -14.5v-25q-49 5 -80 5t-82 -5v25h9q36 4 45.5 15t11.5 51l17 491v6q0 35 -12.5 46t-53.5 14v25q40 -4 67 -4q41 0 78 5l147 -498l147 498q44 -5 78 -5q24 0 64 4v-24q-43 -4 -54.5 -16t-11.5 -51l8 -491q2 -40 12.5 -51t53.5 -15 v-25q-64 8 -101 8t-101 -8v25q42 2 54 14t12 50v2l-8 506l-169 -576h-12z"/>
<glyph glyph-name="Nu" horiz-adv-x="548" unicode="Ν" d="M455 -20h-13q-9 18 -27 52q-3 7 -56 107l-234 438v-489q0 -40 11 -51.5t54 -15.5v-24q-55 5 -81 5q-28 0 -78 -5v24q43 4 54 15.5t11 51.5v528q-18 26 -66 30v24q42 -3 68 -3q23 0 59 3l268 -500v409q0 40 -11 51t-53 16v24q53 -5 81 -5q29 0 78 5v-24q-43 -5 -54 -16 t-11 -51v-599z"/>
<glyph glyph-name="Xi" horiz-adv-x="452" unicode="Ξ" d="M103 248h-20v196h20q2 -43 11.5 -56t36.5 -13h151q27 0 36.5 13t11.5 56h20v-196h-20q-2 42 -11.5 56t-36.5 14h-151q-27 0 -36.5 -14t-11.5 -56zM54 517h-19l15 150h353l14 -150h-19q-13 52 -31 69.5t-56 17.5h-170q-38 0 -55.5 -17t-31.5 -70zM27 161h19q15 -58 35 -78 t63 -20h164q43 0 63.5 20t35.5 78h19l-19 -161h-362z"/>
<glyph glyph-name="Omicron" horiz-adv-x="516" unicode="Ο" d="M258 652q-64 0 -100 -83t-36 -231q0 -153 36 -237.5t101 -84.5q63 0 98 83.5t35 232.5q0 153 -35 236.5t-99 83.5zM257 680q100 0 157.5 -95t57.5 -261q0 -90 -26.5 -170.5t-68.5 -118.5q-51 -47 -118 -47q-80 0 -136 64q-36 40 -58 117t-22 163q0 159 58 253.5t156 94.5 z"/>
<glyph glyph-name="Pi" horiz-adv-x="552" unicode="Π" d="M522 667v-25q-41 -4 -52 -15t-11 -51v-488q0 -40 10.5 -51.5t52.5 -15.5v-24q-63 8 -99 8t-100 -8v24q41 4 51.5 15.5t10.5 51.5v482q0 46 -16.5 56t-91.5 10q-77 0 -93 -10t-16 -56v-482q0 -40 10.5 -51.5t51.5 -15.5v-24q-64 8 -100 8t-99 -8v24q42 4 52.5 15.5 t10.5 51.5v488q0 40 -11 51t-52 15v25h491z"/>
<glyph glyph-name="Rho" horiz-adv-x="446" unicode="Ρ" d="M169 332h52q70 0 100 51q23 41 23 104q0 87 -40 125q-24 24 -78 24h-57v-304zM169 301v-213q0 -40 10.5 -51.5t51.5 -15.5v-24q-64 8 -99 8q-36 0 -101 -8v24q42 4 52.5 15.5t10.5 51.5v488q0 40 -11 51t-52 15v25h205q97 0 138 -50q45 -53 45 -133q0 -85 -46.5 -134 t-127.5 -49h-76z"/>
<glyph glyph-name="Sigma" horiz-adv-x="407" unicode="Σ" d="M209 310l-170 357h325l22 -148h-21q-14 67 -36 92t-67 25h-131l137 -286l-187 -287h194q29 0 41.5 6.5t24.5 26.5q13 20 27 66h19l-23 -162h-357z"/>
<glyph glyph-name="Tau" horiz-adv-x="433" unicode="Τ" d="M414 514h-20q-17 75 -35 98.5t-59 23.5h-46v-548q0 -40 10.5 -51.5t51.5 -15.5v-24q-61 8 -99 8t-101 -8v24q42 4 52.5 15.5t10.5 51.5v548h-41q-41 0 -60.5 -24t-37.5 -98h-20l22 153h350z"/>
<glyph glyph-name="Upsilon" horiz-adv-x="483" unicode="Υ" d="M206 291l-117 300q-13 31 -26.5 41t-46.5 14v24q57 -7 100 -7q41 0 100 7v-24q-31 -3 -43 -8.5t-12 -17.5q0 -11 7 -32l101 -256l98 257q8 21 8 31q0 12 -11.5 17.5t-42.5 8.5v24q43 -5 75 -5q33 0 74 5v-24q-34 -5 -47 -15t-25 -39l-117 -301v-203q0 -40 10.5 -51.5 t51.5 -15.5v-24q-64 8 -100 8q-35 0 -100 -8v24q42 4 52.5 15.5t10.5 51.5v203z"/>
<glyph glyph-name="Phi" horiz-adv-x="606" unicode="Φ" d="M339 551v-435q75 2 116 60t41 161q0 100 -41.5 156.5t-115.5 57.5zM266 116v435q-73 -1 -114.5 -57.5t-41.5 -156.5q0 -103 41 -161t115 -60zM339 583v-3q93 -6 144 -44q43 -31 66.5 -83.5t23.5 -115.5q0 -86 -38.5 -148.5t-105.5 -84.5q-34 -12 -90 -17v-3 q1 -37 11.5 -48t51.5 -15v-24q-65 8 -99 8q-35 0 -99 -8v24q40 4 50.5 15t11.5 48v3q-50 3 -89 17q-67 22 -105.5 84.5t-38.5 148.5q0 69 28.5 125t78.5 85q45 27 126 33v4q0 36 -11 46.5t-51 15.5v24q66 -7 99 -7q32 0 99 7v-24q-41 -4 -51.5 -15t-11.5 -48z"/>
<glyph glyph-name="Chi" horiz-adv-x="507" unicode="Χ" d="M282 378l125 -292q19 -41 32 -51.5t50 -13.5v-24q-63 7 -103 7t-103 -7v24q12 2 14 2q41 5 41 25q0 16 -14 49l-85 197l-102 -205q-16 -30 -16 -44q0 -20 51 -24v-24q-42 5 -79 5t-79 -5v24q32 2 50.5 16.5t42.5 59.5l117 233l-110 255q-13 35 -27.5 46t-49.5 15v24 q56 -7 100 -7t100 7v-24q-31 -4 -42.5 -9.5t-11.5 -15.5q0 -12 9 -33l75 -174l85 169q13 26 13 39q0 20 -50 24v24q37 -5 78 -5t78 5v-24q-35 -4 -50 -14t-30 -38z"/>
<glyph glyph-name="Psi" horiz-adv-x="591" unicode="Ψ" d="M332 579v-368q58 3 90 38q17 19 23.5 45t6.5 76v163q0 58 9 83.5t34 39.5q16 9 31.5 11.5t60.5 2.5v-24q-41 -5 -51.5 -16t-10.5 -51v-185q0 -61 -14 -99.5t-47 -66.5q-49 -43 -132 -45v-95q0 -40 10.5 -51.5t51.5 -15.5v-24q-64 8 -98 8q-35 0 -100 -8v24 q42 4 52.5 15.5t10.5 51.5v95q-94 1 -145 57q-48 52 -48 154v185q0 40 -11 51t-52 16v24q45 0 61 -2.5t32 -11.5q25 -14 34 -39.5t9 -83.5v-163q0 -55 8 -82.5t29 -46.5q30 -27 83 -30v368q0 40 -11 51t-52 16v24q67 -7 100 -7q32 0 98 7v-24q-41 -5 -51.5 -16t-10.5 -51z "/>
<glyph glyph-name="alpha" horiz-adv-x="445" unicode="α" d="M288 204q-13 148 -43 214q-20 40 -50 40q-41 0 -62.5 -57.5t-21.5 -166.5q0 -104 20 -161.5t56 -57.5q59 0 101 189zM432 40v-23q-22 -25 -52 -25q-24 0 -38.5 23.5t-28.5 85.5q-22 -53 -55 -82.5t-71 -29.5q-66 0 -108 69t-42 178t44.5 178.5t115.5 69.5 q53 0 83.5 -34.5t43.5 -109.5q13 80 19 132h64q-15 -121 -52 -269q25 -173 53 -173q9 0 24 10z"/>
<glyph glyph-name="beta" horiz-adv-x="423" unicode="β" d="M144 62v-188q0 -32 10 -42t44 -12v-20q-52 6 -91 6t-87 -6v20q34 2 44 12t10 42v597q0 94 26 139q41 71 128 71q68 0 105.5 -43.5t37.5 -123.5q0 -133 -107 -159q60 -8 87 -39q35 -43 35 -125q0 -81 -33 -137q-37 -63 -108 -63q-36 0 -58 15.5t-43 55.5zM198 335v27h16 q40 0 61.5 39t21.5 111q0 141 -73 141q-54 0 -72 -67q-8 -34 -8 -107v-242q0 -218 88 -218q38 0 59 44t21 124q0 78 -21.5 113t-68.5 35h-24z"/>
<glyph glyph-name="gamma" horiz-adv-x="401" unicode="γ" d="M165 58l-97 350q-8 27 -19.5 36t-41.5 11v20q45 -5 84 -5q40 0 85 5v-20q-42 -4 -42 -20q0 -7 6 -28l80 -303l84 299q6 21 6 31q0 20 -46 21v20q33 -4 61 -4q29 0 70 4v-20q-27 -4 -40.5 -14.5t-20.5 -34.5l-99 -348v-184q0 -33 9.5 -42.5t44.5 -11.5v-20q-52 6 -91 6 t-87 -6v20q34 2 44 12t10 42v184z"/>
<glyph glyph-name="delta" horiz-adv-x="385" unicode="δ" d="M197 445q-86 0 -86 -210q0 -220 81 -220q83 0 83 217q0 79 -15.5 121.5t-62.5 91.5zM252 616l1 11q0 28 -40 28q-23 0 -36.5 -13.5t-13.5 -36.5q0 -20 11 -37.5t47 -54.5q76 -79 102 -134.5t26 -140.5q0 -109 -44 -179t-112 -70q-69 0 -112.5 68.5t-43.5 176.5 q0 96 37 160t99 75q-54 53 -67.5 73t-13.5 50q0 41 31.5 65t85.5 24q46 0 74.5 -21t28.5 -54q0 -37 -32 -37t-32 29q0 6 4 18z"/>
<glyph glyph-name="epsilon" horiz-adv-x="353" unicode="ε" d="M209 259v-27h-22q-80 0 -80 -102q0 -51 21 -79.5t58 -28.5q76 0 89 132h32q-6 -58 -25 -97q-19 -37 -45.5 -52.5t-69.5 -15.5q-64 0 -100 37.5t-36 103.5q0 96 77 119q-72 20 -72 108q0 59 35.5 93.5t96.5 34.5q64 0 96 -43l20 51h15v-165h-19q-19 130 -96 130 q-34 0 -53 -27t-19 -74q0 -98 76 -98h21z"/>
<glyph glyph-name="zeta" horiz-adv-x="319" unicode="ζ" d="M174 681l10 -13q-22 -28 -22 -55q0 -44 53 -44q24 0 51 9q15 5 23 5q6 0 11 -5t5 -11q0 -24 -63 -28q-29 -14 -47 -32t-35 -49q-46 -83 -46 -220q0 -116 37 -158q26 -29 81 -35q43 -5 58.5 -19.5t15.5 -47.5q0 -51 -42 -89t-98 -38q-27 0 -43.5 13t-16.5 33q0 15 10.5 25 t24.5 10q13 0 19.5 -6t17.5 -27q6 -11 21 -11q28 0 48 18.5t20 44.5q0 17 -11 23q-9 6 -57 12q-63 8 -99 47q-62 65 -62 198q0 165 89 259q32 35 65 49q-36 4 -52.5 20t-16.5 45q0 48 51 77z"/>
<glyph glyph-name="eta" horiz-adv-x="436" unicode="η" d="M30 442v18q64 10 107 30q6 -32 9 -87q40 78 109 78q65 0 97 -57q20 -38 20 -108v-442q0 -32 10 -42t44 -12v-20q-48 6 -87 6q-40 0 -87 -6v19q30 1 40 12t10 41v448q0 61 -16 88.5t-52 27.5q-45 0 -66 -40q-15 -29 -15 -80v-247q0 -29 10 -40t39 -12v-20q-47 6 -86 6 t-87 -6v20q35 2 44.5 12t9.5 42v309q0 41 -7 51t-36 11h-10z"/>
<glyph glyph-name="theta" horiz-adv-x="385" unicode="θ" d="M197 681q54 0 94 -64q25 -40 41.5 -119.5t16.5 -160.5q0 -153 -44 -250.5t-112 -97.5q-69 0 -112.5 96.5t-43.5 248.5q0 154 44.5 250.5t115.5 96.5zM111 363h163q-6 292 -80 292q-77 0 -83 -292zM275 326h-164q0 -311 81 -311q33 0 53 53q26 68 30 258z"/>
<glyph glyph-name="iota" horiz-adv-x="233" unicode="ι" d="M153 489v-418q0 -32 10 -42t45 -12v-20q-53 6 -90 6t-89 -6v20q35 2 44.5 12t9.5 42v316q0 39 -8.5 48.5t-44.5 10.5v17q65 7 123 26z"/>
<glyph glyph-name="kappa" horiz-adv-x="424" unicode="κ" d="M145 183v-114q0 -29 10 -40t39 -12v-20q-47 6 -86 6t-87 -6v20q35 2 44.5 12t9.5 42v330q0 32 -10 42t-44 12v20q48 -6 87 -6t86 6v-20q-29 -1 -39 -12t-10 -40v-171l124 171q14 20 14 28q0 21 -43 24v20q39 -5 76 -5q36 0 80 5v-20q-30 -3 -44.5 -11.5t-36.5 -35.5 l-84 -113l121 -224q20 -35 31 -43.5t41 -10.5v-20q-52 5 -82 5t-83 -5v20q26 3 32.5 6t6.5 11q0 7 -9 23l-100 183z"/>
<glyph glyph-name="lambda" horiz-adv-x="401" unicode="λ" d="M395 17v-20q-45 5 -85 5q-39 0 -84 -5v20q42 4 42 19q0 5 -6 29l-68 284l-96 -280q-6 -16 -6 -31q0 -20 45 -21v-20q-32 4 -60 4q-29 0 -70 -4v20q27 4 40 14t20 35l112 343l-45 188q-7 24 -18 30.5t-46 6.5v18q84 11 118 26q5 -23 8 -42q1 -8 2.5 -15t3 -12.5t1.5 -6.5 l131 -538q7 -27 19.5 -36t41.5 -11z"/>
<glyph glyph-name="uni03BC" horiz-adv-x="440" unicode="μ" d="M299 65v13q-19 -45 -45 -65.5t-65 -20.5q-52 0 -85 36q-1 -7 -1 -23q0 -36 22 -88q17 -40 17 -58q0 -22 -12 -36.5t-30 -14.5q-37 0 -37 53q0 21 9 90q7 53 7 103q0 12 -3 36q-5 42 -5 62v235q0 35 -7.5 47t-31.5 12h-8h-6v17q62 7 123 26v-338q0 -61 16.5 -87.5 t53.5 -26.5q80 0 80 127v223q0 35 -8 47t-32 12h-8h-6v17q62 7 124 26v-400q0 -36 7.5 -45t37.5 -10h10v-18q-66 -8 -111 -26q-6 42 -6 75z"/>
<glyph glyph-name="nu" horiz-adv-x="398" unicode="ν" d="M209 -12h-21l-124 422q-9 27 -19 35t-41 10v20q58 -6 89 -6q26 0 84 6v-20q-43 0 -43 -22q0 -7 5 -24l80 -292l85 289q6 20 6 30q0 19 -40 19v20q36 -4 62 -4q25 0 61 4v-20q-29 -2 -39.5 -11t-19.5 -38z"/>
<glyph glyph-name="xi" horiz-adv-x="326" unicode="ξ" d="M174 681l10 -13q-22 -28 -22 -55q0 -44 53 -44q24 0 51 9q15 5 23 5q6 0 11 -5t5 -11q0 -28 -80 -30q-84 -34 -84 -118q0 -38 12.5 -62t32.5 -26q36 13 51 13q20 0 20 -17q0 -27 -52 -27q-16 0 -26 2q-65 -31 -65 -131q0 -59 27 -88.5t91 -37.5q44 -6 57 -19 q17 -17 17 -48q0 -51 -42 -89t-98 -38q-27 0 -43.5 13t-16.5 33q0 15 10.5 25t24.5 10q13 0 19.5 -6t17.5 -27q6 -11 21 -11q28 0 48 18.5t20 44.5q0 16 -9.5 22t-38.5 10q-58 8 -89 22q-92 43 -92 152q0 115 100 155q-67 32 -67 105q0 89 103 125q-51 12 -51 62q0 48 51 77 z"/>
<glyph glyph-name="omicron" horiz-adv-x="385" unicode="ο" d="M194 458q-83 0 -83 -224q0 -219 82 -219t82 219q0 224 -81 224zM197 484q54 0 93 -44q26 -31 42.5 -87t16.5 -116q0 -109 -44 -178.5t-112 -69.5q-69 0 -112.5 69t-43.5 178t44.5 178.5t115.5 69.5z"/>
<glyph glyph-name="pi" horiz-adv-x="458" unicode="π" d="M292 412h-116v-311q-1 -66 -9 -82q-15 -30 -48 -30q-24 0 -44 16t-46 55l13 14q18 -22 26.5 -28.5t18.5 -6.5q13 0 18.5 12.5t5.5 42.5v318h-22q-41 0 -81 -64l-15 10l10 18q14 26 21 40q24 44 49 53q9 3 49 3h231q53 0 67.5 6t24.5 31h16q-25 -69 -29 -97h-69v-313 q0 -49 8 -62.5t39 -13.5h3v-18q-63 -1 -91 -16h-5q-25 32 -25 108v315z"/>
<glyph glyph-name="rho" horiz-adv-x="409" unicode="ρ" d="M217 458q-42 0 -64.5 -55t-22.5 -157q0 -227 87 -227q82 0 82 211q0 228 -82 228zM131 61v-187q0 -32 9.5 -42t44.5 -12v-20q-52 6 -91 6t-87 -6v20q34 2 44 12t10 42v343q0 104 24 163q43 101 132 101q70 0 113 -67.5t43 -177.5q0 -109 -41 -177t-106 -68 q-32 0 -53.5 16t-41.5 54z"/>
<glyph glyph-name="uni03C2" horiz-adv-x="350" unicode="ς" d="M313 328h-19q-20 129 -88 129q-43 0 -67.5 -58.5t-24.5 -162.5q0 -114 37 -156q14 -16 31.5 -23.5t49.5 -11.5q43 -6 58.5 -20t15.5 -47q0 -51 -41.5 -89t-97.5 -38q-27 0 -43.5 13t-16.5 33q0 15 10.5 25t24.5 10q12 0 19 -6.5t17 -26.5q7 -11 21 -11q28 0 48 18.5 t20 44.5q0 17 -11 23q-9 6 -57 12q-35 5 -56.5 14.5t-42.5 31.5q-62 67 -62 201q0 112 44 181.5t114 69.5q50 0 82 -42l20 51h15v-165z"/>
<glyph glyph-name="sigma" horiz-adv-x="388" unicode="σ" d="M194 451q-83 0 -83 -224q0 -212 81 -212q82 0 82 215q0 221 -80 221zM361 484v-53q-43 0 -72 7q-3 1 -5 1l5 -5q26 -31 42.5 -86t16.5 -113q0 -107 -44 -176.5t-112 -69.5t-111.5 69t-43.5 178q0 110 44.5 179t114.5 69q10 0 35 -2q29 -4 68 -4q35 0 62 6z"/>
<glyph glyph-name="tau" horiz-adv-x="344" unicode="τ" d="M212 412v-341q0 -32 10 -42t44 -12v-20q-52 6 -89 6t-89 -6v20q34 2 44 12t10 42v341h-53q-41 0 -81 -64l-15 10q2 3 4.5 7.5t4 7t1.5 3.5q14 26 21 40q24 44 49 53q9 3 49 3h120q53 0 67 5.5t24 31.5h17q-25 -69 -30 -97h-108z"/>
<glyph glyph-name="upsilon" horiz-adv-x="406" unicode="υ" d="M141 489v-340q0 -60 7 -81q17 -50 65 -50q55 0 89.5 63.5t34.5 164.5q0 72 -17 107t-59 52q-34 12 -34 40q0 18 10.5 28.5t29.5 10.5q44 0 73 -64.5t29 -160.5q0 -125 -47 -197.5t-127 -72.5q-70 0 -104 56q-20 37 -20 106v236q0 35 -7.5 47t-31.5 12h-8h-6v17 q62 7 123 26z"/>
<glyph glyph-name="phi" horiz-adv-x="488" unicode="φ" d="M278 403v-388q102 9 102 215q0 93 -21.5 160.5t-51.5 67.5q-29 0 -29 -55zM210 15v353q0 56 24 86t69 30q65 0 107 -70t42 -177q0 -111 -47.5 -179.5t-124.5 -68.5h-2v-115q0 -32 10 -42t45 -12v-20q-53 6 -89 6t-88 -6v20q34 2 44 12t10 42v115h-2q-76 0 -123.5 68.5 t-47.5 178.5q0 166 108 232l14 -19q-28 -40 -39 -86t-11 -122q0 -217 101 -226z"/>
<glyph glyph-name="chi" horiz-adv-x="369" unicode="χ" d="M376 -180v-20q-49 5 -85 5q-37 0 -87 -5v20q39 1 39 20q0 7 -6 27l-67 215l-73 -206q-9 -26 -9 -35q0 -11 8 -15t31 -6v-20q-55 4 -67 4q-11 0 -67 -4v20q55 1 76 58l88 248l-89 287q-7 22 -20.5 31.5t-39.5 10.5v20q47 -5 81 -5q33 0 82 5v-20q-38 -3 -38 -19 q0 -5 7 -27l55 -175l61 174q7 21 7 28q0 10 -8.5 13.5t-30.5 5.5v20q43 -4 66 -4t62 4v-20q-28 -1 -42.5 -11t-22.5 -32l-78 -222l99 -318q9 -30 23.5 -40.5t44.5 -11.5z"/>
<glyph glyph-name="psi" horiz-adv-x="498" unicode="ψ" d="M299 489v-465q58 17 91 81t33 161q0 58 -12.5 90.5t-41.5 49.5t-29 41q0 17 10 27t27 10q38 0 61.5 -58t23.5 -151q0 -115 -44.5 -192t-118.5 -91v-118q0 -32 10 -42t45 -12v-20q-53 6 -89 6t-88 -6v20q35 2 44.5 12t9.5 42v116q-83 8 -121.5 61.5t-38.5 159.5v176 q0 35 -7.5 47t-31.5 12h-8h-6v17q62 7 123 26v-280q0 -91 20 -132.5t70 -55.5v451q25 5 68 17z"/>
<glyph glyph-name="theta1" horiz-adv-x="422" unicode="ϑ" d="M303 436q0 3 -1 8q-11 211 -105 211q-26 0 -41 -20.5t-15 -57.5q0 -75 62 -115q33 -21 100 -26zM377 436h32v-37h-30l1 -51q0 -359 -182 -359q-72 0 -106 56q-21 36 -21 106v21q0 39 -9 49t-44 10v17q64 7 123 27v-126q0 -62 7 -83q8 -23 24.5 -37t35.5 -14q47 0 72 79 t25 226q0 52 -1 72v6v3q-110 3 -167 44.5t-57 117.5q0 54 31.5 86t84.5 32q91 0 135 -81q38 -66 46 -164z"/>
<glyph glyph-name="uni2002" horiz-adv-x="500" unicode=" "/>
<glyph glyph-name="uni2003" horiz-adv-x="1000" unicode=" "/>
<glyph glyph-name="uni2009" horiz-adv-x="125" unicode=" "/>
<glyph glyph-name="endash" d="M72 246v43h284v-43h-284z" unicode="–"/>
<glyph glyph-name="emdash" horiz-adv-x="479" unicode="—" d="M5 246v43h469v-43h-469z"/>
<glyph glyph-name="quoteleft" horiz-adv-x="200" unicode="‘" d="M112 671h38q-22 -24 -40 -63t-20 -66h3q3 2 7 2q17 0 27.5 -13t10.5 -34q0 -22 -12.5 -37t-31.5 -15q-20 0 -32.5 16.5t-12.5 44.5q0 77 63 165z"/>
<glyph glyph-name="quotesinglbase" horiz-adv-x="200" unicode="‚" d="M88 -134h-38q23 28 41 66t19 64h-3q-3 -2 -7 -2q-17 0 -27.5 13t-10.5 34q0 23 12.5 37.5t31.5 14.5q20 0 32.5 -16.5t12.5 -44.5q0 -72 -63 -166z"/>
<glyph glyph-name="quotedblleft" horiz-adv-x="322" unicode="“" d="M113 671h38q-22 -24 -40 -63t-20 -66h3q3 2 7 2q17 0 27.5 -13t10.5 -34q0 -22 -12.5 -37t-31.5 -15q-20 0 -32.5 16.5t-12.5 44.5q0 77 63 165zM234 671h39q-22 -24 -40.5 -63t-19.5 -66h3q3 2 7 2q17 0 27.5 -13t10.5 -34q0 -22 -12.5 -37t-31.5 -15q-21 0 -33.5 16.5 t-12.5 44.5q0 79 63 165z"/>
<glyph glyph-name="quotedblright" horiz-adv-x="322" unicode="”" d="M210 451h-39q24 28 41 65.5t19 63.5h-3q-3 -1 -6 -1q-17 0 -27.5 13t-10.5 34q0 23 12.5 37.5t31.5 14.5q20 0 32.5 -16.5t12.5 -44.5q0 -74 -63 -166zM88 451h-38q24 29 41.5 66t18.5 63h-3q-3 -1 -7 -1q-17 0 -27.5 13t-10.5 34q0 23 12.5 37.5t31.5 14.5 q20 0 32.5 -16.5t12.5 -44.5q0 -72 -63 -166z"/>
<glyph glyph-name="dagger" d="M240 417l6 -536h-63l6 536l-128 -10v69l128 -10l-6 184h63l-6 -184l128 10v-69z" unicode="†"/>
<glyph glyph-name="daggerdbl" horiz-adv-x="430" unicode="‡" d="M239 429v-317l128 10v-69l-128 10l7 -182h-63l7 182l-127 -10v69l127 -10v317l-127 -10v69l127 -11l-7 173h63l-7 -173l128 11v-69z"/>
<glyph glyph-name="ellipsis" horiz-adv-x="565" unicode="…" d="M467 90q19 0 33.5 -14t14.5 -34t-14 -34.5t-34 -14.5t-34.5 14.5t-14.5 34.5t14.5 34t34.5 14zM285 90q19 0 33.5 -14t14.5 -34t-14 -34.5t-34 -14.5t-34.5 14.5t-14.5 34.5t14.5 34t34.5 14zM97 90q19 0 33.5 -14t14.5 -34t-14 -34.5t-34 -14.5t-34.5 14.5t-14.5 34.5 t14.5 34t34.5 14z"/>
<glyph glyph-name="perthousand" horiz-adv-x="743" unicode="‰" d="M608 290q-53 0 -53 -130q0 -142 52 -142t52 136t-51 136zM609 314q46 0 74.5 -44t28.5 -115t-29.5 -116t-76.5 -45q-46 0 -75 45t-29 116q0 69 30.5 114t76.5 45zM361 290q-53 0 -53 -138q0 -134 52 -134t52 136t-51 136zM362 314q46 0 74.5 -44t28.5 -115t-29.5 -116 t-76.5 -45q-46 0 -75 45t-29 116q0 69 30.5 114t76.5 45zM75 0l313 667h33l-313 -667h-33zM137 649q-25 0 -39 -34.5t-14 -95.5q0 -142 52 -142t52 135q0 137 -51 137zM138 673q46 0 74.5 -44t28.5 -115q0 -70 -29.5 -115.5t-75.5 -45.5q-47 0 -76 44.5t-29 117.5 q0 68 30.5 113t76.5 45z"/>
<glyph glyph-name="guilsinglleft" horiz-adv-x="220" unicode="‹" d="M145 472h26l-66 -233l66 -239h-26l-97 239z"/>
<glyph glyph-name="guilsinglright" horiz-adv-x="223" unicode="›" d="M78 472l97 -233l-97 -239h-26l66 239l-66 233h26z"/>
<glyph glyph-name="uni203E" horiz-adv-x="426" unicode="‾" d="M25 843h376v-39h-376v39z"/>
<glyph glyph-name="fraction" horiz-adv-x="51" unicode="⁄" d="M-144 0l306 652h34l-306 -652h-34z"/>
<glyph glyph-name="Euro" d="M415 130v-71q-53 -71 -136 -71q-81 0 -131 68.5t-62 195.5h-85l22 44h60q0 44 1 65h-67l21 44h50q16 124 64.5 190t124.5 66q66 0 102 -56l20 55h16v-195h-20q-25 158 -108 158q-47 0 -76 -45q-34 -51 -46 -173h201l-16 -44h-188v-10v-20v-25v-10h165l-16 -44h-147 q18 -220 128 -220q28 0 47 11t46 43q18 22 30 44z" unicode="€"/>
<glyph glyph-name="trademark" horiz-adv-x="706" unicode="™" d="M374 610l-10 -288v-4q0 -19 8 -25.5t33 -6.5v-21q-39 3 -51 3q-18 0 -53 -3v21q26 1 32.5 7t8.5 29l10 290q0 22 -7 28.5t-34 7.5v21q20 -2 43 -2q18 0 50 3l90 -293l92 293q35 -3 49 -3q22 0 42 2v-21q-27 -2 -34 -8t-7 -28l5 -290q1 -23 7.5 -29t33.5 -7v-22 q-39 5 -65 5q-25 0 -64 -5v22q27 2 34 8t7 28l-4 288l-82 -263l-21 -69h-11q-4 14 -9.5 33t-11.5 38zM254 667l15 -97h-17q-7 40 -20 56t-38 16h-27v-320q0 -23 7.5 -29.5t33.5 -6.5v-21q-32 4 -58 4q-40 0 -72 -4v21q26 1 33.5 7.5t7.5 28.5v320h-24q-26 0 -39 -16t-20 -56 h-18l15 97h221z"/>
<glyph glyph-name="arrowleft" horiz-adv-x="543" unicode="←" d="M528 363v-51h-400q13 -19 27.5 -56t14.5 -48q0 -14 -12 -14q-4 0 -7.5 4t-20.5 27q-35 46 -96 90q-18 13 -18 20q0 10 13 19q50 38 71 58.5t45 57.5q6 9 13 9q12 0 12 -15q0 -29 -42 -101h400z"/>
<glyph glyph-name="arrowup" horiz-adv-x="543" unicode="↑" d="M293 13h-41v500q-15 -15 -44.5 -33.5t-38.5 -18.5q-11 0 -11 15q0 8 14 23q44 47 82 132q10 23 17 23q8 0 15 -17q29 -60 45 -85.5t47 -59.5q8 -8 8 -16q0 -15 -12 -15q-23 0 -81 52v-500z"/>
<glyph glyph-name="arrowright" horiz-adv-x="543" unicode="→" d="M16 310v51h400q-13 19 -27.5 56t-14.5 48q0 14 12 14q4 0 8 -4t20 -27q35 -46 96 -90q18 -13 18 -20q0 -10 -13 -19q-50 -38 -71 -58.5t-45 -57.5q-6 -9 -13 -9q-12 0 -12 15q0 29 42 101h-400z"/>
<glyph glyph-name="arrowdown" horiz-adv-x="543" unicode="↓" d="M251 653h41v-500q16 16 45 34t38 18q11 0 11 -15q0 -8 -14 -22q-44 -49 -82 -132q-10 -23 -17 -23q-8 0 -15 16q-31 63 -46.5 88t-45.5 57q-8 9 -8 16q0 15 12 15q24 0 81 -52v500z"/>
<glyph glyph-name="partialdiff" horiz-adv-x="396" unicode="∂" d="M199 437q-30 0 -54 -28q-20 -24 -34 -78.5t-14 -109.5q0 -59 15.5 -113.5t37.5 -76.5q22 -20 45 -20q44 0 73 63t29 159q0 90 -27.5 147t-70.5 57zM121 665l12 16q54 -41 80 -68.5t55 -75.5q96 -160 96 -307q0 -106 -47.5 -174.5t-120.5 -68.5q-70 0 -117.5 68t-47.5 168 q0 102 48.5 170t120.5 68q31 0 50.5 -12.5t38.5 -45.5q-44 108 -77.5 160.5t-90.5 101.5z"/>
<glyph glyph-name="emptyset" horiz-adv-x="618" unicode="∅" d="M204 194l167 330q-28 9 -59 9q-78 0 -132.5 -54.5t-54.5 -131.5q0 -94 79 -153zM419 499l-166 -330q33 -9 58 -9q78 0 132.5 54.5t54.5 132.5q0 95 -79 152zM498 655l-53 -105q109 -75 109 -203q0 -101 -71 -172t-172 -71q-43 0 -84 15l-53 -106l-49 25l53 106 q-52 35 -80.5 88.5t-28.5 114.5q0 101 71 171.5t172 70.5q43 0 85 -15l53 106z"/>
<glyph glyph-name="product" horiz-adv-x="593" unicode="∏" d="M23 667h547v-18h-20q-38 0 -48 -13.5t-10 -66.5v-704q0 -53 9.5 -66.5t46.5 -13.5h22v-18h-220v18h19q39 0 49 13.5t10 66.5v704q0 53 -10 66.5t-49 13.5h-143q-39 0 -49 -13.5t-10 -66.5v-704q0 -53 10 -66.5t47 -13.5h21v-18h-219v18h19q38 0 48 13.5t10 66.5v704 q0 53 -10 66.5t-48 13.5h-22v18z"/>
<glyph glyph-name="summation" horiz-adv-x="543" unicode="∑" d="M52 667h408v-158h-15q-7 77 -36 105t-100 28h-180l165 -391l-190 -441h209q74 0 108 31q41 38 56 119h16l-27 -193h-414l194 449z"/>
<glyph glyph-name="minus" d="M48 308v59h333v-59h-333z" unicode="−"/>
<glyph glyph-name="radical" horiz-adv-x="543" unicode="√" d="M525 823v-26h-96l-148 -797h-60l-69 361h-134v26h183l63 -337l145 773h116z"/>
<glyph glyph-name="infinity" horiz-adv-x="594" unicode="∞" d="M272 314q-42 68 -73.5 94t-73.5 26q-36 0 -60.5 -29t-24.5 -71q0 -46 30 -73.5t79 -27.5q41 0 68 18t55 63zM315 357q41 -67 76.5 -96t77.5 -29q38 0 63.5 30t25.5 73q0 47 -31.5 75.5t-83.5 28.5q-43 0 -72 -18.5t-56 -63.5zM284 295q-38 -64 -66.5 -88t-67.5 -24 q-55 0 -93.5 42.5t-38.5 104.5q0 66 40.5 112.5t98.5 46.5q80 0 147 -115q3 4 5.5 7.5t4.5 6.5t2 4q25 40 32.5 50t20.5 21q31 27 75 27q57 0 96.5 -44.5t39.5 -108.5q0 -66 -42.5 -112.5t-102.5 -46.5q-41 0 -80.5 30.5t-70.5 86.5z"/>
<glyph glyph-name="intersection" horiz-adv-x="545" unicode="∩" d="M465 0h-75v422q0 102 -14 136q-17 43 -50 68t-73 25q-36 0 -68 -21t-50 -57q-15 -30 -20 -62.5t-5 -103.5v-407h-30v423q0 120 34 175q25 40 66 62t90 22q99 0 152 -72q26 -34 34.5 -69t8.5 -112v-429z"/>
<glyph glyph-name="union" horiz-adv-x="545" unicode="∪" d="M80 667h75v-422q0 -102 14 -136q17 -43 50 -68t73 -25q36 0 68 21t50 57q15 30 20 62.5t5 103.5v407h30v-423q0 -120 -34 -175q-25 -40 -66 -62t-90 -22q-99 0 -152 72q-26 34 -34.5 69t-8.5 112v429z"/>
<glyph glyph-name="similar" horiz-adv-x="442" unicode="∼" d="M376 397l18 -13q-14 -46 -41 -73.5t-57 -27.5q-21 0 -58 18q-78 35 -107 35q-20 0 -32.5 -10t-26.5 -38l-5 -10l-19 14q38 101 100 101q25 0 83 -27q49 -23 74 -23q45 0 71 54z"/>
<glyph glyph-name="approxequal" horiz-adv-x="446" unicode="≈" d="M406 320l13 -8q-26 -44 -59.5 -69t-67.5 -25q-17 0 -58 14q-79 29 -108 29q-26 0 -41 -10.5t-45 -49.5l-13 9q60 95 125 95q33 0 88 -22q48 -19 77 -19q47 0 89 56zM406 474l13 -8q-26 -44 -59.5 -69t-67.5 -25q-21 0 -58 14q-75 28 -108 28q-25 0 -43.5 -12.5 t-42.5 -46.5l-13 8q60 95 125 95q33 0 88 -22q49 -18 77 -18q48 0 89 56z"/>
<glyph glyph-name="notequal" horiz-adv-x="446" unicode="≠" d="M245 438l50 122l30 -16l-43 -106h139v-38h-154l-42 -102h196v-38h-212l-53 -132l-31 17l47 115h-147v38h163l41 102h-205v38h221z"/>
<glyph glyph-name="equivalence" horiz-adv-x="429" unicode="≡" d="M48 441v59h333v-59h-333zM48 307v59h333v-59h-333zM48 177v59h333v-59h-333z"/>
<glyph glyph-name="lessequal" horiz-adv-x="410" unicode="≤" d="M40 32h330v-32h-330v32zM370 612v-35l-256 -209l256 -213v-91l-330 275v6z"/>
<glyph glyph-name="greaterequal" horiz-adv-x="410" unicode="≥" d="M40 64v34l256 209l-256 214v91l330 -277v-6zM40 32h330v-32h-330v32z"/>
<glyph glyph-name="dotmath" horiz-adv-x="197" unicode="⋅" d="M99 292q19 0 33.5 -14t14.5 -34t-14 -34.5t-34 -14.5t-34.5 14.5t-14.5 34.5t14.5 34t34.5 14z"/>
<glyph glyph-name="lozenge" horiz-adv-x="543" unicode="◊" d="M272 604l-158 -270l158 -271l157 271zM272 693l207 -359l-207 -360l-208 360z"/>
<glyph glyph-name="spade" horiz-adv-x="543" unicode="♠" d="M91 0v18q55 13 81 28t51 50q42 63 45 159q-36 -102 -114 -102q-41 0 -69.5 37t-28.5 89q0 49 21.5 87t88.5 109q88 101 104 211q21 -79 41.5 -117t78.5 -105q58 -66 77.5 -103t19.5 -83q0 -52 -28 -88t-69 -36q-67 0 -112 101q5 -108 47 -163t134 -74v-18h-368z"/>
<glyph glyph-name="club" horiz-adv-x="543" unicode="♣" d="M453 0h-364v18q90 16 133 78.5t44 177.5q-15 -33 -27 -52q-22 -35 -53.5 -55t-63.5 -20q-47 0 -81 44.5t-34 107.5q0 61 31 104t75 43q22 0 56 -21l12 -8q-28 53 -28 100q0 59 34.5 101t83.5 42t83.5 -42t34.5 -101q0 -47 -28 -100q31 20 42 24.5t26 4.5q44 0 75 -43 t31 -104q0 -63 -34 -107.5t-82 -44.5q-30 0 -61 19.5t-51 49.5q-11 16 -31 58q1 -115 43.5 -177.5t133.5 -78.5v-18z"/>
<glyph glyph-name="heart" horiz-adv-x="543" unicode="♥" d="M271 -11q-13 66 -41.5 127.5t-107.5 193.5q-43 73 -57.5 112t-14.5 82q0 57 30 96t73 39q85 0 118 -130q14 63 44.5 97t71.5 34q45 0 76 -38t31 -94q0 -49 -19.5 -100t-68.5 -128q-115 -179 -135 -291z"/>
<glyph glyph-name="diamond" horiz-adv-x="543" unicode="♦" d="M271 693q18 -47 89.5 -173t114.5 -186q-126 -185 -204 -360q-58 138 -202 360q149 234 202 359z"/>
</font>
</defs>
</svg>
